<?xml version="1.0" encoding="UTF-8" standalone="no"?>
<!DOCTYPE svg PUBLIC "-//W3C//DTD SVG 1.1//EN"
 "http://www.w3.org/Graphics/SVG/1.1/DTD/svg11.dtd">
<!-- Generated by graphviz version 2.40.1 (20161225.0304)
 -->
<!-- Title: snakemake_dag Pages: 1 -->
<svg width="2187pt" height="1412pt"
 viewBox="0.00 0.00 2187.18 1412.00" xmlns="http://www.w3.org/2000/svg" xmlns:xlink="http://www.w3.org/1999/xlink">
<g id="graph0" class="graph" transform="scale(1 1) rotate(0) translate(4 1408)">
<title>snakemake_dag</title>
<polygon fill="#ffffff" stroke="transparent" points="-4,4 -4,-1408 2183.1831,-1408 2183.1831,4 -4,4"/>
<!-- 0 -->
<g id="node1" class="node">
<title>0</title>
<path fill="none" stroke="#d6d856" stroke-width="2" d="M729,-36C729,-36 699,-36 699,-36 693,-36 687,-30 687,-24 687,-24 687,-12 687,-12 687,-6 693,0 699,0 699,0 729,0 729,0 735,0 741,-6 741,-12 741,-12 741,-24 741,-24 741,-30 735,-36 729,-36"/>
<text text-anchor="middle" x="714" y="-15.5" font-family="sans" font-size="10.00" fill="#000000">all</text>
</g>
<!-- 1 -->
<g id="node2" class="node">
<title>1</title>
<path fill="none" stroke="#d88556" stroke-width="2" d="M716.5,-108C716.5,-108 627.5,-108 627.5,-108 621.5,-108 615.5,-102 615.5,-96 615.5,-96 615.5,-84 615.5,-84 615.5,-78 621.5,-72 627.5,-72 627.5,-72 716.5,-72 716.5,-72 722.5,-72 728.5,-78 728.5,-84 728.5,-84 728.5,-96 728.5,-96 728.5,-102 722.5,-108 716.5,-108"/>
<text text-anchor="middle" x="672" y="-87.5" font-family="sans" font-size="10.00" fill="#000000">multiomic_report_R</text>
</g>
<!-- 1&#45;&gt;0 -->
<g id="edge1" class="edge">
<title>1&#45;&gt;0</title>
<path fill="none" stroke="#c0c0c0" stroke-width="2" d="M682.5984,-71.8314C687.2877,-63.7925 692.9028,-54.1666 698.0798,-45.2918"/>
<polygon fill="#c0c0c0" stroke="#c0c0c0" stroke-width="2" points="701.2434,-46.8146 703.2589,-36.4133 695.1969,-43.2875 701.2434,-46.8146"/>
</g>
<!-- 2 -->
<g id="node3" class="node">
<title>2</title>
<path fill="none" stroke="#56c9d8" stroke-width="2" stroke-dasharray="5,2" d="M808,-180C808,-180 752,-180 752,-180 746,-180 740,-174 740,-168 740,-168 740,-156 740,-156 740,-150 746,-144 752,-144 752,-144 808,-144 808,-144 814,-144 820,-150 820,-156 820,-156 820,-168 820,-168 820,-174 814,-180 808,-180"/>
<text text-anchor="middle" x="780" y="-159.5" font-family="sans" font-size="10.00" fill="#000000">HINT_bigBed</text>
</g>
<!-- 2&#45;&gt;0 -->
<g id="edge2" class="edge">
<title>2&#45;&gt;0</title>
<path fill="none" stroke="#c0c0c0" stroke-width="2" d="M771.6411,-143.7623C760.235,-118.8764 739.7044,-74.0822 726.4742,-45.2165"/>
<polygon fill="#c0c0c0" stroke="#c0c0c0" stroke-width="2" points="729.6394,-43.722 722.2911,-36.0896 723.2759,-46.6386 729.6394,-43.722"/>
</g>
<!-- 3 -->
<g id="node4" class="node">
<title>3</title>
<path fill="none" stroke="#d89556" stroke-width="2" stroke-dasharray="5,2" d="M709.5,-180C709.5,-180 590.5,-180 590.5,-180 584.5,-180 578.5,-174 578.5,-168 578.5,-168 578.5,-156 578.5,-156 578.5,-150 584.5,-144 590.5,-144 590.5,-144 709.5,-144 709.5,-144 715.5,-144 721.5,-150 721.5,-156 721.5,-156 721.5,-168 721.5,-168 721.5,-174 715.5,-180 709.5,-180"/>
<text text-anchor="middle" x="650" y="-159.5" font-family="sans" font-size="10.00" fill="#000000">clean_all_common_peaks</text>
</g>
<!-- 3&#45;&gt;1 -->
<g id="edge3" class="edge">
<title>3&#45;&gt;1</title>
<path fill="none" stroke="#c0c0c0" stroke-width="2" d="M655.5515,-143.8314C657.9303,-136.0463 660.7638,-126.7729 663.4033,-118.1347"/>
<polygon fill="#c0c0c0" stroke="#c0c0c0" stroke-width="2" points="666.7987,-118.9996 666.3737,-108.4133 660.1042,-116.954 666.7987,-118.9996"/>
</g>
<!-- 4 -->
<g id="node5" class="node">
<title>4</title>
<path fill="none" stroke="#56d8c1" stroke-width="2" stroke-dasharray="5,2" d="M878,-540C878,-540 754,-540 754,-540 748,-540 742,-534 742,-528 742,-528 742,-516 742,-516 742,-510 748,-504 754,-504 754,-504 878,-504 878,-504 884,-504 890,-510 890,-516 890,-516 890,-528 890,-528 890,-534 884,-540 878,-540"/>
<text text-anchor="middle" x="816" y="-519.5" font-family="sans" font-size="10.00" fill="#000000">common_peaks_across_all</text>
</g>
<!-- 4&#45;&gt;2 -->
<g id="edge4" class="edge">
<title>4&#45;&gt;2</title>
<path fill="none" stroke="#c0c0c0" stroke-width="2" d="M814.5192,-503.8315C813.9259,-483.534 816.3198,-451.0336 835,-432 884.8408,-381.2161 946.702,-451.6848 991,-396 1000.9608,-383.4787 997.357,-374.6829 991,-360 956.3557,-279.981 871.6872,-217.4461 820.7585,-185.4731"/>
<polygon fill="#c0c0c0" stroke="#c0c0c0" stroke-width="2" points="822.316,-182.3215 811.968,-180.0474 818.6393,-188.2782 822.316,-182.3215"/>
</g>
<!-- 5 -->
<g id="node6" class="node">
<title>5</title>
<path fill="none" stroke="#61d856" stroke-width="2" stroke-dasharray="5,2" d="M778.5,-252C778.5,-252 651.5,-252 651.5,-252 645.5,-252 639.5,-246 639.5,-240 639.5,-240 639.5,-228 639.5,-228 639.5,-222 645.5,-216 651.5,-216 651.5,-216 778.5,-216 778.5,-216 784.5,-216 790.5,-222 790.5,-228 790.5,-228 790.5,-240 790.5,-240 790.5,-246 784.5,-252 778.5,-252"/>
<text text-anchor="middle" x="715" y="-231.5" font-family="sans" font-size="10.00" fill="#000000">HINT_interesting_footprints</text>
</g>
<!-- 4&#45;&gt;5 -->
<g id="edge14" class="edge">
<title>4&#45;&gt;5</title>
<path fill="none" stroke="#c0c0c0" stroke-width="2" d="M809.9047,-503.6279C801.8486,-482.4949 785.494,-448.5846 759,-432 698.5313,-394.148 487.5317,-449.1975 440,-396 375.6217,-323.9477 526.5376,-274.8897 629.3209,-250.9307"/>
<polygon fill="#c0c0c0" stroke="#c0c0c0" stroke-width="2" points="630.1415,-254.3335 639.1086,-248.6906 628.5797,-247.5099 630.1415,-254.3335"/>
</g>
<!-- 6 -->
<g id="node7" class="node">
<title>6</title>
<path fill="none" stroke="#bed856" stroke-width="2" stroke-dasharray="5,2" d="M258,-468C258,-468 104,-468 104,-468 98,-468 92,-462 92,-456 92,-456 92,-444 92,-444 92,-438 98,-432 104,-432 104,-432 258,-432 258,-432 264,-432 270,-438 270,-444 270,-444 270,-456 270,-456 270,-462 264,-468 258,-468"/>
<text text-anchor="middle" x="181" y="-447.5" font-family="sans" font-size="10.00" fill="#000000">find_closest_TSS_to_all_common</text>
</g>
<!-- 4&#45;&gt;6 -->
<g id="edge17" class="edge">
<title>4&#45;&gt;6</title>
<path fill="none" stroke="#c0c0c0" stroke-width="2" d="M741.9555,-514.4984C709.9816,-511.2626 672.149,-507.4388 638,-504 481.7231,-488.2628 439.4876,-490.4055 280.3022,-468.1253"/>
<polygon fill="#c0c0c0" stroke="#c0c0c0" stroke-width="2" points="280.5384,-464.6241 270.1476,-466.6933 279.5609,-471.5555 280.5384,-464.6241"/>
</g>
<!-- 5&#45;&gt;2 -->
<g id="edge5" class="edge">
<title>5&#45;&gt;2</title>
<path fill="none" stroke="#c0c0c0" stroke-width="2" d="M731.4022,-215.8314C739.0415,-207.3694 748.2683,-197.1489 756.6207,-187.8971"/>
<polygon fill="#c0c0c0" stroke="#c0c0c0" stroke-width="2" points="759.2738,-190.1813 763.3769,-180.4133 754.0779,-185.4906 759.2738,-190.1813"/>
</g>
<!-- 5&#45;&gt;3 -->
<g id="edge6" class="edge">
<title>5&#45;&gt;3</title>
<path fill="none" stroke="#c0c0c0" stroke-width="2" d="M698.5978,-215.8314C690.9585,-207.3694 681.7317,-197.1489 673.3793,-187.8971"/>
<polygon fill="#c0c0c0" stroke="#c0c0c0" stroke-width="2" points="675.9221,-185.4906 666.6231,-180.4133 670.7262,-190.1813 675.9221,-185.4906"/>
</g>
<!-- 6&#45;&gt;3 -->
<g id="edge7" class="edge">
<title>6&#45;&gt;3</title>
<path fill="none" stroke="#c0c0c0" stroke-width="2" d="M210.1704,-431.9907C258.6748,-402.0542 358.991,-340.1792 444,-288 502.4188,-252.1421 570.2462,-210.6904 611.6339,-185.4173"/>
<polygon fill="#c0c0c0" stroke="#c0c0c0" stroke-width="2" points="613.5923,-188.3224 620.3032,-180.1239 609.9444,-182.348 613.5923,-188.3224"/>
</g>
<!-- 7 -->
<g id="node8" class="node">
<title>7</title>
<path fill="none" stroke="#88d856" stroke-width="2" stroke-dasharray="5,2" d="M1081,-612C1081,-612 1005,-612 1005,-612 999,-612 993,-606 993,-600 993,-600 993,-588 993,-588 993,-582 999,-576 1005,-576 1005,-576 1081,-576 1081,-576 1087,-576 1093,-582 1093,-588 1093,-588 1093,-600 1093,-600 1093,-606 1087,-612 1081,-612"/>
<text text-anchor="middle" x="1043" y="-591.5" font-family="sans" font-size="10.00" fill="#000000">HINT_motif_scan</text>
</g>
<!-- 7&#45;&gt;4 -->
<g id="edge8" class="edge">
<title>7&#45;&gt;4</title>
<path fill="none" stroke="#c0c0c0" stroke-width="2" d="M992.9029,-578.1102C960.4412,-567.814 917.7918,-554.2864 882.5034,-543.0936"/>
<polygon fill="#c0c0c0" stroke="#c0c0c0" stroke-width="2" points="883.3503,-539.6904 872.7601,-540.0032 881.2339,-546.3628 883.3503,-539.6904"/>
</g>
<!-- 35 -->
<g id="node36" class="node">
<title>35</title>
<path fill="none" stroke="#a7d856" stroke-width="2" stroke-dasharray="5,2" d="M976,-468C976,-468 856,-468 856,-468 850,-468 844,-462 844,-456 844,-456 844,-444 844,-444 844,-438 850,-432 856,-432 856,-432 976,-432 976,-432 982,-432 988,-438 988,-444 988,-444 988,-456 988,-456 988,-462 982,-468 976,-468"/>
<text text-anchor="middle" x="916" y="-453" font-family="sans" font-size="10.00" fill="#000000">HINT_motif_scan_chunker</text>
<text text-anchor="middle" x="916" y="-442" font-family="sans" font-size="10.00" fill="#000000">chunk: xac</text>
</g>
<!-- 7&#45;&gt;35 -->
<g id="edge75" class="edge">
<title>7&#45;&gt;35</title>
<path fill="none" stroke="#c0c0c0" stroke-width="2" d="M1003.8858,-575.8275C987.7654,-566.8361 969.8857,-554.7278 957,-540 941.283,-522.0361 930.5454,-497.0428 924.014,-477.9516"/>
<polygon fill="#c0c0c0" stroke="#c0c0c0" stroke-width="2" points="927.302,-476.7437 920.8956,-468.3052 920.6414,-478.897 927.302,-476.7437"/>
</g>
<!-- 39 -->
<g id="node40" class="node">
<title>39</title>
<path fill="none" stroke="#a7d856" stroke-width="2" stroke-dasharray="5,2" d="M1138,-468C1138,-468 1018,-468 1018,-468 1012,-468 1006,-462 1006,-456 1006,-456 1006,-444 1006,-444 1006,-438 1012,-432 1018,-432 1018,-432 1138,-432 1138,-432 1144,-432 1150,-438 1150,-444 1150,-444 1150,-456 1150,-456 1150,-462 1144,-468 1138,-468"/>
<text text-anchor="middle" x="1078" y="-453" font-family="sans" font-size="10.00" fill="#000000">HINT_motif_scan_chunker</text>
<text text-anchor="middle" x="1078" y="-442" font-family="sans" font-size="10.00" fill="#000000">chunk: xab</text>
</g>
<!-- 7&#45;&gt;39 -->
<g id="edge81" class="edge">
<title>7&#45;&gt;39</title>
<path fill="none" stroke="#c0c0c0" stroke-width="2" d="M1048.8474,-575.6066C1052.0519,-565.211 1055.9752,-551.943 1059,-540 1064.2196,-519.3915 1069.1486,-495.8788 1072.6777,-478.0553"/>
<polygon fill="#c0c0c0" stroke="#c0c0c0" stroke-width="2" points="1076.1545,-478.5124 1074.6348,-468.0272 1069.2841,-477.1716 1076.1545,-478.5124"/>
</g>
<!-- 51 -->
<g id="node52" class="node">
<title>51</title>
<path fill="none" stroke="#56d8b1" stroke-width="2" stroke-dasharray="5,2" d="M1038,-540C1038,-540 978,-540 978,-540 972,-540 966,-534 966,-528 966,-528 966,-516 966,-516 966,-510 972,-504 978,-504 978,-504 1038,-504 1038,-504 1044,-504 1050,-510 1050,-516 1050,-516 1050,-528 1050,-528 1050,-534 1044,-540 1038,-540"/>
<text text-anchor="middle" x="1008" y="-519.5" font-family="sans" font-size="10.00" fill="#000000">make_chunks</text>
</g>
<!-- 7&#45;&gt;51 -->
<g id="edge96" class="edge">
<title>7&#45;&gt;51</title>
<path fill="none" stroke="#c0c0c0" stroke-width="2" d="M1034.168,-575.8314C1030.3014,-567.8771 1025.6794,-558.369 1021.4032,-549.5723"/>
<polygon fill="#c0c0c0" stroke="#c0c0c0" stroke-width="2" points="1024.4707,-547.8768 1016.9509,-540.4133 1018.1751,-550.9371 1024.4707,-547.8768"/>
</g>
<!-- 8 -->
<g id="node9" class="node">
<title>8</title>
<path fill="none" stroke="#88d856" stroke-width="2" stroke-dasharray="5,2" d="M625,-612C625,-612 549,-612 549,-612 543,-612 537,-606 537,-600 537,-600 537,-588 537,-588 537,-582 543,-576 549,-576 549,-576 625,-576 625,-576 631,-576 637,-582 637,-588 637,-588 637,-600 637,-600 637,-606 631,-612 625,-612"/>
<text text-anchor="middle" x="587" y="-591.5" font-family="sans" font-size="10.00" fill="#000000">HINT_motif_scan</text>
</g>
<!-- 8&#45;&gt;4 -->
<g id="edge9" class="edge">
<title>8&#45;&gt;4</title>
<path fill="none" stroke="#c0c0c0" stroke-width="2" d="M637.255,-578.1993C669.989,-567.9074 713.0806,-554.3589 748.7519,-543.1435"/>
<polygon fill="#c0c0c0" stroke="#c0c0c0" stroke-width="2" points="750.1117,-546.385 758.6015,-540.0467 748.0121,-539.7072 750.1117,-546.385"/>
</g>
<!-- 41 -->
<g id="node42" class="node">
<title>41</title>
<path fill="none" stroke="#a7d856" stroke-width="2" stroke-dasharray="5,2" d="M738,-468C738,-468 618,-468 618,-468 612,-468 606,-462 606,-456 606,-456 606,-444 606,-444 606,-438 612,-432 618,-432 618,-432 738,-432 738,-432 744,-432 750,-438 750,-444 750,-444 750,-456 750,-456 750,-462 744,-468 738,-468"/>
<text text-anchor="middle" x="678" y="-453" font-family="sans" font-size="10.00" fill="#000000">HINT_motif_scan_chunker</text>
<text text-anchor="middle" x="678" y="-442" font-family="sans" font-size="10.00" fill="#000000">chunk: xac</text>
</g>
<!-- 8&#45;&gt;41 -->
<g id="edge85" class="edge">
<title>8&#45;&gt;41</title>
<path fill="none" stroke="#c0c0c0" stroke-width="2" d="M607.1238,-575.8658C617.2881,-565.9719 629.2796,-553.0941 638,-540 650.9551,-520.5474 661.4793,-496.2098 668.4752,-477.7495"/>
<polygon fill="#c0c0c0" stroke="#c0c0c0" stroke-width="2" points="671.8324,-478.7604 671.9918,-468.1667 665.2609,-476.3487 671.8324,-478.7604"/>
</g>
<!-- 43 -->
<g id="node44" class="node">
<title>43</title>
<path fill="none" stroke="#a7d856" stroke-width="2" stroke-dasharray="5,2" d="M576,-468C576,-468 456,-468 456,-468 450,-468 444,-462 444,-456 444,-456 444,-444 444,-444 444,-438 450,-432 456,-432 456,-432 576,-432 576,-432 582,-432 588,-438 588,-444 588,-444 588,-456 588,-456 588,-462 582,-468 576,-468"/>
<text text-anchor="middle" x="516" y="-453" font-family="sans" font-size="10.00" fill="#000000">HINT_motif_scan_chunker</text>
<text text-anchor="middle" x="516" y="-442" font-family="sans" font-size="10.00" fill="#000000">chunk: xab</text>
</g>
<!-- 8&#45;&gt;43 -->
<g id="edge88" class="edge">
<title>8&#45;&gt;43</title>
<path fill="none" stroke="#c0c0c0" stroke-width="2" d="M564.9937,-575.8039C554.7172,-566.1773 543.1914,-553.5559 536,-540 525.8418,-520.8518 520.8342,-496.7772 518.3705,-478.3465"/>
<polygon fill="#c0c0c0" stroke="#c0c0c0" stroke-width="2" points="521.8255,-477.7558 517.1942,-468.2269 514.8723,-478.5642 521.8255,-477.7558"/>
</g>
<!-- 53 -->
<g id="node54" class="node">
<title>53</title>
<path fill="none" stroke="#56d8b1" stroke-width="2" stroke-dasharray="5,2" d="M617,-540C617,-540 557,-540 557,-540 551,-540 545,-534 545,-528 545,-528 545,-516 545,-516 545,-510 551,-504 557,-504 557,-504 617,-504 617,-504 623,-504 629,-510 629,-516 629,-516 629,-528 629,-528 629,-534 623,-540 617,-540"/>
<text text-anchor="middle" x="587" y="-519.5" font-family="sans" font-size="10.00" fill="#000000">make_chunks</text>
</g>
<!-- 8&#45;&gt;53 -->
<g id="edge98" class="edge">
<title>8&#45;&gt;53</title>
<path fill="none" stroke="#c0c0c0" stroke-width="2" d="M587,-575.8314C587,-568.131 587,-558.9743 587,-550.4166"/>
<polygon fill="#c0c0c0" stroke="#c0c0c0" stroke-width="2" points="590.5001,-550.4132 587,-540.4133 583.5001,-550.4133 590.5001,-550.4132"/>
</g>
<!-- 9 -->
<g id="node10" class="node">
<title>9</title>
<path fill="none" stroke="#88d856" stroke-width="2" stroke-dasharray="5,2" d="M1387,-612C1387,-612 1311,-612 1311,-612 1305,-612 1299,-606 1299,-600 1299,-600 1299,-588 1299,-588 1299,-582 1305,-576 1311,-576 1311,-576 1387,-576 1387,-576 1393,-576 1399,-582 1399,-588 1399,-588 1399,-600 1399,-600 1399,-606 1393,-612 1387,-612"/>
<text text-anchor="middle" x="1349" y="-591.5" font-family="sans" font-size="10.00" fill="#000000">HINT_motif_scan</text>
</g>
<!-- 9&#45;&gt;4 -->
<g id="edge10" class="edge">
<title>9&#45;&gt;4</title>
<path fill="none" stroke="#c0c0c0" stroke-width="2" d="M1298.8567,-587.2264C1207.2909,-574.8573 1012.145,-548.4961 899.9905,-533.3458"/>
<polygon fill="#c0c0c0" stroke="#c0c0c0" stroke-width="2" points="900.4462,-529.8757 890.0676,-532.0054 899.509,-536.8126 900.4462,-529.8757"/>
</g>
<!-- 36 -->
<g id="node37" class="node">
<title>36</title>
<path fill="none" stroke="#a7d856" stroke-width="2" stroke-dasharray="5,2" d="M1456,-468C1456,-468 1336,-468 1336,-468 1330,-468 1324,-462 1324,-456 1324,-456 1324,-444 1324,-444 1324,-438 1330,-432 1336,-432 1336,-432 1456,-432 1456,-432 1462,-432 1468,-438 1468,-444 1468,-444 1468,-456 1468,-456 1468,-462 1462,-468 1456,-468"/>
<text text-anchor="middle" x="1396" y="-453" font-family="sans" font-size="10.00" fill="#000000">HINT_motif_scan_chunker</text>
<text text-anchor="middle" x="1396" y="-442" font-family="sans" font-size="10.00" fill="#000000">chunk: xac</text>
</g>
<!-- 9&#45;&gt;36 -->
<g id="edge77" class="edge">
<title>9&#45;&gt;36</title>
<path fill="none" stroke="#c0c0c0" stroke-width="2" d="M1351.3844,-575.6741C1354.1296,-557.2019 1359.4019,-528.0609 1368,-504 1371.2016,-495.0406 1375.6176,-485.6993 1379.9968,-477.3545"/>
<polygon fill="#c0c0c0" stroke="#c0c0c0" stroke-width="2" points="1383.1483,-478.8857 1384.8586,-468.4298 1377.0012,-475.5369 1383.1483,-478.8857"/>
</g>
<!-- 40 -->
<g id="node41" class="node">
<title>40</title>
<path fill="none" stroke="#a7d856" stroke-width="2" stroke-dasharray="5,2" d="M1618,-468C1618,-468 1498,-468 1498,-468 1492,-468 1486,-462 1486,-456 1486,-456 1486,-444 1486,-444 1486,-438 1492,-432 1498,-432 1498,-432 1618,-432 1618,-432 1624,-432 1630,-438 1630,-444 1630,-444 1630,-456 1630,-456 1630,-462 1624,-468 1618,-468"/>
<text text-anchor="middle" x="1558" y="-453" font-family="sans" font-size="10.00" fill="#000000">HINT_motif_scan_chunker</text>
<text text-anchor="middle" x="1558" y="-442" font-family="sans" font-size="10.00" fill="#000000">chunk: xab</text>
</g>
<!-- 9&#45;&gt;40 -->
<g id="edge83" class="edge">
<title>9&#45;&gt;40</title>
<path fill="none" stroke="#c0c0c0" stroke-width="2" d="M1399.2234,-576.5384C1421.8982,-567.4399 1448.3837,-555.0501 1470,-540 1495.8926,-521.9726 1520.5691,-495.6538 1537.1659,-476.1294"/>
<polygon fill="#c0c0c0" stroke="#c0c0c0" stroke-width="2" points="1540.0447,-478.1423 1543.7642,-468.2218 1534.67,-473.6576 1540.0447,-478.1423"/>
</g>
<!-- 52 -->
<g id="node53" class="node">
<title>52</title>
<path fill="none" stroke="#56d8b1" stroke-width="2" stroke-dasharray="5,2" d="M1449,-540C1449,-540 1389,-540 1389,-540 1383,-540 1377,-534 1377,-528 1377,-528 1377,-516 1377,-516 1377,-510 1383,-504 1389,-504 1389,-504 1449,-504 1449,-504 1455,-504 1461,-510 1461,-516 1461,-516 1461,-528 1461,-528 1461,-534 1455,-540 1449,-540"/>
<text text-anchor="middle" x="1419" y="-519.5" font-family="sans" font-size="10.00" fill="#000000">make_chunks</text>
</g>
<!-- 9&#45;&gt;52 -->
<g id="edge97" class="edge">
<title>9&#45;&gt;52</title>
<path fill="none" stroke="#c0c0c0" stroke-width="2" d="M1366.664,-575.8314C1374.9732,-567.2848 1385.0264,-556.9443 1394.0918,-547.6198"/>
<polygon fill="#c0c0c0" stroke="#c0c0c0" stroke-width="2" points="1396.6369,-550.023 1401.0982,-540.4133 1391.6179,-545.1435 1396.6369,-550.023"/>
</g>
<!-- 10 -->
<g id="node11" class="node">
<title>10</title>
<path fill="none" stroke="#5663d8" stroke-width="2" stroke-dasharray="5,2" d="M935,-756C935,-756 821,-756 821,-756 815,-756 809,-750 809,-744 809,-744 809,-732 809,-732 809,-726 815,-720 821,-720 821,-720 935,-720 935,-720 941,-720 947,-726 947,-732 947,-732 947,-744 947,-744 947,-750 941,-756 935,-756"/>
<text text-anchor="middle" x="878" y="-735.5" font-family="sans" font-size="10.00" fill="#000000">common_peaks_by_type</text>
</g>
<!-- 10&#45;&gt;4 -->
<g id="edge11" class="edge">
<title>10&#45;&gt;4</title>
<path fill="none" stroke="#c0c0c0" stroke-width="2" d="M871.1299,-719.6253C867.3476,-709.2356 862.6873,-695.9672 859,-684 844.6815,-637.5289 830.7337,-582.6979 822.7738,-550.2231"/>
<polygon fill="#c0c0c0" stroke="#c0c0c0" stroke-width="2" points="826.0783,-548.9996 820.3121,-540.1113 819.2769,-550.6554 826.0783,-548.9996"/>
</g>
<!-- 16 -->
<g id="node17" class="node">
<title>16</title>
<path fill="none" stroke="#56d86b" stroke-width="2" stroke-dasharray="5,2" d="M972.5,-684C972.5,-684 879.5,-684 879.5,-684 873.5,-684 867.5,-678 867.5,-672 867.5,-672 867.5,-660 867.5,-660 867.5,-654 873.5,-648 879.5,-648 879.5,-648 972.5,-648 972.5,-648 978.5,-648 984.5,-654 984.5,-660 984.5,-660 984.5,-672 984.5,-672 984.5,-678 978.5,-684 972.5,-684"/>
<text text-anchor="middle" x="926" y="-663.5" font-family="sans" font-size="10.00" fill="#000000">union_HINT_by_type</text>
</g>
<!-- 10&#45;&gt;16 -->
<g id="edge33" class="edge">
<title>10&#45;&gt;16</title>
<path fill="none" stroke="#c0c0c0" stroke-width="2" d="M890.1124,-719.8314C895.5281,-711.7079 902.0242,-701.9637 907.9921,-693.0118"/>
<polygon fill="#c0c0c0" stroke="#c0c0c0" stroke-width="2" points="911.0896,-694.6753 913.7245,-684.4133 905.2653,-690.7923 911.0896,-694.6753"/>
</g>
<!-- 11 -->
<g id="node12" class="node">
<title>11</title>
<path fill="none" stroke="#5663d8" stroke-width="2" stroke-dasharray="5,2" d="M722,-756C722,-756 608,-756 608,-756 602,-756 596,-750 596,-744 596,-744 596,-732 596,-732 596,-726 602,-720 608,-720 608,-720 722,-720 722,-720 728,-720 734,-726 734,-732 734,-732 734,-744 734,-744 734,-750 728,-756 722,-756"/>
<text text-anchor="middle" x="665" y="-735.5" font-family="sans" font-size="10.00" fill="#000000">common_peaks_by_type</text>
</g>
<!-- 11&#45;&gt;4 -->
<g id="edge12" class="edge">
<title>11&#45;&gt;4</title>
<path fill="none" stroke="#c0c0c0" stroke-width="2" d="M665.6844,-719.9997C667.0917,-701.0079 671.3301,-670.7385 684,-648 707.6095,-605.6282 750.1933,-568.8705 780.6108,-546.1674"/>
<polygon fill="#c0c0c0" stroke="#c0c0c0" stroke-width="2" points="782.8389,-548.874 788.8416,-540.1437 778.7048,-543.2252 782.8389,-548.874"/>
</g>
<!-- 17 -->
<g id="node18" class="node">
<title>17</title>
<path fill="none" stroke="#56d86b" stroke-width="2" stroke-dasharray="5,2" d="M798.5,-684C798.5,-684 705.5,-684 705.5,-684 699.5,-684 693.5,-678 693.5,-672 693.5,-672 693.5,-660 693.5,-660 693.5,-654 699.5,-648 705.5,-648 705.5,-648 798.5,-648 798.5,-648 804.5,-648 810.5,-654 810.5,-660 810.5,-660 810.5,-672 810.5,-672 810.5,-678 804.5,-684 798.5,-684"/>
<text text-anchor="middle" x="752" y="-663.5" font-family="sans" font-size="10.00" fill="#000000">union_HINT_by_type</text>
</g>
<!-- 11&#45;&gt;17 -->
<g id="edge35" class="edge">
<title>11&#45;&gt;17</title>
<path fill="none" stroke="#c0c0c0" stroke-width="2" d="M686.9538,-719.8314C697.6695,-710.9632 710.7189,-700.1637 722.309,-690.5718"/>
<polygon fill="#c0c0c0" stroke="#c0c0c0" stroke-width="2" points="724.5808,-693.2349 730.0533,-684.1628 720.1178,-687.8422 724.5808,-693.2349"/>
</g>
<!-- 12 -->
<g id="node13" class="node">
<title>12</title>
<path fill="none" stroke="#5663d8" stroke-width="2" stroke-dasharray="5,2" d="M1167,-756C1167,-756 1053,-756 1053,-756 1047,-756 1041,-750 1041,-744 1041,-744 1041,-732 1041,-732 1041,-726 1047,-720 1053,-720 1053,-720 1167,-720 1167,-720 1173,-720 1179,-726 1179,-732 1179,-732 1179,-744 1179,-744 1179,-750 1173,-756 1167,-756"/>
<text text-anchor="middle" x="1110" y="-735.5" font-family="sans" font-size="10.00" fill="#000000">common_peaks_by_type</text>
</g>
<!-- 12&#45;&gt;4 -->
<g id="edge13" class="edge">
<title>12&#45;&gt;4</title>
<path fill="none" stroke="#c0c0c0" stroke-width="2" d="M1087.1186,-719.7697C1063.8845,-701.3718 1026.7627,-672.2874 994,-648 944.7231,-611.4705 886.5261,-570.7128 850.4352,-545.709"/>
<polygon fill="#c0c0c0" stroke="#c0c0c0" stroke-width="2" points="852.4123,-542.8209 842.1973,-540.0095 848.4295,-548.5774 852.4123,-542.8209"/>
</g>
<!-- 18 -->
<g id="node19" class="node">
<title>18</title>
<path fill="none" stroke="#56d86b" stroke-width="2" stroke-dasharray="5,2" d="M1371.5,-684C1371.5,-684 1278.5,-684 1278.5,-684 1272.5,-684 1266.5,-678 1266.5,-672 1266.5,-672 1266.5,-660 1266.5,-660 1266.5,-654 1272.5,-648 1278.5,-648 1278.5,-648 1371.5,-648 1371.5,-648 1377.5,-648 1383.5,-654 1383.5,-660 1383.5,-660 1383.5,-672 1383.5,-672 1383.5,-678 1377.5,-684 1371.5,-684"/>
<text text-anchor="middle" x="1325" y="-663.5" font-family="sans" font-size="10.00" fill="#000000">union_HINT_by_type</text>
</g>
<!-- 12&#45;&gt;18 -->
<g id="edge37" class="edge">
<title>12&#45;&gt;18</title>
<path fill="none" stroke="#c0c0c0" stroke-width="2" d="M1163.9761,-719.9243C1193.4956,-710.0387 1230.2444,-697.7321 1261.1789,-687.3726"/>
<polygon fill="#c0c0c0" stroke="#c0c0c0" stroke-width="2" points="1262.6308,-690.5776 1271.0017,-684.0831 1260.4079,-683.9399 1262.6308,-690.5776"/>
</g>
<!-- 13 -->
<g id="node14" class="node">
<title>13</title>
<path fill="none" stroke="#566bd8" stroke-width="2" stroke-dasharray="5,2" d="M1293.5,-324C1293.5,-324 1180.5,-324 1180.5,-324 1174.5,-324 1168.5,-318 1168.5,-312 1168.5,-312 1168.5,-300 1168.5,-300 1168.5,-294 1174.5,-288 1180.5,-288 1180.5,-288 1293.5,-288 1293.5,-288 1299.5,-288 1305.5,-294 1305.5,-300 1305.5,-300 1305.5,-312 1305.5,-312 1305.5,-318 1299.5,-324 1293.5,-324"/>
<text text-anchor="middle" x="1237" y="-303.5" font-family="sans" font-size="10.00" fill="#000000">merge_HINT_diff_results</text>
</g>
<!-- 13&#45;&gt;5 -->
<g id="edge15" class="edge">
<title>13&#45;&gt;5</title>
<path fill="none" stroke="#c0c0c0" stroke-width="2" d="M1168.4894,-296.5503C1073.9955,-283.5166 903.7065,-260.0285 800.8374,-245.8396"/>
<polygon fill="#c0c0c0" stroke="#c0c0c0" stroke-width="2" points="801.1749,-242.3531 790.7905,-244.4539 800.2184,-249.2875 801.1749,-242.3531"/>
</g>
<!-- 14 -->
<g id="node15" class="node">
<title>14</title>
<path fill="none" stroke="#566bd8" stroke-width="2" stroke-dasharray="5,2" d="M771.5,-324C771.5,-324 658.5,-324 658.5,-324 652.5,-324 646.5,-318 646.5,-312 646.5,-312 646.5,-300 646.5,-300 646.5,-294 652.5,-288 658.5,-288 658.5,-288 771.5,-288 771.5,-288 777.5,-288 783.5,-294 783.5,-300 783.5,-300 783.5,-312 783.5,-312 783.5,-318 777.5,-324 771.5,-324"/>
<text text-anchor="middle" x="715" y="-303.5" font-family="sans" font-size="10.00" fill="#000000">merge_HINT_diff_results</text>
</g>
<!-- 14&#45;&gt;5 -->
<g id="edge16" class="edge">
<title>14&#45;&gt;5</title>
<path fill="none" stroke="#c0c0c0" stroke-width="2" d="M715,-287.8314C715,-280.131 715,-270.9743 715,-262.4166"/>
<polygon fill="#c0c0c0" stroke="#c0c0c0" stroke-width="2" points="718.5001,-262.4132 715,-252.4133 711.5001,-262.4133 718.5001,-262.4132"/>
</g>
<!-- 15 -->
<g id="node16" class="node">
<title>15</title>
<path fill="none" stroke="#56d8a9" stroke-width="2" stroke-dasharray="5,2" d="M219.5,-540C219.5,-540 142.5,-540 142.5,-540 136.5,-540 130.5,-534 130.5,-528 130.5,-528 130.5,-516 130.5,-516 130.5,-510 136.5,-504 142.5,-504 142.5,-504 219.5,-504 219.5,-504 225.5,-504 231.5,-510 231.5,-516 231.5,-516 231.5,-528 231.5,-528 231.5,-534 225.5,-540 219.5,-540"/>
<text text-anchor="middle" x="181" y="-519.5" font-family="sans" font-size="10.00" fill="#000000">build_tss_regions</text>
</g>
<!-- 15&#45;&gt;6 -->
<g id="edge18" class="edge">
<title>15&#45;&gt;6</title>
<path fill="none" stroke="#c0c0c0" stroke-width="2" d="M181,-503.8314C181,-496.131 181,-486.9743 181,-478.4166"/>
<polygon fill="#c0c0c0" stroke="#c0c0c0" stroke-width="2" points="184.5001,-478.4132 181,-468.4133 177.5001,-478.4133 184.5001,-478.4132"/>
</g>
<!-- 16&#45;&gt;7 -->
<g id="edge19" class="edge">
<title>16&#45;&gt;7</title>
<path fill="none" stroke="#c0c0c0" stroke-width="2" d="M955.524,-647.8314C970.4891,-638.6221 988.8386,-627.3301 1004.8603,-617.4706"/>
<polygon fill="#c0c0c0" stroke="#c0c0c0" stroke-width="2" points="1006.8032,-620.3847 1013.4854,-612.1628 1003.1345,-614.423 1006.8032,-620.3847"/>
</g>
<!-- 17&#45;&gt;8 -->
<g id="edge20" class="edge">
<title>17&#45;&gt;8</title>
<path fill="none" stroke="#c0c0c0" stroke-width="2" d="M710.3635,-647.8314C688.2958,-638.2018 661.0093,-626.295 637.7143,-616.1299"/>
<polygon fill="#c0c0c0" stroke="#c0c0c0" stroke-width="2" points="638.9023,-612.8296 628.3371,-612.038 636.1026,-619.2454 638.9023,-612.8296"/>
</g>
<!-- 18&#45;&gt;9 -->
<g id="edge21" class="edge">
<title>18&#45;&gt;9</title>
<path fill="none" stroke="#c0c0c0" stroke-width="2" d="M1331.0562,-647.8314C1333.6512,-640.0463 1336.7424,-630.7729 1339.6218,-622.1347"/>
<polygon fill="#c0c0c0" stroke="#c0c0c0" stroke-width="2" points="1343.0203,-623.0069 1342.8622,-612.4133 1336.3795,-620.7933 1343.0203,-623.0069"/>
</g>
<!-- 19 -->
<g id="node20" class="node">
<title>19</title>
<path fill="none" stroke="#d86656" stroke-width="2" stroke-dasharray="5,2" d="M916.5,-900C916.5,-900 803.5,-900 803.5,-900 797.5,-900 791.5,-894 791.5,-888 791.5,-888 791.5,-876 791.5,-876 791.5,-870 797.5,-864 803.5,-864 803.5,-864 916.5,-864 916.5,-864 922.5,-864 928.5,-870 928.5,-876 928.5,-876 928.5,-888 928.5,-888 928.5,-894 922.5,-900 916.5,-900"/>
<text text-anchor="middle" x="860" y="-885" font-family="sans" font-size="10.00" fill="#000000">union_peaks_by_type</text>
<text text-anchor="middle" x="860" y="-874" font-family="sans" font-size="10.00" fill="#000000">cell_type: GFP_ATAC&#45;Seq</text>
</g>
<!-- 19&#45;&gt;10 -->
<g id="edge22" class="edge">
<title>19&#45;&gt;10</title>
<path fill="none" stroke="#c0c0c0" stroke-width="2" d="M894.9415,-863.7767C908.1507,-854.9077 921.7377,-842.9055 929,-828 936.008,-813.6164 934.9112,-806.868 929,-792 924.7324,-781.2659 917.2069,-771.4321 909.2261,-763.1828"/>
<polygon fill="#c0c0c0" stroke="#c0c0c0" stroke-width="2" points="911.4779,-760.4921 901.8491,-756.072 906.6199,-765.5319 911.4779,-760.4921"/>
</g>
<!-- 20 -->
<g id="node21" class="node">
<title>20</title>
<path fill="none" stroke="#56b1d8" stroke-width="2" stroke-dasharray="5,2" d="M907.5,-828C907.5,-828 804.5,-828 804.5,-828 798.5,-828 792.5,-822 792.5,-816 792.5,-816 792.5,-804 792.5,-804 792.5,-798 798.5,-792 804.5,-792 804.5,-792 907.5,-792 907.5,-792 913.5,-792 919.5,-798 919.5,-804 919.5,-804 919.5,-816 919.5,-816 919.5,-822 913.5,-828 907.5,-828"/>
<text text-anchor="middle" x="856" y="-807.5" font-family="sans" font-size="10.00" fill="#000000">merge_peaks_by_type</text>
</g>
<!-- 19&#45;&gt;20 -->
<g id="edge39" class="edge">
<title>19&#45;&gt;20</title>
<path fill="none" stroke="#c0c0c0" stroke-width="2" d="M858.9906,-863.8314C858.5628,-856.131 858.0541,-846.9743 857.5787,-838.4166"/>
<polygon fill="#c0c0c0" stroke="#c0c0c0" stroke-width="2" points="861.0724,-838.2037 857.023,-828.4133 854.0831,-838.592 861.0724,-838.2037"/>
</g>
<!-- 20&#45;&gt;10 -->
<g id="edge23" class="edge">
<title>20&#45;&gt;10</title>
<path fill="none" stroke="#c0c0c0" stroke-width="2" d="M861.5515,-791.8314C863.9303,-784.0463 866.7638,-774.7729 869.4033,-766.1347"/>
<polygon fill="#c0c0c0" stroke="#c0c0c0" stroke-width="2" points="872.7987,-766.9996 872.3737,-756.4133 866.1042,-764.954 872.7987,-766.9996"/>
</g>
<!-- 21 -->
<g id="node22" class="node">
<title>21</title>
<path fill="none" stroke="#d86656" stroke-width="2" stroke-dasharray="5,2" d="M721.5,-900C721.5,-900 608.5,-900 608.5,-900 602.5,-900 596.5,-894 596.5,-888 596.5,-888 596.5,-876 596.5,-876 596.5,-870 602.5,-864 608.5,-864 608.5,-864 721.5,-864 721.5,-864 727.5,-864 733.5,-870 733.5,-876 733.5,-876 733.5,-888 733.5,-888 733.5,-894 727.5,-900 721.5,-900"/>
<text text-anchor="middle" x="665" y="-885" font-family="sans" font-size="10.00" fill="#000000">union_peaks_by_type</text>
<text text-anchor="middle" x="665" y="-874" font-family="sans" font-size="10.00" fill="#000000">cell_type: RFP_ATAC&#45;Seq</text>
</g>
<!-- 21&#45;&gt;11 -->
<g id="edge24" class="edge">
<title>21&#45;&gt;11</title>
<path fill="none" stroke="#c0c0c0" stroke-width="2" d="M629.5646,-863.8842C616.1659,-855.0325 602.3802,-843.0142 595,-828 587.9419,-813.6409 587.9419,-806.3591 595,-792 600.8234,-780.1528 610.6351,-770.171 621.0978,-762.1383"/>
<polygon fill="#c0c0c0" stroke="#c0c0c0" stroke-width="2" points="623.4445,-764.7642 629.5646,-756.1158 619.3871,-759.0601 623.4445,-764.7642"/>
</g>
<!-- 22 -->
<g id="node23" class="node">
<title>22</title>
<path fill="none" stroke="#56b1d8" stroke-width="2" stroke-dasharray="5,2" d="M719.5,-828C719.5,-828 616.5,-828 616.5,-828 610.5,-828 604.5,-822 604.5,-816 604.5,-816 604.5,-804 604.5,-804 604.5,-798 610.5,-792 616.5,-792 616.5,-792 719.5,-792 719.5,-792 725.5,-792 731.5,-798 731.5,-804 731.5,-804 731.5,-816 731.5,-816 731.5,-822 725.5,-828 719.5,-828"/>
<text text-anchor="middle" x="668" y="-807.5" font-family="sans" font-size="10.00" fill="#000000">merge_peaks_by_type</text>
</g>
<!-- 21&#45;&gt;22 -->
<g id="edge41" class="edge">
<title>21&#45;&gt;22</title>
<path fill="none" stroke="#c0c0c0" stroke-width="2" d="M665.757,-863.8314C666.0779,-856.131 666.4594,-846.9743 666.816,-838.4166"/>
<polygon fill="#c0c0c0" stroke="#c0c0c0" stroke-width="2" points="670.3133,-838.5503 667.2328,-828.4133 663.3194,-838.2589 670.3133,-838.5503"/>
</g>
<!-- 22&#45;&gt;11 -->
<g id="edge25" class="edge">
<title>22&#45;&gt;11</title>
<path fill="none" stroke="#c0c0c0" stroke-width="2" d="M667.243,-791.8314C666.9221,-784.131 666.5406,-774.9743 666.184,-766.4166"/>
<polygon fill="#c0c0c0" stroke="#c0c0c0" stroke-width="2" points="669.6806,-766.2589 665.7672,-756.4133 662.6867,-766.5503 669.6806,-766.2589"/>
</g>
<!-- 23 -->
<g id="node24" class="node">
<title>23</title>
<path fill="none" stroke="#d86656" stroke-width="2" stroke-dasharray="5,2" d="M1165,-900C1165,-900 1049,-900 1049,-900 1043,-900 1037,-894 1037,-888 1037,-888 1037,-876 1037,-876 1037,-870 1043,-864 1049,-864 1049,-864 1165,-864 1165,-864 1171,-864 1177,-870 1177,-876 1177,-876 1177,-888 1177,-888 1177,-894 1171,-900 1165,-900"/>
<text text-anchor="middle" x="1107" y="-885" font-family="sans" font-size="10.00" fill="#000000">union_peaks_by_type</text>
<text text-anchor="middle" x="1107" y="-874" font-family="sans" font-size="10.00" fill="#000000">cell_type: IPSC_ATAC&#45;Seq</text>
</g>
<!-- 23&#45;&gt;12 -->
<g id="edge26" class="edge">
<title>23&#45;&gt;12</title>
<path fill="none" stroke="#c0c0c0" stroke-width="2" d="M1082.4199,-863.7772C1071.8518,-854.4022 1060.6457,-842.0021 1055,-828 1049.0168,-813.1608 1048.8093,-806.7538 1055,-792 1059.6052,-781.0247 1067.6497,-771.1573 1076.1877,-762.9529"/>
<polygon fill="#c0c0c0" stroke="#c0c0c0" stroke-width="2" points="1078.6301,-765.464 1083.7437,-756.1849 1073.9597,-760.2497 1078.6301,-765.464"/>
</g>
<!-- 24 -->
<g id="node25" class="node">
<title>24</title>
<path fill="none" stroke="#56b1d8" stroke-width="2" stroke-dasharray="5,2" d="M1178.5,-828C1178.5,-828 1075.5,-828 1075.5,-828 1069.5,-828 1063.5,-822 1063.5,-816 1063.5,-816 1063.5,-804 1063.5,-804 1063.5,-798 1069.5,-792 1075.5,-792 1075.5,-792 1178.5,-792 1178.5,-792 1184.5,-792 1190.5,-798 1190.5,-804 1190.5,-804 1190.5,-816 1190.5,-816 1190.5,-822 1184.5,-828 1178.5,-828"/>
<text text-anchor="middle" x="1127" y="-807.5" font-family="sans" font-size="10.00" fill="#000000">merge_peaks_by_type</text>
</g>
<!-- 23&#45;&gt;24 -->
<g id="edge43" class="edge">
<title>23&#45;&gt;24</title>
<path fill="none" stroke="#c0c0c0" stroke-width="2" d="M1112.0468,-863.8314C1114.2094,-856.0463 1116.7853,-846.7729 1119.1848,-838.1347"/>
<polygon fill="#c0c0c0" stroke="#c0c0c0" stroke-width="2" points="1122.581,-838.9852 1121.8852,-828.4133 1115.8364,-837.1117 1122.581,-838.9852"/>
</g>
<!-- 24&#45;&gt;12 -->
<g id="edge27" class="edge">
<title>24&#45;&gt;12</title>
<path fill="none" stroke="#c0c0c0" stroke-width="2" d="M1122.7102,-791.8314C1120.892,-784.131 1118.7301,-774.9743 1116.7095,-766.4166"/>
<polygon fill="#c0c0c0" stroke="#c0c0c0" stroke-width="2" points="1120.0519,-765.3414 1114.3476,-756.4133 1113.2392,-766.95 1120.0519,-765.3414"/>
</g>
<!-- 25 -->
<g id="node26" class="node">
<title>25</title>
<path fill="none" stroke="#56d8d8" stroke-width="2" stroke-dasharray="5,2" d="M1355,-396C1355,-396 1119,-396 1119,-396 1113,-396 1107,-390 1107,-384 1107,-384 1107,-372 1107,-372 1107,-366 1113,-360 1119,-360 1119,-360 1355,-360 1355,-360 1361,-360 1367,-366 1367,-372 1367,-372 1367,-384 1367,-384 1367,-390 1361,-396 1355,-396"/>
<text text-anchor="middle" x="1237" y="-381" font-family="sans" font-size="10.00" fill="#000000">HINT_differential</text>
<text text-anchor="middle" x="1237" y="-370" font-family="sans" font-size="10.00" fill="#000000">comparison: GFP_ATAC&#45;Seq__not__IPSC_ATAC&#45;Seq</text>
</g>
<!-- 25&#45;&gt;13 -->
<g id="edge28" class="edge">
<title>25&#45;&gt;13</title>
<path fill="none" stroke="#c0c0c0" stroke-width="2" d="M1237,-359.8314C1237,-352.131 1237,-342.9743 1237,-334.4166"/>
<polygon fill="#c0c0c0" stroke="#c0c0c0" stroke-width="2" points="1240.5001,-334.4132 1237,-324.4133 1233.5001,-334.4133 1240.5001,-334.4132"/>
</g>
<!-- 26 -->
<g id="node27" class="node">
<title>26</title>
<path fill="none" stroke="#56d8d8" stroke-width="2" stroke-dasharray="5,2" d="M1633,-396C1633,-396 1397,-396 1397,-396 1391,-396 1385,-390 1385,-384 1385,-384 1385,-372 1385,-372 1385,-366 1391,-360 1397,-360 1397,-360 1633,-360 1633,-360 1639,-360 1645,-366 1645,-372 1645,-372 1645,-384 1645,-384 1645,-390 1639,-396 1633,-396"/>
<text text-anchor="middle" x="1515" y="-381" font-family="sans" font-size="10.00" fill="#000000">HINT_differential</text>
<text text-anchor="middle" x="1515" y="-370" font-family="sans" font-size="10.00" fill="#000000">comparison: GFP_ATAC&#45;Seq__not__IPSC_ATAC&#45;Seq</text>
</g>
<!-- 26&#45;&gt;13 -->
<g id="edge29" class="edge">
<title>26&#45;&gt;13</title>
<path fill="none" stroke="#c0c0c0" stroke-width="2" d="M1445.2077,-359.9243C1405.8323,-349.7263 1356.5092,-336.952 1315.7539,-326.3967"/>
<polygon fill="#c0c0c0" stroke="#c0c0c0" stroke-width="2" points="1316.416,-322.9528 1305.8579,-323.8337 1314.6609,-329.7292 1316.416,-322.9528"/>
</g>
<!-- 27 -->
<g id="node28" class="node">
<title>27</title>
<path fill="none" stroke="#56d8d8" stroke-width="2" stroke-dasharray="5,2" d="M969.5,-396C969.5,-396 736.5,-396 736.5,-396 730.5,-396 724.5,-390 724.5,-384 724.5,-384 724.5,-372 724.5,-372 724.5,-366 730.5,-360 736.5,-360 736.5,-360 969.5,-360 969.5,-360 975.5,-360 981.5,-366 981.5,-372 981.5,-372 981.5,-384 981.5,-384 981.5,-390 975.5,-396 969.5,-396"/>
<text text-anchor="middle" x="853" y="-381" font-family="sans" font-size="10.00" fill="#000000">HINT_differential</text>
<text text-anchor="middle" x="853" y="-370" font-family="sans" font-size="10.00" fill="#000000">comparison: GFP_ATAC&#45;Seq__not__RFP_ATAC&#45;Seq</text>
</g>
<!-- 27&#45;&gt;14 -->
<g id="edge30" class="edge">
<title>27&#45;&gt;14</title>
<path fill="none" stroke="#c0c0c0" stroke-width="2" d="M818.1768,-359.8314C800.1989,-350.4516 778.0797,-338.9112 758.9384,-328.9244"/>
<polygon fill="#c0c0c0" stroke="#c0c0c0" stroke-width="2" points="760.2969,-325.6855 749.8121,-324.1628 757.0589,-331.8916 760.2969,-325.6855"/>
</g>
<!-- 28 -->
<g id="node29" class="node">
<title>28</title>
<path fill="none" stroke="#56d8d8" stroke-width="2" stroke-dasharray="5,2" d="M694.5,-396C694.5,-396 461.5,-396 461.5,-396 455.5,-396 449.5,-390 449.5,-384 449.5,-384 449.5,-372 449.5,-372 449.5,-366 455.5,-360 461.5,-360 461.5,-360 694.5,-360 694.5,-360 700.5,-360 706.5,-366 706.5,-372 706.5,-372 706.5,-384 706.5,-384 706.5,-390 700.5,-396 694.5,-396"/>
<text text-anchor="middle" x="578" y="-381" font-family="sans" font-size="10.00" fill="#000000">HINT_differential</text>
<text text-anchor="middle" x="578" y="-370" font-family="sans" font-size="10.00" fill="#000000">comparison: GFP_ATAC&#45;Seq__not__RFP_ATAC&#45;Seq</text>
</g>
<!-- 28&#45;&gt;14 -->
<g id="edge31" class="edge">
<title>28&#45;&gt;14</title>
<path fill="none" stroke="#c0c0c0" stroke-width="2" d="M612.5709,-359.8314C630.4185,-350.4516 652.3774,-338.9112 671.38,-328.9244"/>
<polygon fill="#c0c0c0" stroke="#c0c0c0" stroke-width="2" points="673.2164,-331.9132 680.4402,-324.1628 669.9599,-325.7168 673.2164,-331.9132"/>
</g>
<!-- 29 -->
<g id="node30" class="node">
<title>29</title>
<path fill="none" stroke="#569ad8" stroke-width="2" stroke-dasharray="5,2" d="M1011,-972C1011,-972 981,-972 981,-972 975,-972 969,-966 969,-960 969,-960 969,-948 969,-948 969,-942 975,-936 981,-936 981,-936 1011,-936 1011,-936 1017,-936 1023,-942 1023,-948 1023,-948 1023,-960 1023,-960 1023,-966 1017,-972 1011,-972"/>
<text text-anchor="middle" x="996" y="-951.5" font-family="sans" font-size="10.00" fill="#000000">HINT</text>
</g>
<!-- 29&#45;&gt;16 -->
<g id="edge32" class="edge">
<title>29&#45;&gt;16</title>
<path fill="none" stroke="#c0c0c0" stroke-width="2" d="M994.9812,-935.8708C992.2885,-895.8516 983.2123,-797.3704 956,-720 952.7597,-710.7871 948.0287,-701.2958 943.2775,-692.8899"/>
<polygon fill="#c0c0c0" stroke="#c0c0c0" stroke-width="2" points="946.2806,-691.092 938.1836,-684.2591 940.2522,-694.65 946.2806,-691.092"/>
</g>
<!-- 30 -->
<g id="node31" class="node">
<title>30</title>
<path fill="none" stroke="#569ad8" stroke-width="2" stroke-dasharray="5,2" d="M777,-972C777,-972 747,-972 747,-972 741,-972 735,-966 735,-960 735,-960 735,-948 735,-948 735,-942 741,-936 747,-936 747,-936 777,-936 777,-936 783,-936 789,-942 789,-948 789,-948 789,-960 789,-960 789,-966 783,-972 777,-972"/>
<text text-anchor="middle" x="762" y="-951.5" font-family="sans" font-size="10.00" fill="#000000">HINT</text>
</g>
<!-- 30&#45;&gt;17 -->
<g id="edge34" class="edge">
<title>30&#45;&gt;17</title>
<path fill="none" stroke="#c0c0c0" stroke-width="2" d="M761.3745,-935.9843C759.6838,-887.2939 755.0138,-752.7961 752.9742,-694.0573"/>
<polygon fill="#c0c0c0" stroke="#c0c0c0" stroke-width="2" points="756.4703,-693.8814 752.6253,-684.0089 749.4745,-694.1243 756.4703,-693.8814"/>
</g>
<!-- 31 -->
<g id="node32" class="node">
<title>31</title>
<path fill="none" stroke="#569ad8" stroke-width="2" stroke-dasharray="5,2" d="M1340,-972C1340,-972 1310,-972 1310,-972 1304,-972 1298,-966 1298,-960 1298,-960 1298,-948 1298,-948 1298,-942 1304,-936 1310,-936 1310,-936 1340,-936 1340,-936 1346,-936 1352,-942 1352,-948 1352,-948 1352,-960 1352,-960 1352,-966 1346,-972 1340,-972"/>
<text text-anchor="middle" x="1325" y="-951.5" font-family="sans" font-size="10.00" fill="#000000">HINT</text>
</g>
<!-- 31&#45;&gt;18 -->
<g id="edge36" class="edge">
<title>31&#45;&gt;18</title>
<path fill="none" stroke="#c0c0c0" stroke-width="2" d="M1325,-935.9843C1325,-887.2939 1325,-752.7961 1325,-694.0573"/>
<polygon fill="#c0c0c0" stroke="#c0c0c0" stroke-width="2" points="1328.5001,-694.0088 1325,-684.0089 1321.5001,-694.0089 1328.5001,-694.0088"/>
</g>
<!-- 32 -->
<g id="node33" class="node">
<title>32</title>
<path fill="none" stroke="#567bd8" stroke-width="2" stroke-dasharray="5,2" d="M879.5,-972C879.5,-972 840.5,-972 840.5,-972 834.5,-972 828.5,-966 828.5,-960 828.5,-960 828.5,-948 828.5,-948 828.5,-942 834.5,-936 840.5,-936 840.5,-936 879.5,-936 879.5,-936 885.5,-936 891.5,-942 891.5,-948 891.5,-948 891.5,-960 891.5,-960 891.5,-966 885.5,-972 879.5,-972"/>
<text text-anchor="middle" x="860" y="-951.5" font-family="sans" font-size="10.00" fill="#000000">black_list</text>
</g>
<!-- 32&#45;&gt;19 -->
<g id="edge38" class="edge">
<title>32&#45;&gt;19</title>
<path fill="none" stroke="#c0c0c0" stroke-width="2" d="M860,-935.8314C860,-928.131 860,-918.9743 860,-910.4166"/>
<polygon fill="#c0c0c0" stroke="#c0c0c0" stroke-width="2" points="863.5001,-910.4132 860,-900.4133 856.5001,-910.4133 863.5001,-910.4132"/>
</g>
<!-- 33 -->
<g id="node34" class="node">
<title>33</title>
<path fill="none" stroke="#567bd8" stroke-width="2" stroke-dasharray="5,2" d="M700.5,-972C700.5,-972 661.5,-972 661.5,-972 655.5,-972 649.5,-966 649.5,-960 649.5,-960 649.5,-948 649.5,-948 649.5,-942 655.5,-936 661.5,-936 661.5,-936 700.5,-936 700.5,-936 706.5,-936 712.5,-942 712.5,-948 712.5,-948 712.5,-960 712.5,-960 712.5,-966 706.5,-972 700.5,-972"/>
<text text-anchor="middle" x="681" y="-951.5" font-family="sans" font-size="10.00" fill="#000000">black_list</text>
</g>
<!-- 33&#45;&gt;21 -->
<g id="edge40" class="edge">
<title>33&#45;&gt;21</title>
<path fill="none" stroke="#c0c0c0" stroke-width="2" d="M676.9625,-935.8314C675.2513,-928.131 673.2165,-918.9743 671.3148,-910.4166"/>
<polygon fill="#c0c0c0" stroke="#c0c0c0" stroke-width="2" points="674.6779,-909.4159 669.0918,-900.4133 667.8446,-910.9344 674.6779,-909.4159"/>
</g>
<!-- 34 -->
<g id="node35" class="node">
<title>34</title>
<path fill="none" stroke="#567bd8" stroke-width="2" stroke-dasharray="5,2" d="M1126.5,-972C1126.5,-972 1087.5,-972 1087.5,-972 1081.5,-972 1075.5,-966 1075.5,-960 1075.5,-960 1075.5,-948 1075.5,-948 1075.5,-942 1081.5,-936 1087.5,-936 1087.5,-936 1126.5,-936 1126.5,-936 1132.5,-936 1138.5,-942 1138.5,-948 1138.5,-948 1138.5,-960 1138.5,-960 1138.5,-966 1132.5,-972 1126.5,-972"/>
<text text-anchor="middle" x="1107" y="-951.5" font-family="sans" font-size="10.00" fill="#000000">black_list</text>
</g>
<!-- 34&#45;&gt;23 -->
<g id="edge42" class="edge">
<title>34&#45;&gt;23</title>
<path fill="none" stroke="#c0c0c0" stroke-width="2" d="M1107,-935.8314C1107,-928.131 1107,-918.9743 1107,-910.4166"/>
<polygon fill="#c0c0c0" stroke="#c0c0c0" stroke-width="2" points="1110.5001,-910.4132 1107,-900.4133 1103.5001,-910.4133 1110.5001,-910.4132"/>
</g>
<!-- 35&#45;&gt;25 -->
<g id="edge44" class="edge">
<title>35&#45;&gt;25</title>
<path fill="none" stroke="#c0c0c0" stroke-width="2" d="M988.0387,-433.8418C1035.0013,-423.3081 1096.6585,-409.4785 1146.8633,-398.2176"/>
<polygon fill="#c0c0c0" stroke="#c0c0c0" stroke-width="2" points="1147.7523,-401.6052 1156.7438,-396.0014 1146.2202,-394.7749 1147.7523,-401.6052"/>
</g>
<!-- 35&#45;&gt;27 -->
<g id="edge52" class="edge">
<title>35&#45;&gt;27</title>
<path fill="none" stroke="#c0c0c0" stroke-width="2" d="M900.1024,-431.8314C892.7722,-423.454 883.934,-413.3531 875.9031,-404.1749"/>
<polygon fill="#c0c0c0" stroke="#c0c0c0" stroke-width="2" points="878.3307,-401.6343 869.1116,-396.4133 873.0627,-406.2438 878.3307,-401.6343"/>
</g>
<!-- 36&#45;&gt;25 -->
<g id="edge45" class="edge">
<title>36&#45;&gt;25</title>
<path fill="none" stroke="#c0c0c0" stroke-width="2" d="M1355.8776,-431.8314C1334.7068,-422.2446 1308.5517,-410.4008 1286.1697,-400.2655"/>
<polygon fill="#c0c0c0" stroke="#c0c0c0" stroke-width="2" points="1287.3872,-396.9748 1276.8339,-396.038 1284.4997,-403.3515 1287.3872,-396.9748"/>
</g>
<!-- 37 -->
<g id="node38" class="node">
<title>37</title>
<path fill="none" stroke="#56d863" stroke-width="2" stroke-dasharray="5,2" d="M1293.5,-468C1293.5,-468 1180.5,-468 1180.5,-468 1174.5,-468 1168.5,-462 1168.5,-456 1168.5,-456 1168.5,-444 1168.5,-444 1168.5,-438 1174.5,-432 1180.5,-432 1180.5,-432 1293.5,-432 1293.5,-432 1299.5,-432 1305.5,-438 1305.5,-444 1305.5,-444 1305.5,-456 1305.5,-456 1305.5,-462 1299.5,-468 1293.5,-468"/>
<text text-anchor="middle" x="1237" y="-453" font-family="sans" font-size="10.00" fill="#000000">cell_type_bam</text>
<text text-anchor="middle" x="1237" y="-442" font-family="sans" font-size="10.00" fill="#000000">cell_type: GFP_ATAC&#45;Seq</text>
</g>
<!-- 37&#45;&gt;25 -->
<g id="edge46" class="edge">
<title>37&#45;&gt;25</title>
<path fill="none" stroke="#c0c0c0" stroke-width="2" d="M1237,-431.8314C1237,-424.131 1237,-414.9743 1237,-406.4166"/>
<polygon fill="#c0c0c0" stroke="#c0c0c0" stroke-width="2" points="1240.5001,-406.4132 1237,-396.4133 1233.5001,-406.4133 1240.5001,-406.4132"/>
</g>
<!-- 37&#45;&gt;26 -->
<g id="edge50" class="edge">
<title>37&#45;&gt;26</title>
<path fill="none" stroke="#c0c0c0" stroke-width="2" d="M1305.7191,-432.2022C1345.0169,-422.0244 1394.4851,-409.2125 1435.4593,-398.6005"/>
<polygon fill="#c0c0c0" stroke="#c0c0c0" stroke-width="2" points="1436.3374,-401.9886 1445.1405,-396.0931 1434.5823,-395.2122 1436.3374,-401.9886"/>
</g>
<!-- 37&#45;&gt;27 -->
<g id="edge54" class="edge">
<title>37&#45;&gt;27</title>
<path fill="none" stroke="#c0c0c0" stroke-width="2" d="M1168.1389,-433.904C1165.0532,-433.2474 1161.9961,-432.6096 1159,-432 1098.0358,-419.5953 1029.899,-407.4081 973.4241,-397.7599"/>
<polygon fill="#c0c0c0" stroke="#c0c0c0" stroke-width="2" points="973.8274,-394.2783 963.3818,-396.05 972.6524,-401.179 973.8274,-394.2783"/>
</g>
<!-- 37&#45;&gt;28 -->
<g id="edge58" class="edge">
<title>37&#45;&gt;28</title>
<path fill="none" stroke="#c0c0c0" stroke-width="2" d="M1168.2021,-433.5511C1165.0994,-432.99 1162.0213,-432.4688 1159,-432 967.0388,-402.2134 914.1867,-416.293 716.6546,-396.0284"/>
<polygon fill="#c0c0c0" stroke="#c0c0c0" stroke-width="2" points="716.8345,-392.5282 706.5255,-394.9723 716.1086,-399.4905 716.8345,-392.5282"/>
</g>
<!-- 38 -->
<g id="node39" class="node">
<title>38</title>
<path fill="none" stroke="#56d863" stroke-width="2" stroke-dasharray="5,2" d="M1776,-468C1776,-468 1660,-468 1660,-468 1654,-468 1648,-462 1648,-456 1648,-456 1648,-444 1648,-444 1648,-438 1654,-432 1660,-432 1660,-432 1776,-432 1776,-432 1782,-432 1788,-438 1788,-444 1788,-444 1788,-456 1788,-456 1788,-462 1782,-468 1776,-468"/>
<text text-anchor="middle" x="1718" y="-453" font-family="sans" font-size="10.00" fill="#000000">cell_type_bam</text>
<text text-anchor="middle" x="1718" y="-442" font-family="sans" font-size="10.00" fill="#000000">cell_type: IPSC_ATAC&#45;Seq</text>
</g>
<!-- 38&#45;&gt;25 -->
<g id="edge47" class="edge">
<title>38&#45;&gt;25</title>
<path fill="none" stroke="#c0c0c0" stroke-width="2" d="M1647.8563,-433.6715C1644.8686,-433.0855 1641.9069,-432.5253 1639,-432 1613.3435,-427.3637 1482.8347,-410.0195 1377.3755,-396.2222"/>
<polygon fill="#c0c0c0" stroke="#c0c0c0" stroke-width="2" points="1377.6217,-392.7247 1367.2523,-394.8986 1376.7141,-399.6656 1377.6217,-392.7247"/>
</g>
<!-- 38&#45;&gt;26 -->
<g id="edge51" class="edge">
<title>38&#45;&gt;26</title>
<path fill="none" stroke="#c0c0c0" stroke-width="2" d="M1667.0366,-431.9243C1639.2853,-422.0815 1604.7672,-409.8386 1575.6386,-399.5073"/>
<polygon fill="#c0c0c0" stroke="#c0c0c0" stroke-width="2" points="1576.5792,-396.1273 1565.9844,-396.0831 1574.2392,-402.7246 1576.5792,-396.1273"/>
</g>
<!-- 39&#45;&gt;26 -->
<g id="edge48" class="edge">
<title>39&#45;&gt;26</title>
<path fill="none" stroke="#c0c0c0" stroke-width="2" d="M1150.3851,-433.8427C1153.6309,-433.2027 1156.8473,-432.5852 1160,-432 1230.5444,-418.9063 1309.411,-406.6714 1374.8584,-397.1696"/>
<polygon fill="#c0c0c0" stroke="#c0c0c0" stroke-width="2" points="1375.4323,-400.6231 1384.8286,-395.7282 1374.4306,-393.6952 1375.4323,-400.6231"/>
</g>
<!-- 39&#45;&gt;28 -->
<g id="edge56" class="edge">
<title>39&#45;&gt;28</title>
<path fill="none" stroke="#c0c0c0" stroke-width="2" d="M1005.6418,-433.5772C1002.7271,-433.0245 999.8381,-432.4961 997,-432 876.12,-410.8711 842.5599,-412.0652 716.5855,-396.0633"/>
<polygon fill="#c0c0c0" stroke="#c0c0c0" stroke-width="2" points="716.9123,-392.5767 706.5484,-394.777 716.0223,-399.5199 716.9123,-392.5767"/>
</g>
<!-- 40&#45;&gt;26 -->
<g id="edge49" class="edge">
<title>40&#45;&gt;26</title>
<path fill="none" stroke="#c0c0c0" stroke-width="2" d="M1547.1493,-431.8314C1542.2977,-423.7079 1536.4783,-413.9637 1531.132,-405.0118"/>
<polygon fill="#c0c0c0" stroke="#c0c0c0" stroke-width="2" points="1534.1292,-403.2041 1525.9968,-396.4133 1528.1194,-406.7933 1534.1292,-403.2041"/>
</g>
<!-- 41&#45;&gt;27 -->
<g id="edge53" class="edge">
<title>41&#45;&gt;27</title>
<path fill="none" stroke="#c0c0c0" stroke-width="2" d="M722.1599,-431.8314C745.7732,-422.1162 775.0202,-410.0831 799.87,-399.8592"/>
<polygon fill="#c0c0c0" stroke="#c0c0c0" stroke-width="2" points="801.2415,-403.0797 809.1577,-396.038 798.5781,-396.6061 801.2415,-403.0797"/>
</g>
<!-- 42 -->
<g id="node43" class="node">
<title>42</title>
<path fill="none" stroke="#56d863" stroke-width="2" stroke-dasharray="5,2" d="M413.5,-468C413.5,-468 300.5,-468 300.5,-468 294.5,-468 288.5,-462 288.5,-456 288.5,-456 288.5,-444 288.5,-444 288.5,-438 294.5,-432 300.5,-432 300.5,-432 413.5,-432 413.5,-432 419.5,-432 425.5,-438 425.5,-444 425.5,-444 425.5,-456 425.5,-456 425.5,-462 419.5,-468 413.5,-468"/>
<text text-anchor="middle" x="357" y="-453" font-family="sans" font-size="10.00" fill="#000000">cell_type_bam</text>
<text text-anchor="middle" x="357" y="-442" font-family="sans" font-size="10.00" fill="#000000">cell_type: RFP_ATAC&#45;Seq</text>
</g>
<!-- 42&#45;&gt;27 -->
<g id="edge55" class="edge">
<title>42&#45;&gt;27</title>
<path fill="none" stroke="#c0c0c0" stroke-width="2" d="M425.8271,-433.7262C428.922,-433.1177 431.9904,-432.5387 435,-432 555.7931,-410.3799 589.4429,-412.0957 714.3407,-396.2017"/>
<polygon fill="#c0c0c0" stroke="#c0c0c0" stroke-width="2" points="714.8189,-399.6691 724.2912,-394.9229 713.9266,-392.7262 714.8189,-399.6691"/>
</g>
<!-- 42&#45;&gt;28 -->
<g id="edge59" class="edge">
<title>42&#45;&gt;28</title>
<path fill="none" stroke="#c0c0c0" stroke-width="2" d="M412.4824,-431.9243C442.9571,-421.9959 480.9273,-409.6255 512.8105,-399.2382"/>
<polygon fill="#c0c0c0" stroke="#c0c0c0" stroke-width="2" points="514.0709,-402.5087 522.4948,-396.0831 511.9025,-395.853 514.0709,-402.5087"/>
</g>
<!-- 43&#45;&gt;28 -->
<g id="edge57" class="edge">
<title>43&#45;&gt;28</title>
<path fill="none" stroke="#c0c0c0" stroke-width="2" d="M531.6452,-431.8314C538.8591,-423.454 547.557,-413.3531 555.4605,-404.1749"/>
<polygon fill="#c0c0c0" stroke="#c0c0c0" stroke-width="2" points="558.2711,-406.2748 562.1441,-396.4133 552.9667,-401.7071 558.2711,-406.2748"/>
</g>
<!-- 44 -->
<g id="node45" class="node">
<title>44</title>
<path fill="none" stroke="#56d8c9" stroke-width="2" stroke-dasharray="5,2" d="M1075.5,-1044C1075.5,-1044 926.5,-1044 926.5,-1044 920.5,-1044 914.5,-1038 914.5,-1032 914.5,-1032 914.5,-1020 914.5,-1020 914.5,-1014 920.5,-1008 926.5,-1008 926.5,-1008 1075.5,-1008 1075.5,-1008 1081.5,-1008 1087.5,-1014 1087.5,-1020 1087.5,-1020 1087.5,-1032 1087.5,-1032 1087.5,-1038 1081.5,-1044 1075.5,-1044"/>
<text text-anchor="middle" x="1001" y="-1023.5" font-family="sans" font-size="10.00" fill="#000000">retrieve_and_process_black_list</text>
</g>
<!-- 44&#45;&gt;29 -->
<g id="edge60" class="edge">
<title>44&#45;&gt;29</title>
<path fill="none" stroke="#c0c0c0" stroke-width="2" d="M999.7383,-1007.8314C999.2035,-1000.131 998.5677,-990.9743 997.9734,-982.4166"/>
<polygon fill="#c0c0c0" stroke="#c0c0c0" stroke-width="2" points="1001.4632,-982.1467 997.2787,-972.4133 994.48,-982.6317 1001.4632,-982.1467"/>
</g>
<!-- 44&#45;&gt;30 -->
<g id="edge63" class="edge">
<title>44&#45;&gt;30</title>
<path fill="none" stroke="#c0c0c0" stroke-width="2" d="M939.7897,-1007.9202C904.699,-997.5099 859.842,-984.1253 820,-972 813.2232,-969.9376 806.0084,-967.7179 799.0524,-965.5655"/>
<polygon fill="#c0c0c0" stroke="#c0c0c0" stroke-width="2" points="799.7154,-962.1067 789.1274,-962.4864 797.6412,-968.7923 799.7154,-962.1067"/>
</g>
<!-- 44&#45;&gt;31 -->
<g id="edge66" class="edge">
<title>44&#45;&gt;31</title>
<path fill="none" stroke="#c0c0c0" stroke-width="2" d="M1082.3407,-1007.9243C1148.1419,-993.3018 1237.7795,-973.3823 1287.6382,-962.3026"/>
<polygon fill="#c0c0c0" stroke="#c0c0c0" stroke-width="2" points="1288.6482,-965.6636 1297.6508,-960.0776 1287.1297,-958.8303 1288.6482,-965.6636"/>
</g>
<!-- 44&#45;&gt;32 -->
<g id="edge70" class="edge">
<title>44&#45;&gt;32</title>
<path fill="none" stroke="#c0c0c0" stroke-width="2" d="M965.4197,-1007.8314C945.7521,-997.7883 921.2336,-985.2682 900.7927,-974.8303"/>
<polygon fill="#c0c0c0" stroke="#c0c0c0" stroke-width="2" points="902.2178,-971.6282 891.72,-970.1975 899.0344,-977.8624 902.2178,-971.6282"/>
</g>
<!-- 44&#45;&gt;33 -->
<g id="edge72" class="edge">
<title>44&#45;&gt;33</title>
<path fill="none" stroke="#c0c0c0" stroke-width="2" d="M914.2726,-1009.3738C837.1605,-994.5278 735.1866,-974.7134 726,-972 724.7744,-971.638 723.5359,-971.2556 722.2902,-970.8565"/>
<polygon fill="#c0c0c0" stroke="#c0c0c0" stroke-width="2" points="723.2933,-967.4999 712.6985,-967.531 721.0002,-974.1137 723.2933,-967.4999"/>
</g>
<!-- 44&#45;&gt;34 -->
<g id="edge74" class="edge">
<title>44&#45;&gt;34</title>
<path fill="none" stroke="#c0c0c0" stroke-width="2" d="M1027.7483,-1007.8314C1041.0553,-998.7927 1057.316,-987.7476 1071.6375,-978.0198"/>
<polygon fill="#c0c0c0" stroke="#c0c0c0" stroke-width="2" points="1073.9547,-980.677 1080.2603,-972.1628 1070.0215,-974.8864 1073.9547,-980.677"/>
</g>
<!-- 45 -->
<g id="node46" class="node">
<title>45</title>
<path fill="none" stroke="#ced856" stroke-width="2" stroke-dasharray="5,2" d="M884,-1044C884,-1044 830,-1044 830,-1044 824,-1044 818,-1038 818,-1032 818,-1032 818,-1020 818,-1020 818,-1014 824,-1008 830,-1008 830,-1008 884,-1008 884,-1008 890,-1008 896,-1014 896,-1020 896,-1020 896,-1032 896,-1032 896,-1038 890,-1044 884,-1044"/>
<text text-anchor="middle" x="857" y="-1023.5" font-family="sans" font-size="10.00" fill="#000000">peak_calling</text>
</g>
<!-- 45&#45;&gt;29 -->
<g id="edge61" class="edge">
<title>45&#45;&gt;29</title>
<path fill="none" stroke="#c0c0c0" stroke-width="2" d="M892.0756,-1007.8314C912.8127,-997.0898 939.02,-983.5148 959.9287,-972.6844"/>
<polygon fill="#c0c0c0" stroke="#c0c0c0" stroke-width="2" points="961.5584,-975.782 968.8281,-968.0747 958.3388,-969.5663 961.5584,-975.782"/>
</g>
<!-- 45&#45;&gt;32 -->
<g id="edge69" class="edge">
<title>45&#45;&gt;32</title>
<path fill="none" stroke="#c0c0c0" stroke-width="2" d="M857.757,-1007.8314C858.0779,-1000.131 858.4594,-990.9743 858.816,-982.4166"/>
<polygon fill="#c0c0c0" stroke="#c0c0c0" stroke-width="2" points="862.3133,-982.5503 859.2328,-972.4133 855.3194,-982.2589 862.3133,-982.5503"/>
</g>
<!-- 46 -->
<g id="node47" class="node">
<title>46</title>
<path fill="none" stroke="#d8c356" stroke-width="2" stroke-dasharray="5,2" d="M1137,-1116C1137,-1116 1095,-1116 1095,-1116 1089,-1116 1083,-1110 1083,-1104 1083,-1104 1083,-1092 1083,-1092 1083,-1086 1089,-1080 1095,-1080 1095,-1080 1137,-1080 1137,-1080 1143,-1080 1149,-1086 1149,-1092 1149,-1092 1149,-1104 1149,-1104 1149,-1110 1143,-1116 1137,-1116"/>
<text text-anchor="middle" x="1116" y="-1095.5" font-family="sans" font-size="10.00" fill="#000000">filter_bam</text>
</g>
<!-- 46&#45;&gt;29 -->
<g id="edge62" class="edge">
<title>46&#45;&gt;29</title>
<path fill="none" stroke="#c0c0c0" stroke-width="2" d="M1116.5009,-1079.9564C1116.1392,-1060.3693 1112.8188,-1029.0728 1097,-1008 1081.162,-986.9017 1054.611,-973.1679 1032.706,-964.8321"/>
<polygon fill="#c0c0c0" stroke="#c0c0c0" stroke-width="2" points="1033.6182,-961.4415 1023.0236,-961.375 1031.2643,-968.0339 1033.6182,-961.4415"/>
</g>
<!-- 46&#45;&gt;37 -->
<g id="edge79" class="edge">
<title>46&#45;&gt;37</title>
<path fill="none" stroke="#c0c0c0" stroke-width="2" d="M1141.1501,-1079.9248C1172.2134,-1055.2843 1221,-1007.9908 1221,-954 1221,-954 1221,-954 1221,-594 1221,-553.6291 1227.2888,-507.2789 1231.9811,-478.3146"/>
<polygon fill="#c0c0c0" stroke="#c0c0c0" stroke-width="2" points="1235.4895,-478.5537 1233.6848,-468.1137 1228.5852,-477.4004 1235.4895,-478.5537"/>
</g>
<!-- 46&#45;&gt;45 -->
<g id="edge90" class="edge">
<title>46&#45;&gt;45</title>
<path fill="none" stroke="#c0c0c0" stroke-width="2" d="M1082.9761,-1090.5912C1041.3672,-1081.0092 967.8206,-1063.2499 906,-1044 905.8999,-1043.9688 905.7998,-1043.9376 905.6996,-1043.9063"/>
<polygon fill="#c0c0c0" stroke="#c0c0c0" stroke-width="2" points="906.7888,-1040.5802 896.1961,-1040.7919 904.6089,-1047.2321 906.7888,-1040.5802"/>
</g>
<!-- 47 -->
<g id="node48" class="node">
<title>47</title>
<path fill="none" stroke="#ced856" stroke-width="2" stroke-dasharray="5,2" d="M708,-1044C708,-1044 654,-1044 654,-1044 648,-1044 642,-1038 642,-1032 642,-1032 642,-1020 642,-1020 642,-1014 648,-1008 654,-1008 654,-1008 708,-1008 708,-1008 714,-1008 720,-1014 720,-1020 720,-1020 720,-1032 720,-1032 720,-1038 714,-1044 708,-1044"/>
<text text-anchor="middle" x="681" y="-1023.5" font-family="sans" font-size="10.00" fill="#000000">peak_calling</text>
</g>
<!-- 47&#45;&gt;30 -->
<g id="edge64" class="edge">
<title>47&#45;&gt;30</title>
<path fill="none" stroke="#c0c0c0" stroke-width="2" d="M701.4397,-1007.8314C711.3205,-999.0485 723.3324,-988.3712 734.045,-978.8489"/>
<polygon fill="#c0c0c0" stroke="#c0c0c0" stroke-width="2" points="736.418,-981.4224 741.5668,-972.1628 731.7674,-976.1906 736.418,-981.4224"/>
</g>
<!-- 47&#45;&gt;33 -->
<g id="edge71" class="edge">
<title>47&#45;&gt;33</title>
<path fill="none" stroke="#c0c0c0" stroke-width="2" d="M681,-1007.8314C681,-1000.131 681,-990.9743 681,-982.4166"/>
<polygon fill="#c0c0c0" stroke="#c0c0c0" stroke-width="2" points="684.5001,-982.4132 681,-972.4133 677.5001,-982.4133 684.5001,-982.4132"/>
</g>
<!-- 48 -->
<g id="node49" class="node">
<title>48</title>
<path fill="none" stroke="#d8c356" stroke-width="2" stroke-dasharray="5,2" d="M702,-1116C702,-1116 660,-1116 660,-1116 654,-1116 648,-1110 648,-1104 648,-1104 648,-1092 648,-1092 648,-1086 654,-1080 660,-1080 660,-1080 702,-1080 702,-1080 708,-1080 714,-1086 714,-1092 714,-1092 714,-1104 714,-1104 714,-1110 708,-1116 702,-1116"/>
<text text-anchor="middle" x="681" y="-1095.5" font-family="sans" font-size="10.00" fill="#000000">filter_bam</text>
</g>
<!-- 48&#45;&gt;30 -->
<g id="edge65" class="edge">
<title>48&#45;&gt;30</title>
<path fill="none" stroke="#c0c0c0" stroke-width="2" d="M700.2296,-1079.8977C709.8752,-1070.0126 721.1448,-1057.1329 729,-1044 740.6228,-1024.5682 749.2123,-1000.3701 754.7099,-981.9606"/>
<polygon fill="#c0c0c0" stroke="#c0c0c0" stroke-width="2" points="758.1357,-982.7101 757.5173,-972.1334 751.405,-980.7873 758.1357,-982.7101"/>
</g>
<!-- 48&#45;&gt;42 -->
<g id="edge87" class="edge">
<title>48&#45;&gt;42</title>
<path fill="none" stroke="#c0c0c0" stroke-width="2" d="M647.9572,-1095.1993C577.3208,-1087.2185 418,-1057.7213 418,-954 418,-954 418,-954 418,-594 418,-550.1465 393.7171,-504.307 375.7932,-476.4447"/>
<polygon fill="#c0c0c0" stroke="#c0c0c0" stroke-width="2" points="378.6765,-474.4595 370.2361,-468.0555 372.8407,-478.3253 378.6765,-474.4595"/>
</g>
<!-- 48&#45;&gt;47 -->
<g id="edge92" class="edge">
<title>48&#45;&gt;47</title>
<path fill="none" stroke="#c0c0c0" stroke-width="2" d="M681,-1079.8314C681,-1072.131 681,-1062.9743 681,-1054.4166"/>
<polygon fill="#c0c0c0" stroke="#c0c0c0" stroke-width="2" points="684.5001,-1054.4132 681,-1044.4133 677.5001,-1054.4133 684.5001,-1054.4132"/>
</g>
<!-- 49 -->
<g id="node50" class="node">
<title>49</title>
<path fill="none" stroke="#ced856" stroke-width="2" stroke-dasharray="5,2" d="M1352,-1044C1352,-1044 1298,-1044 1298,-1044 1292,-1044 1286,-1038 1286,-1032 1286,-1032 1286,-1020 1286,-1020 1286,-1014 1292,-1008 1298,-1008 1298,-1008 1352,-1008 1352,-1008 1358,-1008 1364,-1014 1364,-1020 1364,-1020 1364,-1032 1364,-1032 1364,-1038 1358,-1044 1352,-1044"/>
<text text-anchor="middle" x="1325" y="-1023.5" font-family="sans" font-size="10.00" fill="#000000">peak_calling</text>
</g>
<!-- 49&#45;&gt;31 -->
<g id="edge67" class="edge">
<title>49&#45;&gt;31</title>
<path fill="none" stroke="#c0c0c0" stroke-width="2" d="M1325,-1007.8314C1325,-1000.131 1325,-990.9743 1325,-982.4166"/>
<polygon fill="#c0c0c0" stroke="#c0c0c0" stroke-width="2" points="1328.5001,-982.4132 1325,-972.4133 1321.5001,-982.4133 1328.5001,-982.4132"/>
</g>
<!-- 49&#45;&gt;34 -->
<g id="edge73" class="edge">
<title>49&#45;&gt;34</title>
<path fill="none" stroke="#c0c0c0" stroke-width="2" d="M1285.7742,-1013.0447C1247.0124,-1000.2426 1187.9416,-980.733 1148.4311,-967.6836"/>
<polygon fill="#c0c0c0" stroke="#c0c0c0" stroke-width="2" points="1149.4249,-964.326 1138.8317,-964.5132 1147.2295,-970.9728 1149.4249,-964.326"/>
</g>
<!-- 50 -->
<g id="node51" class="node">
<title>50</title>
<path fill="none" stroke="#d8c356" stroke-width="2" stroke-dasharray="5,2" d="M1552,-1116C1552,-1116 1510,-1116 1510,-1116 1504,-1116 1498,-1110 1498,-1104 1498,-1104 1498,-1092 1498,-1092 1498,-1086 1504,-1080 1510,-1080 1510,-1080 1552,-1080 1552,-1080 1558,-1080 1564,-1086 1564,-1092 1564,-1092 1564,-1104 1564,-1104 1564,-1110 1558,-1116 1552,-1116"/>
<text text-anchor="middle" x="1531" y="-1095.5" font-family="sans" font-size="10.00" fill="#000000">filter_bam</text>
</g>
<!-- 50&#45;&gt;31 -->
<g id="edge68" class="edge">
<title>50&#45;&gt;31</title>
<path fill="none" stroke="#c0c0c0" stroke-width="2" d="M1504.91,-1079.7623C1467.9163,-1053.9026 1400.1702,-1006.5461 1359.1948,-977.9032"/>
<polygon fill="#c0c0c0" stroke="#c0c0c0" stroke-width="2" points="1361.0795,-974.9503 1350.8782,-972.0896 1357.069,-980.6876 1361.0795,-974.9503"/>
</g>
<!-- 50&#45;&gt;38 -->
<g id="edge80" class="edge">
<title>50&#45;&gt;38</title>
<path fill="none" stroke="#c0c0c0" stroke-width="2" d="M1563.1211,-1079.9113C1600.4518,-1056.2362 1657,-1010.9709 1657,-954 1657,-954 1657,-954 1657,-594 1657,-550.1465 1681.2829,-504.307 1699.2068,-476.4447"/>
<polygon fill="#c0c0c0" stroke="#c0c0c0" stroke-width="2" points="1702.1593,-478.3253 1704.7639,-468.0555 1696.3235,-474.4595 1702.1593,-478.3253"/>
</g>
<!-- 50&#45;&gt;49 -->
<g id="edge94" class="edge">
<title>50&#45;&gt;49</title>
<path fill="none" stroke="#c0c0c0" stroke-width="2" d="M1497.9025,-1086.432C1464.4934,-1074.755 1412.5062,-1056.5847 1374.2557,-1043.2156"/>
<polygon fill="#c0c0c0" stroke="#c0c0c0" stroke-width="2" points="1374.9483,-1039.7501 1364.3535,-1039.7546 1372.6387,-1046.3581 1374.9483,-1039.7501"/>
</g>
<!-- 51&#45;&gt;35 -->
<g id="edge76" class="edge">
<title>51&#45;&gt;35</title>
<path fill="none" stroke="#c0c0c0" stroke-width="2" d="M984.7845,-503.8314C973.453,-494.9632 959.6536,-484.1637 947.3973,-474.5718"/>
<polygon fill="#c0c0c0" stroke="#c0c0c0" stroke-width="2" points="949.2402,-471.5697 939.2081,-468.1628 944.926,-477.0822 949.2402,-471.5697"/>
</g>
<!-- 51&#45;&gt;39 -->
<g id="edge82" class="edge">
<title>51&#45;&gt;39</title>
<path fill="none" stroke="#c0c0c0" stroke-width="2" d="M1025.664,-503.8314C1033.9732,-495.2848 1044.0264,-484.9443 1053.0918,-475.6198"/>
<polygon fill="#c0c0c0" stroke="#c0c0c0" stroke-width="2" points="1055.6369,-478.023 1060.0982,-468.4133 1050.6179,-473.1435 1055.6369,-478.023"/>
</g>
<!-- 52&#45;&gt;36 -->
<g id="edge78" class="edge">
<title>52&#45;&gt;36</title>
<path fill="none" stroke="#c0c0c0" stroke-width="2" d="M1413.1961,-503.8314C1410.7092,-496.0463 1407.7469,-486.7729 1404.9875,-478.1347"/>
<polygon fill="#c0c0c0" stroke="#c0c0c0" stroke-width="2" points="1408.2591,-476.874 1401.882,-468.4133 1401.591,-479.0041 1408.2591,-476.874"/>
</g>
<!-- 52&#45;&gt;40 -->
<g id="edge84" class="edge">
<title>52&#45;&gt;40</title>
<path fill="none" stroke="#c0c0c0" stroke-width="2" d="M1454.0756,-503.8314C1472.2661,-494.4089 1494.6658,-482.8062 1514.006,-472.7883"/>
<polygon fill="#c0c0c0" stroke="#c0c0c0" stroke-width="2" points="1515.666,-475.8701 1522.9357,-468.1628 1512.4463,-469.6545 1515.666,-475.8701"/>
</g>
<!-- 53&#45;&gt;41 -->
<g id="edge86" class="edge">
<title>53&#45;&gt;41</title>
<path fill="none" stroke="#c0c0c0" stroke-width="2" d="M609.9631,-503.8314C621.1715,-494.9632 634.8209,-484.1637 646.9439,-474.5718"/>
<polygon fill="#c0c0c0" stroke="#c0c0c0" stroke-width="2" points="649.3737,-477.1125 655.0442,-468.1628 645.0303,-471.6229 649.3737,-477.1125"/>
</g>
<!-- 53&#45;&gt;43 -->
<g id="edge89" class="edge">
<title>53&#45;&gt;43</title>
<path fill="none" stroke="#c0c0c0" stroke-width="2" d="M569.0837,-503.8314C560.6558,-495.2848 550.459,-484.9443 541.264,-475.6198"/>
<polygon fill="#c0c0c0" stroke="#c0c0c0" stroke-width="2" points="543.6711,-473.0761 534.1575,-468.4133 538.6869,-477.9912 543.6711,-473.0761"/>
</g>
<!-- 54 -->
<g id="node55" class="node">
<title>54</title>
<path fill="none" stroke="#70d856" stroke-width="2" stroke-dasharray="5,2" d="M1157.5,-1188C1157.5,-1188 1074.5,-1188 1074.5,-1188 1068.5,-1188 1062.5,-1182 1062.5,-1176 1062.5,-1176 1062.5,-1164 1062.5,-1164 1062.5,-1158 1068.5,-1152 1074.5,-1152 1074.5,-1152 1157.5,-1152 1157.5,-1152 1163.5,-1152 1169.5,-1158 1169.5,-1164 1169.5,-1164 1169.5,-1176 1169.5,-1176 1169.5,-1182 1163.5,-1188 1157.5,-1188"/>
<text text-anchor="middle" x="1116" y="-1173" font-family="sans" font-size="10.00" fill="#000000">merge_bam</text>
<text text-anchor="middle" x="1116" y="-1162" font-family="sans" font-size="10.00" fill="#000000">sample: GFP_IIG_7</text>
</g>
<!-- 54&#45;&gt;46 -->
<g id="edge91" class="edge">
<title>54&#45;&gt;46</title>
<path fill="none" stroke="#c0c0c0" stroke-width="2" d="M1116,-1151.8314C1116,-1144.131 1116,-1134.9743 1116,-1126.4166"/>
<polygon fill="#c0c0c0" stroke="#c0c0c0" stroke-width="2" points="1119.5001,-1126.4132 1116,-1116.4133 1112.5001,-1126.4133 1119.5001,-1126.4132"/>
</g>
<!-- 55 -->
<g id="node56" class="node">
<title>55</title>
<path fill="none" stroke="#70d856" stroke-width="2" stroke-dasharray="5,2" d="M719.5,-1188C719.5,-1188 638.5,-1188 638.5,-1188 632.5,-1188 626.5,-1182 626.5,-1176 626.5,-1176 626.5,-1164 626.5,-1164 626.5,-1158 632.5,-1152 638.5,-1152 638.5,-1152 719.5,-1152 719.5,-1152 725.5,-1152 731.5,-1158 731.5,-1164 731.5,-1164 731.5,-1176 731.5,-1176 731.5,-1182 725.5,-1188 719.5,-1188"/>
<text text-anchor="middle" x="679" y="-1173" font-family="sans" font-size="10.00" fill="#000000">merge_bam</text>
<text text-anchor="middle" x="679" y="-1162" font-family="sans" font-size="10.00" fill="#000000">sample: RFP_IIE_1</text>
</g>
<!-- 55&#45;&gt;48 -->
<g id="edge93" class="edge">
<title>55&#45;&gt;48</title>
<path fill="none" stroke="#c0c0c0" stroke-width="2" d="M679.5047,-1151.8314C679.7186,-1144.131 679.9729,-1134.9743 680.2106,-1126.4166"/>
<polygon fill="#c0c0c0" stroke="#c0c0c0" stroke-width="2" points="683.7094,-1126.5066 680.4885,-1116.4133 676.7121,-1126.3122 683.7094,-1126.5066"/>
</g>
<!-- 56 -->
<g id="node57" class="node">
<title>56</title>
<path fill="none" stroke="#70d856" stroke-width="2" stroke-dasharray="5,2" d="M1643,-1188C1643,-1188 1561,-1188 1561,-1188 1555,-1188 1549,-1182 1549,-1176 1549,-1176 1549,-1164 1549,-1164 1549,-1158 1555,-1152 1561,-1152 1561,-1152 1643,-1152 1643,-1152 1649,-1152 1655,-1158 1655,-1164 1655,-1164 1655,-1176 1655,-1176 1655,-1182 1649,-1188 1643,-1188"/>
<text text-anchor="middle" x="1602" y="-1173" font-family="sans" font-size="10.00" fill="#000000">merge_bam</text>
<text text-anchor="middle" x="1602" y="-1162" font-family="sans" font-size="10.00" fill="#000000">sample: iPSC_IIi_9</text>
</g>
<!-- 56&#45;&gt;50 -->
<g id="edge95" class="edge">
<title>56&#45;&gt;50</title>
<path fill="none" stroke="#c0c0c0" stroke-width="2" d="M1584.0837,-1151.8314C1575.6558,-1143.2848 1565.459,-1132.9443 1556.264,-1123.6198"/>
<polygon fill="#c0c0c0" stroke="#c0c0c0" stroke-width="2" points="1558.6711,-1121.0761 1549.1575,-1116.4133 1553.6869,-1125.9912 1558.6711,-1121.0761"/>
</g>
<!-- 57 -->
<g id="node58" class="node">
<title>57</title>
<path fill="none" stroke="#56d892" stroke-width="2" stroke-dasharray="5,2" d="M1225,-1260C1225,-1260 1007,-1260 1007,-1260 1001,-1260 995,-1254 995,-1248 995,-1248 995,-1236 995,-1236 995,-1230 1001,-1224 1007,-1224 1007,-1224 1225,-1224 1225,-1224 1231,-1224 1237,-1230 1237,-1236 1237,-1236 1237,-1248 1237,-1248 1237,-1254 1231,-1260 1225,-1260"/>
<text text-anchor="middle" x="1116" y="-1245" font-family="sans" font-size="10.00" fill="#000000">align</text>
<text text-anchor="middle" x="1116" y="-1234" font-family="sans" font-size="10.00" fill="#000000">lane_sample: HN7NJBBXX_16871601_S3_L001</text>
</g>
<!-- 57&#45;&gt;54 -->
<g id="edge99" class="edge">
<title>57&#45;&gt;54</title>
<path fill="none" stroke="#c0c0c0" stroke-width="2" d="M1116,-1223.8314C1116,-1216.131 1116,-1206.9743 1116,-1198.4166"/>
<polygon fill="#c0c0c0" stroke="#c0c0c0" stroke-width="2" points="1119.5001,-1198.4132 1116,-1188.4133 1112.5001,-1198.4133 1119.5001,-1198.4132"/>
</g>
<!-- 58 -->
<g id="node59" class="node">
<title>58</title>
<path fill="none" stroke="#56d892" stroke-width="2" stroke-dasharray="5,2" d="M785,-1260C785,-1260 563,-1260 563,-1260 557,-1260 551,-1254 551,-1248 551,-1248 551,-1236 551,-1236 551,-1230 557,-1224 563,-1224 563,-1224 785,-1224 785,-1224 791,-1224 797,-1230 797,-1236 797,-1236 797,-1248 797,-1248 797,-1254 791,-1260 785,-1260"/>
<text text-anchor="middle" x="674" y="-1245" font-family="sans" font-size="10.00" fill="#000000">align</text>
<text text-anchor="middle" x="674" y="-1234" font-family="sans" font-size="10.00" fill="#000000">lane_sample: HN7TMBBXX_16871599_S8_L004</text>
</g>
<!-- 58&#45;&gt;55 -->
<g id="edge100" class="edge">
<title>58&#45;&gt;55</title>
<path fill="none" stroke="#c0c0c0" stroke-width="2" d="M675.2617,-1223.8314C675.7965,-1216.131 676.4323,-1206.9743 677.0266,-1198.4166"/>
<polygon fill="#c0c0c0" stroke="#c0c0c0" stroke-width="2" points="680.52,-1198.6317 677.7213,-1188.4133 673.5368,-1198.1467 680.52,-1198.6317"/>
</g>
<!-- 59 -->
<g id="node60" class="node">
<title>59</title>
<path fill="none" stroke="#56d892" stroke-width="2" stroke-dasharray="5,2" d="M1782,-1260C1782,-1260 1558,-1260 1558,-1260 1552,-1260 1546,-1254 1546,-1248 1546,-1248 1546,-1236 1546,-1236 1546,-1230 1552,-1224 1558,-1224 1558,-1224 1782,-1224 1782,-1224 1788,-1224 1794,-1230 1794,-1236 1794,-1236 1794,-1248 1794,-1248 1794,-1254 1788,-1260 1782,-1260"/>
<text text-anchor="middle" x="1670" y="-1245" font-family="sans" font-size="10.00" fill="#000000">align</text>
<text text-anchor="middle" x="1670" y="-1234" font-family="sans" font-size="10.00" fill="#000000">lane_sample: HN7NJBBXX_16871597_S10_L008</text>
</g>
<!-- 59&#45;&gt;56 -->
<g id="edge101" class="edge">
<title>59&#45;&gt;56</title>
<path fill="none" stroke="#c0c0c0" stroke-width="2" d="M1652.8407,-1223.8314C1644.8489,-1215.3694 1635.1962,-1205.1489 1626.4584,-1195.8971"/>
<polygon fill="#c0c0c0" stroke="#c0c0c0" stroke-width="2" points="1628.8011,-1193.2802 1619.3903,-1188.4133 1623.712,-1198.0866 1628.8011,-1193.2802"/>
</g>
<!-- 60 -->
<g id="node61" class="node">
<title>60</title>
<path fill="none" stroke="#5682d8" stroke-width="2" stroke-dasharray="5,2" d="M1038,-1332C1038,-1332 752,-1332 752,-1332 746,-1332 740,-1326 740,-1320 740,-1320 740,-1308 740,-1308 740,-1302 746,-1296 752,-1296 752,-1296 1038,-1296 1038,-1296 1044,-1296 1050,-1302 1050,-1308 1050,-1308 1050,-1320 1050,-1320 1050,-1326 1044,-1332 1038,-1332"/>
<text text-anchor="middle" x="895" y="-1317" font-family="sans" font-size="10.00" fill="#000000">pull_lane_fastq_from_nisc_or_sra</text>
<text text-anchor="middle" x="895" y="-1306" font-family="sans" font-size="10.00" fill="#000000">lane_files: HN7NJBBXX_16871601_S3_L001_R1_001.fastq.gz</text>
</g>
<!-- 60&#45;&gt;57 -->
<g id="edge102" class="edge">
<title>60&#45;&gt;57</title>
<path fill="none" stroke="#c0c0c0" stroke-width="2" d="M950.4824,-1295.9243C980.9571,-1285.9959 1018.9273,-1273.6255 1050.8105,-1263.2382"/>
<polygon fill="#c0c0c0" stroke="#c0c0c0" stroke-width="2" points="1052.0709,-1266.5087 1060.4948,-1260.0831 1049.9025,-1259.853 1052.0709,-1266.5087"/>
</g>
<!-- 61 -->
<g id="node62" class="node">
<title>61</title>
<path fill="none" stroke="#5682d8" stroke-width="2" stroke-dasharray="5,2" d="M1482,-1332C1482,-1332 1196,-1332 1196,-1332 1190,-1332 1184,-1326 1184,-1320 1184,-1320 1184,-1308 1184,-1308 1184,-1302 1190,-1296 1196,-1296 1196,-1296 1482,-1296 1482,-1296 1488,-1296 1494,-1302 1494,-1308 1494,-1308 1494,-1320 1494,-1320 1494,-1326 1488,-1332 1482,-1332"/>
<text text-anchor="middle" x="1339" y="-1317" font-family="sans" font-size="10.00" fill="#000000">pull_lane_fastq_from_nisc_or_sra</text>
<text text-anchor="middle" x="1339" y="-1306" font-family="sans" font-size="10.00" fill="#000000">lane_files: HN7NJBBXX_16871601_S3_L001_R2_001.fastq.gz</text>
</g>
<!-- 61&#45;&gt;57 -->
<g id="edge103" class="edge">
<title>61&#45;&gt;57</title>
<path fill="none" stroke="#c0c0c0" stroke-width="2" d="M1283.0155,-1295.9243C1252.265,-1285.9959 1213.9512,-1273.6255 1181.7795,-1263.2382"/>
<polygon fill="#c0c0c0" stroke="#c0c0c0" stroke-width="2" points="1182.5992,-1259.825 1172.0075,-1260.0831 1180.4484,-1266.4864 1182.5992,-1259.825"/>
</g>
<!-- 62 -->
<g id="node63" class="node">
<title>62</title>
<path fill="none" stroke="#d89c56" stroke-width="2" stroke-dasharray="5,2" d="M937,-1404C937,-1404 891,-1404 891,-1404 885,-1404 879,-1398 879,-1392 879,-1392 879,-1380 879,-1380 879,-1374 885,-1368 891,-1368 891,-1368 937,-1368 937,-1368 943,-1368 949,-1374 949,-1380 949,-1380 949,-1392 949,-1392 949,-1398 943,-1404 937,-1404"/>
<text text-anchor="middle" x="914" y="-1383.5" font-family="sans" font-size="10.00" fill="#000000">build_hg19</text>
</g>
<!-- 62&#45;&gt;57 -->
<g id="edge104" class="edge">
<title>62&#45;&gt;57</title>
<path fill="none" stroke="#c0c0c0" stroke-width="2" d="M878.8163,-1381.8057C813.9323,-1372.7268 685.9888,-1347.765 731,-1296 747.7994,-1276.6799 879.9315,-1261.2921 984.7801,-1251.9622"/>
<polygon fill="#c0c0c0" stroke="#c0c0c0" stroke-width="2" points="985.1817,-1255.4405 994.8368,-1251.0783 984.5687,-1248.4674 985.1817,-1255.4405"/>
</g>
<!-- 62&#45;&gt;58 -->
<g id="edge108" class="edge">
<title>62&#45;&gt;58</title>
<path fill="none" stroke="#c0c0c0" stroke-width="2" d="M878.6958,-1379.9606C828.9329,-1370.8515 741.4869,-1352.4711 717,-1332 698.1063,-1316.2048 686.9345,-1290.1851 680.7358,-1270.1748"/>
<polygon fill="#c0c0c0" stroke="#c0c0c0" stroke-width="2" points="684.0408,-1269.0015 677.933,-1260.3444 677.3091,-1270.9209 684.0408,-1269.0015"/>
</g>
<!-- 62&#45;&gt;59 -->
<g id="edge112" class="edge">
<title>62&#45;&gt;59</title>
<path fill="none" stroke="#c0c0c0" stroke-width="2" d="M949.2442,-1385.8437C1148.603,-1384.7915 2127.5816,-1377.3237 2171,-1332 2182.0683,-1320.4461 2181.6903,-1307.9045 2171,-1296 2146.8181,-1269.0717 1944.5517,-1254.393 1804.5405,-1247.3793"/>
<polygon fill="#c0c0c0" stroke="#c0c0c0" stroke-width="2" points="1804.3102,-1243.8638 1794.1499,-1246.8671 1803.9654,-1250.8553 1804.3102,-1243.8638"/>
</g>
<!-- 63 -->
<g id="node64" class="node">
<title>63</title>
<path fill="none" stroke="#b6d856" stroke-width="2" stroke-dasharray="5,2" d="M1154,-1332C1154,-1332 1080,-1332 1080,-1332 1074,-1332 1068,-1326 1068,-1320 1068,-1320 1068,-1308 1068,-1308 1068,-1302 1074,-1296 1080,-1296 1080,-1296 1154,-1296 1154,-1296 1160,-1296 1166,-1302 1166,-1308 1166,-1308 1166,-1320 1166,-1320 1166,-1326 1160,-1332 1154,-1332"/>
<text text-anchor="middle" x="1117" y="-1311.5" font-family="sans" font-size="10.00" fill="#000000">build_bwa_index</text>
</g>
<!-- 62&#45;&gt;63 -->
<g id="edge114" class="edge">
<title>62&#45;&gt;63</title>
<path fill="none" stroke="#c0c0c0" stroke-width="2" d="M949.3599,-1373.4586C979.3677,-1362.8154 1023.0365,-1347.327 1058.2815,-1334.8263"/>
<polygon fill="#c0c0c0" stroke="#c0c0c0" stroke-width="2" points="1059.7259,-1338.0277 1067.9807,-1331.3862 1057.386,-1331.4303 1059.7259,-1338.0277"/>
</g>
<!-- 63&#45;&gt;57 -->
<g id="edge105" class="edge">
<title>63&#45;&gt;57</title>
<path fill="none" stroke="#c0c0c0" stroke-width="2" d="M1116.7477,-1295.8314C1116.6407,-1288.131 1116.5135,-1278.9743 1116.3947,-1270.4166"/>
<polygon fill="#c0c0c0" stroke="#c0c0c0" stroke-width="2" points="1119.8944,-1270.3637 1116.2557,-1260.4133 1112.8951,-1270.4609 1119.8944,-1270.3637"/>
</g>
<!-- 63&#45;&gt;58 -->
<g id="edge109" class="edge">
<title>63&#45;&gt;58</title>
<path fill="none" stroke="#c0c0c0" stroke-width="2" d="M1067.7852,-1298.1329C1064.8254,-1297.3636 1061.8809,-1296.6446 1059,-1296 976.2774,-1277.4898 882.0579,-1264.1447 807.5322,-1255.3519"/>
<polygon fill="#c0c0c0" stroke="#c0c0c0" stroke-width="2" points="807.4884,-1251.8231 797.1503,-1254.1413 806.6776,-1258.776 807.4884,-1251.8231"/>
</g>
<!-- 63&#45;&gt;59 -->
<g id="edge113" class="edge">
<title>63&#45;&gt;59</title>
<path fill="none" stroke="#c0c0c0" stroke-width="2" d="M1166.1921,-1298.0275C1169.1576,-1297.2847 1172.1096,-1296.6003 1175,-1296 1295.7001,-1270.9303 1435.5263,-1257.0344 1535.7179,-1249.6427"/>
<polygon fill="#c0c0c0" stroke="#c0c0c0" stroke-width="2" points="1536.1777,-1253.1187 1545.8981,-1248.904 1535.671,-1246.137 1536.1777,-1253.1187"/>
</g>
<!-- 64 -->
<g id="node65" class="node">
<title>64</title>
<path fill="none" stroke="#5682d8" stroke-width="2" stroke-dasharray="5,2" d="M302,-1332C302,-1332 12,-1332 12,-1332 6,-1332 0,-1326 0,-1320 0,-1320 0,-1308 0,-1308 0,-1302 6,-1296 12,-1296 12,-1296 302,-1296 302,-1296 308,-1296 314,-1302 314,-1308 314,-1308 314,-1320 314,-1320 314,-1326 308,-1332 302,-1332"/>
<text text-anchor="middle" x="157" y="-1317" font-family="sans" font-size="10.00" fill="#000000">pull_lane_fastq_from_nisc_or_sra</text>
<text text-anchor="middle" x="157" y="-1306" font-family="sans" font-size="10.00" fill="#000000">lane_files: HN7TMBBXX_16871599_S8_L004_R1_001.fastq.gz</text>
</g>
<!-- 64&#45;&gt;58 -->
<g id="edge106" class="edge">
<title>64&#45;&gt;58</title>
<path fill="none" stroke="#c0c0c0" stroke-width="2" d="M286.4603,-1295.9707C364.0483,-1285.1654 462.4958,-1271.4551 540.7493,-1260.5572"/>
<polygon fill="#c0c0c0" stroke="#c0c0c0" stroke-width="2" points="541.2544,-1264.0207 550.676,-1259.1747 540.2888,-1257.0876 541.2544,-1264.0207"/>
</g>
<!-- 65 -->
<g id="node66" class="node">
<title>65</title>
<path fill="none" stroke="#5682d8" stroke-width="2" stroke-dasharray="5,2" d="M634,-1332C634,-1332 344,-1332 344,-1332 338,-1332 332,-1326 332,-1320 332,-1320 332,-1308 332,-1308 332,-1302 338,-1296 344,-1296 344,-1296 634,-1296 634,-1296 640,-1296 646,-1302 646,-1308 646,-1308 646,-1320 646,-1320 646,-1326 640,-1332 634,-1332"/>
<text text-anchor="middle" x="489" y="-1317" font-family="sans" font-size="10.00" fill="#000000">pull_lane_fastq_from_nisc_or_sra</text>
<text text-anchor="middle" x="489" y="-1306" font-family="sans" font-size="10.00" fill="#000000">lane_files: HN7TMBBXX_16871599_S8_L004_R2_001.fastq.gz</text>
</g>
<!-- 65&#45;&gt;58 -->
<g id="edge107" class="edge">
<title>65&#45;&gt;58</title>
<path fill="none" stroke="#c0c0c0" stroke-width="2" d="M535.6833,-1295.8314C560.7559,-1286.0734 591.8367,-1273.977 618.1809,-1263.7242"/>
<polygon fill="#c0c0c0" stroke="#c0c0c0" stroke-width="2" points="619.6027,-1266.9266 627.6524,-1260.038 617.0638,-1260.4033 619.6027,-1266.9266"/>
</g>
<!-- 66 -->
<g id="node67" class="node">
<title>66</title>
<path fill="none" stroke="#5682d8" stroke-width="2" stroke-dasharray="5,2" d="M1816,-1332C1816,-1332 1524,-1332 1524,-1332 1518,-1332 1512,-1326 1512,-1320 1512,-1320 1512,-1308 1512,-1308 1512,-1302 1518,-1296 1524,-1296 1524,-1296 1816,-1296 1816,-1296 1822,-1296 1828,-1302 1828,-1308 1828,-1308 1828,-1320 1828,-1320 1828,-1326 1822,-1332 1816,-1332"/>
<text text-anchor="middle" x="1670" y="-1317" font-family="sans" font-size="10.00" fill="#000000">pull_lane_fastq_from_nisc_or_sra</text>
<text text-anchor="middle" x="1670" y="-1306" font-family="sans" font-size="10.00" fill="#000000">lane_files: HN7NJBBXX_16871597_S10_L008_R1_001.fastq.gz</text>
</g>
<!-- 66&#45;&gt;59 -->
<g id="edge110" class="edge">
<title>66&#45;&gt;59</title>
<path fill="none" stroke="#c0c0c0" stroke-width="2" d="M1670,-1295.8314C1670,-1288.131 1670,-1278.9743 1670,-1270.4166"/>
<polygon fill="#c0c0c0" stroke="#c0c0c0" stroke-width="2" points="1673.5001,-1270.4132 1670,-1260.4133 1666.5001,-1270.4133 1673.5001,-1270.4132"/>
</g>
<!-- 67 -->
<g id="node68" class="node">
<title>67</title>
<path fill="none" stroke="#5682d8" stroke-width="2" stroke-dasharray="5,2" d="M2150,-1332C2150,-1332 1858,-1332 1858,-1332 1852,-1332 1846,-1326 1846,-1320 1846,-1320 1846,-1308 1846,-1308 1846,-1302 1852,-1296 1858,-1296 1858,-1296 2150,-1296 2150,-1296 2156,-1296 2162,-1302 2162,-1308 2162,-1308 2162,-1320 2162,-1320 2162,-1326 2156,-1332 2150,-1332"/>
<text text-anchor="middle" x="2004" y="-1317" font-family="sans" font-size="10.00" fill="#000000">pull_lane_fastq_from_nisc_or_sra</text>
<text text-anchor="middle" x="2004" y="-1306" font-family="sans" font-size="10.00" fill="#000000">lane_files: HN7NJBBXX_16871597_S10_L008_R2_001.fastq.gz</text>
</g>
<!-- 67&#45;&gt;59 -->
<g id="edge111" class="edge">
<title>67&#45;&gt;59</title>
<path fill="none" stroke="#c0c0c0" stroke-width="2" d="M1920.1488,-1295.9243C1872.5127,-1285.6554 1812.7584,-1272.7743 1763.5981,-1262.1768"/>
<polygon fill="#c0c0c0" stroke="#c0c0c0" stroke-width="2" points="1764.109,-1258.7066 1753.5959,-1260.0207 1762.6338,-1265.5494 1764.109,-1258.7066"/>
</g>
</g>
</svg>
