<?xml version="1.0" encoding="UTF-8" standalone="no"?>
<!DOCTYPE svg PUBLIC "-//W3C//DTD SVG 1.1//EN"
 "http://www.w3.org/Graphics/SVG/1.1/DTD/svg11.dtd">
<!-- Generated by graphviz version 2.40.1 (20161225.0304)
 -->
<!-- Title: snakemake_dag Pages: 1 -->
<svg width="2869pt" height="1052pt"
 viewBox="0.00 0.00 2869.19 1052.00" xmlns="http://www.w3.org/2000/svg" xmlns:xlink="http://www.w3.org/1999/xlink">
<g id="graph0" class="graph" transform="scale(1 1) rotate(0) translate(4 1048)">
<title>snakemake_dag</title>
<polygon fill="#ffffff" stroke="transparent" points="-4,4 -4,-1048 2865.1941,-1048 2865.1941,4 -4,4"/>
<!-- 0 -->
<g id="node1" class="node">
<title>0</title>
<path fill="none" stroke="#567bd8" stroke-width="2" stroke-dasharray="5,2" d="M1129,-36C1129,-36 1099,-36 1099,-36 1093,-36 1087,-30 1087,-24 1087,-24 1087,-12 1087,-12 1087,-6 1093,0 1099,0 1099,0 1129,0 1129,0 1135,0 1141,-6 1141,-12 1141,-12 1141,-24 1141,-24 1141,-30 1135,-36 1129,-36"/>
<text text-anchor="middle" x="1114" y="-15.5" font-family="sans" font-size="10.00" fill="#000000">all</text>
</g>
<!-- 1 -->
<g id="node2" class="node">
<title>1</title>
<path fill="none" stroke="#d8c356" stroke-width="2" stroke-dasharray="5,2" d="M903.5,-108C903.5,-108 850.5,-108 850.5,-108 844.5,-108 838.5,-102 838.5,-96 838.5,-96 838.5,-84 838.5,-84 838.5,-78 844.5,-72 850.5,-72 850.5,-72 903.5,-72 903.5,-72 909.5,-72 915.5,-78 915.5,-84 915.5,-84 915.5,-96 915.5,-96 915.5,-102 909.5,-108 903.5,-108"/>
<text text-anchor="middle" x="877" y="-87.5" font-family="sans" font-size="10.00" fill="#000000">homer_TFBS</text>
</g>
<!-- 1&#45;&gt;0 -->
<g id="edge1" class="edge">
<title>1&#45;&gt;0</title>
<path fill="none" stroke="#c0c0c0" stroke-width="2" d="M915.6305,-74.8932C918.4527,-73.8857 921.2642,-72.9107 924,-72 976.568,-54.502 1038.4597,-37.5823 1076.9693,-27.4804"/>
<polygon fill="#c0c0c0" stroke="#c0c0c0" stroke-width="2" points="1077.9167,-30.8504 1086.7097,-24.9399 1076.15,-24.077 1077.9167,-30.8504"/>
</g>
<!-- 2 -->
<g id="node3" class="node">
<title>2</title>
<path fill="none" stroke="#d8c356" stroke-width="2" stroke-dasharray="5,2" d="M1188.5,-108C1188.5,-108 1135.5,-108 1135.5,-108 1129.5,-108 1123.5,-102 1123.5,-96 1123.5,-96 1123.5,-84 1123.5,-84 1123.5,-78 1129.5,-72 1135.5,-72 1135.5,-72 1188.5,-72 1188.5,-72 1194.5,-72 1200.5,-78 1200.5,-84 1200.5,-84 1200.5,-96 1200.5,-96 1200.5,-102 1194.5,-108 1188.5,-108"/>
<text text-anchor="middle" x="1162" y="-87.5" font-family="sans" font-size="10.00" fill="#000000">homer_TFBS</text>
</g>
<!-- 2&#45;&gt;0 -->
<g id="edge2" class="edge">
<title>2&#45;&gt;0</title>
<path fill="none" stroke="#c0c0c0" stroke-width="2" d="M1149.8876,-71.8314C1144.4719,-63.7079 1137.9758,-53.9637 1132.0079,-45.0118"/>
<polygon fill="#c0c0c0" stroke="#c0c0c0" stroke-width="2" points="1134.7347,-42.7923 1126.2755,-36.4133 1128.9104,-46.6753 1134.7347,-42.7923"/>
</g>
<!-- 3 -->
<g id="node4" class="node">
<title>3</title>
<path fill="none" stroke="#d8c356" stroke-width="2" stroke-dasharray="5,2" d="M808.5,-108C808.5,-108 755.5,-108 755.5,-108 749.5,-108 743.5,-102 743.5,-96 743.5,-96 743.5,-84 743.5,-84 743.5,-78 749.5,-72 755.5,-72 755.5,-72 808.5,-72 808.5,-72 814.5,-72 820.5,-78 820.5,-84 820.5,-84 820.5,-96 820.5,-96 820.5,-102 814.5,-108 808.5,-108"/>
<text text-anchor="middle" x="782" y="-87.5" font-family="sans" font-size="10.00" fill="#000000">homer_TFBS</text>
</g>
<!-- 3&#45;&gt;0 -->
<g id="edge3" class="edge">
<title>3&#45;&gt;0</title>
<path fill="none" stroke="#c0c0c0" stroke-width="2" d="M820.5438,-74.6121C823.3863,-73.6705 826.2261,-72.7871 829,-72 916.3857,-47.2026 1022.1166,-30.5411 1076.9587,-22.8611"/>
<polygon fill="#c0c0c0" stroke="#c0c0c0" stroke-width="2" points="1077.4817,-26.3222 1086.9096,-21.4883 1076.525,-19.3878 1077.4817,-26.3222"/>
</g>
<!-- 4 -->
<g id="node5" class="node">
<title>4</title>
<path fill="none" stroke="#d8c356" stroke-width="2" stroke-dasharray="5,2" d="M1093.5,-108C1093.5,-108 1040.5,-108 1040.5,-108 1034.5,-108 1028.5,-102 1028.5,-96 1028.5,-96 1028.5,-84 1028.5,-84 1028.5,-78 1034.5,-72 1040.5,-72 1040.5,-72 1093.5,-72 1093.5,-72 1099.5,-72 1105.5,-78 1105.5,-84 1105.5,-84 1105.5,-96 1105.5,-96 1105.5,-102 1099.5,-108 1093.5,-108"/>
<text text-anchor="middle" x="1067" y="-87.5" font-family="sans" font-size="10.00" fill="#000000">homer_TFBS</text>
</g>
<!-- 4&#45;&gt;0 -->
<g id="edge4" class="edge">
<title>4&#45;&gt;0</title>
<path fill="none" stroke="#c0c0c0" stroke-width="2" d="M1078.8601,-71.8314C1084.1629,-63.7079 1090.5237,-53.9637 1096.3673,-45.0118"/>
<polygon fill="#c0c0c0" stroke="#c0c0c0" stroke-width="2" points="1099.4448,-46.7003 1101.9802,-36.4133 1093.5831,-42.8739 1099.4448,-46.7003"/>
</g>
<!-- 5 -->
<g id="node6" class="node">
<title>5</title>
<path fill="none" stroke="#d8c356" stroke-width="2" stroke-dasharray="5,2" d="M1378.5,-108C1378.5,-108 1325.5,-108 1325.5,-108 1319.5,-108 1313.5,-102 1313.5,-96 1313.5,-96 1313.5,-84 1313.5,-84 1313.5,-78 1319.5,-72 1325.5,-72 1325.5,-72 1378.5,-72 1378.5,-72 1384.5,-72 1390.5,-78 1390.5,-84 1390.5,-84 1390.5,-96 1390.5,-96 1390.5,-102 1384.5,-108 1378.5,-108"/>
<text text-anchor="middle" x="1352" y="-87.5" font-family="sans" font-size="10.00" fill="#000000">homer_TFBS</text>
</g>
<!-- 5&#45;&gt;0 -->
<g id="edge5" class="edge">
<title>5&#45;&gt;0</title>
<path fill="none" stroke="#c0c0c0" stroke-width="2" d="M1313.371,-74.889C1310.5484,-73.8824 1307.7365,-72.9088 1305,-72 1252.0137,-54.4033 1189.5905,-37.4502 1150.8997,-27.3746"/>
<polygon fill="#c0c0c0" stroke="#c0c0c0" stroke-width="2" points="1151.6775,-23.9607 1141.1195,-24.8427 1149.9231,-30.7373 1151.6775,-23.9607"/>
</g>
<!-- 6 -->
<g id="node7" class="node">
<title>6</title>
<path fill="none" stroke="#d8c356" stroke-width="2" stroke-dasharray="5,2" d="M998.5,-108C998.5,-108 945.5,-108 945.5,-108 939.5,-108 933.5,-102 933.5,-96 933.5,-96 933.5,-84 933.5,-84 933.5,-78 939.5,-72 945.5,-72 945.5,-72 998.5,-72 998.5,-72 1004.5,-72 1010.5,-78 1010.5,-84 1010.5,-84 1010.5,-96 1010.5,-96 1010.5,-102 1004.5,-108 998.5,-108"/>
<text text-anchor="middle" x="972" y="-87.5" font-family="sans" font-size="10.00" fill="#000000">homer_TFBS</text>
</g>
<!-- 6&#45;&gt;0 -->
<g id="edge6" class="edge">
<title>6&#45;&gt;0</title>
<path fill="none" stroke="#c0c0c0" stroke-width="2" d="M1007.8326,-71.8314C1029.1604,-61.0173 1056.1523,-47.3312 1077.5824,-36.4652"/>
<polygon fill="#c0c0c0" stroke="#c0c0c0" stroke-width="2" points="1079.3583,-39.4891 1086.6945,-31.845 1076.1927,-33.2457 1079.3583,-39.4891"/>
</g>
<!-- 7 -->
<g id="node8" class="node">
<title>7</title>
<path fill="none" stroke="#d8c356" stroke-width="2" stroke-dasharray="5,2" d="M1283.5,-108C1283.5,-108 1230.5,-108 1230.5,-108 1224.5,-108 1218.5,-102 1218.5,-96 1218.5,-96 1218.5,-84 1218.5,-84 1218.5,-78 1224.5,-72 1230.5,-72 1230.5,-72 1283.5,-72 1283.5,-72 1289.5,-72 1295.5,-78 1295.5,-84 1295.5,-84 1295.5,-96 1295.5,-96 1295.5,-102 1289.5,-108 1283.5,-108"/>
<text text-anchor="middle" x="1257" y="-87.5" font-family="sans" font-size="10.00" fill="#000000">homer_TFBS</text>
</g>
<!-- 7&#45;&gt;0 -->
<g id="edge7" class="edge">
<title>7&#45;&gt;0</title>
<path fill="none" stroke="#c0c0c0" stroke-width="2" d="M1220.9151,-71.8314C1199.2929,-60.9447 1171.89,-47.1474 1150.2403,-36.2468"/>
<polygon fill="#c0c0c0" stroke="#c0c0c0" stroke-width="2" points="1151.55,-32.9877 1141.0443,-31.6167 1148.402,-39.24 1151.55,-32.9877"/>
</g>
<!-- 8 -->
<g id="node9" class="node">
<title>8</title>
<path fill="none" stroke="#d8c356" stroke-width="2" stroke-dasharray="5,2" d="M713.5,-108C713.5,-108 660.5,-108 660.5,-108 654.5,-108 648.5,-102 648.5,-96 648.5,-96 648.5,-84 648.5,-84 648.5,-78 654.5,-72 660.5,-72 660.5,-72 713.5,-72 713.5,-72 719.5,-72 725.5,-78 725.5,-84 725.5,-84 725.5,-96 725.5,-96 725.5,-102 719.5,-108 713.5,-108"/>
<text text-anchor="middle" x="687" y="-87.5" font-family="sans" font-size="10.00" fill="#000000">homer_TFBS</text>
</g>
<!-- 8&#45;&gt;0 -->
<g id="edge8" class="edge">
<title>8&#45;&gt;0</title>
<path fill="none" stroke="#c0c0c0" stroke-width="2" d="M725.5042,-74.4661C728.356,-73.5587 731.2087,-72.723 734,-72 857.0732,-40.1211 1007.7681,-25.7656 1076.5516,-20.5208"/>
<polygon fill="#c0c0c0" stroke="#c0c0c0" stroke-width="2" points="1077.157,-23.9857 1086.8709,-19.756 1076.6395,-17.0048 1077.157,-23.9857"/>
</g>
<!-- 9 -->
<g id="node10" class="node">
<title>9</title>
<path fill="none" stroke="#5692d8" stroke-width="2" stroke-dasharray="5,2" d="M1867,-540C1867,-540 1785,-540 1785,-540 1779,-540 1773,-534 1773,-528 1773,-528 1773,-516 1773,-516 1773,-510 1779,-504 1785,-504 1785,-504 1867,-504 1867,-504 1873,-504 1879,-510 1879,-516 1879,-516 1879,-528 1879,-528 1879,-534 1873,-540 1867,-540"/>
<text text-anchor="middle" x="1826" y="-519.5" font-family="sans" font-size="10.00" fill="#000000">ucsc_view_bigWig</text>
</g>
<!-- 9&#45;&gt;0 -->
<g id="edge9" class="edge">
<title>9&#45;&gt;0</title>
<path fill="none" stroke="#c0c0c0" stroke-width="2" d="M1845.9463,-503.6161C1871.3516,-478.0935 1912,-429.2496 1912,-378 1912,-378 1912,-378 1912,-162 1912,-150.2053 1867.8384,-115.3651 1678,-72 1576.9597,-48.9192 1260.0914,-27.2462 1151.1899,-20.3032"/>
<polygon fill="#c0c0c0" stroke="#c0c0c0" stroke-width="2" points="1151.2194,-16.7981 1141.0182,-19.6591 1150.777,-23.7841 1151.2194,-16.7981"/>
</g>
<!-- 10 -->
<g id="node11" class="node">
<title>10</title>
<path fill="none" stroke="#5692d8" stroke-width="2" stroke-dasharray="5,2" d="M1991,-540C1991,-540 1909,-540 1909,-540 1903,-540 1897,-534 1897,-528 1897,-528 1897,-516 1897,-516 1897,-510 1903,-504 1909,-504 1909,-504 1991,-504 1991,-504 1997,-504 2003,-510 2003,-516 2003,-516 2003,-528 2003,-528 2003,-534 1997,-540 1991,-540"/>
<text text-anchor="middle" x="1950" y="-519.5" font-family="sans" font-size="10.00" fill="#000000">ucsc_view_bigWig</text>
</g>
<!-- 10&#45;&gt;0 -->
<g id="edge10" class="edge">
<title>10&#45;&gt;0</title>
<path fill="none" stroke="#c0c0c0" stroke-width="2" d="M1950,-503.8146C1950,-476.4983 1950,-423.25 1950,-378 1950,-378 1950,-378 1950,-162 1950,-119.4291 2120.6206,-161.9711 1755,-72 1639.075,-43.4734 1269.7011,-24.9313 1151.066,-19.593"/>
<polygon fill="#c0c0c0" stroke="#c0c0c0" stroke-width="2" points="1151.1693,-16.0942 1141.0235,-19.1458 1150.8579,-23.0873 1151.1693,-16.0942"/>
</g>
<!-- 11 -->
<g id="node12" class="node">
<title>11</title>
<path fill="none" stroke="#5692d8" stroke-width="2" stroke-dasharray="5,2" d="M715,-540C715,-540 633,-540 633,-540 627,-540 621,-534 621,-528 621,-528 621,-516 621,-516 621,-510 627,-504 633,-504 633,-504 715,-504 715,-504 721,-504 727,-510 727,-516 727,-516 727,-528 727,-528 727,-534 721,-540 715,-540"/>
<text text-anchor="middle" x="674" y="-519.5" font-family="sans" font-size="10.00" fill="#000000">ucsc_view_bigWig</text>
</g>
<!-- 11&#45;&gt;0 -->
<g id="edge11" class="edge">
<title>11&#45;&gt;0</title>
<path fill="none" stroke="#c0c0c0" stroke-width="2" d="M620.8386,-514.7234C548.7822,-501.5292 429,-466.3144 429,-378 429,-378 429,-378 429,-162 429,-102.2359 193.3441,-179.5701 639,-72 798.8304,-33.421 995.7419,-22.2131 1076.6308,-19.1169"/>
<polygon fill="#c0c0c0" stroke="#c0c0c0" stroke-width="2" points="1076.9442,-22.6079 1086.8105,-18.7472 1076.69,-15.6125 1076.9442,-22.6079"/>
</g>
<!-- 12 -->
<g id="node13" class="node">
<title>12</title>
<path fill="none" stroke="#d85e56" stroke-width="2" stroke-dasharray="5,2" d="M1723.5,-252C1723.5,-252 1598.5,-252 1598.5,-252 1592.5,-252 1586.5,-246 1586.5,-240 1586.5,-240 1586.5,-228 1586.5,-228 1586.5,-222 1592.5,-216 1598.5,-216 1598.5,-216 1723.5,-216 1723.5,-216 1729.5,-216 1735.5,-222 1735.5,-228 1735.5,-228 1735.5,-240 1735.5,-240 1735.5,-246 1729.5,-252 1723.5,-252"/>
<text text-anchor="middle" x="1661" y="-231.5" font-family="sans" font-size="10.00" fill="#000000">ucsc_view_common_peaks</text>
</g>
<!-- 12&#45;&gt;0 -->
<g id="edge12" class="edge">
<title>12&#45;&gt;0</title>
<path fill="none" stroke="#c0c0c0" stroke-width="2" d="M1735.6322,-225.1493C1805.5363,-213.8645 1893.8627,-190.0288 1855,-144 1808.7002,-89.1627 1294.7556,-35.5251 1151.103,-21.522"/>
<polygon fill="#c0c0c0" stroke="#c0c0c0" stroke-width="2" points="1151.3181,-18.0265 1141.0271,-20.5458 1150.643,-24.9939 1151.3181,-18.0265"/>
</g>
<!-- 13 -->
<g id="node14" class="node">
<title>13</title>
<path fill="none" stroke="#56d8d0" stroke-width="2" stroke-dasharray="5,2" d="M1158.5,-180C1158.5,-180 1065.5,-180 1065.5,-180 1059.5,-180 1053.5,-174 1053.5,-168 1053.5,-168 1053.5,-156 1053.5,-156 1053.5,-150 1059.5,-144 1065.5,-144 1065.5,-144 1158.5,-144 1158.5,-144 1164.5,-144 1170.5,-150 1170.5,-156 1170.5,-156 1170.5,-168 1170.5,-168 1170.5,-174 1164.5,-180 1158.5,-180"/>
<text text-anchor="middle" x="1112" y="-165" font-family="sans" font-size="10.00" fill="#000000">TF_gene_punctate_R</text>
<text text-anchor="middle" x="1112" y="-154" font-family="sans" font-size="10.00" fill="#000000">num: 1</text>
</g>
<!-- 13&#45;&gt;1 -->
<g id="edge13" class="edge">
<title>13&#45;&gt;1</title>
<path fill="none" stroke="#c0c0c0" stroke-width="2" d="M1053.1692,-146.5015C1018.2328,-136.975 972.921,-124.0611 925.206,-108.2902"/>
<polygon fill="#c0c0c0" stroke="#c0c0c0" stroke-width="2" points="926.227,-104.9412 915.6334,-105.0981 924.0126,-111.5818 926.227,-104.9412"/>
</g>
<!-- 14 -->
<g id="node15" class="node">
<title>14</title>
<path fill="none" stroke="#a7d856" stroke-width="2" stroke-dasharray="5,2" d="M1023,-180C1023,-180 895,-180 895,-180 889,-180 883,-174 883,-168 883,-168 883,-156 883,-156 883,-150 889,-144 895,-144 895,-144 1023,-144 1023,-144 1029,-144 1035,-150 1035,-156 1035,-156 1035,-168 1035,-168 1035,-174 1029,-180 1023,-180"/>
<text text-anchor="middle" x="959" y="-159.5" font-family="sans" font-size="10.00" fill="#000000">closest_TSS_each_cell_type</text>
</g>
<!-- 14&#45;&gt;1 -->
<g id="edge14" class="edge">
<title>14&#45;&gt;1</title>
<path fill="none" stroke="#c0c0c0" stroke-width="2" d="M938.3079,-143.8314C928.3052,-135.0485 916.145,-124.3712 905.3001,-114.8489"/>
<polygon fill="#c0c0c0" stroke="#c0c0c0" stroke-width="2" points="907.5092,-112.1308 897.6854,-108.1628 902.8906,-117.3909 907.5092,-112.1308"/>
</g>
<!-- 14&#45;&gt;2 -->
<g id="edge17" class="edge">
<title>14&#45;&gt;2</title>
<path fill="none" stroke="#c0c0c0" stroke-width="2" d="M1011.8387,-143.9365C1039.6288,-134.3562 1074.4695,-122.2212 1113.73,-108.0622"/>
<polygon fill="#c0c0c0" stroke="#c0c0c0" stroke-width="2" points="1115.042,-111.3096 1123.2563,-104.6181 1112.662,-104.7267 1115.042,-111.3096"/>
</g>
<!-- 14&#45;&gt;3 -->
<g id="edge20" class="edge">
<title>14&#45;&gt;3</title>
<path fill="none" stroke="#c0c0c0" stroke-width="2" d="M914.3354,-143.8314C888.6141,-133.3684 856.2837,-120.2171 830.0175,-109.5325"/>
<polygon fill="#c0c0c0" stroke="#c0c0c0" stroke-width="2" points="831.2201,-106.2433 820.6383,-105.7173 828.5825,-112.7274 831.2201,-106.2433"/>
</g>
<!-- 14&#45;&gt;4 -->
<g id="edge23" class="edge">
<title>14&#45;&gt;4</title>
<path fill="none" stroke="#c0c0c0" stroke-width="2" d="M986.253,-143.8314C999.9389,-134.7074 1016.6915,-123.539 1031.3827,-113.7449"/>
<polygon fill="#c0c0c0" stroke="#c0c0c0" stroke-width="2" points="1033.3767,-116.6221 1039.7558,-108.1628 1029.4938,-110.7977 1033.3767,-116.6221"/>
</g>
<!-- 14&#45;&gt;5 -->
<g id="edge26" class="edge">
<title>14&#45;&gt;5</title>
<path fill="none" stroke="#c0c0c0" stroke-width="2" d="M1035.4056,-145.5503C1038.3043,-145.012 1041.1767,-144.493 1044,-144 1156.1987,-124.4082 1189.7582,-136.4293 1303.6958,-108.0387"/>
<polygon fill="#c0c0c0" stroke="#c0c0c0" stroke-width="2" points="1304.6696,-111.4026 1313.4991,-105.5469 1302.9451,-104.6183 1304.6696,-111.4026"/>
</g>
<!-- 14&#45;&gt;6 -->
<g id="edge29" class="edge">
<title>14&#45;&gt;6</title>
<path fill="none" stroke="#c0c0c0" stroke-width="2" d="M962.2804,-143.8314C963.6708,-136.131 965.3241,-126.9743 966.8692,-118.4166"/>
<polygon fill="#c0c0c0" stroke="#c0c0c0" stroke-width="2" points="970.3428,-118.8761 968.6754,-108.4133 963.4542,-117.6322 970.3428,-118.8761"/>
</g>
<!-- 14&#45;&gt;7 -->
<g id="edge32" class="edge">
<title>14&#45;&gt;7</title>
<path fill="none" stroke="#c0c0c0" stroke-width="2" d="M1035.2659,-145.7379C1097.6525,-132.4162 1179.342,-114.923 1208.7048,-107.8363"/>
<polygon fill="#c0c0c0" stroke="#c0c0c0" stroke-width="2" points="1209.6342,-111.2111 1218.4336,-105.3102 1207.8749,-104.4357 1209.6342,-111.2111"/>
</g>
<!-- 14&#45;&gt;8 -->
<g id="edge35" class="edge">
<title>14&#45;&gt;8</title>
<path fill="none" stroke="#c0c0c0" stroke-width="2" d="M882.7846,-144.8255C833.5257,-133.5314 773.0091,-119.2478 735.5228,-108.2466"/>
<polygon fill="#c0c0c0" stroke="#c0c0c0" stroke-width="2" points="736.1742,-104.7869 725.5889,-105.236 734.1439,-111.486 736.1742,-104.7869"/>
</g>
<!-- 15 -->
<g id="node16" class="node">
<title>15</title>
<path fill="none" stroke="#d85656" stroke-width="2" stroke-dasharray="5,2" d="M852.5,-180C852.5,-180 739.5,-180 739.5,-180 733.5,-180 727.5,-174 727.5,-168 727.5,-168 727.5,-156 727.5,-156 727.5,-150 733.5,-144 739.5,-144 739.5,-144 852.5,-144 852.5,-144 858.5,-144 864.5,-150 864.5,-156 864.5,-156 864.5,-168 864.5,-168 864.5,-174 858.5,-180 852.5,-180"/>
<text text-anchor="middle" x="796" y="-165" font-family="sans" font-size="10.00" fill="#000000">union_summits_by_type</text>
<text text-anchor="middle" x="796" y="-154" font-family="sans" font-size="10.00" fill="#000000">cell_type: GFP_ATAC&#45;Seq</text>
</g>
<!-- 15&#45;&gt;1 -->
<g id="edge15" class="edge">
<title>15&#45;&gt;1</title>
<path fill="none" stroke="#c0c0c0" stroke-width="2" d="M816.4397,-143.8314C826.3205,-135.0485 838.3324,-124.3712 849.045,-114.8489"/>
<polygon fill="#c0c0c0" stroke="#c0c0c0" stroke-width="2" points="851.418,-117.4224 856.5668,-108.1628 846.7674,-112.1906 851.418,-117.4224"/>
</g>
<!-- 15&#45;&gt;2 -->
<g id="edge18" class="edge">
<title>15&#45;&gt;2</title>
<path fill="none" stroke="#c0c0c0" stroke-width="2" d="M864.842,-145.8071C867.9328,-145.1767 870.9963,-144.571 874,-144 976.8583,-124.4481 1007.7942,-134.4542 1113.6579,-107.768"/>
<polygon fill="#c0c0c0" stroke="#c0c0c0" stroke-width="2" points="1114.6386,-111.1298 1123.4519,-105.2497 1112.8953,-104.3503 1114.6386,-111.1298"/>
</g>
<!-- 15&#45;&gt;3 -->
<g id="edge21" class="edge">
<title>15&#45;&gt;3</title>
<path fill="none" stroke="#c0c0c0" stroke-width="2" d="M792.4672,-143.8314C790.9699,-136.131 789.1895,-126.9743 787.5255,-118.4166"/>
<polygon fill="#c0c0c0" stroke="#c0c0c0" stroke-width="2" points="790.9248,-117.5614 785.5804,-108.4133 784.0535,-118.8975 790.9248,-117.5614"/>
</g>
<!-- 15&#45;&gt;4 -->
<g id="edge24" class="edge">
<title>15&#45;&gt;4</title>
<path fill="none" stroke="#c0c0c0" stroke-width="2" d="M864.6999,-145.8073C918.0397,-133.1698 986.9817,-116.6738 1018.5322,-107.8353"/>
<polygon fill="#c0c0c0" stroke="#c0c0c0" stroke-width="2" points="1019.7579,-111.1232 1028.3662,-104.9468 1017.7851,-104.4069 1019.7579,-111.1232"/>
</g>
<!-- 15&#45;&gt;5 -->
<g id="edge27" class="edge">
<title>15&#45;&gt;5</title>
<path fill="none" stroke="#c0c0c0" stroke-width="2" d="M864.7992,-145.5596C867.9016,-144.9962 870.9792,-144.4722 874,-144 1060.6706,-114.8195 1115.7281,-149.5721 1303.3712,-108.0332"/>
<polygon fill="#c0c0c0" stroke="#c0c0c0" stroke-width="2" points="1304.2965,-111.4125 1313.2805,-105.7966 1302.7552,-104.5843 1304.2965,-111.4125"/>
</g>
<!-- 15&#45;&gt;6 -->
<g id="edge30" class="edge">
<title>15&#45;&gt;6</title>
<path fill="none" stroke="#c0c0c0" stroke-width="2" d="M840.4122,-143.8314C865.8976,-133.4055 897.9081,-120.3103 923.9757,-109.6463"/>
<polygon fill="#c0c0c0" stroke="#c0c0c0" stroke-width="2" points="925.3573,-112.8627 933.2876,-105.8369 922.7069,-106.3839 925.3573,-112.8627"/>
</g>
<!-- 15&#45;&gt;7 -->
<g id="edge33" class="edge">
<title>15&#45;&gt;7</title>
<path fill="none" stroke="#c0c0c0" stroke-width="2" d="M864.8136,-145.6481C867.9121,-145.0608 870.985,-144.5075 874,-144 1018.9225,-119.6051 1062.135,-142.1394 1208.473,-108.0517"/>
<polygon fill="#c0c0c0" stroke="#c0c0c0" stroke-width="2" points="1209.3444,-111.4422 1218.2633,-105.7235 1207.7249,-104.6321 1209.3444,-111.4422"/>
</g>
<!-- 15&#45;&gt;8 -->
<g id="edge36" class="edge">
<title>15&#45;&gt;8</title>
<path fill="none" stroke="#c0c0c0" stroke-width="2" d="M768.4947,-143.8314C754.682,-134.7074 737.7744,-123.539 722.9471,-113.7449"/>
<polygon fill="#c0c0c0" stroke="#c0c0c0" stroke-width="2" points="724.7696,-110.7541 714.4965,-108.1628 720.9114,-116.5949 724.7696,-110.7541"/>
</g>
<!-- 16 -->
<g id="node17" class="node">
<title>16</title>
<path fill="none" stroke="#56d8d0" stroke-width="2" stroke-dasharray="5,2" d="M1563.5,-180C1563.5,-180 1470.5,-180 1470.5,-180 1464.5,-180 1458.5,-174 1458.5,-168 1458.5,-168 1458.5,-156 1458.5,-156 1458.5,-150 1464.5,-144 1470.5,-144 1470.5,-144 1563.5,-144 1563.5,-144 1569.5,-144 1575.5,-150 1575.5,-156 1575.5,-156 1575.5,-168 1575.5,-168 1575.5,-174 1569.5,-180 1563.5,-180"/>
<text text-anchor="middle" x="1517" y="-165" font-family="sans" font-size="10.00" fill="#000000">TF_gene_punctate_R</text>
<text text-anchor="middle" x="1517" y="-154" font-family="sans" font-size="10.00" fill="#000000">num: 2</text>
</g>
<!-- 16&#45;&gt;2 -->
<g id="edge16" class="edge">
<title>16&#45;&gt;2</title>
<path fill="none" stroke="#c0c0c0" stroke-width="2" d="M1458.2646,-145.8158C1455.4772,-145.1751 1452.7118,-144.5658 1450,-144 1347.5067,-122.6174 1316.2271,-134.3469 1210.343,-107.7633"/>
<polygon fill="#c0c0c0" stroke="#c0c0c0" stroke-width="2" points="1211.1042,-104.3453 1200.5481,-105.2497 1209.3642,-111.1256 1211.1042,-104.3453"/>
</g>
<!-- 17 -->
<g id="node18" class="node">
<title>17</title>
<path fill="none" stroke="#56d8d0" stroke-width="2" stroke-dasharray="5,2" d="M697.5,-180C697.5,-180 604.5,-180 604.5,-180 598.5,-180 592.5,-174 592.5,-168 592.5,-168 592.5,-156 592.5,-156 592.5,-150 598.5,-144 604.5,-144 604.5,-144 697.5,-144 697.5,-144 703.5,-144 709.5,-150 709.5,-156 709.5,-156 709.5,-168 709.5,-168 709.5,-174 703.5,-180 697.5,-180"/>
<text text-anchor="middle" x="651" y="-165" font-family="sans" font-size="10.00" fill="#000000">TF_gene_punctate_R</text>
<text text-anchor="middle" x="651" y="-154" font-family="sans" font-size="10.00" fill="#000000">num: 3</text>
</g>
<!-- 17&#45;&gt;3 -->
<g id="edge19" class="edge">
<title>17&#45;&gt;3</title>
<path fill="none" stroke="#c0c0c0" stroke-width="2" d="M684.0568,-143.8314C700.9677,-134.5368 721.7385,-123.1208 739.7941,-113.1971"/>
<polygon fill="#c0c0c0" stroke="#c0c0c0" stroke-width="2" points="741.876,-116.0468 748.9537,-108.1628 738.5043,-109.9122 741.876,-116.0468"/>
</g>
<!-- 18 -->
<g id="node19" class="node">
<title>18</title>
<path fill="none" stroke="#56d8d0" stroke-width="2" stroke-dasharray="5,2" d="M1428.5,-180C1428.5,-180 1335.5,-180 1335.5,-180 1329.5,-180 1323.5,-174 1323.5,-168 1323.5,-168 1323.5,-156 1323.5,-156 1323.5,-150 1329.5,-144 1335.5,-144 1335.5,-144 1428.5,-144 1428.5,-144 1434.5,-144 1440.5,-150 1440.5,-156 1440.5,-156 1440.5,-168 1440.5,-168 1440.5,-174 1434.5,-180 1428.5,-180"/>
<text text-anchor="middle" x="1382" y="-165" font-family="sans" font-size="10.00" fill="#000000">TF_gene_punctate_R</text>
<text text-anchor="middle" x="1382" y="-154" font-family="sans" font-size="10.00" fill="#000000">num: 4</text>
</g>
<!-- 18&#45;&gt;4 -->
<g id="edge22" class="edge">
<title>18&#45;&gt;4</title>
<path fill="none" stroke="#c0c0c0" stroke-width="2" d="M1323.244,-145.9111C1320.4621,-145.245 1317.7035,-144.6041 1315,-144 1229.5433,-124.9044 1203.2671,-131.8001 1115.3919,-108.1314"/>
<polygon fill="#c0c0c0" stroke="#c0c0c0" stroke-width="2" points="1116.1051,-104.6976 1105.5349,-105.4196 1114.2483,-111.4469 1116.1051,-104.6976"/>
</g>
<!-- 19 -->
<g id="node20" class="node">
<title>19</title>
<path fill="none" stroke="#56d8d0" stroke-width="2" stroke-dasharray="5,2" d="M1833.5,-180C1833.5,-180 1740.5,-180 1740.5,-180 1734.5,-180 1728.5,-174 1728.5,-168 1728.5,-168 1728.5,-156 1728.5,-156 1728.5,-150 1734.5,-144 1740.5,-144 1740.5,-144 1833.5,-144 1833.5,-144 1839.5,-144 1845.5,-150 1845.5,-156 1845.5,-156 1845.5,-168 1845.5,-168 1845.5,-174 1839.5,-180 1833.5,-180"/>
<text text-anchor="middle" x="1787" y="-165" font-family="sans" font-size="10.00" fill="#000000">TF_gene_punctate_R</text>
<text text-anchor="middle" x="1787" y="-154" font-family="sans" font-size="10.00" fill="#000000">num: 5</text>
</g>
<!-- 19&#45;&gt;5 -->
<g id="edge25" class="edge">
<title>19&#45;&gt;5</title>
<path fill="none" stroke="#c0c0c0" stroke-width="2" d="M1728.2668,-145.805C1725.4788,-145.1673 1722.7127,-144.5614 1720,-144 1606.5436,-120.519 1471.3516,-103.4261 1400.626,-95.3014"/>
<polygon fill="#c0c0c0" stroke="#c0c0c0" stroke-width="2" points="1401.0008,-91.8215 1390.6691,-94.168 1400.2091,-98.7766 1401.0008,-91.8215"/>
</g>
<!-- 20 -->
<g id="node21" class="node">
<title>20</title>
<path fill="none" stroke="#56d8d0" stroke-width="2" stroke-dasharray="5,2" d="M1293.5,-180C1293.5,-180 1200.5,-180 1200.5,-180 1194.5,-180 1188.5,-174 1188.5,-168 1188.5,-168 1188.5,-156 1188.5,-156 1188.5,-150 1194.5,-144 1200.5,-144 1200.5,-144 1293.5,-144 1293.5,-144 1299.5,-144 1305.5,-150 1305.5,-156 1305.5,-156 1305.5,-168 1305.5,-168 1305.5,-174 1299.5,-180 1293.5,-180"/>
<text text-anchor="middle" x="1247" y="-165" font-family="sans" font-size="10.00" fill="#000000">TF_gene_punctate_R</text>
<text text-anchor="middle" x="1247" y="-154" font-family="sans" font-size="10.00" fill="#000000">num: 6</text>
</g>
<!-- 20&#45;&gt;6 -->
<g id="edge28" class="edge">
<title>20&#45;&gt;6</title>
<path fill="none" stroke="#c0c0c0" stroke-width="2" d="M1188.2104,-146.0544C1185.4375,-145.3499 1182.69,-144.6618 1180,-144 1111.8597,-127.2367 1090.9802,-128.9746 1020.3913,-108.2201"/>
<polygon fill="#c0c0c0" stroke="#c0c0c0" stroke-width="2" points="1021.1576,-104.7962 1010.574,-105.2848 1019.1523,-111.5028 1021.1576,-104.7962"/>
</g>
<!-- 21 -->
<g id="node22" class="node">
<title>21</title>
<path fill="none" stroke="#56d8d0" stroke-width="2" stroke-dasharray="5,2" d="M1698.5,-180C1698.5,-180 1605.5,-180 1605.5,-180 1599.5,-180 1593.5,-174 1593.5,-168 1593.5,-168 1593.5,-156 1593.5,-156 1593.5,-150 1599.5,-144 1605.5,-144 1605.5,-144 1698.5,-144 1698.5,-144 1704.5,-144 1710.5,-150 1710.5,-156 1710.5,-156 1710.5,-168 1710.5,-168 1710.5,-174 1704.5,-180 1698.5,-180"/>
<text text-anchor="middle" x="1652" y="-165" font-family="sans" font-size="10.00" fill="#000000">TF_gene_punctate_R</text>
<text text-anchor="middle" x="1652" y="-154" font-family="sans" font-size="10.00" fill="#000000">num: 7</text>
</g>
<!-- 21&#45;&gt;7 -->
<g id="edge31" class="edge">
<title>21&#45;&gt;7</title>
<path fill="none" stroke="#c0c0c0" stroke-width="2" d="M1593.279,-145.7449C1590.4877,-145.1232 1587.7176,-144.5372 1585,-144 1465.0384,-120.2859 1428.6141,-137.3139 1305.3439,-107.7305"/>
<polygon fill="#c0c0c0" stroke="#c0c0c0" stroke-width="2" points="1306.0757,-104.3064 1295.5297,-105.322 1304.4073,-111.1046 1306.0757,-104.3064"/>
</g>
<!-- 22 -->
<g id="node23" class="node">
<title>22</title>
<path fill="none" stroke="#56d8d0" stroke-width="2" stroke-dasharray="5,2" d="M562.5,-180C562.5,-180 469.5,-180 469.5,-180 463.5,-180 457.5,-174 457.5,-168 457.5,-168 457.5,-156 457.5,-156 457.5,-150 463.5,-144 469.5,-144 469.5,-144 562.5,-144 562.5,-144 568.5,-144 574.5,-150 574.5,-156 574.5,-156 574.5,-168 574.5,-168 574.5,-174 568.5,-180 562.5,-180"/>
<text text-anchor="middle" x="516" y="-165" font-family="sans" font-size="10.00" fill="#000000">TF_gene_punctate_R</text>
<text text-anchor="middle" x="516" y="-154" font-family="sans" font-size="10.00" fill="#000000">num: 8</text>
</g>
<!-- 22&#45;&gt;8 -->
<g id="edge34" class="edge">
<title>22&#45;&gt;8</title>
<path fill="none" stroke="#c0c0c0" stroke-width="2" d="M559.1505,-143.8314C583.4523,-133.599 613.8608,-120.7955 638.9241,-110.2425"/>
<polygon fill="#c0c0c0" stroke="#c0c0c0" stroke-width="2" points="640.3861,-113.4246 648.2442,-106.3182 637.6696,-106.9731 640.3861,-113.4246"/>
</g>
<!-- 23 -->
<g id="node24" class="node">
<title>23</title>
<path fill="none" stroke="#afd856" stroke-width="2" stroke-dasharray="5,2" d="M1860,-612C1860,-612 1792,-612 1792,-612 1786,-612 1780,-606 1780,-600 1780,-600 1780,-588 1780,-588 1780,-582 1786,-576 1792,-576 1792,-576 1860,-576 1860,-576 1866,-576 1872,-582 1872,-588 1872,-588 1872,-600 1872,-600 1872,-606 1866,-612 1860,-612"/>
<text text-anchor="middle" x="1826" y="-591.5" font-family="sans" font-size="10.00" fill="#000000">bam_to_bigWig</text>
</g>
<!-- 23&#45;&gt;9 -->
<g id="edge37" class="edge">
<title>23&#45;&gt;9</title>
<path fill="none" stroke="#c0c0c0" stroke-width="2" d="M1826,-575.8314C1826,-568.131 1826,-558.9743 1826,-550.4166"/>
<polygon fill="#c0c0c0" stroke="#c0c0c0" stroke-width="2" points="1829.5001,-550.4132 1826,-540.4133 1822.5001,-550.4133 1829.5001,-550.4132"/>
</g>
<!-- 24 -->
<g id="node25" class="node">
<title>24</title>
<path fill="none" stroke="#d8d356" stroke-width="2" stroke-dasharray="5,2" d="M1652.5,-612C1652.5,-612 1613.5,-612 1613.5,-612 1607.5,-612 1601.5,-606 1601.5,-600 1601.5,-600 1601.5,-588 1601.5,-588 1601.5,-582 1607.5,-576 1613.5,-576 1613.5,-576 1652.5,-576 1652.5,-576 1658.5,-576 1664.5,-582 1664.5,-588 1664.5,-588 1664.5,-600 1664.5,-600 1664.5,-606 1658.5,-612 1652.5,-612"/>
<text text-anchor="middle" x="1633" y="-591.5" font-family="sans" font-size="10.00" fill="#000000">black_list</text>
</g>
<!-- 24&#45;&gt;9 -->
<g id="edge38" class="edge">
<title>24&#45;&gt;9</title>
<path fill="none" stroke="#c0c0c0" stroke-width="2" d="M1664.87,-582.1107C1692.7396,-571.7137 1733.9196,-556.3512 1767.672,-543.7597"/>
<polygon fill="#c0c0c0" stroke="#c0c0c0" stroke-width="2" points="1769.2844,-546.8938 1777.4303,-540.1193 1766.8377,-540.3353 1769.2844,-546.8938"/>
</g>
<!-- 49 -->
<g id="node50" class="node">
<title>49</title>
<path fill="none" stroke="#9fd856" stroke-width="2" stroke-dasharray="5,2" d="M1689.5,-540C1689.5,-540 1576.5,-540 1576.5,-540 1570.5,-540 1564.5,-534 1564.5,-528 1564.5,-528 1564.5,-516 1564.5,-516 1564.5,-510 1570.5,-504 1576.5,-504 1576.5,-504 1689.5,-504 1689.5,-504 1695.5,-504 1701.5,-510 1701.5,-516 1701.5,-516 1701.5,-528 1701.5,-528 1701.5,-534 1695.5,-540 1689.5,-540"/>
<text text-anchor="middle" x="1633" y="-525" font-family="sans" font-size="10.00" fill="#000000">union_peaks_by_type</text>
<text text-anchor="middle" x="1633" y="-514" font-family="sans" font-size="10.00" fill="#000000">cell_type: RFP_ATAC&#45;Seq</text>
</g>
<!-- 24&#45;&gt;49 -->
<g id="edge95" class="edge">
<title>24&#45;&gt;49</title>
<path fill="none" stroke="#c0c0c0" stroke-width="2" d="M1633,-575.8314C1633,-568.131 1633,-558.9743 1633,-550.4166"/>
<polygon fill="#c0c0c0" stroke="#c0c0c0" stroke-width="2" points="1636.5001,-550.4132 1633,-540.4133 1629.5001,-550.4133 1636.5001,-550.4132"/>
</g>
<!-- 25 -->
<g id="node26" class="node">
<title>25</title>
<path fill="none" stroke="#afd856" stroke-width="2" stroke-dasharray="5,2" d="M1984,-612C1984,-612 1916,-612 1916,-612 1910,-612 1904,-606 1904,-600 1904,-600 1904,-588 1904,-588 1904,-582 1910,-576 1916,-576 1916,-576 1984,-576 1984,-576 1990,-576 1996,-582 1996,-588 1996,-588 1996,-600 1996,-600 1996,-606 1990,-612 1984,-612"/>
<text text-anchor="middle" x="1950" y="-591.5" font-family="sans" font-size="10.00" fill="#000000">bam_to_bigWig</text>
</g>
<!-- 25&#45;&gt;10 -->
<g id="edge39" class="edge">
<title>25&#45;&gt;10</title>
<path fill="none" stroke="#c0c0c0" stroke-width="2" d="M1950,-575.8314C1950,-568.131 1950,-558.9743 1950,-550.4166"/>
<polygon fill="#c0c0c0" stroke="#c0c0c0" stroke-width="2" points="1953.5001,-550.4132 1950,-540.4133 1946.5001,-550.4133 1953.5001,-550.4132"/>
</g>
<!-- 26 -->
<g id="node27" class="node">
<title>26</title>
<path fill="none" stroke="#d8d356" stroke-width="2" stroke-dasharray="5,2" d="M1741.5,-612C1741.5,-612 1702.5,-612 1702.5,-612 1696.5,-612 1690.5,-606 1690.5,-600 1690.5,-600 1690.5,-588 1690.5,-588 1690.5,-582 1696.5,-576 1702.5,-576 1702.5,-576 1741.5,-576 1741.5,-576 1747.5,-576 1753.5,-582 1753.5,-588 1753.5,-588 1753.5,-600 1753.5,-600 1753.5,-606 1747.5,-612 1741.5,-612"/>
<text text-anchor="middle" x="1722" y="-591.5" font-family="sans" font-size="10.00" fill="#000000">black_list</text>
</g>
<!-- 26&#45;&gt;10 -->
<g id="edge40" class="edge">
<title>26&#45;&gt;10</title>
<path fill="none" stroke="#c0c0c0" stroke-width="2" d="M1753.5338,-582.1053C1759.3222,-580.0106 1765.327,-577.8959 1771,-576 1792.7066,-568.7459 1844.8128,-553.0985 1887.2415,-540.5056"/>
<polygon fill="#c0c0c0" stroke="#c0c0c0" stroke-width="2" points="1888.3688,-543.8221 1896.9614,-537.6239 1886.379,-537.1108 1888.3688,-543.8221"/>
</g>
<!-- 26&#45;&gt;49 -->
<g id="edge96" class="edge">
<title>26&#45;&gt;49</title>
<path fill="none" stroke="#c0c0c0" stroke-width="2" d="M1699.5415,-575.8314C1688.5795,-566.9632 1675.2301,-556.1637 1663.3735,-546.5718"/>
<polygon fill="#c0c0c0" stroke="#c0c0c0" stroke-width="2" points="1665.4271,-543.7313 1655.4513,-540.1628 1661.0245,-549.1734 1665.4271,-543.7313"/>
</g>
<!-- 27 -->
<g id="node28" class="node">
<title>27</title>
<path fill="none" stroke="#afd856" stroke-width="2" stroke-dasharray="5,2" d="M708,-612C708,-612 640,-612 640,-612 634,-612 628,-606 628,-600 628,-600 628,-588 628,-588 628,-582 634,-576 640,-576 640,-576 708,-576 708,-576 714,-576 720,-582 720,-588 720,-588 720,-600 720,-600 720,-606 714,-612 708,-612"/>
<text text-anchor="middle" x="674" y="-591.5" font-family="sans" font-size="10.00" fill="#000000">bam_to_bigWig</text>
</g>
<!-- 27&#45;&gt;11 -->
<g id="edge41" class="edge">
<title>27&#45;&gt;11</title>
<path fill="none" stroke="#c0c0c0" stroke-width="2" d="M674,-575.8314C674,-568.131 674,-558.9743 674,-550.4166"/>
<polygon fill="#c0c0c0" stroke="#c0c0c0" stroke-width="2" points="677.5001,-550.4132 674,-540.4133 670.5001,-550.4133 677.5001,-550.4132"/>
</g>
<!-- 28 -->
<g id="node29" class="node">
<title>28</title>
<path fill="none" stroke="#d8d356" stroke-width="2" stroke-dasharray="5,2" d="M979.5,-612C979.5,-612 940.5,-612 940.5,-612 934.5,-612 928.5,-606 928.5,-600 928.5,-600 928.5,-588 928.5,-588 928.5,-582 934.5,-576 940.5,-576 940.5,-576 979.5,-576 979.5,-576 985.5,-576 991.5,-582 991.5,-588 991.5,-588 991.5,-600 991.5,-600 991.5,-606 985.5,-612 979.5,-612"/>
<text text-anchor="middle" x="960" y="-591.5" font-family="sans" font-size="10.00" fill="#000000">black_list</text>
</g>
<!-- 28&#45;&gt;11 -->
<g id="edge42" class="edge">
<title>28&#45;&gt;11</title>
<path fill="none" stroke="#c0c0c0" stroke-width="2" d="M928.3002,-586.0196C882.3809,-574.4595 796.3902,-552.8115 737.2119,-537.9135"/>
<polygon fill="#c0c0c0" stroke="#c0c0c0" stroke-width="2" points="737.7754,-534.4462 727.2234,-535.3989 736.0664,-541.2344 737.7754,-534.4462"/>
</g>
<!-- 44 -->
<g id="node45" class="node">
<title>44</title>
<path fill="none" stroke="#9fd856" stroke-width="2" stroke-dasharray="5,2" d="M1120.5,-540C1120.5,-540 1007.5,-540 1007.5,-540 1001.5,-540 995.5,-534 995.5,-528 995.5,-528 995.5,-516 995.5,-516 995.5,-510 1001.5,-504 1007.5,-504 1007.5,-504 1120.5,-504 1120.5,-504 1126.5,-504 1132.5,-510 1132.5,-516 1132.5,-516 1132.5,-528 1132.5,-528 1132.5,-534 1126.5,-540 1120.5,-540"/>
<text text-anchor="middle" x="1064" y="-525" font-family="sans" font-size="10.00" fill="#000000">union_peaks_by_type</text>
<text text-anchor="middle" x="1064" y="-514" font-family="sans" font-size="10.00" fill="#000000">cell_type: GFP_ATAC&#45;Seq</text>
</g>
<!-- 28&#45;&gt;44 -->
<g id="edge90" class="edge">
<title>28&#45;&gt;44</title>
<path fill="none" stroke="#c0c0c0" stroke-width="2" d="M986.2436,-575.8314C999.2995,-566.7927 1015.2535,-555.7476 1029.3047,-546.0198"/>
<polygon fill="#c0c0c0" stroke="#c0c0c0" stroke-width="2" points="1031.5351,-548.7326 1037.7648,-540.1628 1027.5506,-542.9773 1031.5351,-548.7326"/>
</g>
<!-- 29 -->
<g id="node30" class="node">
<title>29</title>
<path fill="none" stroke="#568ad8" stroke-width="2" stroke-dasharray="5,2" d="M1411,-324C1411,-324 1287,-324 1287,-324 1281,-324 1275,-318 1275,-312 1275,-312 1275,-300 1275,-300 1275,-294 1281,-288 1287,-288 1287,-288 1411,-288 1411,-288 1417,-288 1423,-294 1423,-300 1423,-300 1423,-312 1423,-312 1423,-318 1417,-324 1411,-324"/>
<text text-anchor="middle" x="1349" y="-303.5" font-family="sans" font-size="10.00" fill="#000000">common_peaks_across_all</text>
</g>
<!-- 29&#45;&gt;12 -->
<g id="edge43" class="edge">
<title>29&#45;&gt;12</title>
<path fill="none" stroke="#c0c0c0" stroke-width="2" d="M1423.3354,-288.8457C1469.3576,-278.2252 1528.5859,-264.5571 1576.4021,-253.5226"/>
<polygon fill="#c0c0c0" stroke="#c0c0c0" stroke-width="2" points="1577.4667,-256.869 1586.4235,-251.21 1575.8926,-250.0483 1577.4667,-256.869"/>
</g>
<!-- 30 -->
<g id="node31" class="node">
<title>30</title>
<path fill="none" stroke="#d89c56" stroke-width="2" stroke-dasharray="5,2" d="M1271,-252C1271,-252 1223,-252 1223,-252 1217,-252 1211,-246 1211,-240 1211,-240 1211,-228 1211,-228 1211,-222 1217,-216 1223,-216 1223,-216 1271,-216 1271,-216 1277,-216 1283,-222 1283,-228 1283,-228 1283,-240 1283,-240 1283,-246 1277,-252 1271,-252"/>
<text text-anchor="middle" x="1247" y="-231.5" font-family="sans" font-size="10.00" fill="#000000">make_CGM</text>
</g>
<!-- 30&#45;&gt;13 -->
<g id="edge44" class="edge">
<title>30&#45;&gt;13</title>
<path fill="none" stroke="#c0c0c0" stroke-width="2" d="M1212.9338,-215.8314C1195.3467,-206.4516 1173.7084,-194.9112 1154.9832,-184.9244"/>
<polygon fill="#c0c0c0" stroke="#c0c0c0" stroke-width="2" points="1156.5259,-181.7805 1146.0553,-180.1628 1153.2318,-187.957 1156.5259,-181.7805"/>
</g>
<!-- 30&#45;&gt;16 -->
<g id="edge49" class="edge">
<title>30&#45;&gt;16</title>
<path fill="none" stroke="#c0c0c0" stroke-width="2" d="M1283.3108,-224.3699C1321.9487,-214.1162 1385.1395,-197.3285 1448.4314,-180.4168"/>
<polygon fill="#c0c0c0" stroke="#c0c0c0" stroke-width="2" points="1449.419,-183.7758 1458.1761,-177.8122 1447.6115,-177.0132 1449.419,-183.7758"/>
</g>
<!-- 30&#45;&gt;17 -->
<g id="edge51" class="edge">
<title>30&#45;&gt;17</title>
<path fill="none" stroke="#c0c0c0" stroke-width="2" d="M1210.9611,-229.4218C1180.5941,-225.6251 1135.9871,-220.1902 1097,-216 932.052,-198.2719 886.2877,-209.5934 719.7952,-180.1745"/>
<polygon fill="#c0c0c0" stroke="#c0c0c0" stroke-width="2" points="720.1601,-176.6842 709.6998,-178.3673 718.9266,-183.5747 720.1601,-176.6842"/>
</g>
<!-- 30&#45;&gt;18 -->
<g id="edge53" class="edge">
<title>30&#45;&gt;18</title>
<path fill="none" stroke="#c0c0c0" stroke-width="2" d="M1281.0662,-215.8314C1298.6533,-206.4516 1320.2916,-194.9112 1339.0168,-184.9244"/>
<polygon fill="#c0c0c0" stroke="#c0c0c0" stroke-width="2" points="1340.7682,-187.957 1347.9447,-180.1628 1337.4741,-181.7805 1340.7682,-187.957"/>
</g>
<!-- 30&#45;&gt;19 -->
<g id="edge55" class="edge">
<title>30&#45;&gt;19</title>
<path fill="none" stroke="#c0c0c0" stroke-width="2" d="M1283.0299,-228.3681C1307.7475,-224.6031 1341.3168,-219.6838 1371,-216 1522.4224,-197.2081 1564.8485,-207.8383 1718.0421,-180.2155"/>
<polygon fill="#c0c0c0" stroke="#c0c0c0" stroke-width="2" points="1719.0882,-183.5822 1728.2952,-178.3399 1717.8286,-176.6965 1719.0882,-183.5822"/>
</g>
<!-- 30&#45;&gt;20 -->
<g id="edge57" class="edge">
<title>30&#45;&gt;20</title>
<path fill="none" stroke="#c0c0c0" stroke-width="2" d="M1247,-215.8314C1247,-208.131 1247,-198.9743 1247,-190.4166"/>
<polygon fill="#c0c0c0" stroke="#c0c0c0" stroke-width="2" points="1250.5001,-190.4132 1247,-180.4133 1243.5001,-190.4133 1250.5001,-190.4132"/>
</g>
<!-- 30&#45;&gt;21 -->
<g id="edge59" class="edge">
<title>30&#45;&gt;21</title>
<path fill="none" stroke="#c0c0c0" stroke-width="2" d="M1283.1777,-228.7077C1354.5202,-218.1951 1511.9883,-194.5956 1583.3711,-180.2057"/>
<polygon fill="#c0c0c0" stroke="#c0c0c0" stroke-width="2" points="1584.1786,-183.6128 1593.2578,-178.1521 1582.755,-176.7591 1584.1786,-183.6128"/>
</g>
<!-- 30&#45;&gt;22 -->
<g id="edge61" class="edge">
<title>30&#45;&gt;22</title>
<path fill="none" stroke="#c0c0c0" stroke-width="2" d="M1210.9865,-229.1709C1180.6348,-225.2229 1136.036,-219.7069 1097,-216 872.3611,-194.6681 810.6477,-217.204 584.8646,-180.144"/>
<polygon fill="#c0c0c0" stroke="#c0c0c0" stroke-width="2" points="585.1239,-176.6391 574.6852,-178.4514 583.9756,-183.5443 585.1239,-176.6391"/>
</g>
<!-- 31 -->
<g id="node32" class="node">
<title>31</title>
<path fill="none" stroke="#d89c56" stroke-width="2" stroke-dasharray="5,2" d="M1440,-252C1440,-252 1392,-252 1392,-252 1386,-252 1380,-246 1380,-240 1380,-240 1380,-228 1380,-228 1380,-222 1386,-216 1392,-216 1392,-216 1440,-216 1440,-216 1446,-216 1452,-222 1452,-228 1452,-228 1452,-240 1452,-240 1452,-246 1446,-252 1440,-252"/>
<text text-anchor="middle" x="1416" y="-231.5" font-family="sans" font-size="10.00" fill="#000000">make_CGM</text>
</g>
<!-- 31&#45;&gt;13 -->
<g id="edge45" class="edge">
<title>31&#45;&gt;13</title>
<path fill="none" stroke="#c0c0c0" stroke-width="2" d="M1379.9261,-226.1437C1335.4566,-216.3714 1257.341,-198.922 1180.432,-180.0658"/>
<polygon fill="#c0c0c0" stroke="#c0c0c0" stroke-width="2" points="1181.1199,-176.6308 1170.5731,-177.6392 1179.4468,-183.4279 1181.1199,-176.6308"/>
</g>
<!-- 31&#45;&gt;16 -->
<g id="edge50" class="edge">
<title>31&#45;&gt;16</title>
<path fill="none" stroke="#c0c0c0" stroke-width="2" d="M1441.4866,-215.8314C1454.1659,-206.7927 1469.6596,-195.7476 1483.3055,-186.0198"/>
<polygon fill="#c0c0c0" stroke="#c0c0c0" stroke-width="2" points="1485.4105,-188.8176 1491.5216,-180.1628 1481.3471,-183.1176 1485.4105,-188.8176"/>
</g>
<!-- 31&#45;&gt;17 -->
<g id="edge52" class="edge">
<title>31&#45;&gt;17</title>
<path fill="none" stroke="#c0c0c0" stroke-width="2" d="M1379.744,-227.9416C1355.0714,-224.0147 1321.643,-219.0759 1292,-216 1041.1046,-189.9658 972.0554,-220.5394 719.8867,-180.1338"/>
<polygon fill="#c0c0c0" stroke="#c0c0c0" stroke-width="2" points="720.1129,-176.6248 709.6811,-178.4761 718.9905,-183.5342 720.1129,-176.6248"/>
</g>
<!-- 31&#45;&gt;18 -->
<g id="edge54" class="edge">
<title>31&#45;&gt;18</title>
<path fill="none" stroke="#c0c0c0" stroke-width="2" d="M1407.4204,-215.8314C1403.6642,-207.8771 1399.1743,-198.369 1395.0202,-189.5723"/>
<polygon fill="#c0c0c0" stroke="#c0c0c0" stroke-width="2" points="1398.1301,-187.9612 1390.6952,-180.4133 1391.8004,-190.9503 1398.1301,-187.9612"/>
</g>
<!-- 31&#45;&gt;19 -->
<g id="edge56" class="edge">
<title>31&#45;&gt;19</title>
<path fill="none" stroke="#c0c0c0" stroke-width="2" d="M1452.2345,-228.6049C1507.637,-220.1294 1616.8846,-202.5273 1718.4429,-180.2627"/>
<polygon fill="#c0c0c0" stroke="#c0c0c0" stroke-width="2" points="1719.2375,-183.6717 1728.2451,-178.0937 1717.725,-176.837 1719.2375,-183.6717"/>
</g>
<!-- 31&#45;&gt;20 -->
<g id="edge58" class="edge">
<title>31&#45;&gt;20</title>
<path fill="none" stroke="#c0c0c0" stroke-width="2" d="M1379.7453,-218.5542C1356.1636,-208.5076 1325.043,-195.2491 1298.8617,-184.0949"/>
<polygon fill="#c0c0c0" stroke="#c0c0c0" stroke-width="2" points="1300.0343,-180.7902 1289.4626,-180.0906 1297.2907,-187.2301 1300.0343,-180.7902"/>
</g>
<!-- 31&#45;&gt;21 -->
<g id="edge60" class="edge">
<title>31&#45;&gt;21</title>
<path fill="none" stroke="#c0c0c0" stroke-width="2" d="M1452.1002,-222.9864C1486.9595,-212.3513 1540.6354,-195.9756 1583.5926,-182.8701"/>
<polygon fill="#c0c0c0" stroke="#c0c0c0" stroke-width="2" points="1584.8785,-186.1371 1593.4219,-179.8713 1582.8358,-179.4417 1584.8785,-186.1371"/>
</g>
<!-- 31&#45;&gt;22 -->
<g id="edge62" class="edge">
<title>31&#45;&gt;22</title>
<path fill="none" stroke="#c0c0c0" stroke-width="2" d="M1379.7556,-227.8272C1355.0879,-223.8506 1321.6608,-218.8994 1292,-216 981.353,-185.6334 896.4731,-228.2723 584.9051,-180.1176"/>
<polygon fill="#c0c0c0" stroke="#c0c0c0" stroke-width="2" points="585.0955,-176.6049 574.6746,-178.5166 584.0131,-183.5207 585.0955,-176.6049"/>
</g>
<!-- 32 -->
<g id="node33" class="node">
<title>32</title>
<path fill="none" stroke="#56d8a2" stroke-width="2" stroke-dasharray="5,2" d="M1213,-396C1213,-396 1099,-396 1099,-396 1093,-396 1087,-390 1087,-384 1087,-384 1087,-372 1087,-372 1087,-366 1093,-360 1099,-360 1099,-360 1213,-360 1213,-360 1219,-360 1225,-366 1225,-372 1225,-372 1225,-384 1225,-384 1225,-390 1219,-396 1213,-396"/>
<text text-anchor="middle" x="1156" y="-375.5" font-family="sans" font-size="10.00" fill="#000000">common_peaks_by_type</text>
</g>
<!-- 32&#45;&gt;14 -->
<g id="edge46" class="edge">
<title>32&#45;&gt;14</title>
<path fill="none" stroke="#c0c0c0" stroke-width="2" d="M1114.4867,-359.8686C1073.2508,-339.6432 1011.479,-302.9404 978,-252 965.9197,-233.619 961.3384,-208.9645 959.6838,-190.1079"/>
<polygon fill="#c0c0c0" stroke="#c0c0c0" stroke-width="2" points="963.1703,-189.7865 959.0248,-180.0364 956.1853,-190.2436 963.1703,-189.7865"/>
</g>
<!-- 32&#45;&gt;29 -->
<g id="edge73" class="edge">
<title>32&#45;&gt;29</title>
<path fill="none" stroke="#c0c0c0" stroke-width="2" d="M1204.702,-359.8314C1230.9736,-350.0306 1263.5683,-337.8709 1291.1284,-327.5894"/>
<polygon fill="#c0c0c0" stroke="#c0c0c0" stroke-width="2" points="1292.5023,-330.8126 1300.6482,-324.038 1290.0555,-324.2541 1292.5023,-330.8126"/>
</g>
<!-- 32&#45;&gt;30 -->
<g id="edge74" class="edge">
<title>32&#45;&gt;30</title>
<path fill="none" stroke="#c0c0c0" stroke-width="2" d="M1189.7834,-359.9698C1203.6333,-350.9355 1218.5907,-338.7552 1228,-324 1239.7542,-305.5676 1244.3705,-281.1129 1246.1217,-262.3473"/>
<polygon fill="#c0c0c0" stroke="#c0c0c0" stroke-width="2" points="1249.6169,-262.5382 1246.8406,-252.3136 1242.6348,-262.0378 1249.6169,-262.5382"/>
</g>
<!-- 42 -->
<g id="node43" class="node">
<title>42</title>
<path fill="none" stroke="#d8cb56" stroke-width="2" stroke-dasharray="5,2" d="M1207,-324C1207,-324 1105,-324 1105,-324 1099,-324 1093,-318 1093,-312 1093,-312 1093,-300 1093,-300 1093,-294 1099,-288 1105,-288 1105,-288 1207,-288 1207,-288 1213,-288 1219,-294 1219,-300 1219,-300 1219,-312 1219,-312 1219,-318 1213,-324 1207,-324"/>
<text text-anchor="middle" x="1156" y="-303.5" font-family="sans" font-size="10.00" fill="#000000">overlap_with_h3k27ac</text>
</g>
<!-- 32&#45;&gt;42 -->
<g id="edge88" class="edge">
<title>32&#45;&gt;42</title>
<path fill="none" stroke="#c0c0c0" stroke-width="2" d="M1156,-359.8314C1156,-352.131 1156,-342.9743 1156,-334.4166"/>
<polygon fill="#c0c0c0" stroke="#c0c0c0" stroke-width="2" points="1159.5001,-334.4132 1156,-324.4133 1152.5001,-334.4133 1159.5001,-334.4132"/>
</g>
<!-- 33 -->
<g id="node34" class="node">
<title>33</title>
<path fill="none" stroke="#56d89a" stroke-width="2" stroke-dasharray="5,2" d="M1076.5,-252C1076.5,-252 999.5,-252 999.5,-252 993.5,-252 987.5,-246 987.5,-240 987.5,-240 987.5,-228 987.5,-228 987.5,-222 993.5,-216 999.5,-216 999.5,-216 1076.5,-216 1076.5,-216 1082.5,-216 1088.5,-222 1088.5,-228 1088.5,-228 1088.5,-240 1088.5,-240 1088.5,-246 1082.5,-252 1076.5,-252"/>
<text text-anchor="middle" x="1038" y="-231.5" font-family="sans" font-size="10.00" fill="#000000">build_tss_regions</text>
</g>
<!-- 33&#45;&gt;14 -->
<g id="edge47" class="edge">
<title>33&#45;&gt;14</title>
<path fill="none" stroke="#c0c0c0" stroke-width="2" d="M1018.065,-215.8314C1008.5217,-207.1337 996.9401,-196.5783 986.5694,-187.1265"/>
<polygon fill="#c0c0c0" stroke="#c0c0c0" stroke-width="2" points="988.6772,-184.3121 978.9287,-180.1628 983.962,-189.4857 988.6772,-184.3121"/>
</g>
<!-- 34 -->
<g id="node35" class="node">
<title>34</title>
<path fill="none" stroke="#56a2d8" stroke-width="2" stroke-dasharray="5,2" d="M823,-684C823,-684 769,-684 769,-684 763,-684 757,-678 757,-672 757,-672 757,-660 757,-660 757,-654 763,-648 769,-648 769,-648 823,-648 823,-648 829,-648 835,-654 835,-660 835,-660 835,-672 835,-672 835,-678 829,-684 823,-684"/>
<text text-anchor="middle" x="796" y="-663.5" font-family="sans" font-size="10.00" fill="#000000">peak_calling</text>
</g>
<!-- 34&#45;&gt;15 -->
<g id="edge48" class="edge">
<title>34&#45;&gt;15</title>
<path fill="none" stroke="#c0c0c0" stroke-width="2" d="M796,-647.8146C796,-620.4983 796,-567.25 796,-522 796,-522 796,-522 796,-306 796,-265.876 796,-219.4631 796,-190.4177"/>
<polygon fill="#c0c0c0" stroke="#c0c0c0" stroke-width="2" points="799.5001,-190.1853 796,-180.1854 792.5001,-190.1854 799.5001,-190.1853"/>
</g>
<!-- 34&#45;&gt;28 -->
<g id="edge70" class="edge">
<title>34&#45;&gt;28</title>
<path fill="none" stroke="#c0c0c0" stroke-width="2" d="M835.2821,-648.7542C860.5742,-637.6504 893.3888,-623.2439 919.01,-611.9956"/>
<polygon fill="#c0c0c0" stroke="#c0c0c0" stroke-width="2" points="920.6972,-615.0774 928.4467,-607.8527 917.8832,-608.6679 920.6972,-615.0774"/>
</g>
<!-- 35 -->
<g id="node36" class="node">
<title>35</title>
<path fill="none" stroke="#d8b456" stroke-width="2" stroke-dasharray="5,2" d="M1853.5,-684C1853.5,-684 1798.5,-684 1798.5,-684 1792.5,-684 1786.5,-678 1786.5,-672 1786.5,-672 1786.5,-660 1786.5,-660 1786.5,-654 1792.5,-648 1798.5,-648 1798.5,-648 1853.5,-648 1853.5,-648 1859.5,-648 1865.5,-654 1865.5,-660 1865.5,-660 1865.5,-672 1865.5,-672 1865.5,-678 1859.5,-684 1853.5,-684"/>
<text text-anchor="middle" x="1826" y="-663.5" font-family="sans" font-size="10.00" fill="#000000">downsample</text>
</g>
<!-- 35&#45;&gt;23 -->
<g id="edge63" class="edge">
<title>35&#45;&gt;23</title>
<path fill="none" stroke="#c0c0c0" stroke-width="2" d="M1826,-647.8314C1826,-640.131 1826,-630.9743 1826,-622.4166"/>
<polygon fill="#c0c0c0" stroke="#c0c0c0" stroke-width="2" points="1829.5001,-622.4132 1826,-612.4133 1822.5001,-622.4133 1829.5001,-622.4132"/>
</g>
<!-- 36 -->
<g id="node37" class="node">
<title>36</title>
<path fill="none" stroke="#56a2d8" stroke-width="2" stroke-dasharray="5,2" d="M1660,-684C1660,-684 1606,-684 1606,-684 1600,-684 1594,-678 1594,-672 1594,-672 1594,-660 1594,-660 1594,-654 1600,-648 1606,-648 1606,-648 1660,-648 1660,-648 1666,-648 1672,-654 1672,-660 1672,-660 1672,-672 1672,-672 1672,-678 1666,-684 1660,-684"/>
<text text-anchor="middle" x="1633" y="-663.5" font-family="sans" font-size="10.00" fill="#000000">peak_calling</text>
</g>
<!-- 36&#45;&gt;24 -->
<g id="edge64" class="edge">
<title>36&#45;&gt;24</title>
<path fill="none" stroke="#c0c0c0" stroke-width="2" d="M1633,-647.8314C1633,-640.131 1633,-630.9743 1633,-622.4166"/>
<polygon fill="#c0c0c0" stroke="#c0c0c0" stroke-width="2" points="1636.5001,-622.4132 1633,-612.4133 1629.5001,-622.4133 1636.5001,-622.4132"/>
</g>
<!-- 37 -->
<g id="node38" class="node">
<title>37</title>
<path fill="none" stroke="#61d856" stroke-width="2" stroke-dasharray="5,2" d="M1563.5,-684C1563.5,-684 1414.5,-684 1414.5,-684 1408.5,-684 1402.5,-678 1402.5,-672 1402.5,-672 1402.5,-660 1402.5,-660 1402.5,-654 1408.5,-648 1414.5,-648 1414.5,-648 1563.5,-648 1563.5,-648 1569.5,-648 1575.5,-654 1575.5,-660 1575.5,-660 1575.5,-672 1575.5,-672 1575.5,-678 1569.5,-684 1563.5,-684"/>
<text text-anchor="middle" x="1489" y="-663.5" font-family="sans" font-size="10.00" fill="#000000">retrieve_and_process_black_list</text>
</g>
<!-- 37&#45;&gt;24 -->
<g id="edge65" class="edge">
<title>37&#45;&gt;24</title>
<path fill="none" stroke="#c0c0c0" stroke-width="2" d="M1525.3373,-647.8314C1545.6591,-637.6705 1571.0518,-624.9741 1592.0723,-614.4639"/>
<polygon fill="#c0c0c0" stroke="#c0c0c0" stroke-width="2" points="1593.7074,-617.5595 1601.0864,-609.9568 1590.5769,-611.2985 1593.7074,-617.5595"/>
</g>
<!-- 37&#45;&gt;26 -->
<g id="edge68" class="edge">
<title>37&#45;&gt;26</title>
<path fill="none" stroke="#c0c0c0" stroke-width="2" d="M1555.2996,-647.9452C1590.7208,-637.9734 1634.9534,-624.9997 1674,-612 1676.2443,-611.2528 1678.54,-610.4667 1680.8522,-609.6579"/>
<polygon fill="#c0c0c0" stroke="#c0c0c0" stroke-width="2" points="1682.1308,-612.9177 1690.3613,-606.2462 1679.7668,-606.329 1682.1308,-612.9177"/>
</g>
<!-- 37&#45;&gt;28 -->
<g id="edge71" class="edge">
<title>37&#45;&gt;28</title>
<path fill="none" stroke="#c0c0c0" stroke-width="2" d="M1402.2388,-654.1913C1286.8961,-638.4925 1087.6243,-611.3704 1001.5645,-599.6572"/>
<polygon fill="#c0c0c0" stroke="#c0c0c0" stroke-width="2" points="1002.0246,-596.1876 991.6439,-598.3069 1001.0805,-603.1237 1002.0246,-596.1876"/>
</g>
<!-- 38 -->
<g id="node39" class="node">
<title>38</title>
<path fill="none" stroke="#d8b456" stroke-width="2" stroke-dasharray="5,2" d="M1977.5,-684C1977.5,-684 1922.5,-684 1922.5,-684 1916.5,-684 1910.5,-678 1910.5,-672 1910.5,-672 1910.5,-660 1910.5,-660 1910.5,-654 1916.5,-648 1922.5,-648 1922.5,-648 1977.5,-648 1977.5,-648 1983.5,-648 1989.5,-654 1989.5,-660 1989.5,-660 1989.5,-672 1989.5,-672 1989.5,-678 1983.5,-684 1977.5,-684"/>
<text text-anchor="middle" x="1950" y="-663.5" font-family="sans" font-size="10.00" fill="#000000">downsample</text>
</g>
<!-- 38&#45;&gt;25 -->
<g id="edge66" class="edge">
<title>38&#45;&gt;25</title>
<path fill="none" stroke="#c0c0c0" stroke-width="2" d="M1950,-647.8314C1950,-640.131 1950,-630.9743 1950,-622.4166"/>
<polygon fill="#c0c0c0" stroke="#c0c0c0" stroke-width="2" points="1953.5001,-622.4132 1950,-612.4133 1946.5001,-622.4133 1953.5001,-622.4132"/>
</g>
<!-- 39 -->
<g id="node40" class="node">
<title>39</title>
<path fill="none" stroke="#56a2d8" stroke-width="2" stroke-dasharray="5,2" d="M1756,-684C1756,-684 1702,-684 1702,-684 1696,-684 1690,-678 1690,-672 1690,-672 1690,-660 1690,-660 1690,-654 1696,-648 1702,-648 1702,-648 1756,-648 1756,-648 1762,-648 1768,-654 1768,-660 1768,-660 1768,-672 1768,-672 1768,-678 1762,-684 1756,-684"/>
<text text-anchor="middle" x="1729" y="-663.5" font-family="sans" font-size="10.00" fill="#000000">peak_calling</text>
</g>
<!-- 39&#45;&gt;26 -->
<g id="edge67" class="edge">
<title>39&#45;&gt;26</title>
<path fill="none" stroke="#c0c0c0" stroke-width="2" d="M1727.2336,-647.8314C1726.485,-640.131 1725.5947,-630.9743 1724.7627,-622.4166"/>
<polygon fill="#c0c0c0" stroke="#c0c0c0" stroke-width="2" points="1728.2415,-622.0276 1723.7902,-612.4133 1721.2744,-622.7051 1728.2415,-622.0276"/>
</g>
<!-- 40 -->
<g id="node41" class="node">
<title>40</title>
<path fill="none" stroke="#d8b456" stroke-width="2" stroke-dasharray="5,2" d="M701.5,-684C701.5,-684 646.5,-684 646.5,-684 640.5,-684 634.5,-678 634.5,-672 634.5,-672 634.5,-660 634.5,-660 634.5,-654 640.5,-648 646.5,-648 646.5,-648 701.5,-648 701.5,-648 707.5,-648 713.5,-654 713.5,-660 713.5,-660 713.5,-672 713.5,-672 713.5,-678 707.5,-684 701.5,-684"/>
<text text-anchor="middle" x="674" y="-663.5" font-family="sans" font-size="10.00" fill="#000000">downsample</text>
</g>
<!-- 40&#45;&gt;27 -->
<g id="edge69" class="edge">
<title>40&#45;&gt;27</title>
<path fill="none" stroke="#c0c0c0" stroke-width="2" d="M674,-647.8314C674,-640.131 674,-630.9743 674,-622.4166"/>
<polygon fill="#c0c0c0" stroke="#c0c0c0" stroke-width="2" points="677.5001,-622.4132 674,-612.4133 670.5001,-622.4133 677.5001,-622.4132"/>
</g>
<!-- 41 -->
<g id="node42" class="node">
<title>41</title>
<path fill="none" stroke="#56d8a2" stroke-width="2" stroke-dasharray="5,2" d="M1598,-396C1598,-396 1484,-396 1484,-396 1478,-396 1472,-390 1472,-384 1472,-384 1472,-372 1472,-372 1472,-366 1478,-360 1484,-360 1484,-360 1598,-360 1598,-360 1604,-360 1610,-366 1610,-372 1610,-372 1610,-384 1610,-384 1610,-390 1604,-396 1598,-396"/>
<text text-anchor="middle" x="1541" y="-375.5" font-family="sans" font-size="10.00" fill="#000000">common_peaks_by_type</text>
</g>
<!-- 41&#45;&gt;29 -->
<g id="edge72" class="edge">
<title>41&#45;&gt;29</title>
<path fill="none" stroke="#c0c0c0" stroke-width="2" d="M1492.5503,-359.8314C1466.4149,-350.0306 1433.9891,-337.8709 1406.5717,-327.5894"/>
<polygon fill="#c0c0c0" stroke="#c0c0c0" stroke-width="2" points="1407.6936,-324.2721 1397.1013,-324.038 1405.2357,-330.8264 1407.6936,-324.2721"/>
</g>
<!-- 41&#45;&gt;31 -->
<g id="edge76" class="edge">
<title>41&#45;&gt;31</title>
<path fill="none" stroke="#c0c0c0" stroke-width="2" d="M1512.3269,-359.9507C1498.5027,-350.3601 1482.2965,-337.7267 1470,-324 1453.0464,-305.0745 1438.5405,-280.064 1428.8458,-261.2125"/>
<polygon fill="#c0c0c0" stroke="#c0c0c0" stroke-width="2" points="1431.9622,-259.6189 1424.3555,-252.2441 1425.7029,-262.7529 1431.9622,-259.6189"/>
</g>
<!-- 43 -->
<g id="node44" class="node">
<title>43</title>
<path fill="none" stroke="#d8cb56" stroke-width="2" stroke-dasharray="5,2" d="M1593,-324C1593,-324 1491,-324 1491,-324 1485,-324 1479,-318 1479,-312 1479,-312 1479,-300 1479,-300 1479,-294 1485,-288 1491,-288 1491,-288 1593,-288 1593,-288 1599,-288 1605,-294 1605,-300 1605,-300 1605,-312 1605,-312 1605,-318 1599,-324 1593,-324"/>
<text text-anchor="middle" x="1542" y="-303.5" font-family="sans" font-size="10.00" fill="#000000">overlap_with_h3k27ac</text>
</g>
<!-- 41&#45;&gt;43 -->
<g id="edge89" class="edge">
<title>41&#45;&gt;43</title>
<path fill="none" stroke="#c0c0c0" stroke-width="2" d="M1541.2523,-359.8314C1541.3593,-352.131 1541.4865,-342.9743 1541.6053,-334.4166"/>
<polygon fill="#c0c0c0" stroke="#c0c0c0" stroke-width="2" points="1545.1049,-334.4609 1541.7443,-324.4133 1538.1056,-334.3637 1545.1049,-334.4609"/>
</g>
<!-- 42&#45;&gt;30 -->
<g id="edge75" class="edge">
<title>42&#45;&gt;30</title>
<path fill="none" stroke="#c0c0c0" stroke-width="2" d="M1178.9631,-287.8314C1190.1715,-278.9632 1203.8209,-268.1637 1215.9439,-258.5718"/>
<polygon fill="#c0c0c0" stroke="#c0c0c0" stroke-width="2" points="1218.3737,-261.1125 1224.0442,-252.1628 1214.0303,-255.6229 1218.3737,-261.1125"/>
</g>
<!-- 43&#45;&gt;31 -->
<g id="edge77" class="edge">
<title>43&#45;&gt;31</title>
<path fill="none" stroke="#c0c0c0" stroke-width="2" d="M1510.2049,-287.8314C1493.9395,-278.5368 1473.9614,-267.1208 1456.5949,-257.1971"/>
<polygon fill="#c0c0c0" stroke="#c0c0c0" stroke-width="2" points="1458.2039,-254.0854 1447.7849,-252.1628 1454.7309,-260.1631 1458.2039,-254.0854"/>
</g>
<!-- 44&#45;&gt;32 -->
<g id="edge78" class="edge">
<title>44&#45;&gt;32</title>
<path fill="none" stroke="#c0c0c0" stroke-width="2" d="M1097.7092,-503.9222C1111.5454,-494.8791 1126.5125,-482.705 1136,-468 1147.8791,-449.588 1152.7727,-425.1318 1154.7548,-406.3605"/>
<polygon fill="#c0c0c0" stroke="#c0c0c0" stroke-width="2" points="1158.2485,-406.5814 1155.5994,-396.3232 1151.2732,-405.9944 1158.2485,-406.5814"/>
</g>
<!-- 45 -->
<g id="node46" class="node">
<title>45</title>
<path fill="none" stroke="#70d856" stroke-width="2" stroke-dasharray="5,2" d="M1115.5,-468C1115.5,-468 1012.5,-468 1012.5,-468 1006.5,-468 1000.5,-462 1000.5,-456 1000.5,-456 1000.5,-444 1000.5,-444 1000.5,-438 1006.5,-432 1012.5,-432 1012.5,-432 1115.5,-432 1115.5,-432 1121.5,-432 1127.5,-438 1127.5,-444 1127.5,-444 1127.5,-456 1127.5,-456 1127.5,-462 1121.5,-468 1115.5,-468"/>
<text text-anchor="middle" x="1064" y="-447.5" font-family="sans" font-size="10.00" fill="#000000">merge_peaks_by_type</text>
</g>
<!-- 44&#45;&gt;45 -->
<g id="edge91" class="edge">
<title>44&#45;&gt;45</title>
<path fill="none" stroke="#c0c0c0" stroke-width="2" d="M1064,-503.8314C1064,-496.131 1064,-486.9743 1064,-478.4166"/>
<polygon fill="#c0c0c0" stroke="#c0c0c0" stroke-width="2" points="1067.5001,-478.4132 1064,-468.4133 1060.5001,-478.4133 1067.5001,-478.4132"/>
</g>
<!-- 45&#45;&gt;32 -->
<g id="edge79" class="edge">
<title>45&#45;&gt;32</title>
<path fill="none" stroke="#c0c0c0" stroke-width="2" d="M1087.2155,-431.8314C1098.547,-422.9632 1112.3464,-412.1637 1124.6027,-402.5718"/>
<polygon fill="#c0c0c0" stroke="#c0c0c0" stroke-width="2" points="1127.074,-405.0822 1132.7919,-396.1628 1122.7598,-399.5697 1127.074,-405.0822"/>
</g>
<!-- 46 -->
<g id="node47" class="node">
<title>46</title>
<path fill="none" stroke="#56c9d8" stroke-width="2" stroke-dasharray="5,2" d="M695,-756C695,-756 653,-756 653,-756 647,-756 641,-750 641,-744 641,-744 641,-732 641,-732 641,-726 647,-720 653,-720 653,-720 695,-720 695,-720 701,-720 707,-726 707,-732 707,-732 707,-744 707,-744 707,-750 701,-756 695,-756"/>
<text text-anchor="middle" x="674" y="-735.5" font-family="sans" font-size="10.00" fill="#000000">filter_bam</text>
</g>
<!-- 46&#45;&gt;34 -->
<g id="edge80" class="edge">
<title>46&#45;&gt;34</title>
<path fill="none" stroke="#c0c0c0" stroke-width="2" d="M704.7858,-719.8314C720.3903,-710.6221 739.524,-699.3301 756.2303,-689.4706"/>
<polygon fill="#c0c0c0" stroke="#c0c0c0" stroke-width="2" points="758.3909,-692.2596 765.2241,-684.1628 754.8331,-686.2312 758.3909,-692.2596"/>
</g>
<!-- 46&#45;&gt;40 -->
<g id="edge85" class="edge">
<title>46&#45;&gt;40</title>
<path fill="none" stroke="#c0c0c0" stroke-width="2" d="M674,-719.8314C674,-712.131 674,-702.9743 674,-694.4166"/>
<polygon fill="#c0c0c0" stroke="#c0c0c0" stroke-width="2" points="677.5001,-694.4132 674,-684.4133 670.5001,-694.4133 677.5001,-694.4132"/>
</g>
<!-- 47 -->
<g id="node48" class="node">
<title>47</title>
<path fill="none" stroke="#56c9d8" stroke-width="2" stroke-dasharray="5,2" d="M1667,-756C1667,-756 1625,-756 1625,-756 1619,-756 1613,-750 1613,-744 1613,-744 1613,-732 1613,-732 1613,-726 1619,-720 1625,-720 1625,-720 1667,-720 1667,-720 1673,-720 1679,-726 1679,-732 1679,-732 1679,-744 1679,-744 1679,-750 1673,-756 1667,-756"/>
<text text-anchor="middle" x="1646" y="-735.5" font-family="sans" font-size="10.00" fill="#000000">filter_bam</text>
</g>
<!-- 47&#45;&gt;35 -->
<g id="edge81" class="edge">
<title>47&#45;&gt;35</title>
<path fill="none" stroke="#c0c0c0" stroke-width="2" d="M1679.0148,-724.7941C1706.4243,-713.8303 1745.8129,-698.0749 1776.9176,-685.633"/>
<polygon fill="#c0c0c0" stroke="#c0c0c0" stroke-width="2" points="1778.2975,-688.8507 1786.2824,-681.8871 1775.6977,-682.3513 1778.2975,-688.8507"/>
</g>
<!-- 47&#45;&gt;36 -->
<g id="edge82" class="edge">
<title>47&#45;&gt;36</title>
<path fill="none" stroke="#c0c0c0" stroke-width="2" d="M1642.7196,-719.8314C1641.3292,-712.131 1639.6759,-702.9743 1638.1308,-694.4166"/>
<polygon fill="#c0c0c0" stroke="#c0c0c0" stroke-width="2" points="1641.5458,-693.6322 1636.3246,-684.4133 1634.6572,-694.8761 1641.5458,-693.6322"/>
</g>
<!-- 48 -->
<g id="node49" class="node">
<title>48</title>
<path fill="none" stroke="#56c9d8" stroke-width="2" stroke-dasharray="5,2" d="M1971,-756C1971,-756 1929,-756 1929,-756 1923,-756 1917,-750 1917,-744 1917,-744 1917,-732 1917,-732 1917,-726 1923,-720 1929,-720 1929,-720 1971,-720 1971,-720 1977,-720 1983,-726 1983,-732 1983,-732 1983,-744 1983,-744 1983,-750 1977,-756 1971,-756"/>
<text text-anchor="middle" x="1950" y="-735.5" font-family="sans" font-size="10.00" fill="#000000">filter_bam</text>
</g>
<!-- 48&#45;&gt;38 -->
<g id="edge83" class="edge">
<title>48&#45;&gt;38</title>
<path fill="none" stroke="#c0c0c0" stroke-width="2" d="M1950,-719.8314C1950,-712.131 1950,-702.9743 1950,-694.4166"/>
<polygon fill="#c0c0c0" stroke="#c0c0c0" stroke-width="2" points="1953.5001,-694.4132 1950,-684.4133 1946.5001,-694.4133 1953.5001,-694.4132"/>
</g>
<!-- 48&#45;&gt;39 -->
<g id="edge84" class="edge">
<title>48&#45;&gt;39</title>
<path fill="none" stroke="#c0c0c0" stroke-width="2" d="M1916.8739,-728.114C1882.1262,-717.6241 1825.9979,-700.3401 1778,-684 1777.9008,-683.9662 1777.8015,-683.9324 1777.7021,-683.8985"/>
<polygon fill="#c0c0c0" stroke="#c0c0c0" stroke-width="2" points="1778.8508,-680.5924 1768.256,-680.6081 1776.5482,-687.2029 1778.8508,-680.5924"/>
</g>
<!-- 49&#45;&gt;41 -->
<g id="edge86" class="edge">
<title>49&#45;&gt;41</title>
<path fill="none" stroke="#c0c0c0" stroke-width="2" d="M1599.2908,-503.9222C1585.4546,-494.8791 1570.4875,-482.705 1561,-468 1549.1209,-449.588 1544.2273,-425.1318 1542.2452,-406.3605"/>
<polygon fill="#c0c0c0" stroke="#c0c0c0" stroke-width="2" points="1545.7268,-405.9944 1541.4006,-396.3232 1538.7515,-406.5814 1545.7268,-405.9944"/>
</g>
<!-- 50 -->
<g id="node51" class="node">
<title>50</title>
<path fill="none" stroke="#70d856" stroke-width="2" stroke-dasharray="5,2" d="M1684.5,-468C1684.5,-468 1581.5,-468 1581.5,-468 1575.5,-468 1569.5,-462 1569.5,-456 1569.5,-456 1569.5,-444 1569.5,-444 1569.5,-438 1575.5,-432 1581.5,-432 1581.5,-432 1684.5,-432 1684.5,-432 1690.5,-432 1696.5,-438 1696.5,-444 1696.5,-444 1696.5,-456 1696.5,-456 1696.5,-462 1690.5,-468 1684.5,-468"/>
<text text-anchor="middle" x="1633" y="-447.5" font-family="sans" font-size="10.00" fill="#000000">merge_peaks_by_type</text>
</g>
<!-- 49&#45;&gt;50 -->
<g id="edge97" class="edge">
<title>49&#45;&gt;50</title>
<path fill="none" stroke="#c0c0c0" stroke-width="2" d="M1633,-503.8314C1633,-496.131 1633,-486.9743 1633,-478.4166"/>
<polygon fill="#c0c0c0" stroke="#c0c0c0" stroke-width="2" points="1636.5001,-478.4132 1633,-468.4133 1629.5001,-478.4133 1636.5001,-478.4132"/>
</g>
<!-- 50&#45;&gt;41 -->
<g id="edge87" class="edge">
<title>50&#45;&gt;41</title>
<path fill="none" stroke="#c0c0c0" stroke-width="2" d="M1609.7845,-431.8314C1598.453,-422.9632 1584.6536,-412.1637 1572.3973,-402.5718"/>
<polygon fill="#c0c0c0" stroke="#c0c0c0" stroke-width="2" points="1574.2402,-399.5697 1564.2081,-396.1628 1569.926,-405.0822 1574.2402,-399.5697"/>
</g>
<!-- 51 -->
<g id="node52" class="node">
<title>51</title>
<path fill="none" stroke="#8fd856" stroke-width="2" stroke-dasharray="5,2" d="M664.5,-828C664.5,-828 581.5,-828 581.5,-828 575.5,-828 569.5,-822 569.5,-816 569.5,-816 569.5,-804 569.5,-804 569.5,-798 575.5,-792 581.5,-792 581.5,-792 664.5,-792 664.5,-792 670.5,-792 676.5,-798 676.5,-804 676.5,-804 676.5,-816 676.5,-816 676.5,-822 670.5,-828 664.5,-828"/>
<text text-anchor="middle" x="623" y="-813" font-family="sans" font-size="10.00" fill="#000000">merge_bam</text>
<text text-anchor="middle" x="623" y="-802" font-family="sans" font-size="10.00" fill="#000000">sample: GFP_IIG_7</text>
</g>
<!-- 51&#45;&gt;46 -->
<g id="edge92" class="edge">
<title>51&#45;&gt;46</title>
<path fill="none" stroke="#c0c0c0" stroke-width="2" d="M635.8695,-791.8314C641.6835,-783.6232 648.6696,-773.7606 655.0646,-764.7323"/>
<polygon fill="#c0c0c0" stroke="#c0c0c0" stroke-width="2" points="658.0331,-766.5966 660.9573,-756.4133 652.321,-762.5505 658.0331,-766.5966"/>
</g>
<!-- 52 -->
<g id="node53" class="node">
<title>52</title>
<path fill="none" stroke="#8fd856" stroke-width="2" stroke-dasharray="5,2" d="M1687.5,-828C1687.5,-828 1604.5,-828 1604.5,-828 1598.5,-828 1592.5,-822 1592.5,-816 1592.5,-816 1592.5,-804 1592.5,-804 1592.5,-798 1598.5,-792 1604.5,-792 1604.5,-792 1687.5,-792 1687.5,-792 1693.5,-792 1699.5,-798 1699.5,-804 1699.5,-804 1699.5,-816 1699.5,-816 1699.5,-822 1693.5,-828 1687.5,-828"/>
<text text-anchor="middle" x="1646" y="-813" font-family="sans" font-size="10.00" fill="#000000">merge_bam</text>
<text text-anchor="middle" x="1646" y="-802" font-family="sans" font-size="10.00" fill="#000000">sample: RFP_IIG_3</text>
</g>
<!-- 52&#45;&gt;47 -->
<g id="edge93" class="edge">
<title>52&#45;&gt;47</title>
<path fill="none" stroke="#c0c0c0" stroke-width="2" d="M1646,-791.8314C1646,-784.131 1646,-774.9743 1646,-766.4166"/>
<polygon fill="#c0c0c0" stroke="#c0c0c0" stroke-width="2" points="1649.5001,-766.4132 1646,-756.4133 1642.5001,-766.4133 1649.5001,-766.4132"/>
</g>
<!-- 53 -->
<g id="node54" class="node">
<title>53</title>
<path fill="none" stroke="#8fd856" stroke-width="2" stroke-dasharray="5,2" d="M2192.5,-828C2192.5,-828 2111.5,-828 2111.5,-828 2105.5,-828 2099.5,-822 2099.5,-816 2099.5,-816 2099.5,-804 2099.5,-804 2099.5,-798 2105.5,-792 2111.5,-792 2111.5,-792 2192.5,-792 2192.5,-792 2198.5,-792 2204.5,-798 2204.5,-804 2204.5,-804 2204.5,-816 2204.5,-816 2204.5,-822 2198.5,-828 2192.5,-828"/>
<text text-anchor="middle" x="2152" y="-813" font-family="sans" font-size="10.00" fill="#000000">merge_bam</text>
<text text-anchor="middle" x="2152" y="-802" font-family="sans" font-size="10.00" fill="#000000">sample: RFP_IIE_1</text>
</g>
<!-- 53&#45;&gt;48 -->
<g id="edge94" class="edge">
<title>53&#45;&gt;48</title>
<path fill="none" stroke="#c0c0c0" stroke-width="2" d="M2101.2876,-791.9243C2067.8196,-779.9951 2024.461,-764.5405 1992.7462,-753.2363"/>
<polygon fill="#c0c0c0" stroke="#c0c0c0" stroke-width="2" points="1993.896,-749.9305 1983.3014,-749.8698 1991.5458,-756.5241 1993.896,-749.9305"/>
</g>
<!-- 54 -->
<g id="node55" class="node">
<title>54</title>
<path fill="none" stroke="#b6d856" stroke-width="2" stroke-dasharray="5,2" d="M630,-900C630,-900 412,-900 412,-900 406,-900 400,-894 400,-888 400,-888 400,-876 400,-876 400,-870 406,-864 412,-864 412,-864 630,-864 630,-864 636,-864 642,-870 642,-876 642,-876 642,-888 642,-888 642,-894 636,-900 630,-900"/>
<text text-anchor="middle" x="521" y="-885" font-family="sans" font-size="10.00" fill="#000000">align</text>
<text text-anchor="middle" x="521" y="-874" font-family="sans" font-size="10.00" fill="#000000">lane_sample: HN7NJBBXX_16871601_S3_L001</text>
</g>
<!-- 54&#45;&gt;51 -->
<g id="edge98" class="edge">
<title>54&#45;&gt;51</title>
<path fill="none" stroke="#c0c0c0" stroke-width="2" d="M546.7389,-863.8314C559.5437,-854.7927 575.1909,-843.7476 588.9719,-834.0198"/>
<polygon fill="#c0c0c0" stroke="#c0c0c0" stroke-width="2" points="591.118,-836.7891 597.2693,-828.1628 587.0812,-831.0703 591.118,-836.7891"/>
</g>
<!-- 55 -->
<g id="node56" class="node">
<title>55</title>
<path fill="none" stroke="#b6d856" stroke-width="2" stroke-dasharray="5,2" d="M1768,-900C1768,-900 1550,-900 1550,-900 1544,-900 1538,-894 1538,-888 1538,-888 1538,-876 1538,-876 1538,-870 1544,-864 1550,-864 1550,-864 1768,-864 1768,-864 1774,-864 1780,-870 1780,-876 1780,-876 1780,-888 1780,-888 1780,-894 1774,-900 1768,-900"/>
<text text-anchor="middle" x="1659" y="-885" font-family="sans" font-size="10.00" fill="#000000">align</text>
<text text-anchor="middle" x="1659" y="-874" font-family="sans" font-size="10.00" fill="#000000">lane_sample: HN7NJBBXX_16871585_S2_L002</text>
</g>
<!-- 55&#45;&gt;52 -->
<g id="edge99" class="edge">
<title>55&#45;&gt;52</title>
<path fill="none" stroke="#c0c0c0" stroke-width="2" d="M1655.7196,-863.8314C1654.3292,-856.131 1652.6759,-846.9743 1651.1308,-838.4166"/>
<polygon fill="#c0c0c0" stroke="#c0c0c0" stroke-width="2" points="1654.5458,-837.6322 1649.3246,-828.4133 1647.6572,-838.8761 1654.5458,-837.6322"/>
</g>
<!-- 56 -->
<g id="node57" class="node">
<title>56</title>
<path fill="none" stroke="#b6d856" stroke-width="2" stroke-dasharray="5,2" d="M1324,-900C1324,-900 1106,-900 1106,-900 1100,-900 1094,-894 1094,-888 1094,-888 1094,-876 1094,-876 1094,-870 1100,-864 1106,-864 1106,-864 1324,-864 1324,-864 1330,-864 1336,-870 1336,-876 1336,-876 1336,-888 1336,-888 1336,-894 1330,-900 1324,-900"/>
<text text-anchor="middle" x="1215" y="-885" font-family="sans" font-size="10.00" fill="#000000">align</text>
<text text-anchor="middle" x="1215" y="-874" font-family="sans" font-size="10.00" fill="#000000">lane_sample: HN7NJBBXX_16871585_S2_L001</text>
</g>
<!-- 56&#45;&gt;52 -->
<g id="edge100" class="edge">
<title>56&#45;&gt;52</title>
<path fill="none" stroke="#c0c0c0" stroke-width="2" d="M1322.9253,-863.9707C1404.6307,-850.3216 1514.0839,-832.037 1582.3017,-820.641"/>
<polygon fill="#c0c0c0" stroke="#c0c0c0" stroke-width="2" points="1583.1855,-824.042 1592.4721,-818.942 1582.0321,-817.1376 1583.1855,-824.042"/>
</g>
<!-- 57 -->
<g id="node58" class="node">
<title>57</title>
<path fill="none" stroke="#b6d856" stroke-width="2" stroke-dasharray="5,2" d="M2466,-900C2466,-900 2244,-900 2244,-900 2238,-900 2232,-894 2232,-888 2232,-888 2232,-876 2232,-876 2232,-870 2238,-864 2244,-864 2244,-864 2466,-864 2466,-864 2472,-864 2478,-870 2478,-876 2478,-876 2478,-888 2478,-888 2478,-894 2472,-900 2466,-900"/>
<text text-anchor="middle" x="2355" y="-885" font-family="sans" font-size="10.00" fill="#000000">align</text>
<text text-anchor="middle" x="2355" y="-874" font-family="sans" font-size="10.00" fill="#000000">lane_sample: HN7TMBBXX_16871599_S8_L004</text>
</g>
<!-- 57&#45;&gt;53 -->
<g id="edge101" class="edge">
<title>57&#45;&gt;53</title>
<path fill="none" stroke="#c0c0c0" stroke-width="2" d="M2304.0366,-863.9243C2276.2853,-854.0815 2241.7672,-841.8386 2212.6386,-831.5073"/>
<polygon fill="#c0c0c0" stroke="#c0c0c0" stroke-width="2" points="2213.5792,-828.1273 2202.9844,-828.0831 2211.2392,-834.7246 2213.5792,-828.1273"/>
</g>
<!-- 58 -->
<g id="node59" class="node">
<title>58</title>
<path fill="none" stroke="#56b9d8" stroke-width="2" stroke-dasharray="5,2" d="M664,-972C664,-972 378,-972 378,-972 372,-972 366,-966 366,-960 366,-960 366,-948 366,-948 366,-942 372,-936 378,-936 378,-936 664,-936 664,-936 670,-936 676,-942 676,-948 676,-948 676,-960 676,-960 676,-966 670,-972 664,-972"/>
<text text-anchor="middle" x="521" y="-957" font-family="sans" font-size="10.00" fill="#000000">pull_lane_fastq_from_nisc_or_sra</text>
<text text-anchor="middle" x="521" y="-946" font-family="sans" font-size="10.00" fill="#000000">lane_files: HN7NJBBXX_16871601_S3_L001_R1_001.fastq.gz</text>
</g>
<!-- 58&#45;&gt;54 -->
<g id="edge102" class="edge">
<title>58&#45;&gt;54</title>
<path fill="none" stroke="#c0c0c0" stroke-width="2" d="M521,-935.8314C521,-928.131 521,-918.9743 521,-910.4166"/>
<polygon fill="#c0c0c0" stroke="#c0c0c0" stroke-width="2" points="524.5001,-910.4132 521,-900.4133 517.5001,-910.4133 524.5001,-910.4132"/>
</g>
<!-- 59 -->
<g id="node60" class="node">
<title>59</title>
<path fill="none" stroke="#56b9d8" stroke-width="2" stroke-dasharray="5,2" d="M298,-972C298,-972 12,-972 12,-972 6,-972 0,-966 0,-960 0,-960 0,-948 0,-948 0,-942 6,-936 12,-936 12,-936 298,-936 298,-936 304,-936 310,-942 310,-948 310,-948 310,-960 310,-960 310,-966 304,-972 298,-972"/>
<text text-anchor="middle" x="155" y="-957" font-family="sans" font-size="10.00" fill="#000000">pull_lane_fastq_from_nisc_or_sra</text>
<text text-anchor="middle" x="155" y="-946" font-family="sans" font-size="10.00" fill="#000000">lane_files: HN7NJBBXX_16871601_S3_L001_R2_001.fastq.gz</text>
</g>
<!-- 59&#45;&gt;54 -->
<g id="edge103" class="edge">
<title>59&#45;&gt;54</title>
<path fill="none" stroke="#c0c0c0" stroke-width="2" d="M246.8848,-935.9243C299.4118,-925.5911 365.3849,-912.6128 419.4452,-901.978"/>
<polygon fill="#c0c0c0" stroke="#c0c0c0" stroke-width="2" points="420.2585,-905.3852 429.3949,-900.0207 418.9073,-898.5168 420.2585,-905.3852"/>
</g>
<!-- 60 -->
<g id="node61" class="node">
<title>60</title>
<path fill="none" stroke="#d87d56" stroke-width="2" stroke-dasharray="5,2" d="M1460,-1044C1460,-1044 1414,-1044 1414,-1044 1408,-1044 1402,-1038 1402,-1032 1402,-1032 1402,-1020 1402,-1020 1402,-1014 1408,-1008 1414,-1008 1414,-1008 1460,-1008 1460,-1008 1466,-1008 1472,-1014 1472,-1020 1472,-1020 1472,-1032 1472,-1032 1472,-1038 1466,-1044 1460,-1044"/>
<text text-anchor="middle" x="1437" y="-1023.5" font-family="sans" font-size="10.00" fill="#000000">build_hg19</text>
</g>
<!-- 60&#45;&gt;54 -->
<g id="edge104" class="edge">
<title>60&#45;&gt;54</title>
<path fill="none" stroke="#c0c0c0" stroke-width="2" d="M1401.7933,-1025.5871C1219.9221,-1023.2861 393.836,-1010.7239 357,-972 327.2962,-940.774 372.4511,-917.7381 422.8396,-902.7917"/>
<polygon fill="#c0c0c0" stroke="#c0c0c0" stroke-width="2" points="423.9705,-906.1089 432.6287,-900.0027 422.0524,-899.3768 423.9705,-906.1089"/>
</g>
<!-- 60&#45;&gt;55 -->
<g id="edge108" class="edge">
<title>60&#45;&gt;55</title>
<path fill="none" stroke="#c0c0c0" stroke-width="2" d="M1472.0796,-1024.66C1612.5037,-1019.1294 2127.6506,-997.182 2151,-972 2161.8787,-960.2674 2161.6787,-947.9149 2151,-936 2127.2208,-909.4681 1927.7552,-894.6493 1790.2204,-887.5026"/>
<polygon fill="#c0c0c0" stroke="#c0c0c0" stroke-width="2" points="1790.1808,-883.9961 1780.015,-886.9804 1789.8231,-890.9869 1790.1808,-883.9961"/>
</g>
<!-- 60&#45;&gt;56 -->
<g id="edge112" class="edge">
<title>60&#45;&gt;56</title>
<path fill="none" stroke="#c0c0c0" stroke-width="2" d="M1401.8574,-1023.6802C1311.0243,-1017.3288 1073.9263,-998.3569 1051,-972 1023.3237,-940.1823 1065.912,-917.4878 1114.608,-902.847"/>
<polygon fill="#c0c0c0" stroke="#c0c0c0" stroke-width="2" points="1115.7679,-906.1554 1124.4097,-900.026 1113.8317,-899.4285 1115.7679,-906.1554"/>
</g>
<!-- 60&#45;&gt;57 -->
<g id="edge116" class="edge">
<title>60&#45;&gt;57</title>
<path fill="none" stroke="#c0c0c0" stroke-width="2" d="M1472.0454,-1025.3292C1687.878,-1021.1178 2828.2882,-997.6722 2853,-972 2864.096,-960.4727 2863.6865,-947.9079 2853,-936 2828.9522,-909.2036 2627.6162,-894.4785 2488.4299,-887.4206"/>
<polygon fill="#c0c0c0" stroke="#c0c0c0" stroke-width="2" points="2488.2631,-883.908 2478.101,-886.9051 2487.9141,-890.8993 2488.2631,-883.908"/>
</g>
<!-- 61 -->
<g id="node62" class="node">
<title>61</title>
<path fill="none" stroke="#68d856" stroke-width="2" stroke-dasharray="5,2" d="M1474,-972C1474,-972 1400,-972 1400,-972 1394,-972 1388,-966 1388,-960 1388,-960 1388,-948 1388,-948 1388,-942 1394,-936 1400,-936 1400,-936 1474,-936 1474,-936 1480,-936 1486,-942 1486,-948 1486,-948 1486,-960 1486,-960 1486,-966 1480,-972 1474,-972"/>
<text text-anchor="middle" x="1437" y="-951.5" font-family="sans" font-size="10.00" fill="#000000">build_bwa_index</text>
</g>
<!-- 60&#45;&gt;61 -->
<g id="edge118" class="edge">
<title>60&#45;&gt;61</title>
<path fill="none" stroke="#c0c0c0" stroke-width="2" d="M1437,-1007.8314C1437,-1000.131 1437,-990.9743 1437,-982.4166"/>
<polygon fill="#c0c0c0" stroke="#c0c0c0" stroke-width="2" points="1440.5001,-982.4132 1437,-972.4133 1433.5001,-982.4133 1440.5001,-982.4132"/>
</g>
<!-- 61&#45;&gt;54 -->
<g id="edge105" class="edge">
<title>61&#45;&gt;54</title>
<path fill="none" stroke="#c0c0c0" stroke-width="2" d="M1387.8388,-937.8696C1384.8655,-937.1665 1381.9034,-936.534 1379,-936 1243.4877,-911.0766 857.1451,-894.0151 652.2698,-886.4393"/>
<polygon fill="#c0c0c0" stroke="#c0c0c0" stroke-width="2" points="652.1729,-882.9335 642.051,-886.0638 651.9157,-889.9288 652.1729,-882.9335"/>
</g>
<!-- 61&#45;&gt;55 -->
<g id="edge109" class="edge">
<title>61&#45;&gt;55</title>
<path fill="none" stroke="#c0c0c0" stroke-width="2" d="M1486.269,-938.0209C1517.7764,-927.8022 1559.0136,-914.428 1593.294,-903.31"/>
<polygon fill="#c0c0c0" stroke="#c0c0c0" stroke-width="2" points="1594.7939,-906.5032 1603.2263,-900.0888 1592.6343,-899.8446 1594.7939,-906.5032"/>
</g>
<!-- 61&#45;&gt;56 -->
<g id="edge113" class="edge">
<title>61&#45;&gt;56</title>
<path fill="none" stroke="#c0c0c0" stroke-width="2" d="M1387.731,-938.0209C1356.2236,-927.8022 1314.9864,-914.428 1280.706,-903.31"/>
<polygon fill="#c0c0c0" stroke="#c0c0c0" stroke-width="2" points="1281.3657,-899.8446 1270.7737,-900.0888 1279.2061,-906.5032 1281.3657,-899.8446"/>
</g>
<!-- 61&#45;&gt;57 -->
<g id="edge117" class="edge">
<title>61&#45;&gt;57</title>
<path fill="none" stroke="#c0c0c0" stroke-width="2" d="M1486.1611,-937.8691C1489.1344,-937.1661 1492.0966,-936.5338 1495,-936 1630.3766,-911.1117 2015.4962,-894.1019 2221.3675,-886.504"/>
<polygon fill="#c0c0c0" stroke="#c0c0c0" stroke-width="2" points="2221.7737,-889.9915 2231.6386,-886.1272 2221.517,-882.9962 2221.7737,-889.9915"/>
</g>
<!-- 62 -->
<g id="node63" class="node">
<title>62</title>
<path fill="none" stroke="#56b9d8" stroke-width="2" stroke-dasharray="5,2" d="M1802,-972C1802,-972 1516,-972 1516,-972 1510,-972 1504,-966 1504,-960 1504,-960 1504,-948 1504,-948 1504,-942 1510,-936 1516,-936 1516,-936 1802,-936 1802,-936 1808,-936 1814,-942 1814,-948 1814,-948 1814,-960 1814,-960 1814,-966 1808,-972 1802,-972"/>
<text text-anchor="middle" x="1659" y="-957" font-family="sans" font-size="10.00" fill="#000000">pull_lane_fastq_from_nisc_or_sra</text>
<text text-anchor="middle" x="1659" y="-946" font-family="sans" font-size="10.00" fill="#000000">lane_files: HN7NJBBXX_16871585_S2_L002_R1_001.fastq.gz</text>
</g>
<!-- 62&#45;&gt;55 -->
<g id="edge106" class="edge">
<title>62&#45;&gt;55</title>
<path fill="none" stroke="#c0c0c0" stroke-width="2" d="M1659,-935.8314C1659,-928.131 1659,-918.9743 1659,-910.4166"/>
<polygon fill="#c0c0c0" stroke="#c0c0c0" stroke-width="2" points="1662.5001,-910.4132 1659,-900.4133 1655.5001,-910.4133 1662.5001,-910.4132"/>
</g>
<!-- 63 -->
<g id="node64" class="node">
<title>63</title>
<path fill="none" stroke="#56b9d8" stroke-width="2" stroke-dasharray="5,2" d="M2130,-972C2130,-972 1844,-972 1844,-972 1838,-972 1832,-966 1832,-960 1832,-960 1832,-948 1832,-948 1832,-942 1838,-936 1844,-936 1844,-936 2130,-936 2130,-936 2136,-936 2142,-942 2142,-948 2142,-948 2142,-960 2142,-960 2142,-966 2136,-972 2130,-972"/>
<text text-anchor="middle" x="1987" y="-957" font-family="sans" font-size="10.00" fill="#000000">pull_lane_fastq_from_nisc_or_sra</text>
<text text-anchor="middle" x="1987" y="-946" font-family="sans" font-size="10.00" fill="#000000">lane_files: HN7NJBBXX_16871585_S2_L002_R2_001.fastq.gz</text>
</g>
<!-- 63&#45;&gt;55 -->
<g id="edge107" class="edge">
<title>63&#45;&gt;55</title>
<path fill="none" stroke="#c0c0c0" stroke-width="2" d="M1904.6551,-935.9243C1857.8748,-925.6554 1799.1939,-912.7743 1750.9167,-902.1768"/>
<polygon fill="#c0c0c0" stroke="#c0c0c0" stroke-width="2" points="1751.6121,-898.7462 1741.0942,-900.0207 1750.1112,-905.5834 1751.6121,-898.7462"/>
</g>
<!-- 64 -->
<g id="node65" class="node">
<title>64</title>
<path fill="none" stroke="#56b9d8" stroke-width="2" stroke-dasharray="5,2" d="M1358,-972C1358,-972 1072,-972 1072,-972 1066,-972 1060,-966 1060,-960 1060,-960 1060,-948 1060,-948 1060,-942 1066,-936 1072,-936 1072,-936 1358,-936 1358,-936 1364,-936 1370,-942 1370,-948 1370,-948 1370,-960 1370,-960 1370,-966 1364,-972 1358,-972"/>
<text text-anchor="middle" x="1215" y="-957" font-family="sans" font-size="10.00" fill="#000000">pull_lane_fastq_from_nisc_or_sra</text>
<text text-anchor="middle" x="1215" y="-946" font-family="sans" font-size="10.00" fill="#000000">lane_files: HN7NJBBXX_16871585_S2_L001_R1_001.fastq.gz</text>
</g>
<!-- 64&#45;&gt;56 -->
<g id="edge110" class="edge">
<title>64&#45;&gt;56</title>
<path fill="none" stroke="#c0c0c0" stroke-width="2" d="M1215,-935.8314C1215,-928.131 1215,-918.9743 1215,-910.4166"/>
<polygon fill="#c0c0c0" stroke="#c0c0c0" stroke-width="2" points="1218.5001,-910.4132 1215,-900.4133 1211.5001,-910.4133 1218.5001,-910.4132"/>
</g>
<!-- 65 -->
<g id="node66" class="node">
<title>65</title>
<path fill="none" stroke="#56b9d8" stroke-width="2" stroke-dasharray="5,2" d="M992,-972C992,-972 706,-972 706,-972 700,-972 694,-966 694,-960 694,-960 694,-948 694,-948 694,-942 700,-936 706,-936 706,-936 992,-936 992,-936 998,-936 1004,-942 1004,-948 1004,-948 1004,-960 1004,-960 1004,-966 998,-972 992,-972"/>
<text text-anchor="middle" x="849" y="-957" font-family="sans" font-size="10.00" fill="#000000">pull_lane_fastq_from_nisc_or_sra</text>
<text text-anchor="middle" x="849" y="-946" font-family="sans" font-size="10.00" fill="#000000">lane_files: HN7NJBBXX_16871585_S2_L001_R2_001.fastq.gz</text>
</g>
<!-- 65&#45;&gt;56 -->
<g id="edge111" class="edge">
<title>65&#45;&gt;56</title>
<path fill="none" stroke="#c0c0c0" stroke-width="2" d="M940.8848,-935.9243C993.4118,-925.5911 1059.3849,-912.6128 1113.4452,-901.978"/>
<polygon fill="#c0c0c0" stroke="#c0c0c0" stroke-width="2" points="1114.2585,-905.3852 1123.3949,-900.0207 1112.9073,-898.5168 1114.2585,-905.3852"/>
</g>
<!-- 66 -->
<g id="node67" class="node">
<title>66</title>
<path fill="none" stroke="#56b9d8" stroke-width="2" stroke-dasharray="5,2" d="M2500,-972C2500,-972 2210,-972 2210,-972 2204,-972 2198,-966 2198,-960 2198,-960 2198,-948 2198,-948 2198,-942 2204,-936 2210,-936 2210,-936 2500,-936 2500,-936 2506,-936 2512,-942 2512,-948 2512,-948 2512,-960 2512,-960 2512,-966 2506,-972 2500,-972"/>
<text text-anchor="middle" x="2355" y="-957" font-family="sans" font-size="10.00" fill="#000000">pull_lane_fastq_from_nisc_or_sra</text>
<text text-anchor="middle" x="2355" y="-946" font-family="sans" font-size="10.00" fill="#000000">lane_files: HN7TMBBXX_16871599_S8_L004_R1_001.fastq.gz</text>
</g>
<!-- 66&#45;&gt;57 -->
<g id="edge114" class="edge">
<title>66&#45;&gt;57</title>
<path fill="none" stroke="#c0c0c0" stroke-width="2" d="M2355,-935.8314C2355,-928.131 2355,-918.9743 2355,-910.4166"/>
<polygon fill="#c0c0c0" stroke="#c0c0c0" stroke-width="2" points="2358.5001,-910.4132 2355,-900.4133 2351.5001,-910.4133 2358.5001,-910.4132"/>
</g>
<!-- 67 -->
<g id="node68" class="node">
<title>67</title>
<path fill="none" stroke="#56b9d8" stroke-width="2" stroke-dasharray="5,2" d="M2832,-972C2832,-972 2542,-972 2542,-972 2536,-972 2530,-966 2530,-960 2530,-960 2530,-948 2530,-948 2530,-942 2536,-936 2542,-936 2542,-936 2832,-936 2832,-936 2838,-936 2844,-942 2844,-948 2844,-948 2844,-960 2844,-960 2844,-966 2838,-972 2832,-972"/>
<text text-anchor="middle" x="2687" y="-957" font-family="sans" font-size="10.00" fill="#000000">pull_lane_fastq_from_nisc_or_sra</text>
<text text-anchor="middle" x="2687" y="-946" font-family="sans" font-size="10.00" fill="#000000">lane_files: HN7TMBBXX_16871599_S8_L004_R2_001.fastq.gz</text>
</g>
<!-- 67&#45;&gt;57 -->
<g id="edge115" class="edge">
<title>67&#45;&gt;57</title>
<path fill="none" stroke="#c0c0c0" stroke-width="2" d="M2603.6509,-935.9243C2556.3001,-925.6554 2496.9035,-912.7743 2448.0377,-902.1768"/>
<polygon fill="#c0c0c0" stroke="#c0c0c0" stroke-width="2" points="2448.61,-898.7197 2438.0954,-900.0207 2447.1264,-905.5607 2448.61,-898.7197"/>
</g>
</g>
</svg>
