<?xml version="1.0" encoding="UTF-8" standalone="no"?>
<!DOCTYPE svg PUBLIC "-//W3C//DTD SVG 1.1//EN"
 "http://www.w3.org/Graphics/SVG/1.1/DTD/svg11.dtd">
<!-- Generated by graphviz version 2.40.1 (20161225.0304)
 -->
<!-- Title: snakemake_dag Pages: 1 -->
<svg width="3571pt" height="1052pt"
 viewBox="0.00 0.00 3571.21 1052.00" xmlns="http://www.w3.org/2000/svg" xmlns:xlink="http://www.w3.org/1999/xlink">
<g id="graph0" class="graph" transform="scale(1 1) rotate(0) translate(4 1048)">
<title>snakemake_dag</title>
<polygon fill="#ffffff" stroke="transparent" points="-4,4 -4,-1048 3567.214,-1048 3567.214,4 -4,4"/>
<!-- 0 -->
<g id="node1" class="node">
<title>0</title>
<path fill="none" stroke="#56d85b" stroke-width="2" stroke-dasharray="5,2" d="M1090,-36C1090,-36 1060,-36 1060,-36 1054,-36 1048,-30 1048,-24 1048,-24 1048,-12 1048,-12 1048,-6 1054,0 1060,0 1060,0 1090,0 1090,0 1096,0 1102,-6 1102,-12 1102,-12 1102,-24 1102,-24 1102,-30 1096,-36 1090,-36"/>
<text text-anchor="middle" x="1075" y="-15.5" font-family="sans" font-size="10.00" fill="#000000">all</text>
</g>
<!-- 1 -->
<g id="node2" class="node">
<title>1</title>
<path fill="none" stroke="#d85e56" stroke-width="2" stroke-dasharray="5,2" d="M864.5,-108C864.5,-108 811.5,-108 811.5,-108 805.5,-108 799.5,-102 799.5,-96 799.5,-96 799.5,-84 799.5,-84 799.5,-78 805.5,-72 811.5,-72 811.5,-72 864.5,-72 864.5,-72 870.5,-72 876.5,-78 876.5,-84 876.5,-84 876.5,-96 876.5,-96 876.5,-102 870.5,-108 864.5,-108"/>
<text text-anchor="middle" x="838" y="-87.5" font-family="sans" font-size="10.00" fill="#000000">homer_TFBS</text>
</g>
<!-- 1&#45;&gt;0 -->
<g id="edge1" class="edge">
<title>1&#45;&gt;0</title>
<path fill="none" stroke="#c0c0c0" stroke-width="2" d="M876.6305,-74.8932C879.4527,-73.8857 882.2642,-72.9107 885,-72 937.568,-54.502 999.4597,-37.5823 1037.9693,-27.4804"/>
<polygon fill="#c0c0c0" stroke="#c0c0c0" stroke-width="2" points="1038.9167,-30.8504 1047.7097,-24.9399 1037.15,-24.077 1038.9167,-30.8504"/>
</g>
<!-- 2 -->
<g id="node3" class="node">
<title>2</title>
<path fill="none" stroke="#d85e56" stroke-width="2" stroke-dasharray="5,2" d="M1149.5,-108C1149.5,-108 1096.5,-108 1096.5,-108 1090.5,-108 1084.5,-102 1084.5,-96 1084.5,-96 1084.5,-84 1084.5,-84 1084.5,-78 1090.5,-72 1096.5,-72 1096.5,-72 1149.5,-72 1149.5,-72 1155.5,-72 1161.5,-78 1161.5,-84 1161.5,-84 1161.5,-96 1161.5,-96 1161.5,-102 1155.5,-108 1149.5,-108"/>
<text text-anchor="middle" x="1123" y="-87.5" font-family="sans" font-size="10.00" fill="#000000">homer_TFBS</text>
</g>
<!-- 2&#45;&gt;0 -->
<g id="edge2" class="edge">
<title>2&#45;&gt;0</title>
<path fill="none" stroke="#c0c0c0" stroke-width="2" d="M1110.8876,-71.8314C1105.4719,-63.7079 1098.9758,-53.9637 1093.0079,-45.0118"/>
<polygon fill="#c0c0c0" stroke="#c0c0c0" stroke-width="2" points="1095.7347,-42.7923 1087.2755,-36.4133 1089.9104,-46.6753 1095.7347,-42.7923"/>
</g>
<!-- 3 -->
<g id="node4" class="node">
<title>3</title>
<path fill="none" stroke="#d85e56" stroke-width="2" stroke-dasharray="5,2" d="M769.5,-108C769.5,-108 716.5,-108 716.5,-108 710.5,-108 704.5,-102 704.5,-96 704.5,-96 704.5,-84 704.5,-84 704.5,-78 710.5,-72 716.5,-72 716.5,-72 769.5,-72 769.5,-72 775.5,-72 781.5,-78 781.5,-84 781.5,-84 781.5,-96 781.5,-96 781.5,-102 775.5,-108 769.5,-108"/>
<text text-anchor="middle" x="743" y="-87.5" font-family="sans" font-size="10.00" fill="#000000">homer_TFBS</text>
</g>
<!-- 3&#45;&gt;0 -->
<g id="edge3" class="edge">
<title>3&#45;&gt;0</title>
<path fill="none" stroke="#c0c0c0" stroke-width="2" d="M781.5438,-74.6121C784.3863,-73.6705 787.2261,-72.7871 790,-72 877.3857,-47.2026 983.1166,-30.5411 1037.9587,-22.8611"/>
<polygon fill="#c0c0c0" stroke="#c0c0c0" stroke-width="2" points="1038.4817,-26.3222 1047.9096,-21.4883 1037.525,-19.3878 1038.4817,-26.3222"/>
</g>
<!-- 4 -->
<g id="node5" class="node">
<title>4</title>
<path fill="none" stroke="#d85e56" stroke-width="2" stroke-dasharray="5,2" d="M1054.5,-108C1054.5,-108 1001.5,-108 1001.5,-108 995.5,-108 989.5,-102 989.5,-96 989.5,-96 989.5,-84 989.5,-84 989.5,-78 995.5,-72 1001.5,-72 1001.5,-72 1054.5,-72 1054.5,-72 1060.5,-72 1066.5,-78 1066.5,-84 1066.5,-84 1066.5,-96 1066.5,-96 1066.5,-102 1060.5,-108 1054.5,-108"/>
<text text-anchor="middle" x="1028" y="-87.5" font-family="sans" font-size="10.00" fill="#000000">homer_TFBS</text>
</g>
<!-- 4&#45;&gt;0 -->
<g id="edge4" class="edge">
<title>4&#45;&gt;0</title>
<path fill="none" stroke="#c0c0c0" stroke-width="2" d="M1039.8601,-71.8314C1045.1629,-63.7079 1051.5237,-53.9637 1057.3673,-45.0118"/>
<polygon fill="#c0c0c0" stroke="#c0c0c0" stroke-width="2" points="1060.4448,-46.7003 1062.9802,-36.4133 1054.5831,-42.8739 1060.4448,-46.7003"/>
</g>
<!-- 5 -->
<g id="node6" class="node">
<title>5</title>
<path fill="none" stroke="#d85e56" stroke-width="2" stroke-dasharray="5,2" d="M1339.5,-108C1339.5,-108 1286.5,-108 1286.5,-108 1280.5,-108 1274.5,-102 1274.5,-96 1274.5,-96 1274.5,-84 1274.5,-84 1274.5,-78 1280.5,-72 1286.5,-72 1286.5,-72 1339.5,-72 1339.5,-72 1345.5,-72 1351.5,-78 1351.5,-84 1351.5,-84 1351.5,-96 1351.5,-96 1351.5,-102 1345.5,-108 1339.5,-108"/>
<text text-anchor="middle" x="1313" y="-87.5" font-family="sans" font-size="10.00" fill="#000000">homer_TFBS</text>
</g>
<!-- 5&#45;&gt;0 -->
<g id="edge5" class="edge">
<title>5&#45;&gt;0</title>
<path fill="none" stroke="#c0c0c0" stroke-width="2" d="M1274.371,-74.889C1271.5484,-73.8824 1268.7365,-72.9088 1266,-72 1213.0137,-54.4033 1150.5905,-37.4502 1111.8997,-27.3746"/>
<polygon fill="#c0c0c0" stroke="#c0c0c0" stroke-width="2" points="1112.6775,-23.9607 1102.1195,-24.8427 1110.9231,-30.7373 1112.6775,-23.9607"/>
</g>
<!-- 6 -->
<g id="node7" class="node">
<title>6</title>
<path fill="none" stroke="#d85e56" stroke-width="2" stroke-dasharray="5,2" d="M959.5,-108C959.5,-108 906.5,-108 906.5,-108 900.5,-108 894.5,-102 894.5,-96 894.5,-96 894.5,-84 894.5,-84 894.5,-78 900.5,-72 906.5,-72 906.5,-72 959.5,-72 959.5,-72 965.5,-72 971.5,-78 971.5,-84 971.5,-84 971.5,-96 971.5,-96 971.5,-102 965.5,-108 959.5,-108"/>
<text text-anchor="middle" x="933" y="-87.5" font-family="sans" font-size="10.00" fill="#000000">homer_TFBS</text>
</g>
<!-- 6&#45;&gt;0 -->
<g id="edge6" class="edge">
<title>6&#45;&gt;0</title>
<path fill="none" stroke="#c0c0c0" stroke-width="2" d="M968.8326,-71.8314C990.1604,-61.0173 1017.1523,-47.3312 1038.5824,-36.4652"/>
<polygon fill="#c0c0c0" stroke="#c0c0c0" stroke-width="2" points="1040.3583,-39.4891 1047.6945,-31.845 1037.1927,-33.2457 1040.3583,-39.4891"/>
</g>
<!-- 7 -->
<g id="node8" class="node">
<title>7</title>
<path fill="none" stroke="#d85e56" stroke-width="2" stroke-dasharray="5,2" d="M1244.5,-108C1244.5,-108 1191.5,-108 1191.5,-108 1185.5,-108 1179.5,-102 1179.5,-96 1179.5,-96 1179.5,-84 1179.5,-84 1179.5,-78 1185.5,-72 1191.5,-72 1191.5,-72 1244.5,-72 1244.5,-72 1250.5,-72 1256.5,-78 1256.5,-84 1256.5,-84 1256.5,-96 1256.5,-96 1256.5,-102 1250.5,-108 1244.5,-108"/>
<text text-anchor="middle" x="1218" y="-87.5" font-family="sans" font-size="10.00" fill="#000000">homer_TFBS</text>
</g>
<!-- 7&#45;&gt;0 -->
<g id="edge7" class="edge">
<title>7&#45;&gt;0</title>
<path fill="none" stroke="#c0c0c0" stroke-width="2" d="M1181.9151,-71.8314C1160.2929,-60.9447 1132.89,-47.1474 1111.2403,-36.2468"/>
<polygon fill="#c0c0c0" stroke="#c0c0c0" stroke-width="2" points="1112.55,-32.9877 1102.0443,-31.6167 1109.402,-39.24 1112.55,-32.9877"/>
</g>
<!-- 8 -->
<g id="node9" class="node">
<title>8</title>
<path fill="none" stroke="#d85e56" stroke-width="2" stroke-dasharray="5,2" d="M674.5,-108C674.5,-108 621.5,-108 621.5,-108 615.5,-108 609.5,-102 609.5,-96 609.5,-96 609.5,-84 609.5,-84 609.5,-78 615.5,-72 621.5,-72 621.5,-72 674.5,-72 674.5,-72 680.5,-72 686.5,-78 686.5,-84 686.5,-84 686.5,-96 686.5,-96 686.5,-102 680.5,-108 674.5,-108"/>
<text text-anchor="middle" x="648" y="-87.5" font-family="sans" font-size="10.00" fill="#000000">homer_TFBS</text>
</g>
<!-- 8&#45;&gt;0 -->
<g id="edge8" class="edge">
<title>8&#45;&gt;0</title>
<path fill="none" stroke="#c0c0c0" stroke-width="2" d="M686.5042,-74.4661C689.356,-73.5587 692.2087,-72.723 695,-72 818.0732,-40.1211 968.7681,-25.7656 1037.5516,-20.5208"/>
<polygon fill="#c0c0c0" stroke="#c0c0c0" stroke-width="2" points="1038.157,-23.9857 1047.8709,-19.756 1037.6395,-17.0048 1038.157,-23.9857"/>
</g>
<!-- 9 -->
<g id="node10" class="node">
<title>9</title>
<path fill="none" stroke="#afd856" stroke-width="2" stroke-dasharray="5,2" d="M1828,-540C1828,-540 1746,-540 1746,-540 1740,-540 1734,-534 1734,-528 1734,-528 1734,-516 1734,-516 1734,-510 1740,-504 1746,-504 1746,-504 1828,-504 1828,-504 1834,-504 1840,-510 1840,-516 1840,-516 1840,-528 1840,-528 1840,-534 1834,-540 1828,-540"/>
<text text-anchor="middle" x="1787" y="-519.5" font-family="sans" font-size="10.00" fill="#000000">ucsc_view_bigWig</text>
</g>
<!-- 9&#45;&gt;0 -->
<g id="edge9" class="edge">
<title>9&#45;&gt;0</title>
<path fill="none" stroke="#c0c0c0" stroke-width="2" d="M1806.9463,-503.6161C1832.3516,-478.0935 1873,-429.2496 1873,-378 1873,-378 1873,-378 1873,-162 1873,-150.2053 1828.8384,-115.3651 1639,-72 1537.9597,-48.9192 1221.0914,-27.2462 1112.1899,-20.3032"/>
<polygon fill="#c0c0c0" stroke="#c0c0c0" stroke-width="2" points="1112.2194,-16.7981 1102.0182,-19.6591 1111.777,-23.7841 1112.2194,-16.7981"/>
</g>
<!-- 10 -->
<g id="node11" class="node">
<title>10</title>
<path fill="none" stroke="#afd856" stroke-width="2" stroke-dasharray="5,2" d="M1952,-540C1952,-540 1870,-540 1870,-540 1864,-540 1858,-534 1858,-528 1858,-528 1858,-516 1858,-516 1858,-510 1864,-504 1870,-504 1870,-504 1952,-504 1952,-504 1958,-504 1964,-510 1964,-516 1964,-516 1964,-528 1964,-528 1964,-534 1958,-540 1952,-540"/>
<text text-anchor="middle" x="1911" y="-519.5" font-family="sans" font-size="10.00" fill="#000000">ucsc_view_bigWig</text>
</g>
<!-- 10&#45;&gt;0 -->
<g id="edge10" class="edge">
<title>10&#45;&gt;0</title>
<path fill="none" stroke="#c0c0c0" stroke-width="2" d="M1911,-503.8146C1911,-476.4983 1911,-423.25 1911,-378 1911,-378 1911,-378 1911,-162 1911,-119.4291 2081.6206,-161.9711 1716,-72 1600.075,-43.4734 1230.7011,-24.9313 1112.066,-19.593"/>
<polygon fill="#c0c0c0" stroke="#c0c0c0" stroke-width="2" points="1112.1693,-16.0942 1102.0235,-19.1458 1111.8579,-23.0873 1112.1693,-16.0942"/>
</g>
<!-- 11 -->
<g id="node12" class="node">
<title>11</title>
<path fill="none" stroke="#afd856" stroke-width="2" stroke-dasharray="5,2" d="M681,-540C681,-540 599,-540 599,-540 593,-540 587,-534 587,-528 587,-528 587,-516 587,-516 587,-510 593,-504 599,-504 599,-504 681,-504 681,-504 687,-504 693,-510 693,-516 693,-516 693,-528 693,-528 693,-534 687,-540 681,-540"/>
<text text-anchor="middle" x="640" y="-519.5" font-family="sans" font-size="10.00" fill="#000000">ucsc_view_bigWig</text>
</g>
<!-- 11&#45;&gt;0 -->
<g id="edge11" class="edge">
<title>11&#45;&gt;0</title>
<path fill="none" stroke="#c0c0c0" stroke-width="2" d="M586.9814,-515.2995C513.5962,-502.7229 390,-468.1583 390,-378 390,-378 390,-378 390,-162 390,-102.2359 154.3441,-179.5701 600,-72 759.8304,-33.421 956.7419,-22.2131 1037.6308,-19.1169"/>
<polygon fill="#c0c0c0" stroke="#c0c0c0" stroke-width="2" points="1037.9442,-22.6079 1047.8105,-18.7472 1037.69,-15.6125 1037.9442,-22.6079"/>
</g>
<!-- 12 -->
<g id="node13" class="node">
<title>12</title>
<path fill="none" stroke="#56b1d8" stroke-width="2" stroke-dasharray="5,2" d="M1684.5,-252C1684.5,-252 1559.5,-252 1559.5,-252 1553.5,-252 1547.5,-246 1547.5,-240 1547.5,-240 1547.5,-228 1547.5,-228 1547.5,-222 1553.5,-216 1559.5,-216 1559.5,-216 1684.5,-216 1684.5,-216 1690.5,-216 1696.5,-222 1696.5,-228 1696.5,-228 1696.5,-240 1696.5,-240 1696.5,-246 1690.5,-252 1684.5,-252"/>
<text text-anchor="middle" x="1622" y="-231.5" font-family="sans" font-size="10.00" fill="#000000">ucsc_view_common_peaks</text>
</g>
<!-- 12&#45;&gt;0 -->
<g id="edge12" class="edge">
<title>12&#45;&gt;0</title>
<path fill="none" stroke="#c0c0c0" stroke-width="2" d="M1696.6322,-225.1493C1766.5363,-213.8645 1854.8627,-190.0288 1816,-144 1769.7002,-89.1627 1255.7556,-35.5251 1112.103,-21.522"/>
<polygon fill="#c0c0c0" stroke="#c0c0c0" stroke-width="2" points="1112.3181,-18.0265 1102.0271,-20.5458 1111.643,-24.9939 1112.3181,-18.0265"/>
</g>
<!-- 13 -->
<g id="node14" class="node">
<title>13</title>
<path fill="none" stroke="#56a2d8" stroke-width="2" stroke-dasharray="5,2" d="M1119.5,-180C1119.5,-180 1026.5,-180 1026.5,-180 1020.5,-180 1014.5,-174 1014.5,-168 1014.5,-168 1014.5,-156 1014.5,-156 1014.5,-150 1020.5,-144 1026.5,-144 1026.5,-144 1119.5,-144 1119.5,-144 1125.5,-144 1131.5,-150 1131.5,-156 1131.5,-156 1131.5,-168 1131.5,-168 1131.5,-174 1125.5,-180 1119.5,-180"/>
<text text-anchor="middle" x="1073" y="-165" font-family="sans" font-size="10.00" fill="#000000">TF_gene_punctate_R</text>
<text text-anchor="middle" x="1073" y="-154" font-family="sans" font-size="10.00" fill="#000000">num: 1</text>
</g>
<!-- 13&#45;&gt;1 -->
<g id="edge13" class="edge">
<title>13&#45;&gt;1</title>
<path fill="none" stroke="#c0c0c0" stroke-width="2" d="M1014.1692,-146.5015C979.2328,-136.975 933.921,-124.0611 886.206,-108.2902"/>
<polygon fill="#c0c0c0" stroke="#c0c0c0" stroke-width="2" points="887.227,-104.9412 876.6334,-105.0981 885.0126,-111.5818 887.227,-104.9412"/>
</g>
<!-- 14 -->
<g id="node15" class="node">
<title>14</title>
<path fill="none" stroke="#d87556" stroke-width="2" stroke-dasharray="5,2" d="M984,-180C984,-180 856,-180 856,-180 850,-180 844,-174 844,-168 844,-168 844,-156 844,-156 844,-150 850,-144 856,-144 856,-144 984,-144 984,-144 990,-144 996,-150 996,-156 996,-156 996,-168 996,-168 996,-174 990,-180 984,-180"/>
<text text-anchor="middle" x="920" y="-159.5" font-family="sans" font-size="10.00" fill="#000000">closest_TSS_each_cell_type</text>
</g>
<!-- 14&#45;&gt;1 -->
<g id="edge14" class="edge">
<title>14&#45;&gt;1</title>
<path fill="none" stroke="#c0c0c0" stroke-width="2" d="M899.3079,-143.8314C889.3052,-135.0485 877.145,-124.3712 866.3001,-114.8489"/>
<polygon fill="#c0c0c0" stroke="#c0c0c0" stroke-width="2" points="868.5092,-112.1308 858.6854,-108.1628 863.8906,-117.3909 868.5092,-112.1308"/>
</g>
<!-- 14&#45;&gt;2 -->
<g id="edge17" class="edge">
<title>14&#45;&gt;2</title>
<path fill="none" stroke="#c0c0c0" stroke-width="2" d="M972.8387,-143.9365C1000.6288,-134.3562 1035.4695,-122.2212 1074.73,-108.0622"/>
<polygon fill="#c0c0c0" stroke="#c0c0c0" stroke-width="2" points="1076.042,-111.3096 1084.2563,-104.6181 1073.662,-104.7267 1076.042,-111.3096"/>
</g>
<!-- 14&#45;&gt;3 -->
<g id="edge20" class="edge">
<title>14&#45;&gt;3</title>
<path fill="none" stroke="#c0c0c0" stroke-width="2" d="M875.3354,-143.8314C849.6141,-133.3684 817.2837,-120.2171 791.0175,-109.5325"/>
<polygon fill="#c0c0c0" stroke="#c0c0c0" stroke-width="2" points="792.2201,-106.2433 781.6383,-105.7173 789.5825,-112.7274 792.2201,-106.2433"/>
</g>
<!-- 14&#45;&gt;4 -->
<g id="edge23" class="edge">
<title>14&#45;&gt;4</title>
<path fill="none" stroke="#c0c0c0" stroke-width="2" d="M947.253,-143.8314C960.9389,-134.7074 977.6915,-123.539 992.3827,-113.7449"/>
<polygon fill="#c0c0c0" stroke="#c0c0c0" stroke-width="2" points="994.3767,-116.6221 1000.7558,-108.1628 990.4938,-110.7977 994.3767,-116.6221"/>
</g>
<!-- 14&#45;&gt;5 -->
<g id="edge26" class="edge">
<title>14&#45;&gt;5</title>
<path fill="none" stroke="#c0c0c0" stroke-width="2" d="M996.4056,-145.5503C999.3043,-145.012 1002.1767,-144.493 1005,-144 1117.1987,-124.4082 1150.7582,-136.4293 1264.6958,-108.0387"/>
<polygon fill="#c0c0c0" stroke="#c0c0c0" stroke-width="2" points="1265.6696,-111.4026 1274.4991,-105.5469 1263.9451,-104.6183 1265.6696,-111.4026"/>
</g>
<!-- 14&#45;&gt;6 -->
<g id="edge29" class="edge">
<title>14&#45;&gt;6</title>
<path fill="none" stroke="#c0c0c0" stroke-width="2" d="M923.2804,-143.8314C924.6708,-136.131 926.3241,-126.9743 927.8692,-118.4166"/>
<polygon fill="#c0c0c0" stroke="#c0c0c0" stroke-width="2" points="931.3428,-118.8761 929.6754,-108.4133 924.4542,-117.6322 931.3428,-118.8761"/>
</g>
<!-- 14&#45;&gt;7 -->
<g id="edge32" class="edge">
<title>14&#45;&gt;7</title>
<path fill="none" stroke="#c0c0c0" stroke-width="2" d="M996.2659,-145.7379C1058.6525,-132.4162 1140.342,-114.923 1169.7048,-107.8363"/>
<polygon fill="#c0c0c0" stroke="#c0c0c0" stroke-width="2" points="1170.6342,-111.2111 1179.4336,-105.3102 1168.8749,-104.4357 1170.6342,-111.2111"/>
</g>
<!-- 14&#45;&gt;8 -->
<g id="edge35" class="edge">
<title>14&#45;&gt;8</title>
<path fill="none" stroke="#c0c0c0" stroke-width="2" d="M843.7846,-144.8255C794.5257,-133.5314 734.0091,-119.2478 696.5228,-108.2466"/>
<polygon fill="#c0c0c0" stroke="#c0c0c0" stroke-width="2" points="697.1742,-104.7869 686.5889,-105.236 695.1439,-111.486 697.1742,-104.7869"/>
</g>
<!-- 15 -->
<g id="node16" class="node">
<title>15</title>
<path fill="none" stroke="#569ad8" stroke-width="2" stroke-dasharray="5,2" d="M813.5,-180C813.5,-180 700.5,-180 700.5,-180 694.5,-180 688.5,-174 688.5,-168 688.5,-168 688.5,-156 688.5,-156 688.5,-150 694.5,-144 700.5,-144 700.5,-144 813.5,-144 813.5,-144 819.5,-144 825.5,-150 825.5,-156 825.5,-156 825.5,-168 825.5,-168 825.5,-174 819.5,-180 813.5,-180"/>
<text text-anchor="middle" x="757" y="-165" font-family="sans" font-size="10.00" fill="#000000">union_summits_by_type</text>
<text text-anchor="middle" x="757" y="-154" font-family="sans" font-size="10.00" fill="#000000">cell_type: GFP_ATAC&#45;Seq</text>
</g>
<!-- 15&#45;&gt;1 -->
<g id="edge15" class="edge">
<title>15&#45;&gt;1</title>
<path fill="none" stroke="#c0c0c0" stroke-width="2" d="M777.4397,-143.8314C787.3205,-135.0485 799.3324,-124.3712 810.045,-114.8489"/>
<polygon fill="#c0c0c0" stroke="#c0c0c0" stroke-width="2" points="812.418,-117.4224 817.5668,-108.1628 807.7674,-112.1906 812.418,-117.4224"/>
</g>
<!-- 15&#45;&gt;2 -->
<g id="edge18" class="edge">
<title>15&#45;&gt;2</title>
<path fill="none" stroke="#c0c0c0" stroke-width="2" d="M825.842,-145.8071C828.9328,-145.1767 831.9963,-144.571 835,-144 937.8583,-124.4481 968.7942,-134.4542 1074.6579,-107.768"/>
<polygon fill="#c0c0c0" stroke="#c0c0c0" stroke-width="2" points="1075.6386,-111.1298 1084.4519,-105.2497 1073.8953,-104.3503 1075.6386,-111.1298"/>
</g>
<!-- 15&#45;&gt;3 -->
<g id="edge21" class="edge">
<title>15&#45;&gt;3</title>
<path fill="none" stroke="#c0c0c0" stroke-width="2" d="M753.4672,-143.8314C751.9699,-136.131 750.1895,-126.9743 748.5255,-118.4166"/>
<polygon fill="#c0c0c0" stroke="#c0c0c0" stroke-width="2" points="751.9248,-117.5614 746.5804,-108.4133 745.0535,-118.8975 751.9248,-117.5614"/>
</g>
<!-- 15&#45;&gt;4 -->
<g id="edge24" class="edge">
<title>15&#45;&gt;4</title>
<path fill="none" stroke="#c0c0c0" stroke-width="2" d="M825.6999,-145.8073C879.0397,-133.1698 947.9817,-116.6738 979.5322,-107.8353"/>
<polygon fill="#c0c0c0" stroke="#c0c0c0" stroke-width="2" points="980.7579,-111.1232 989.3662,-104.9468 978.7851,-104.4069 980.7579,-111.1232"/>
</g>
<!-- 15&#45;&gt;5 -->
<g id="edge27" class="edge">
<title>15&#45;&gt;5</title>
<path fill="none" stroke="#c0c0c0" stroke-width="2" d="M825.7992,-145.5596C828.9016,-144.9962 831.9792,-144.4722 835,-144 1021.6706,-114.8195 1076.7281,-149.5721 1264.3712,-108.0332"/>
<polygon fill="#c0c0c0" stroke="#c0c0c0" stroke-width="2" points="1265.2965,-111.4125 1274.2805,-105.7966 1263.7552,-104.5843 1265.2965,-111.4125"/>
</g>
<!-- 15&#45;&gt;6 -->
<g id="edge30" class="edge">
<title>15&#45;&gt;6</title>
<path fill="none" stroke="#c0c0c0" stroke-width="2" d="M801.4122,-143.8314C826.8976,-133.4055 858.9081,-120.3103 884.9757,-109.6463"/>
<polygon fill="#c0c0c0" stroke="#c0c0c0" stroke-width="2" points="886.3573,-112.8627 894.2876,-105.8369 883.7069,-106.3839 886.3573,-112.8627"/>
</g>
<!-- 15&#45;&gt;7 -->
<g id="edge33" class="edge">
<title>15&#45;&gt;7</title>
<path fill="none" stroke="#c0c0c0" stroke-width="2" d="M825.8136,-145.6481C828.9121,-145.0608 831.985,-144.5075 835,-144 979.9225,-119.6051 1023.135,-142.1394 1169.473,-108.0517"/>
<polygon fill="#c0c0c0" stroke="#c0c0c0" stroke-width="2" points="1170.3444,-111.4422 1179.2633,-105.7235 1168.7249,-104.6321 1170.3444,-111.4422"/>
</g>
<!-- 15&#45;&gt;8 -->
<g id="edge36" class="edge">
<title>15&#45;&gt;8</title>
<path fill="none" stroke="#c0c0c0" stroke-width="2" d="M729.4947,-143.8314C715.682,-134.7074 698.7744,-123.539 683.9471,-113.7449"/>
<polygon fill="#c0c0c0" stroke="#c0c0c0" stroke-width="2" points="685.7696,-110.7541 675.4965,-108.1628 681.9114,-116.5949 685.7696,-110.7541"/>
</g>
<!-- 16 -->
<g id="node17" class="node">
<title>16</title>
<path fill="none" stroke="#56a2d8" stroke-width="2" stroke-dasharray="5,2" d="M1524.5,-180C1524.5,-180 1431.5,-180 1431.5,-180 1425.5,-180 1419.5,-174 1419.5,-168 1419.5,-168 1419.5,-156 1419.5,-156 1419.5,-150 1425.5,-144 1431.5,-144 1431.5,-144 1524.5,-144 1524.5,-144 1530.5,-144 1536.5,-150 1536.5,-156 1536.5,-156 1536.5,-168 1536.5,-168 1536.5,-174 1530.5,-180 1524.5,-180"/>
<text text-anchor="middle" x="1478" y="-165" font-family="sans" font-size="10.00" fill="#000000">TF_gene_punctate_R</text>
<text text-anchor="middle" x="1478" y="-154" font-family="sans" font-size="10.00" fill="#000000">num: 2</text>
</g>
<!-- 16&#45;&gt;2 -->
<g id="edge16" class="edge">
<title>16&#45;&gt;2</title>
<path fill="none" stroke="#c0c0c0" stroke-width="2" d="M1419.2646,-145.8158C1416.4772,-145.1751 1413.7118,-144.5658 1411,-144 1308.5067,-122.6174 1277.2271,-134.3469 1171.343,-107.7633"/>
<polygon fill="#c0c0c0" stroke="#c0c0c0" stroke-width="2" points="1172.1042,-104.3453 1161.5481,-105.2497 1170.3642,-111.1256 1172.1042,-104.3453"/>
</g>
<!-- 17 -->
<g id="node18" class="node">
<title>17</title>
<path fill="none" stroke="#56a2d8" stroke-width="2" stroke-dasharray="5,2" d="M658.5,-180C658.5,-180 565.5,-180 565.5,-180 559.5,-180 553.5,-174 553.5,-168 553.5,-168 553.5,-156 553.5,-156 553.5,-150 559.5,-144 565.5,-144 565.5,-144 658.5,-144 658.5,-144 664.5,-144 670.5,-150 670.5,-156 670.5,-156 670.5,-168 670.5,-168 670.5,-174 664.5,-180 658.5,-180"/>
<text text-anchor="middle" x="612" y="-165" font-family="sans" font-size="10.00" fill="#000000">TF_gene_punctate_R</text>
<text text-anchor="middle" x="612" y="-154" font-family="sans" font-size="10.00" fill="#000000">num: 3</text>
</g>
<!-- 17&#45;&gt;3 -->
<g id="edge19" class="edge">
<title>17&#45;&gt;3</title>
<path fill="none" stroke="#c0c0c0" stroke-width="2" d="M645.0568,-143.8314C661.9677,-134.5368 682.7385,-123.1208 700.7941,-113.1971"/>
<polygon fill="#c0c0c0" stroke="#c0c0c0" stroke-width="2" points="702.876,-116.0468 709.9537,-108.1628 699.5043,-109.9122 702.876,-116.0468"/>
</g>
<!-- 18 -->
<g id="node19" class="node">
<title>18</title>
<path fill="none" stroke="#56a2d8" stroke-width="2" stroke-dasharray="5,2" d="M1389.5,-180C1389.5,-180 1296.5,-180 1296.5,-180 1290.5,-180 1284.5,-174 1284.5,-168 1284.5,-168 1284.5,-156 1284.5,-156 1284.5,-150 1290.5,-144 1296.5,-144 1296.5,-144 1389.5,-144 1389.5,-144 1395.5,-144 1401.5,-150 1401.5,-156 1401.5,-156 1401.5,-168 1401.5,-168 1401.5,-174 1395.5,-180 1389.5,-180"/>
<text text-anchor="middle" x="1343" y="-165" font-family="sans" font-size="10.00" fill="#000000">TF_gene_punctate_R</text>
<text text-anchor="middle" x="1343" y="-154" font-family="sans" font-size="10.00" fill="#000000">num: 4</text>
</g>
<!-- 18&#45;&gt;4 -->
<g id="edge22" class="edge">
<title>18&#45;&gt;4</title>
<path fill="none" stroke="#c0c0c0" stroke-width="2" d="M1284.244,-145.9111C1281.4621,-145.245 1278.7035,-144.6041 1276,-144 1190.5433,-124.9044 1164.2671,-131.8001 1076.3919,-108.1314"/>
<polygon fill="#c0c0c0" stroke="#c0c0c0" stroke-width="2" points="1077.1051,-104.6976 1066.5349,-105.4196 1075.2483,-111.4469 1077.1051,-104.6976"/>
</g>
<!-- 19 -->
<g id="node20" class="node">
<title>19</title>
<path fill="none" stroke="#56a2d8" stroke-width="2" stroke-dasharray="5,2" d="M1794.5,-180C1794.5,-180 1701.5,-180 1701.5,-180 1695.5,-180 1689.5,-174 1689.5,-168 1689.5,-168 1689.5,-156 1689.5,-156 1689.5,-150 1695.5,-144 1701.5,-144 1701.5,-144 1794.5,-144 1794.5,-144 1800.5,-144 1806.5,-150 1806.5,-156 1806.5,-156 1806.5,-168 1806.5,-168 1806.5,-174 1800.5,-180 1794.5,-180"/>
<text text-anchor="middle" x="1748" y="-165" font-family="sans" font-size="10.00" fill="#000000">TF_gene_punctate_R</text>
<text text-anchor="middle" x="1748" y="-154" font-family="sans" font-size="10.00" fill="#000000">num: 5</text>
</g>
<!-- 19&#45;&gt;5 -->
<g id="edge25" class="edge">
<title>19&#45;&gt;5</title>
<path fill="none" stroke="#c0c0c0" stroke-width="2" d="M1689.2668,-145.805C1686.4788,-145.1673 1683.7127,-144.5614 1681,-144 1567.5436,-120.519 1432.3516,-103.4261 1361.626,-95.3014"/>
<polygon fill="#c0c0c0" stroke="#c0c0c0" stroke-width="2" points="1362.0008,-91.8215 1351.6691,-94.168 1361.2091,-98.7766 1362.0008,-91.8215"/>
</g>
<!-- 20 -->
<g id="node21" class="node">
<title>20</title>
<path fill="none" stroke="#56a2d8" stroke-width="2" stroke-dasharray="5,2" d="M1254.5,-180C1254.5,-180 1161.5,-180 1161.5,-180 1155.5,-180 1149.5,-174 1149.5,-168 1149.5,-168 1149.5,-156 1149.5,-156 1149.5,-150 1155.5,-144 1161.5,-144 1161.5,-144 1254.5,-144 1254.5,-144 1260.5,-144 1266.5,-150 1266.5,-156 1266.5,-156 1266.5,-168 1266.5,-168 1266.5,-174 1260.5,-180 1254.5,-180"/>
<text text-anchor="middle" x="1208" y="-165" font-family="sans" font-size="10.00" fill="#000000">TF_gene_punctate_R</text>
<text text-anchor="middle" x="1208" y="-154" font-family="sans" font-size="10.00" fill="#000000">num: 6</text>
</g>
<!-- 20&#45;&gt;6 -->
<g id="edge28" class="edge">
<title>20&#45;&gt;6</title>
<path fill="none" stroke="#c0c0c0" stroke-width="2" d="M1149.2104,-146.0544C1146.4375,-145.3499 1143.69,-144.6618 1141,-144 1072.8597,-127.2367 1051.9802,-128.9746 981.3913,-108.2201"/>
<polygon fill="#c0c0c0" stroke="#c0c0c0" stroke-width="2" points="982.1576,-104.7962 971.574,-105.2848 980.1523,-111.5028 982.1576,-104.7962"/>
</g>
<!-- 21 -->
<g id="node22" class="node">
<title>21</title>
<path fill="none" stroke="#56a2d8" stroke-width="2" stroke-dasharray="5,2" d="M1659.5,-180C1659.5,-180 1566.5,-180 1566.5,-180 1560.5,-180 1554.5,-174 1554.5,-168 1554.5,-168 1554.5,-156 1554.5,-156 1554.5,-150 1560.5,-144 1566.5,-144 1566.5,-144 1659.5,-144 1659.5,-144 1665.5,-144 1671.5,-150 1671.5,-156 1671.5,-156 1671.5,-168 1671.5,-168 1671.5,-174 1665.5,-180 1659.5,-180"/>
<text text-anchor="middle" x="1613" y="-165" font-family="sans" font-size="10.00" fill="#000000">TF_gene_punctate_R</text>
<text text-anchor="middle" x="1613" y="-154" font-family="sans" font-size="10.00" fill="#000000">num: 7</text>
</g>
<!-- 21&#45;&gt;7 -->
<g id="edge31" class="edge">
<title>21&#45;&gt;7</title>
<path fill="none" stroke="#c0c0c0" stroke-width="2" d="M1554.279,-145.7449C1551.4877,-145.1232 1548.7176,-144.5372 1546,-144 1426.0384,-120.2859 1389.6141,-137.3139 1266.3439,-107.7305"/>
<polygon fill="#c0c0c0" stroke="#c0c0c0" stroke-width="2" points="1267.0757,-104.3064 1256.5297,-105.322 1265.4073,-111.1046 1267.0757,-104.3064"/>
</g>
<!-- 22 -->
<g id="node23" class="node">
<title>22</title>
<path fill="none" stroke="#56a2d8" stroke-width="2" stroke-dasharray="5,2" d="M523.5,-180C523.5,-180 430.5,-180 430.5,-180 424.5,-180 418.5,-174 418.5,-168 418.5,-168 418.5,-156 418.5,-156 418.5,-150 424.5,-144 430.5,-144 430.5,-144 523.5,-144 523.5,-144 529.5,-144 535.5,-150 535.5,-156 535.5,-156 535.5,-168 535.5,-168 535.5,-174 529.5,-180 523.5,-180"/>
<text text-anchor="middle" x="477" y="-165" font-family="sans" font-size="10.00" fill="#000000">TF_gene_punctate_R</text>
<text text-anchor="middle" x="477" y="-154" font-family="sans" font-size="10.00" fill="#000000">num: 8</text>
</g>
<!-- 22&#45;&gt;8 -->
<g id="edge34" class="edge">
<title>22&#45;&gt;8</title>
<path fill="none" stroke="#c0c0c0" stroke-width="2" d="M520.1505,-143.8314C544.4523,-133.599 574.8608,-120.7955 599.9241,-110.2425"/>
<polygon fill="#c0c0c0" stroke="#c0c0c0" stroke-width="2" points="601.3861,-113.4246 609.2442,-106.3182 598.6696,-106.9731 601.3861,-113.4246"/>
</g>
<!-- 23 -->
<g id="node24" class="node">
<title>23</title>
<path fill="none" stroke="#d6d856" stroke-width="2" stroke-dasharray="5,2" d="M1821,-612C1821,-612 1753,-612 1753,-612 1747,-612 1741,-606 1741,-600 1741,-600 1741,-588 1741,-588 1741,-582 1747,-576 1753,-576 1753,-576 1821,-576 1821,-576 1827,-576 1833,-582 1833,-588 1833,-588 1833,-600 1833,-600 1833,-606 1827,-612 1821,-612"/>
<text text-anchor="middle" x="1787" y="-591.5" font-family="sans" font-size="10.00" fill="#000000">bam_to_bigWig</text>
</g>
<!-- 23&#45;&gt;9 -->
<g id="edge37" class="edge">
<title>23&#45;&gt;9</title>
<path fill="none" stroke="#c0c0c0" stroke-width="2" d="M1787,-575.8314C1787,-568.131 1787,-558.9743 1787,-550.4166"/>
<polygon fill="#c0c0c0" stroke="#c0c0c0" stroke-width="2" points="1790.5001,-550.4132 1787,-540.4133 1783.5001,-550.4133 1790.5001,-550.4132"/>
</g>
<!-- 24 -->
<g id="node25" class="node">
<title>24</title>
<path fill="none" stroke="#61d856" stroke-width="2" stroke-dasharray="5,2" d="M1613.5,-612C1613.5,-612 1574.5,-612 1574.5,-612 1568.5,-612 1562.5,-606 1562.5,-600 1562.5,-600 1562.5,-588 1562.5,-588 1562.5,-582 1568.5,-576 1574.5,-576 1574.5,-576 1613.5,-576 1613.5,-576 1619.5,-576 1625.5,-582 1625.5,-588 1625.5,-588 1625.5,-600 1625.5,-600 1625.5,-606 1619.5,-612 1613.5,-612"/>
<text text-anchor="middle" x="1594" y="-591.5" font-family="sans" font-size="10.00" fill="#000000">black_list</text>
</g>
<!-- 24&#45;&gt;9 -->
<g id="edge38" class="edge">
<title>24&#45;&gt;9</title>
<path fill="none" stroke="#c0c0c0" stroke-width="2" d="M1625.87,-582.1107C1653.7396,-571.7137 1694.9196,-556.3512 1728.672,-543.7597"/>
<polygon fill="#c0c0c0" stroke="#c0c0c0" stroke-width="2" points="1730.2844,-546.8938 1738.4303,-540.1193 1727.8377,-540.3353 1730.2844,-546.8938"/>
</g>
<!-- 49 -->
<g id="node50" class="node">
<title>49</title>
<path fill="none" stroke="#565bd8" stroke-width="2" stroke-dasharray="5,2" d="M1650.5,-540C1650.5,-540 1537.5,-540 1537.5,-540 1531.5,-540 1525.5,-534 1525.5,-528 1525.5,-528 1525.5,-516 1525.5,-516 1525.5,-510 1531.5,-504 1537.5,-504 1537.5,-504 1650.5,-504 1650.5,-504 1656.5,-504 1662.5,-510 1662.5,-516 1662.5,-516 1662.5,-528 1662.5,-528 1662.5,-534 1656.5,-540 1650.5,-540"/>
<text text-anchor="middle" x="1594" y="-525" font-family="sans" font-size="10.00" fill="#000000">union_peaks_by_type</text>
<text text-anchor="middle" x="1594" y="-514" font-family="sans" font-size="10.00" fill="#000000">cell_type: RFP_ATAC&#45;Seq</text>
</g>
<!-- 24&#45;&gt;49 -->
<g id="edge95" class="edge">
<title>24&#45;&gt;49</title>
<path fill="none" stroke="#c0c0c0" stroke-width="2" d="M1594,-575.8314C1594,-568.131 1594,-558.9743 1594,-550.4166"/>
<polygon fill="#c0c0c0" stroke="#c0c0c0" stroke-width="2" points="1597.5001,-550.4132 1594,-540.4133 1590.5001,-550.4133 1597.5001,-550.4132"/>
</g>
<!-- 25 -->
<g id="node26" class="node">
<title>25</title>
<path fill="none" stroke="#d6d856" stroke-width="2" stroke-dasharray="5,2" d="M1945,-612C1945,-612 1877,-612 1877,-612 1871,-612 1865,-606 1865,-600 1865,-600 1865,-588 1865,-588 1865,-582 1871,-576 1877,-576 1877,-576 1945,-576 1945,-576 1951,-576 1957,-582 1957,-588 1957,-588 1957,-600 1957,-600 1957,-606 1951,-612 1945,-612"/>
<text text-anchor="middle" x="1911" y="-591.5" font-family="sans" font-size="10.00" fill="#000000">bam_to_bigWig</text>
</g>
<!-- 25&#45;&gt;10 -->
<g id="edge39" class="edge">
<title>25&#45;&gt;10</title>
<path fill="none" stroke="#c0c0c0" stroke-width="2" d="M1911,-575.8314C1911,-568.131 1911,-558.9743 1911,-550.4166"/>
<polygon fill="#c0c0c0" stroke="#c0c0c0" stroke-width="2" points="1914.5001,-550.4132 1911,-540.4133 1907.5001,-550.4133 1914.5001,-550.4132"/>
</g>
<!-- 26 -->
<g id="node27" class="node">
<title>26</title>
<path fill="none" stroke="#61d856" stroke-width="2" stroke-dasharray="5,2" d="M1702.5,-612C1702.5,-612 1663.5,-612 1663.5,-612 1657.5,-612 1651.5,-606 1651.5,-600 1651.5,-600 1651.5,-588 1651.5,-588 1651.5,-582 1657.5,-576 1663.5,-576 1663.5,-576 1702.5,-576 1702.5,-576 1708.5,-576 1714.5,-582 1714.5,-588 1714.5,-588 1714.5,-600 1714.5,-600 1714.5,-606 1708.5,-612 1702.5,-612"/>
<text text-anchor="middle" x="1683" y="-591.5" font-family="sans" font-size="10.00" fill="#000000">black_list</text>
</g>
<!-- 26&#45;&gt;10 -->
<g id="edge40" class="edge">
<title>26&#45;&gt;10</title>
<path fill="none" stroke="#c0c0c0" stroke-width="2" d="M1714.5338,-582.1053C1720.3222,-580.0106 1726.327,-577.8959 1732,-576 1753.7066,-568.7459 1805.8128,-553.0985 1848.2415,-540.5056"/>
<polygon fill="#c0c0c0" stroke="#c0c0c0" stroke-width="2" points="1849.3688,-543.8221 1857.9614,-537.6239 1847.379,-537.1108 1849.3688,-543.8221"/>
</g>
<!-- 26&#45;&gt;49 -->
<g id="edge96" class="edge">
<title>26&#45;&gt;49</title>
<path fill="none" stroke="#c0c0c0" stroke-width="2" d="M1660.5415,-575.8314C1649.5795,-566.9632 1636.2301,-556.1637 1624.3735,-546.5718"/>
<polygon fill="#c0c0c0" stroke="#c0c0c0" stroke-width="2" points="1626.4271,-543.7313 1616.4513,-540.1628 1622.0245,-549.1734 1626.4271,-543.7313"/>
</g>
<!-- 27 -->
<g id="node28" class="node">
<title>27</title>
<path fill="none" stroke="#d6d856" stroke-width="2" stroke-dasharray="5,2" d="M674,-612C674,-612 606,-612 606,-612 600,-612 594,-606 594,-600 594,-600 594,-588 594,-588 594,-582 600,-576 606,-576 606,-576 674,-576 674,-576 680,-576 686,-582 686,-588 686,-588 686,-600 686,-600 686,-606 680,-612 674,-612"/>
<text text-anchor="middle" x="640" y="-591.5" font-family="sans" font-size="10.00" fill="#000000">bam_to_bigWig</text>
</g>
<!-- 27&#45;&gt;11 -->
<g id="edge41" class="edge">
<title>27&#45;&gt;11</title>
<path fill="none" stroke="#c0c0c0" stroke-width="2" d="M640,-575.8314C640,-568.131 640,-558.9743 640,-550.4166"/>
<polygon fill="#c0c0c0" stroke="#c0c0c0" stroke-width="2" points="643.5001,-550.4132 640,-540.4133 636.5001,-550.4133 643.5001,-550.4132"/>
</g>
<!-- 28 -->
<g id="node29" class="node">
<title>28</title>
<path fill="none" stroke="#61d856" stroke-width="2" stroke-dasharray="5,2" d="M940.5,-612C940.5,-612 901.5,-612 901.5,-612 895.5,-612 889.5,-606 889.5,-600 889.5,-600 889.5,-588 889.5,-588 889.5,-582 895.5,-576 901.5,-576 901.5,-576 940.5,-576 940.5,-576 946.5,-576 952.5,-582 952.5,-588 952.5,-588 952.5,-600 952.5,-600 952.5,-606 946.5,-612 940.5,-612"/>
<text text-anchor="middle" x="921" y="-591.5" font-family="sans" font-size="10.00" fill="#000000">black_list</text>
</g>
<!-- 28&#45;&gt;11 -->
<g id="edge42" class="edge">
<title>28&#45;&gt;11</title>
<path fill="none" stroke="#c0c0c0" stroke-width="2" d="M889.312,-585.8806C844.2652,-574.3384 760.7672,-552.9439 702.8832,-538.1124"/>
<polygon fill="#c0c0c0" stroke="#c0c0c0" stroke-width="2" points="703.6626,-534.6991 693.1068,-535.6074 701.9251,-541.4801 703.6626,-534.6991"/>
</g>
<!-- 44 -->
<g id="node45" class="node">
<title>44</title>
<path fill="none" stroke="#565bd8" stroke-width="2" stroke-dasharray="5,2" d="M1081.5,-540C1081.5,-540 968.5,-540 968.5,-540 962.5,-540 956.5,-534 956.5,-528 956.5,-528 956.5,-516 956.5,-516 956.5,-510 962.5,-504 968.5,-504 968.5,-504 1081.5,-504 1081.5,-504 1087.5,-504 1093.5,-510 1093.5,-516 1093.5,-516 1093.5,-528 1093.5,-528 1093.5,-534 1087.5,-540 1081.5,-540"/>
<text text-anchor="middle" x="1025" y="-525" font-family="sans" font-size="10.00" fill="#000000">union_peaks_by_type</text>
<text text-anchor="middle" x="1025" y="-514" font-family="sans" font-size="10.00" fill="#000000">cell_type: GFP_ATAC&#45;Seq</text>
</g>
<!-- 28&#45;&gt;44 -->
<g id="edge90" class="edge">
<title>28&#45;&gt;44</title>
<path fill="none" stroke="#c0c0c0" stroke-width="2" d="M947.2436,-575.8314C960.2995,-566.7927 976.2535,-555.7476 990.3047,-546.0198"/>
<polygon fill="#c0c0c0" stroke="#c0c0c0" stroke-width="2" points="992.5351,-548.7326 998.7648,-540.1628 988.5506,-542.9773 992.5351,-548.7326"/>
</g>
<!-- 29 -->
<g id="node30" class="node">
<title>29</title>
<path fill="none" stroke="#d86656" stroke-width="2" stroke-dasharray="5,2" d="M1372,-324C1372,-324 1248,-324 1248,-324 1242,-324 1236,-318 1236,-312 1236,-312 1236,-300 1236,-300 1236,-294 1242,-288 1248,-288 1248,-288 1372,-288 1372,-288 1378,-288 1384,-294 1384,-300 1384,-300 1384,-312 1384,-312 1384,-318 1378,-324 1372,-324"/>
<text text-anchor="middle" x="1310" y="-303.5" font-family="sans" font-size="10.00" fill="#000000">common_peaks_across_all</text>
</g>
<!-- 29&#45;&gt;12 -->
<g id="edge43" class="edge">
<title>29&#45;&gt;12</title>
<path fill="none" stroke="#c0c0c0" stroke-width="2" d="M1384.3354,-288.8457C1430.3576,-278.2252 1489.5859,-264.5571 1537.4021,-253.5226"/>
<polygon fill="#c0c0c0" stroke="#c0c0c0" stroke-width="2" points="1538.4667,-256.869 1547.4235,-251.21 1536.8926,-250.0483 1538.4667,-256.869"/>
</g>
<!-- 30 -->
<g id="node31" class="node">
<title>30</title>
<path fill="none" stroke="#56c9d8" stroke-width="2" stroke-dasharray="5,2" d="M1232,-252C1232,-252 1184,-252 1184,-252 1178,-252 1172,-246 1172,-240 1172,-240 1172,-228 1172,-228 1172,-222 1178,-216 1184,-216 1184,-216 1232,-216 1232,-216 1238,-216 1244,-222 1244,-228 1244,-228 1244,-240 1244,-240 1244,-246 1238,-252 1232,-252"/>
<text text-anchor="middle" x="1208" y="-231.5" font-family="sans" font-size="10.00" fill="#000000">make_CGM</text>
</g>
<!-- 30&#45;&gt;13 -->
<g id="edge44" class="edge">
<title>30&#45;&gt;13</title>
<path fill="none" stroke="#c0c0c0" stroke-width="2" d="M1173.9338,-215.8314C1156.3467,-206.4516 1134.7084,-194.9112 1115.9832,-184.9244"/>
<polygon fill="#c0c0c0" stroke="#c0c0c0" stroke-width="2" points="1117.5259,-181.7805 1107.0553,-180.1628 1114.2318,-187.957 1117.5259,-181.7805"/>
</g>
<!-- 30&#45;&gt;16 -->
<g id="edge49" class="edge">
<title>30&#45;&gt;16</title>
<path fill="none" stroke="#c0c0c0" stroke-width="2" d="M1244.3108,-224.3699C1282.9487,-214.1162 1346.1395,-197.3285 1409.4314,-180.4168"/>
<polygon fill="#c0c0c0" stroke="#c0c0c0" stroke-width="2" points="1410.419,-183.7758 1419.1761,-177.8122 1408.6115,-177.0132 1410.419,-183.7758"/>
</g>
<!-- 30&#45;&gt;17 -->
<g id="edge51" class="edge">
<title>30&#45;&gt;17</title>
<path fill="none" stroke="#c0c0c0" stroke-width="2" d="M1171.9611,-229.4218C1141.5941,-225.6251 1096.9871,-220.1902 1058,-216 893.052,-198.2719 847.2877,-209.5934 680.7952,-180.1745"/>
<polygon fill="#c0c0c0" stroke="#c0c0c0" stroke-width="2" points="681.1601,-176.6842 670.6998,-178.3673 679.9266,-183.5747 681.1601,-176.6842"/>
</g>
<!-- 30&#45;&gt;18 -->
<g id="edge53" class="edge">
<title>30&#45;&gt;18</title>
<path fill="none" stroke="#c0c0c0" stroke-width="2" d="M1242.0662,-215.8314C1259.6533,-206.4516 1281.2916,-194.9112 1300.0168,-184.9244"/>
<polygon fill="#c0c0c0" stroke="#c0c0c0" stroke-width="2" points="1301.7682,-187.957 1308.9447,-180.1628 1298.4741,-181.7805 1301.7682,-187.957"/>
</g>
<!-- 30&#45;&gt;19 -->
<g id="edge55" class="edge">
<title>30&#45;&gt;19</title>
<path fill="none" stroke="#c0c0c0" stroke-width="2" d="M1244.0299,-228.3681C1268.7475,-224.6031 1302.3168,-219.6838 1332,-216 1483.4224,-197.2081 1525.8485,-207.8383 1679.0421,-180.2155"/>
<polygon fill="#c0c0c0" stroke="#c0c0c0" stroke-width="2" points="1680.0882,-183.5822 1689.2952,-178.3399 1678.8286,-176.6965 1680.0882,-183.5822"/>
</g>
<!-- 30&#45;&gt;20 -->
<g id="edge57" class="edge">
<title>30&#45;&gt;20</title>
<path fill="none" stroke="#c0c0c0" stroke-width="2" d="M1208,-215.8314C1208,-208.131 1208,-198.9743 1208,-190.4166"/>
<polygon fill="#c0c0c0" stroke="#c0c0c0" stroke-width="2" points="1211.5001,-190.4132 1208,-180.4133 1204.5001,-190.4133 1211.5001,-190.4132"/>
</g>
<!-- 30&#45;&gt;21 -->
<g id="edge59" class="edge">
<title>30&#45;&gt;21</title>
<path fill="none" stroke="#c0c0c0" stroke-width="2" d="M1244.1777,-228.7077C1315.5202,-218.1951 1472.9883,-194.5956 1544.3711,-180.2057"/>
<polygon fill="#c0c0c0" stroke="#c0c0c0" stroke-width="2" points="1545.1786,-183.6128 1554.2578,-178.1521 1543.755,-176.7591 1545.1786,-183.6128"/>
</g>
<!-- 30&#45;&gt;22 -->
<g id="edge61" class="edge">
<title>30&#45;&gt;22</title>
<path fill="none" stroke="#c0c0c0" stroke-width="2" d="M1171.9865,-229.1709C1141.6348,-225.2229 1097.036,-219.7069 1058,-216 833.3611,-194.6681 771.6477,-217.204 545.8646,-180.144"/>
<polygon fill="#c0c0c0" stroke="#c0c0c0" stroke-width="2" points="546.1239,-176.6391 535.6852,-178.4514 544.9756,-183.5443 546.1239,-176.6391"/>
</g>
<!-- 31 -->
<g id="node32" class="node">
<title>31</title>
<path fill="none" stroke="#56c9d8" stroke-width="2" stroke-dasharray="5,2" d="M1401,-252C1401,-252 1353,-252 1353,-252 1347,-252 1341,-246 1341,-240 1341,-240 1341,-228 1341,-228 1341,-222 1347,-216 1353,-216 1353,-216 1401,-216 1401,-216 1407,-216 1413,-222 1413,-228 1413,-228 1413,-240 1413,-240 1413,-246 1407,-252 1401,-252"/>
<text text-anchor="middle" x="1377" y="-231.5" font-family="sans" font-size="10.00" fill="#000000">make_CGM</text>
</g>
<!-- 31&#45;&gt;13 -->
<g id="edge45" class="edge">
<title>31&#45;&gt;13</title>
<path fill="none" stroke="#c0c0c0" stroke-width="2" d="M1340.9261,-226.1437C1296.4566,-216.3714 1218.341,-198.922 1141.432,-180.0658"/>
<polygon fill="#c0c0c0" stroke="#c0c0c0" stroke-width="2" points="1142.1199,-176.6308 1131.5731,-177.6392 1140.4468,-183.4279 1142.1199,-176.6308"/>
</g>
<!-- 31&#45;&gt;16 -->
<g id="edge50" class="edge">
<title>31&#45;&gt;16</title>
<path fill="none" stroke="#c0c0c0" stroke-width="2" d="M1402.4866,-215.8314C1415.1659,-206.7927 1430.6596,-195.7476 1444.3055,-186.0198"/>
<polygon fill="#c0c0c0" stroke="#c0c0c0" stroke-width="2" points="1446.4105,-188.8176 1452.5216,-180.1628 1442.3471,-183.1176 1446.4105,-188.8176"/>
</g>
<!-- 31&#45;&gt;17 -->
<g id="edge52" class="edge">
<title>31&#45;&gt;17</title>
<path fill="none" stroke="#c0c0c0" stroke-width="2" d="M1340.744,-227.9416C1316.0714,-224.0147 1282.643,-219.0759 1253,-216 1002.1046,-189.9658 933.0554,-220.5394 680.8867,-180.1338"/>
<polygon fill="#c0c0c0" stroke="#c0c0c0" stroke-width="2" points="681.1129,-176.6248 670.6811,-178.4761 679.9905,-183.5342 681.1129,-176.6248"/>
</g>
<!-- 31&#45;&gt;18 -->
<g id="edge54" class="edge">
<title>31&#45;&gt;18</title>
<path fill="none" stroke="#c0c0c0" stroke-width="2" d="M1368.4204,-215.8314C1364.6642,-207.8771 1360.1743,-198.369 1356.0202,-189.5723"/>
<polygon fill="#c0c0c0" stroke="#c0c0c0" stroke-width="2" points="1359.1301,-187.9612 1351.6952,-180.4133 1352.8004,-190.9503 1359.1301,-187.9612"/>
</g>
<!-- 31&#45;&gt;19 -->
<g id="edge56" class="edge">
<title>31&#45;&gt;19</title>
<path fill="none" stroke="#c0c0c0" stroke-width="2" d="M1413.2345,-228.6049C1468.637,-220.1294 1577.8846,-202.5273 1679.4429,-180.2627"/>
<polygon fill="#c0c0c0" stroke="#c0c0c0" stroke-width="2" points="1680.2375,-183.6717 1689.2451,-178.0937 1678.725,-176.837 1680.2375,-183.6717"/>
</g>
<!-- 31&#45;&gt;20 -->
<g id="edge58" class="edge">
<title>31&#45;&gt;20</title>
<path fill="none" stroke="#c0c0c0" stroke-width="2" d="M1340.7453,-218.5542C1317.1636,-208.5076 1286.043,-195.2491 1259.8617,-184.0949"/>
<polygon fill="#c0c0c0" stroke="#c0c0c0" stroke-width="2" points="1261.0343,-180.7902 1250.4626,-180.0906 1258.2907,-187.2301 1261.0343,-180.7902"/>
</g>
<!-- 31&#45;&gt;21 -->
<g id="edge60" class="edge">
<title>31&#45;&gt;21</title>
<path fill="none" stroke="#c0c0c0" stroke-width="2" d="M1413.1002,-222.9864C1447.9595,-212.3513 1501.6354,-195.9756 1544.5926,-182.8701"/>
<polygon fill="#c0c0c0" stroke="#c0c0c0" stroke-width="2" points="1545.8785,-186.1371 1554.4219,-179.8713 1543.8358,-179.4417 1545.8785,-186.1371"/>
</g>
<!-- 31&#45;&gt;22 -->
<g id="edge62" class="edge">
<title>31&#45;&gt;22</title>
<path fill="none" stroke="#c0c0c0" stroke-width="2" d="M1340.7556,-227.8272C1316.0879,-223.8506 1282.6608,-218.8994 1253,-216 942.353,-185.6334 857.4731,-228.2723 545.9051,-180.1176"/>
<polygon fill="#c0c0c0" stroke="#c0c0c0" stroke-width="2" points="546.0955,-176.6049 535.6746,-178.5166 545.0131,-183.5207 546.0955,-176.6049"/>
</g>
<!-- 32 -->
<g id="node33" class="node">
<title>32</title>
<path fill="none" stroke="#d8d356" stroke-width="2" stroke-dasharray="5,2" d="M1174,-396C1174,-396 1060,-396 1060,-396 1054,-396 1048,-390 1048,-384 1048,-384 1048,-372 1048,-372 1048,-366 1054,-360 1060,-360 1060,-360 1174,-360 1174,-360 1180,-360 1186,-366 1186,-372 1186,-372 1186,-384 1186,-384 1186,-390 1180,-396 1174,-396"/>
<text text-anchor="middle" x="1117" y="-375.5" font-family="sans" font-size="10.00" fill="#000000">common_peaks_by_type</text>
</g>
<!-- 32&#45;&gt;14 -->
<g id="edge46" class="edge">
<title>32&#45;&gt;14</title>
<path fill="none" stroke="#c0c0c0" stroke-width="2" d="M1075.4867,-359.8686C1034.2508,-339.6432 972.479,-302.9404 939,-252 926.9197,-233.619 922.3384,-208.9645 920.6838,-190.1079"/>
<polygon fill="#c0c0c0" stroke="#c0c0c0" stroke-width="2" points="924.1703,-189.7865 920.0248,-180.0364 917.1853,-190.2436 924.1703,-189.7865"/>
</g>
<!-- 32&#45;&gt;29 -->
<g id="edge73" class="edge">
<title>32&#45;&gt;29</title>
<path fill="none" stroke="#c0c0c0" stroke-width="2" d="M1165.702,-359.8314C1191.9736,-350.0306 1224.5683,-337.8709 1252.1284,-327.5894"/>
<polygon fill="#c0c0c0" stroke="#c0c0c0" stroke-width="2" points="1253.5023,-330.8126 1261.6482,-324.038 1251.0555,-324.2541 1253.5023,-330.8126"/>
</g>
<!-- 32&#45;&gt;30 -->
<g id="edge74" class="edge">
<title>32&#45;&gt;30</title>
<path fill="none" stroke="#c0c0c0" stroke-width="2" d="M1150.7834,-359.9698C1164.6333,-350.9355 1179.5907,-338.7552 1189,-324 1200.7542,-305.5676 1205.3705,-281.1129 1207.1217,-262.3473"/>
<polygon fill="#c0c0c0" stroke="#c0c0c0" stroke-width="2" points="1210.6169,-262.5382 1207.8406,-252.3136 1203.6348,-262.0378 1210.6169,-262.5382"/>
</g>
<!-- 42 -->
<g id="node43" class="node">
<title>42</title>
<path fill="none" stroke="#8fd856" stroke-width="2" stroke-dasharray="5,2" d="M1168,-324C1168,-324 1066,-324 1066,-324 1060,-324 1054,-318 1054,-312 1054,-312 1054,-300 1054,-300 1054,-294 1060,-288 1066,-288 1066,-288 1168,-288 1168,-288 1174,-288 1180,-294 1180,-300 1180,-300 1180,-312 1180,-312 1180,-318 1174,-324 1168,-324"/>
<text text-anchor="middle" x="1117" y="-303.5" font-family="sans" font-size="10.00" fill="#000000">overlap_with_h3k27ac</text>
</g>
<!-- 32&#45;&gt;42 -->
<g id="edge88" class="edge">
<title>32&#45;&gt;42</title>
<path fill="none" stroke="#c0c0c0" stroke-width="2" d="M1117,-359.8314C1117,-352.131 1117,-342.9743 1117,-334.4166"/>
<polygon fill="#c0c0c0" stroke="#c0c0c0" stroke-width="2" points="1120.5001,-334.4132 1117,-324.4133 1113.5001,-334.4133 1120.5001,-334.4132"/>
</g>
<!-- 33 -->
<g id="node34" class="node">
<title>33</title>
<path fill="none" stroke="#566bd8" stroke-width="2" stroke-dasharray="5,2" d="M1037.5,-252C1037.5,-252 960.5,-252 960.5,-252 954.5,-252 948.5,-246 948.5,-240 948.5,-240 948.5,-228 948.5,-228 948.5,-222 954.5,-216 960.5,-216 960.5,-216 1037.5,-216 1037.5,-216 1043.5,-216 1049.5,-222 1049.5,-228 1049.5,-228 1049.5,-240 1049.5,-240 1049.5,-246 1043.5,-252 1037.5,-252"/>
<text text-anchor="middle" x="999" y="-231.5" font-family="sans" font-size="10.00" fill="#000000">build_tss_regions</text>
</g>
<!-- 33&#45;&gt;14 -->
<g id="edge47" class="edge">
<title>33&#45;&gt;14</title>
<path fill="none" stroke="#c0c0c0" stroke-width="2" d="M979.065,-215.8314C969.5217,-207.1337 957.9401,-196.5783 947.5694,-187.1265"/>
<polygon fill="#c0c0c0" stroke="#c0c0c0" stroke-width="2" points="949.6772,-184.3121 939.9287,-180.1628 944.962,-189.4857 949.6772,-184.3121"/>
</g>
<!-- 34 -->
<g id="node35" class="node">
<title>34</title>
<path fill="none" stroke="#56d8b9" stroke-width="2" stroke-dasharray="5,2" d="M784,-684C784,-684 730,-684 730,-684 724,-684 718,-678 718,-672 718,-672 718,-660 718,-660 718,-654 724,-648 730,-648 730,-648 784,-648 784,-648 790,-648 796,-654 796,-660 796,-660 796,-672 796,-672 796,-678 790,-684 784,-684"/>
<text text-anchor="middle" x="757" y="-663.5" font-family="sans" font-size="10.00" fill="#000000">peak_calling</text>
</g>
<!-- 34&#45;&gt;15 -->
<g id="edge48" class="edge">
<title>34&#45;&gt;15</title>
<path fill="none" stroke="#c0c0c0" stroke-width="2" d="M757,-647.8146C757,-620.4983 757,-567.25 757,-522 757,-522 757,-522 757,-306 757,-265.876 757,-219.4631 757,-190.4177"/>
<polygon fill="#c0c0c0" stroke="#c0c0c0" stroke-width="2" points="760.5001,-190.1853 757,-180.1854 753.5001,-190.1854 760.5001,-190.1853"/>
</g>
<!-- 34&#45;&gt;28 -->
<g id="edge70" class="edge">
<title>34&#45;&gt;28</title>
<path fill="none" stroke="#c0c0c0" stroke-width="2" d="M796.2821,-648.7542C821.5742,-637.6504 854.3888,-623.2439 880.01,-611.9956"/>
<polygon fill="#c0c0c0" stroke="#c0c0c0" stroke-width="2" points="881.6972,-615.0774 889.4467,-607.8527 878.8832,-608.6679 881.6972,-615.0774"/>
</g>
<!-- 35 -->
<g id="node36" class="node">
<title>35</title>
<path fill="none" stroke="#70d856" stroke-width="2" stroke-dasharray="5,2" d="M1814.5,-684C1814.5,-684 1759.5,-684 1759.5,-684 1753.5,-684 1747.5,-678 1747.5,-672 1747.5,-672 1747.5,-660 1747.5,-660 1747.5,-654 1753.5,-648 1759.5,-648 1759.5,-648 1814.5,-648 1814.5,-648 1820.5,-648 1826.5,-654 1826.5,-660 1826.5,-660 1826.5,-672 1826.5,-672 1826.5,-678 1820.5,-684 1814.5,-684"/>
<text text-anchor="middle" x="1787" y="-663.5" font-family="sans" font-size="10.00" fill="#000000">downsample</text>
</g>
<!-- 35&#45;&gt;23 -->
<g id="edge63" class="edge">
<title>35&#45;&gt;23</title>
<path fill="none" stroke="#c0c0c0" stroke-width="2" d="M1787,-647.8314C1787,-640.131 1787,-630.9743 1787,-622.4166"/>
<polygon fill="#c0c0c0" stroke="#c0c0c0" stroke-width="2" points="1790.5001,-622.4132 1787,-612.4133 1783.5001,-622.4133 1790.5001,-622.4132"/>
</g>
<!-- 36 -->
<g id="node37" class="node">
<title>36</title>
<path fill="none" stroke="#56d8b9" stroke-width="2" stroke-dasharray="5,2" d="M1621,-684C1621,-684 1567,-684 1567,-684 1561,-684 1555,-678 1555,-672 1555,-672 1555,-660 1555,-660 1555,-654 1561,-648 1567,-648 1567,-648 1621,-648 1621,-648 1627,-648 1633,-654 1633,-660 1633,-660 1633,-672 1633,-672 1633,-678 1627,-684 1621,-684"/>
<text text-anchor="middle" x="1594" y="-663.5" font-family="sans" font-size="10.00" fill="#000000">peak_calling</text>
</g>
<!-- 36&#45;&gt;24 -->
<g id="edge64" class="edge">
<title>36&#45;&gt;24</title>
<path fill="none" stroke="#c0c0c0" stroke-width="2" d="M1594,-647.8314C1594,-640.131 1594,-630.9743 1594,-622.4166"/>
<polygon fill="#c0c0c0" stroke="#c0c0c0" stroke-width="2" points="1597.5001,-622.4132 1594,-612.4133 1590.5001,-622.4133 1597.5001,-622.4132"/>
</g>
<!-- 37 -->
<g id="node38" class="node">
<title>37</title>
<path fill="none" stroke="#56b9d8" stroke-width="2" stroke-dasharray="5,2" d="M1524.5,-684C1524.5,-684 1375.5,-684 1375.5,-684 1369.5,-684 1363.5,-678 1363.5,-672 1363.5,-672 1363.5,-660 1363.5,-660 1363.5,-654 1369.5,-648 1375.5,-648 1375.5,-648 1524.5,-648 1524.5,-648 1530.5,-648 1536.5,-654 1536.5,-660 1536.5,-660 1536.5,-672 1536.5,-672 1536.5,-678 1530.5,-684 1524.5,-684"/>
<text text-anchor="middle" x="1450" y="-663.5" font-family="sans" font-size="10.00" fill="#000000">retrieve_and_process_black_list</text>
</g>
<!-- 37&#45;&gt;24 -->
<g id="edge65" class="edge">
<title>37&#45;&gt;24</title>
<path fill="none" stroke="#c0c0c0" stroke-width="2" d="M1486.3373,-647.8314C1506.6591,-637.6705 1532.0518,-624.9741 1553.0723,-614.4639"/>
<polygon fill="#c0c0c0" stroke="#c0c0c0" stroke-width="2" points="1554.7074,-617.5595 1562.0864,-609.9568 1551.5769,-611.2985 1554.7074,-617.5595"/>
</g>
<!-- 37&#45;&gt;26 -->
<g id="edge68" class="edge">
<title>37&#45;&gt;26</title>
<path fill="none" stroke="#c0c0c0" stroke-width="2" d="M1516.2996,-647.9452C1551.7208,-637.9734 1595.9534,-624.9997 1635,-612 1637.2443,-611.2528 1639.54,-610.4667 1641.8522,-609.6579"/>
<polygon fill="#c0c0c0" stroke="#c0c0c0" stroke-width="2" points="1643.1308,-612.9177 1651.3613,-606.2462 1640.7668,-606.329 1643.1308,-612.9177"/>
</g>
<!-- 37&#45;&gt;28 -->
<g id="edge71" class="edge">
<title>37&#45;&gt;28</title>
<path fill="none" stroke="#c0c0c0" stroke-width="2" d="M1363.2388,-654.1913C1247.8961,-638.4925 1048.6243,-611.3704 962.5645,-599.6572"/>
<polygon fill="#c0c0c0" stroke="#c0c0c0" stroke-width="2" points="963.0246,-596.1876 952.6439,-598.3069 962.0805,-603.1237 963.0246,-596.1876"/>
</g>
<!-- 38 -->
<g id="node39" class="node">
<title>38</title>
<path fill="none" stroke="#70d856" stroke-width="2" stroke-dasharray="5,2" d="M1938.5,-684C1938.5,-684 1883.5,-684 1883.5,-684 1877.5,-684 1871.5,-678 1871.5,-672 1871.5,-672 1871.5,-660 1871.5,-660 1871.5,-654 1877.5,-648 1883.5,-648 1883.5,-648 1938.5,-648 1938.5,-648 1944.5,-648 1950.5,-654 1950.5,-660 1950.5,-660 1950.5,-672 1950.5,-672 1950.5,-678 1944.5,-684 1938.5,-684"/>
<text text-anchor="middle" x="1911" y="-663.5" font-family="sans" font-size="10.00" fill="#000000">downsample</text>
</g>
<!-- 38&#45;&gt;25 -->
<g id="edge66" class="edge">
<title>38&#45;&gt;25</title>
<path fill="none" stroke="#c0c0c0" stroke-width="2" d="M1911,-647.8314C1911,-640.131 1911,-630.9743 1911,-622.4166"/>
<polygon fill="#c0c0c0" stroke="#c0c0c0" stroke-width="2" points="1914.5001,-622.4132 1911,-612.4133 1907.5001,-622.4133 1914.5001,-622.4132"/>
</g>
<!-- 39 -->
<g id="node40" class="node">
<title>39</title>
<path fill="none" stroke="#56d8b9" stroke-width="2" stroke-dasharray="5,2" d="M1717,-684C1717,-684 1663,-684 1663,-684 1657,-684 1651,-678 1651,-672 1651,-672 1651,-660 1651,-660 1651,-654 1657,-648 1663,-648 1663,-648 1717,-648 1717,-648 1723,-648 1729,-654 1729,-660 1729,-660 1729,-672 1729,-672 1729,-678 1723,-684 1717,-684"/>
<text text-anchor="middle" x="1690" y="-663.5" font-family="sans" font-size="10.00" fill="#000000">peak_calling</text>
</g>
<!-- 39&#45;&gt;26 -->
<g id="edge67" class="edge">
<title>39&#45;&gt;26</title>
<path fill="none" stroke="#c0c0c0" stroke-width="2" d="M1688.2336,-647.8314C1687.485,-640.131 1686.5947,-630.9743 1685.7627,-622.4166"/>
<polygon fill="#c0c0c0" stroke="#c0c0c0" stroke-width="2" points="1689.2415,-622.0276 1684.7902,-612.4133 1682.2744,-622.7051 1689.2415,-622.0276"/>
</g>
<!-- 40 -->
<g id="node41" class="node">
<title>40</title>
<path fill="none" stroke="#70d856" stroke-width="2" stroke-dasharray="5,2" d="M667.5,-684C667.5,-684 612.5,-684 612.5,-684 606.5,-684 600.5,-678 600.5,-672 600.5,-672 600.5,-660 600.5,-660 600.5,-654 606.5,-648 612.5,-648 612.5,-648 667.5,-648 667.5,-648 673.5,-648 679.5,-654 679.5,-660 679.5,-660 679.5,-672 679.5,-672 679.5,-678 673.5,-684 667.5,-684"/>
<text text-anchor="middle" x="640" y="-663.5" font-family="sans" font-size="10.00" fill="#000000">downsample</text>
</g>
<!-- 40&#45;&gt;27 -->
<g id="edge69" class="edge">
<title>40&#45;&gt;27</title>
<path fill="none" stroke="#c0c0c0" stroke-width="2" d="M640,-647.8314C640,-640.131 640,-630.9743 640,-622.4166"/>
<polygon fill="#c0c0c0" stroke="#c0c0c0" stroke-width="2" points="643.5001,-622.4132 640,-612.4133 636.5001,-622.4133 643.5001,-622.4132"/>
</g>
<!-- 41 -->
<g id="node42" class="node">
<title>41</title>
<path fill="none" stroke="#d8d356" stroke-width="2" stroke-dasharray="5,2" d="M1559,-396C1559,-396 1445,-396 1445,-396 1439,-396 1433,-390 1433,-384 1433,-384 1433,-372 1433,-372 1433,-366 1439,-360 1445,-360 1445,-360 1559,-360 1559,-360 1565,-360 1571,-366 1571,-372 1571,-372 1571,-384 1571,-384 1571,-390 1565,-396 1559,-396"/>
<text text-anchor="middle" x="1502" y="-375.5" font-family="sans" font-size="10.00" fill="#000000">common_peaks_by_type</text>
</g>
<!-- 41&#45;&gt;29 -->
<g id="edge72" class="edge">
<title>41&#45;&gt;29</title>
<path fill="none" stroke="#c0c0c0" stroke-width="2" d="M1453.5503,-359.8314C1427.4149,-350.0306 1394.9891,-337.8709 1367.5717,-327.5894"/>
<polygon fill="#c0c0c0" stroke="#c0c0c0" stroke-width="2" points="1368.6936,-324.2721 1358.1013,-324.038 1366.2357,-330.8264 1368.6936,-324.2721"/>
</g>
<!-- 41&#45;&gt;31 -->
<g id="edge76" class="edge">
<title>41&#45;&gt;31</title>
<path fill="none" stroke="#c0c0c0" stroke-width="2" d="M1473.3269,-359.9507C1459.5027,-350.3601 1443.2965,-337.7267 1431,-324 1414.0464,-305.0745 1399.5405,-280.064 1389.8458,-261.2125"/>
<polygon fill="#c0c0c0" stroke="#c0c0c0" stroke-width="2" points="1392.9622,-259.6189 1385.3555,-252.2441 1386.7029,-262.7529 1392.9622,-259.6189"/>
</g>
<!-- 43 -->
<g id="node44" class="node">
<title>43</title>
<path fill="none" stroke="#8fd856" stroke-width="2" stroke-dasharray="5,2" d="M1554,-324C1554,-324 1452,-324 1452,-324 1446,-324 1440,-318 1440,-312 1440,-312 1440,-300 1440,-300 1440,-294 1446,-288 1452,-288 1452,-288 1554,-288 1554,-288 1560,-288 1566,-294 1566,-300 1566,-300 1566,-312 1566,-312 1566,-318 1560,-324 1554,-324"/>
<text text-anchor="middle" x="1503" y="-303.5" font-family="sans" font-size="10.00" fill="#000000">overlap_with_h3k27ac</text>
</g>
<!-- 41&#45;&gt;43 -->
<g id="edge89" class="edge">
<title>41&#45;&gt;43</title>
<path fill="none" stroke="#c0c0c0" stroke-width="2" d="M1502.2523,-359.8314C1502.3593,-352.131 1502.4865,-342.9743 1502.6053,-334.4166"/>
<polygon fill="#c0c0c0" stroke="#c0c0c0" stroke-width="2" points="1506.1049,-334.4609 1502.7443,-324.4133 1499.1056,-334.3637 1506.1049,-334.4609"/>
</g>
<!-- 42&#45;&gt;30 -->
<g id="edge75" class="edge">
<title>42&#45;&gt;30</title>
<path fill="none" stroke="#c0c0c0" stroke-width="2" d="M1139.9631,-287.8314C1151.1715,-278.9632 1164.8209,-268.1637 1176.9439,-258.5718"/>
<polygon fill="#c0c0c0" stroke="#c0c0c0" stroke-width="2" points="1179.3737,-261.1125 1185.0442,-252.1628 1175.0303,-255.6229 1179.3737,-261.1125"/>
</g>
<!-- 43&#45;&gt;31 -->
<g id="edge77" class="edge">
<title>43&#45;&gt;31</title>
<path fill="none" stroke="#c0c0c0" stroke-width="2" d="M1471.2049,-287.8314C1454.9395,-278.5368 1434.9614,-267.1208 1417.5949,-257.1971"/>
<polygon fill="#c0c0c0" stroke="#c0c0c0" stroke-width="2" points="1419.2039,-254.0854 1408.7849,-252.1628 1415.7309,-260.1631 1419.2039,-254.0854"/>
</g>
<!-- 44&#45;&gt;32 -->
<g id="edge78" class="edge">
<title>44&#45;&gt;32</title>
<path fill="none" stroke="#c0c0c0" stroke-width="2" d="M1058.7092,-503.9222C1072.5454,-494.8791 1087.5125,-482.705 1097,-468 1108.8791,-449.588 1113.7727,-425.1318 1115.7548,-406.3605"/>
<polygon fill="#c0c0c0" stroke="#c0c0c0" stroke-width="2" points="1119.2485,-406.5814 1116.5994,-396.3232 1112.2732,-405.9944 1119.2485,-406.5814"/>
</g>
<!-- 45 -->
<g id="node46" class="node">
<title>45</title>
<path fill="none" stroke="#d88d56" stroke-width="2" stroke-dasharray="5,2" d="M1076.5,-468C1076.5,-468 973.5,-468 973.5,-468 967.5,-468 961.5,-462 961.5,-456 961.5,-456 961.5,-444 961.5,-444 961.5,-438 967.5,-432 973.5,-432 973.5,-432 1076.5,-432 1076.5,-432 1082.5,-432 1088.5,-438 1088.5,-444 1088.5,-444 1088.5,-456 1088.5,-456 1088.5,-462 1082.5,-468 1076.5,-468"/>
<text text-anchor="middle" x="1025" y="-447.5" font-family="sans" font-size="10.00" fill="#000000">merge_peaks_by_type</text>
</g>
<!-- 44&#45;&gt;45 -->
<g id="edge91" class="edge">
<title>44&#45;&gt;45</title>
<path fill="none" stroke="#c0c0c0" stroke-width="2" d="M1025,-503.8314C1025,-496.131 1025,-486.9743 1025,-478.4166"/>
<polygon fill="#c0c0c0" stroke="#c0c0c0" stroke-width="2" points="1028.5001,-478.4132 1025,-468.4133 1021.5001,-478.4133 1028.5001,-478.4132"/>
</g>
<!-- 45&#45;&gt;32 -->
<g id="edge79" class="edge">
<title>45&#45;&gt;32</title>
<path fill="none" stroke="#c0c0c0" stroke-width="2" d="M1048.2155,-431.8314C1059.547,-422.9632 1073.3464,-412.1637 1085.6027,-402.5718"/>
<polygon fill="#c0c0c0" stroke="#c0c0c0" stroke-width="2" points="1088.074,-405.0822 1093.7919,-396.1628 1083.7598,-399.5697 1088.074,-405.0822"/>
</g>
<!-- 46 -->
<g id="node47" class="node">
<title>46</title>
<path fill="none" stroke="#56d863" stroke-width="2" stroke-dasharray="5,2" d="M661,-756C661,-756 619,-756 619,-756 613,-756 607,-750 607,-744 607,-744 607,-732 607,-732 607,-726 613,-720 619,-720 619,-720 661,-720 661,-720 667,-720 673,-726 673,-732 673,-732 673,-744 673,-744 673,-750 667,-756 661,-756"/>
<text text-anchor="middle" x="640" y="-735.5" font-family="sans" font-size="10.00" fill="#000000">filter_bam</text>
</g>
<!-- 46&#45;&gt;34 -->
<g id="edge80" class="edge">
<title>46&#45;&gt;34</title>
<path fill="none" stroke="#c0c0c0" stroke-width="2" d="M669.524,-719.8314C684.4891,-710.6221 702.8386,-699.3301 718.8603,-689.4706"/>
<polygon fill="#c0c0c0" stroke="#c0c0c0" stroke-width="2" points="720.8032,-692.3847 727.4854,-684.1628 717.1345,-686.423 720.8032,-692.3847"/>
</g>
<!-- 46&#45;&gt;40 -->
<g id="edge85" class="edge">
<title>46&#45;&gt;40</title>
<path fill="none" stroke="#c0c0c0" stroke-width="2" d="M640,-719.8314C640,-712.131 640,-702.9743 640,-694.4166"/>
<polygon fill="#c0c0c0" stroke="#c0c0c0" stroke-width="2" points="643.5001,-694.4132 640,-684.4133 636.5001,-694.4133 643.5001,-694.4132"/>
</g>
<!-- 47 -->
<g id="node48" class="node">
<title>47</title>
<path fill="none" stroke="#56d863" stroke-width="2" stroke-dasharray="5,2" d="M1808,-756C1808,-756 1766,-756 1766,-756 1760,-756 1754,-750 1754,-744 1754,-744 1754,-732 1754,-732 1754,-726 1760,-720 1766,-720 1766,-720 1808,-720 1808,-720 1814,-720 1820,-726 1820,-732 1820,-732 1820,-744 1820,-744 1820,-750 1814,-756 1808,-756"/>
<text text-anchor="middle" x="1787" y="-735.5" font-family="sans" font-size="10.00" fill="#000000">filter_bam</text>
</g>
<!-- 47&#45;&gt;35 -->
<g id="edge81" class="edge">
<title>47&#45;&gt;35</title>
<path fill="none" stroke="#c0c0c0" stroke-width="2" d="M1787,-719.8314C1787,-712.131 1787,-702.9743 1787,-694.4166"/>
<polygon fill="#c0c0c0" stroke="#c0c0c0" stroke-width="2" points="1790.5001,-694.4132 1787,-684.4133 1783.5001,-694.4133 1790.5001,-694.4132"/>
</g>
<!-- 47&#45;&gt;36 -->
<g id="edge82" class="edge">
<title>47&#45;&gt;36</title>
<path fill="none" stroke="#c0c0c0" stroke-width="2" d="M1753.8784,-725.6894C1726.4356,-715.484 1686.167,-700.4967 1642.4155,-684.1519"/>
<polygon fill="#c0c0c0" stroke="#c0c0c0" stroke-width="2" points="1643.6225,-680.8665 1633.0299,-680.6447 1641.1721,-687.4237 1643.6225,-680.8665"/>
</g>
<!-- 48 -->
<g id="node49" class="node">
<title>48</title>
<path fill="none" stroke="#56d863" stroke-width="2" stroke-dasharray="5,2" d="M1932,-756C1932,-756 1890,-756 1890,-756 1884,-756 1878,-750 1878,-744 1878,-744 1878,-732 1878,-732 1878,-726 1884,-720 1890,-720 1890,-720 1932,-720 1932,-720 1938,-720 1944,-726 1944,-732 1944,-732 1944,-744 1944,-744 1944,-750 1938,-756 1932,-756"/>
<text text-anchor="middle" x="1911" y="-735.5" font-family="sans" font-size="10.00" fill="#000000">filter_bam</text>
</g>
<!-- 48&#45;&gt;38 -->
<g id="edge83" class="edge">
<title>48&#45;&gt;38</title>
<path fill="none" stroke="#c0c0c0" stroke-width="2" d="M1911,-719.8314C1911,-712.131 1911,-702.9743 1911,-694.4166"/>
<polygon fill="#c0c0c0" stroke="#c0c0c0" stroke-width="2" points="1914.5001,-694.4132 1911,-684.4133 1907.5001,-694.4133 1914.5001,-694.4132"/>
</g>
<!-- 48&#45;&gt;39 -->
<g id="edge84" class="edge">
<title>48&#45;&gt;39</title>
<path fill="none" stroke="#c0c0c0" stroke-width="2" d="M1877.8739,-728.114C1843.1262,-717.6241 1786.9979,-700.3401 1739,-684 1738.9008,-683.9662 1738.8015,-683.9324 1738.7021,-683.8985"/>
<polygon fill="#c0c0c0" stroke="#c0c0c0" stroke-width="2" points="1739.8508,-680.5924 1729.256,-680.6081 1737.5482,-687.2029 1739.8508,-680.5924"/>
</g>
<!-- 49&#45;&gt;41 -->
<g id="edge86" class="edge">
<title>49&#45;&gt;41</title>
<path fill="none" stroke="#c0c0c0" stroke-width="2" d="M1560.2908,-503.9222C1546.4546,-494.8791 1531.4875,-482.705 1522,-468 1510.1209,-449.588 1505.2273,-425.1318 1503.2452,-406.3605"/>
<polygon fill="#c0c0c0" stroke="#c0c0c0" stroke-width="2" points="1506.7268,-405.9944 1502.4006,-396.3232 1499.7515,-406.5814 1506.7268,-405.9944"/>
</g>
<!-- 50 -->
<g id="node51" class="node">
<title>50</title>
<path fill="none" stroke="#d88d56" stroke-width="2" stroke-dasharray="5,2" d="M1645.5,-468C1645.5,-468 1542.5,-468 1542.5,-468 1536.5,-468 1530.5,-462 1530.5,-456 1530.5,-456 1530.5,-444 1530.5,-444 1530.5,-438 1536.5,-432 1542.5,-432 1542.5,-432 1645.5,-432 1645.5,-432 1651.5,-432 1657.5,-438 1657.5,-444 1657.5,-444 1657.5,-456 1657.5,-456 1657.5,-462 1651.5,-468 1645.5,-468"/>
<text text-anchor="middle" x="1594" y="-447.5" font-family="sans" font-size="10.00" fill="#000000">merge_peaks_by_type</text>
</g>
<!-- 49&#45;&gt;50 -->
<g id="edge97" class="edge">
<title>49&#45;&gt;50</title>
<path fill="none" stroke="#c0c0c0" stroke-width="2" d="M1594,-503.8314C1594,-496.131 1594,-486.9743 1594,-478.4166"/>
<polygon fill="#c0c0c0" stroke="#c0c0c0" stroke-width="2" points="1597.5001,-478.4132 1594,-468.4133 1590.5001,-478.4133 1597.5001,-478.4132"/>
</g>
<!-- 50&#45;&gt;41 -->
<g id="edge87" class="edge">
<title>50&#45;&gt;41</title>
<path fill="none" stroke="#c0c0c0" stroke-width="2" d="M1570.7845,-431.8314C1559.453,-422.9632 1545.6536,-412.1637 1533.3973,-402.5718"/>
<polygon fill="#c0c0c0" stroke="#c0c0c0" stroke-width="2" points="1535.2402,-399.5697 1525.2081,-396.1628 1530.926,-405.0822 1535.2402,-399.5697"/>
</g>
<!-- 51 -->
<g id="node52" class="node">
<title>51</title>
<path fill="none" stroke="#5692d8" stroke-width="2" stroke-dasharray="5,2" d="M641.5,-828C641.5,-828 558.5,-828 558.5,-828 552.5,-828 546.5,-822 546.5,-816 546.5,-816 546.5,-804 546.5,-804 546.5,-798 552.5,-792 558.5,-792 558.5,-792 641.5,-792 641.5,-792 647.5,-792 653.5,-798 653.5,-804 653.5,-804 653.5,-816 653.5,-816 653.5,-822 647.5,-828 641.5,-828"/>
<text text-anchor="middle" x="600" y="-813" font-family="sans" font-size="10.00" fill="#000000">merge_bam</text>
<text text-anchor="middle" x="600" y="-802" font-family="sans" font-size="10.00" fill="#000000">sample: GFP_IIG_7</text>
</g>
<!-- 51&#45;&gt;46 -->
<g id="edge92" class="edge">
<title>51&#45;&gt;46</title>
<path fill="none" stroke="#c0c0c0" stroke-width="2" d="M610.0937,-791.8314C614.5597,-783.7925 619.9075,-774.1666 624.8379,-765.2918"/>
<polygon fill="#c0c0c0" stroke="#c0c0c0" stroke-width="2" points="627.9735,-766.8546 629.7704,-756.4133 621.8544,-763.4551 627.9735,-766.8546"/>
</g>
<!-- 52 -->
<g id="node53" class="node">
<title>52</title>
<path fill="none" stroke="#5692d8" stroke-width="2" stroke-dasharray="5,2" d="M1828.5,-828C1828.5,-828 1745.5,-828 1745.5,-828 1739.5,-828 1733.5,-822 1733.5,-816 1733.5,-816 1733.5,-804 1733.5,-804 1733.5,-798 1739.5,-792 1745.5,-792 1745.5,-792 1828.5,-792 1828.5,-792 1834.5,-792 1840.5,-798 1840.5,-804 1840.5,-804 1840.5,-816 1840.5,-816 1840.5,-822 1834.5,-828 1828.5,-828"/>
<text text-anchor="middle" x="1787" y="-813" font-family="sans" font-size="10.00" fill="#000000">merge_bam</text>
<text text-anchor="middle" x="1787" y="-802" font-family="sans" font-size="10.00" fill="#000000">sample: RFP_IIG_3</text>
</g>
<!-- 52&#45;&gt;47 -->
<g id="edge93" class="edge">
<title>52&#45;&gt;47</title>
<path fill="none" stroke="#c0c0c0" stroke-width="2" d="M1787,-791.8314C1787,-784.131 1787,-774.9743 1787,-766.4166"/>
<polygon fill="#c0c0c0" stroke="#c0c0c0" stroke-width="2" points="1790.5001,-766.4132 1787,-756.4133 1783.5001,-766.4133 1790.5001,-766.4132"/>
</g>
<!-- 53 -->
<g id="node54" class="node">
<title>53</title>
<path fill="none" stroke="#5692d8" stroke-width="2" stroke-dasharray="5,2" d="M2514.5,-828C2514.5,-828 2433.5,-828 2433.5,-828 2427.5,-828 2421.5,-822 2421.5,-816 2421.5,-816 2421.5,-804 2421.5,-804 2421.5,-798 2427.5,-792 2433.5,-792 2433.5,-792 2514.5,-792 2514.5,-792 2520.5,-792 2526.5,-798 2526.5,-804 2526.5,-804 2526.5,-816 2526.5,-816 2526.5,-822 2520.5,-828 2514.5,-828"/>
<text text-anchor="middle" x="2474" y="-813" font-family="sans" font-size="10.00" fill="#000000">merge_bam</text>
<text text-anchor="middle" x="2474" y="-802" font-family="sans" font-size="10.00" fill="#000000">sample: RFP_IIE_1</text>
</g>
<!-- 53&#45;&gt;48 -->
<g id="edge94" class="edge">
<title>53&#45;&gt;48</title>
<path fill="none" stroke="#c0c0c0" stroke-width="2" d="M2421.2874,-803.2588C2310.666,-789.1118 2056.1289,-756.56 1954.2813,-743.5351"/>
<polygon fill="#c0c0c0" stroke="#c0c0c0" stroke-width="2" points="1954.4184,-740.0242 1944.0552,-742.2273 1953.5304,-746.9677 1954.4184,-740.0242"/>
</g>
<!-- 54 -->
<g id="node55" class="node">
<title>54</title>
<path fill="none" stroke="#d8ac56" stroke-width="2" stroke-dasharray="5,2" d="M630,-900C630,-900 412,-900 412,-900 406,-900 400,-894 400,-888 400,-888 400,-876 400,-876 400,-870 406,-864 412,-864 412,-864 630,-864 630,-864 636,-864 642,-870 642,-876 642,-876 642,-888 642,-888 642,-894 636,-900 630,-900"/>
<text text-anchor="middle" x="521" y="-885" font-family="sans" font-size="10.00" fill="#000000">align</text>
<text text-anchor="middle" x="521" y="-874" font-family="sans" font-size="10.00" fill="#000000">lane_sample: HN7NJBBXX_16871601_S3_L001</text>
</g>
<!-- 54&#45;&gt;51 -->
<g id="edge98" class="edge">
<title>54&#45;&gt;51</title>
<path fill="none" stroke="#c0c0c0" stroke-width="2" d="M540.935,-863.8314C550.4783,-855.1337 562.0599,-844.5783 572.4306,-835.1265"/>
<polygon fill="#c0c0c0" stroke="#c0c0c0" stroke-width="2" points="575.038,-837.4857 580.0713,-828.1628 570.3228,-832.3121 575.038,-837.4857"/>
</g>
<!-- 55 -->
<g id="node56" class="node">
<title>55</title>
<path fill="none" stroke="#d8ac56" stroke-width="2" stroke-dasharray="5,2" d="M2470,-900C2470,-900 2252,-900 2252,-900 2246,-900 2240,-894 2240,-888 2240,-888 2240,-876 2240,-876 2240,-870 2246,-864 2252,-864 2252,-864 2470,-864 2470,-864 2476,-864 2482,-870 2482,-876 2482,-876 2482,-888 2482,-888 2482,-894 2476,-900 2470,-900"/>
<text text-anchor="middle" x="2361" y="-885" font-family="sans" font-size="10.00" fill="#000000">align</text>
<text text-anchor="middle" x="2361" y="-874" font-family="sans" font-size="10.00" fill="#000000">lane_sample: HN7NJBBXX_16871585_S2_L001</text>
</g>
<!-- 55&#45;&gt;52 -->
<g id="edge99" class="edge">
<title>55&#45;&gt;52</title>
<path fill="none" stroke="#c0c0c0" stroke-width="2" d="M2239.9707,-866.8186C2121.2425,-851.9259 1944.7768,-829.7908 1850.9989,-818.0277"/>
<polygon fill="#c0c0c0" stroke="#c0c0c0" stroke-width="2" points="1851.1664,-814.5214 1840.8085,-816.7495 1850.2951,-821.467 1851.1664,-814.5214"/>
</g>
<!-- 56 -->
<g id="node57" class="node">
<title>56</title>
<path fill="none" stroke="#d8ac56" stroke-width="2" stroke-dasharray="5,2" d="M1324,-900C1324,-900 1106,-900 1106,-900 1100,-900 1094,-894 1094,-888 1094,-888 1094,-876 1094,-876 1094,-870 1100,-864 1106,-864 1106,-864 1324,-864 1324,-864 1330,-864 1336,-870 1336,-876 1336,-876 1336,-888 1336,-888 1336,-894 1330,-900 1324,-900"/>
<text text-anchor="middle" x="1215" y="-885" font-family="sans" font-size="10.00" fill="#000000">align</text>
<text text-anchor="middle" x="1215" y="-874" font-family="sans" font-size="10.00" fill="#000000">lane_sample: HN7NJBBXX_16871585_S2_L002</text>
</g>
<!-- 56&#45;&gt;52 -->
<g id="edge100" class="edge">
<title>56&#45;&gt;52</title>
<path fill="none" stroke="#c0c0c0" stroke-width="2" d="M1336.3065,-866.7307C1454.5245,-851.8501 1629.6923,-829.801 1723.0128,-818.0543"/>
<polygon fill="#c0c0c0" stroke="#c0c0c0" stroke-width="2" points="1723.6709,-821.4992 1733.1555,-816.7776 1722.7966,-814.554 1723.6709,-821.4992"/>
</g>
<!-- 57 -->
<g id="node58" class="node">
<title>57</title>
<path fill="none" stroke="#d8ac56" stroke-width="2" stroke-dasharray="5,2" d="M1898,-900C1898,-900 1676,-900 1676,-900 1670,-900 1664,-894 1664,-888 1664,-888 1664,-876 1664,-876 1664,-870 1670,-864 1676,-864 1676,-864 1898,-864 1898,-864 1904,-864 1910,-870 1910,-876 1910,-876 1910,-888 1910,-888 1910,-894 1904,-900 1898,-900"/>
<text text-anchor="middle" x="1787" y="-885" font-family="sans" font-size="10.00" fill="#000000">align</text>
<text text-anchor="middle" x="1787" y="-874" font-family="sans" font-size="10.00" fill="#000000">lane_sample: HN7TMBBXX_16871585_S2_L001</text>
</g>
<!-- 57&#45;&gt;52 -->
<g id="edge101" class="edge">
<title>57&#45;&gt;52</title>
<path fill="none" stroke="#c0c0c0" stroke-width="2" d="M1787,-863.8314C1787,-856.131 1787,-846.9743 1787,-838.4166"/>
<polygon fill="#c0c0c0" stroke="#c0c0c0" stroke-width="2" points="1790.5001,-838.4132 1787,-828.4133 1783.5001,-838.4133 1790.5001,-838.4132"/>
</g>
<!-- 58 -->
<g id="node59" class="node">
<title>58</title>
<path fill="none" stroke="#d8ac56" stroke-width="2" stroke-dasharray="5,2" d="M3168,-900C3168,-900 2946,-900 2946,-900 2940,-900 2934,-894 2934,-888 2934,-888 2934,-876 2934,-876 2934,-870 2940,-864 2946,-864 2946,-864 3168,-864 3168,-864 3174,-864 3180,-870 3180,-876 3180,-876 3180,-888 3180,-888 3180,-894 3174,-900 3168,-900"/>
<text text-anchor="middle" x="3057" y="-885" font-family="sans" font-size="10.00" fill="#000000">align</text>
<text text-anchor="middle" x="3057" y="-874" font-family="sans" font-size="10.00" fill="#000000">lane_sample: HN7TMBBXX_16871599_S8_L004</text>
</g>
<!-- 58&#45;&gt;53 -->
<g id="edge102" class="edge">
<title>58&#45;&gt;53</title>
<path fill="none" stroke="#c0c0c0" stroke-width="2" d="M2933.7171,-866.7747C2812.1674,-851.7634 2631.2939,-829.4257 2536.7382,-817.7481"/>
<polygon fill="#c0c0c0" stroke="#c0c0c0" stroke-width="2" points="2537.1066,-814.2671 2526.753,-816.515 2536.2486,-821.2143 2537.1066,-814.2671"/>
</g>
<!-- 59 -->
<g id="node60" class="node">
<title>59</title>
<path fill="none" stroke="#56a9d8" stroke-width="2" stroke-dasharray="5,2" d="M664,-972C664,-972 378,-972 378,-972 372,-972 366,-966 366,-960 366,-960 366,-948 366,-948 366,-942 372,-936 378,-936 378,-936 664,-936 664,-936 670,-936 676,-942 676,-948 676,-948 676,-960 676,-960 676,-966 670,-972 664,-972"/>
<text text-anchor="middle" x="521" y="-957" font-family="sans" font-size="10.00" fill="#000000">pull_lane_fastq_from_nisc_or_sra</text>
<text text-anchor="middle" x="521" y="-946" font-family="sans" font-size="10.00" fill="#000000">lane_files: HN7NJBBXX_16871601_S3_L001_R1_001.fastq.gz</text>
</g>
<!-- 59&#45;&gt;54 -->
<g id="edge103" class="edge">
<title>59&#45;&gt;54</title>
<path fill="none" stroke="#c0c0c0" stroke-width="2" d="M521,-935.8314C521,-928.131 521,-918.9743 521,-910.4166"/>
<polygon fill="#c0c0c0" stroke="#c0c0c0" stroke-width="2" points="524.5001,-910.4132 521,-900.4133 517.5001,-910.4133 524.5001,-910.4132"/>
</g>
<!-- 60 -->
<g id="node61" class="node">
<title>60</title>
<path fill="none" stroke="#56a9d8" stroke-width="2" stroke-dasharray="5,2" d="M298,-972C298,-972 12,-972 12,-972 6,-972 0,-966 0,-960 0,-960 0,-948 0,-948 0,-942 6,-936 12,-936 12,-936 298,-936 298,-936 304,-936 310,-942 310,-948 310,-948 310,-960 310,-960 310,-966 304,-972 298,-972"/>
<text text-anchor="middle" x="155" y="-957" font-family="sans" font-size="10.00" fill="#000000">pull_lane_fastq_from_nisc_or_sra</text>
<text text-anchor="middle" x="155" y="-946" font-family="sans" font-size="10.00" fill="#000000">lane_files: HN7NJBBXX_16871601_S3_L001_R2_001.fastq.gz</text>
</g>
<!-- 60&#45;&gt;54 -->
<g id="edge104" class="edge">
<title>60&#45;&gt;54</title>
<path fill="none" stroke="#c0c0c0" stroke-width="2" d="M246.8848,-935.9243C299.4118,-925.5911 365.3849,-912.6128 419.4452,-901.978"/>
<polygon fill="#c0c0c0" stroke="#c0c0c0" stroke-width="2" points="420.2585,-905.3852 429.3949,-900.0207 418.9073,-898.5168 420.2585,-905.3852"/>
</g>
<!-- 61 -->
<g id="node62" class="node">
<title>61</title>
<path fill="none" stroke="#68d856" stroke-width="2" stroke-dasharray="5,2" d="M1791,-1044C1791,-1044 1745,-1044 1745,-1044 1739,-1044 1733,-1038 1733,-1032 1733,-1032 1733,-1020 1733,-1020 1733,-1014 1739,-1008 1745,-1008 1745,-1008 1791,-1008 1791,-1008 1797,-1008 1803,-1014 1803,-1020 1803,-1020 1803,-1032 1803,-1032 1803,-1038 1797,-1044 1791,-1044"/>
<text text-anchor="middle" x="1768" y="-1023.5" font-family="sans" font-size="10.00" fill="#000000">build_hg19</text>
</g>
<!-- 61&#45;&gt;54 -->
<g id="edge105" class="edge">
<title>61&#45;&gt;54</title>
<path fill="none" stroke="#c0c0c0" stroke-width="2" d="M1732.7295,-1025.32C1516.7821,-1021.0755 381.6097,-997.5695 357,-972 327.0611,-940.8934 372.4357,-917.8246 422.9807,-902.8336"/>
<polygon fill="#c0c0c0" stroke="#c0c0c0" stroke-width="2" points="424.1411,-906.1423 432.799,-900.0358 422.2227,-899.4103 424.1411,-906.1423"/>
</g>
<!-- 61&#45;&gt;55 -->
<g id="edge109" class="edge">
<title>61&#45;&gt;55</title>
<path fill="none" stroke="#c0c0c0" stroke-width="2" d="M1803.1931,-1024.8114C1949.1067,-1019.7163 2500.083,-998.7577 2525,-972 2554.2143,-940.6275 2509.7049,-917.6805 2459.729,-902.8107"/>
<polygon fill="#c0c0c0" stroke="#c0c0c0" stroke-width="2" points="2460.5932,-899.4177 2450.0165,-900.0362 2458.6705,-906.1484 2460.5932,-899.4177"/>
</g>
<!-- 61&#45;&gt;56 -->
<g id="edge113" class="edge">
<title>61&#45;&gt;56</title>
<path fill="none" stroke="#c0c0c0" stroke-width="2" d="M1732.7652,-1025.5256C1554.4448,-1022.9569 758.5358,-1009.4195 723,-972 711.9821,-960.398 712.3213,-947.9149 723,-936 746.7792,-909.4681 946.2448,-894.6493 1083.7796,-887.5026"/>
<polygon fill="#c0c0c0" stroke="#c0c0c0" stroke-width="2" points="1084.1769,-890.9869 1093.985,-886.9804 1083.8192,-883.9961 1084.1769,-890.9869"/>
</g>
<!-- 61&#45;&gt;57 -->
<g id="edge117" class="edge">
<title>61&#45;&gt;57</title>
<path fill="none" stroke="#c0c0c0" stroke-width="2" d="M1758.7348,-1007.8001C1750.638,-989.4258 1741.2881,-960.3594 1749,-936 1752.0815,-926.2664 1757.6183,-916.7695 1763.5289,-908.5228"/>
<polygon fill="#c0c0c0" stroke="#c0c0c0" stroke-width="2" points="1766.431,-910.49 1769.7365,-900.4239 1760.8752,-906.2316 1766.431,-910.49"/>
</g>
<!-- 61&#45;&gt;58 -->
<g id="edge121" class="edge">
<title>61&#45;&gt;58</title>
<path fill="none" stroke="#c0c0c0" stroke-width="2" d="M1803.0257,-1025.6122C2050.235,-1022.7946 3523.3227,-1004.649 3555,-972 3566.1415,-960.5167 3565.6865,-947.9079 3555,-936 3530.9522,-909.2036 3329.6162,-894.4785 3190.4299,-887.4206"/>
<polygon fill="#c0c0c0" stroke="#c0c0c0" stroke-width="2" points="3190.2631,-883.908 3180.101,-886.9051 3189.9141,-890.8993 3190.2631,-883.908"/>
</g>
<!-- 62 -->
<g id="node63" class="node">
<title>62</title>
<path fill="none" stroke="#56d89a" stroke-width="2" stroke-dasharray="5,2" d="M1844,-972C1844,-972 1770,-972 1770,-972 1764,-972 1758,-966 1758,-960 1758,-960 1758,-948 1758,-948 1758,-942 1764,-936 1770,-936 1770,-936 1844,-936 1844,-936 1850,-936 1856,-942 1856,-948 1856,-948 1856,-960 1856,-960 1856,-966 1850,-972 1844,-972"/>
<text text-anchor="middle" x="1807" y="-951.5" font-family="sans" font-size="10.00" fill="#000000">build_bwa_index</text>
</g>
<!-- 61&#45;&gt;62 -->
<g id="edge123" class="edge">
<title>61&#45;&gt;62</title>
<path fill="none" stroke="#c0c0c0" stroke-width="2" d="M1777.8413,-1007.8314C1782.1957,-999.7925 1787.4098,-990.1666 1792.2169,-981.2918"/>
<polygon fill="#c0c0c0" stroke="#c0c0c0" stroke-width="2" points="1795.3408,-982.8732 1797.0261,-972.4133 1789.1857,-979.5392 1795.3408,-982.8732"/>
</g>
<!-- 62&#45;&gt;54 -->
<g id="edge106" class="edge">
<title>62&#45;&gt;54</title>
<path fill="none" stroke="#c0c0c0" stroke-width="2" d="M1757.8704,-943.4197C1742.8897,-940.5638 1726.3284,-937.776 1711,-936 1509.4402,-912.6469 917.7045,-893.3675 652.3654,-885.6376"/>
<polygon fill="#c0c0c0" stroke="#c0c0c0" stroke-width="2" points="652.3906,-882.1369 642.2932,-885.3452 652.1874,-889.134 652.3906,-882.1369"/>
</g>
<!-- 62&#45;&gt;55 -->
<g id="edge110" class="edge">
<title>62&#45;&gt;55</title>
<path fill="none" stroke="#c0c0c0" stroke-width="2" d="M1856.1919,-938.0268C1859.1575,-937.2841 1862.1095,-936.6 1865,-936 1987.2762,-910.6168 2129.142,-896.697 2229.7501,-889.3794"/>
<polygon fill="#c0c0c0" stroke="#c0c0c0" stroke-width="2" points="2230.2426,-892.8533 2239.9674,-888.6487 2229.7431,-885.8711 2230.2426,-892.8533"/>
</g>
<!-- 62&#45;&gt;56 -->
<g id="edge114" class="edge">
<title>62&#45;&gt;56</title>
<path fill="none" stroke="#c0c0c0" stroke-width="2" d="M1757.7911,-944.0212C1742.8076,-941.1859 1726.2648,-938.2586 1711,-936 1587.7726,-917.7671 1446.4682,-902.9781 1346.2844,-893.5177"/>
<polygon fill="#c0c0c0" stroke="#c0c0c0" stroke-width="2" points="1346.3939,-890.0126 1336.1103,-892.5619 1345.7391,-896.982 1346.3939,-890.0126"/>
</g>
<!-- 62&#45;&gt;57 -->
<g id="edge118" class="edge">
<title>62&#45;&gt;57</title>
<path fill="none" stroke="#c0c0c0" stroke-width="2" d="M1801.9532,-935.8314C1799.7906,-928.0463 1797.2147,-918.7729 1794.8152,-910.1347"/>
<polygon fill="#c0c0c0" stroke="#c0c0c0" stroke-width="2" points="1798.1636,-909.1117 1792.1148,-900.4133 1791.419,-910.9852 1798.1636,-909.1117"/>
</g>
<!-- 62&#45;&gt;58 -->
<g id="edge122" class="edge">
<title>62&#45;&gt;58</title>
<path fill="none" stroke="#c0c0c0" stroke-width="2" d="M1856.1503,-937.8088C1859.1263,-937.121 1862.092,-936.5084 1865,-936 1966.8117,-918.1987 2634.3054,-895.3345 2923.624,-886.1197"/>
<polygon fill="#c0c0c0" stroke="#c0c0c0" stroke-width="2" points="2923.8712,-889.6137 2933.7549,-885.7977 2923.6487,-882.6173 2923.8712,-889.6137"/>
</g>
<!-- 63 -->
<g id="node64" class="node">
<title>63</title>
<path fill="none" stroke="#56a9d8" stroke-width="2" stroke-dasharray="5,2" d="M2504,-972C2504,-972 2218,-972 2218,-972 2212,-972 2206,-966 2206,-960 2206,-960 2206,-948 2206,-948 2206,-942 2212,-936 2218,-936 2218,-936 2504,-936 2504,-936 2510,-936 2516,-942 2516,-948 2516,-948 2516,-960 2516,-960 2516,-966 2510,-972 2504,-972"/>
<text text-anchor="middle" x="2361" y="-957" font-family="sans" font-size="10.00" fill="#000000">pull_lane_fastq_from_nisc_or_sra</text>
<text text-anchor="middle" x="2361" y="-946" font-family="sans" font-size="10.00" fill="#000000">lane_files: HN7NJBBXX_16871585_S2_L001_R1_001.fastq.gz</text>
</g>
<!-- 63&#45;&gt;55 -->
<g id="edge107" class="edge">
<title>63&#45;&gt;55</title>
<path fill="none" stroke="#c0c0c0" stroke-width="2" d="M2361,-935.8314C2361,-928.131 2361,-918.9743 2361,-910.4166"/>
<polygon fill="#c0c0c0" stroke="#c0c0c0" stroke-width="2" points="2364.5001,-910.4132 2361,-900.4133 2357.5001,-910.4133 2364.5001,-910.4132"/>
</g>
<!-- 64 -->
<g id="node65" class="node">
<title>64</title>
<path fill="none" stroke="#56a9d8" stroke-width="2" stroke-dasharray="5,2" d="M2870,-972C2870,-972 2584,-972 2584,-972 2578,-972 2572,-966 2572,-960 2572,-960 2572,-948 2572,-948 2572,-942 2578,-936 2584,-936 2584,-936 2870,-936 2870,-936 2876,-936 2882,-942 2882,-948 2882,-948 2882,-960 2882,-960 2882,-966 2876,-972 2870,-972"/>
<text text-anchor="middle" x="2727" y="-957" font-family="sans" font-size="10.00" fill="#000000">pull_lane_fastq_from_nisc_or_sra</text>
<text text-anchor="middle" x="2727" y="-946" font-family="sans" font-size="10.00" fill="#000000">lane_files: HN7NJBBXX_16871585_S2_L001_R2_001.fastq.gz</text>
</g>
<!-- 64&#45;&gt;55 -->
<g id="edge108" class="edge">
<title>64&#45;&gt;55</title>
<path fill="none" stroke="#c0c0c0" stroke-width="2" d="M2635.1152,-935.9243C2582.5882,-925.5911 2516.6151,-912.6128 2462.5548,-901.978"/>
<polygon fill="#c0c0c0" stroke="#c0c0c0" stroke-width="2" points="2463.0927,-898.5168 2452.6051,-900.0207 2461.7415,-905.3852 2463.0927,-898.5168"/>
</g>
<!-- 65 -->
<g id="node66" class="node">
<title>65</title>
<path fill="none" stroke="#56a9d8" stroke-width="2" stroke-dasharray="5,2" d="M1030,-972C1030,-972 744,-972 744,-972 738,-972 732,-966 732,-960 732,-960 732,-948 732,-948 732,-942 738,-936 744,-936 744,-936 1030,-936 1030,-936 1036,-936 1042,-942 1042,-948 1042,-948 1042,-960 1042,-960 1042,-966 1036,-972 1030,-972"/>
<text text-anchor="middle" x="887" y="-957" font-family="sans" font-size="10.00" fill="#000000">pull_lane_fastq_from_nisc_or_sra</text>
<text text-anchor="middle" x="887" y="-946" font-family="sans" font-size="10.00" fill="#000000">lane_files: HN7NJBBXX_16871585_S2_L002_R1_001.fastq.gz</text>
</g>
<!-- 65&#45;&gt;56 -->
<g id="edge111" class="edge">
<title>65&#45;&gt;56</title>
<path fill="none" stroke="#c0c0c0" stroke-width="2" d="M969.3449,-935.9243C1016.1252,-925.6554 1074.8061,-912.7743 1123.0833,-902.1768"/>
<polygon fill="#c0c0c0" stroke="#c0c0c0" stroke-width="2" points="1123.8888,-905.5834 1132.9058,-900.0207 1122.3879,-898.7462 1123.8888,-905.5834"/>
</g>
<!-- 66 -->
<g id="node67" class="node">
<title>66</title>
<path fill="none" stroke="#56a9d8" stroke-width="2" stroke-dasharray="5,2" d="M1358,-972C1358,-972 1072,-972 1072,-972 1066,-972 1060,-966 1060,-960 1060,-960 1060,-948 1060,-948 1060,-942 1066,-936 1072,-936 1072,-936 1358,-936 1358,-936 1364,-936 1370,-942 1370,-948 1370,-948 1370,-960 1370,-960 1370,-966 1364,-972 1358,-972"/>
<text text-anchor="middle" x="1215" y="-957" font-family="sans" font-size="10.00" fill="#000000">pull_lane_fastq_from_nisc_or_sra</text>
<text text-anchor="middle" x="1215" y="-946" font-family="sans" font-size="10.00" fill="#000000">lane_files: HN7NJBBXX_16871585_S2_L002_R2_001.fastq.gz</text>
</g>
<!-- 66&#45;&gt;56 -->
<g id="edge112" class="edge">
<title>66&#45;&gt;56</title>
<path fill="none" stroke="#c0c0c0" stroke-width="2" d="M1215,-935.8314C1215,-928.131 1215,-918.9743 1215,-910.4166"/>
<polygon fill="#c0c0c0" stroke="#c0c0c0" stroke-width="2" points="1218.5001,-910.4132 1215,-900.4133 1211.5001,-910.4133 1218.5001,-910.4132"/>
</g>
<!-- 67 -->
<g id="node68" class="node">
<title>67</title>
<path fill="none" stroke="#56a9d8" stroke-width="2" stroke-dasharray="5,2" d="M1690,-972C1690,-972 1400,-972 1400,-972 1394,-972 1388,-966 1388,-960 1388,-960 1388,-948 1388,-948 1388,-942 1394,-936 1400,-936 1400,-936 1690,-936 1690,-936 1696,-936 1702,-942 1702,-948 1702,-948 1702,-960 1702,-960 1702,-966 1696,-972 1690,-972"/>
<text text-anchor="middle" x="1545" y="-957" font-family="sans" font-size="10.00" fill="#000000">pull_lane_fastq_from_nisc_or_sra</text>
<text text-anchor="middle" x="1545" y="-946" font-family="sans" font-size="10.00" fill="#000000">lane_files: HN7TMBBXX_16871585_S2_L001_R1_001.fastq.gz</text>
</g>
<!-- 67&#45;&gt;57 -->
<g id="edge115" class="edge">
<title>67&#45;&gt;57</title>
<path fill="none" stroke="#c0c0c0" stroke-width="2" d="M1605.7545,-935.9243C1639.4126,-925.9103 1681.4207,-913.412 1716.5174,-902.97"/>
<polygon fill="#c0c0c0" stroke="#c0c0c0" stroke-width="2" points="1717.6339,-906.2896 1726.2206,-900.0831 1715.6377,-899.5802 1717.6339,-906.2896"/>
</g>
<!-- 68 -->
<g id="node69" class="node">
<title>68</title>
<path fill="none" stroke="#56a9d8" stroke-width="2" stroke-dasharray="5,2" d="M2176,-972C2176,-972 1886,-972 1886,-972 1880,-972 1874,-966 1874,-960 1874,-960 1874,-948 1874,-948 1874,-942 1880,-936 1886,-936 1886,-936 2176,-936 2176,-936 2182,-936 2188,-942 2188,-948 2188,-948 2188,-960 2188,-960 2188,-966 2182,-972 2176,-972"/>
<text text-anchor="middle" x="2031" y="-957" font-family="sans" font-size="10.00" fill="#000000">pull_lane_fastq_from_nisc_or_sra</text>
<text text-anchor="middle" x="2031" y="-946" font-family="sans" font-size="10.00" fill="#000000">lane_files: HN7TMBBXX_16871585_S2_L001_R2_001.fastq.gz</text>
</g>
<!-- 68&#45;&gt;57 -->
<g id="edge116" class="edge">
<title>68&#45;&gt;57</title>
<path fill="none" stroke="#c0c0c0" stroke-width="2" d="M1969.7434,-935.9243C1935.8071,-925.9103 1893.4519,-913.412 1858.0651,-902.97"/>
<polygon fill="#c0c0c0" stroke="#c0c0c0" stroke-width="2" points="1858.8635,-899.5565 1848.2818,-900.0831 1856.8823,-906.2703 1858.8635,-899.5565"/>
</g>
<!-- 69 -->
<g id="node70" class="node">
<title>69</title>
<path fill="none" stroke="#56a9d8" stroke-width="2" stroke-dasharray="5,2" d="M3202,-972C3202,-972 2912,-972 2912,-972 2906,-972 2900,-966 2900,-960 2900,-960 2900,-948 2900,-948 2900,-942 2906,-936 2912,-936 2912,-936 3202,-936 3202,-936 3208,-936 3214,-942 3214,-948 3214,-948 3214,-960 3214,-960 3214,-966 3208,-972 3202,-972"/>
<text text-anchor="middle" x="3057" y="-957" font-family="sans" font-size="10.00" fill="#000000">pull_lane_fastq_from_nisc_or_sra</text>
<text text-anchor="middle" x="3057" y="-946" font-family="sans" font-size="10.00" fill="#000000">lane_files: HN7TMBBXX_16871599_S8_L004_R1_001.fastq.gz</text>
</g>
<!-- 69&#45;&gt;58 -->
<g id="edge119" class="edge">
<title>69&#45;&gt;58</title>
<path fill="none" stroke="#c0c0c0" stroke-width="2" d="M3057,-935.8314C3057,-928.131 3057,-918.9743 3057,-910.4166"/>
<polygon fill="#c0c0c0" stroke="#c0c0c0" stroke-width="2" points="3060.5001,-910.4132 3057,-900.4133 3053.5001,-910.4133 3060.5001,-910.4132"/>
</g>
<!-- 70 -->
<g id="node71" class="node">
<title>70</title>
<path fill="none" stroke="#56a9d8" stroke-width="2" stroke-dasharray="5,2" d="M3534,-972C3534,-972 3244,-972 3244,-972 3238,-972 3232,-966 3232,-960 3232,-960 3232,-948 3232,-948 3232,-942 3238,-936 3244,-936 3244,-936 3534,-936 3534,-936 3540,-936 3546,-942 3546,-948 3546,-948 3546,-960 3546,-960 3546,-966 3540,-972 3534,-972"/>
<text text-anchor="middle" x="3389" y="-957" font-family="sans" font-size="10.00" fill="#000000">pull_lane_fastq_from_nisc_or_sra</text>
<text text-anchor="middle" x="3389" y="-946" font-family="sans" font-size="10.00" fill="#000000">lane_files: HN7TMBBXX_16871599_S8_L004_R2_001.fastq.gz</text>
</g>
<!-- 70&#45;&gt;58 -->
<g id="edge120" class="edge">
<title>70&#45;&gt;58</title>
<path fill="none" stroke="#c0c0c0" stroke-width="2" d="M3305.6509,-935.9243C3258.3001,-925.6554 3198.9035,-912.7743 3150.0377,-902.1768"/>
<polygon fill="#c0c0c0" stroke="#c0c0c0" stroke-width="2" points="3150.61,-898.7197 3140.0954,-900.0207 3149.1264,-905.5607 3150.61,-898.7197"/>
</g>
</g>
</svg>
