<?xml version="1.0" encoding="UTF-8" standalone="no"?>
<!DOCTYPE svg PUBLIC "-//W3C//DTD SVG 1.1//EN"
 "http://www.w3.org/Graphics/SVG/1.1/DTD/svg11.dtd">
<!-- Generated by graphviz version 2.40.1 (20161225.0304)
 -->
<!-- Title: snakemake_dag Pages: 1 -->
<svg width="2301pt" height="1052pt"
 viewBox="0.00 0.00 2301.40 1052.00" xmlns="http://www.w3.org/2000/svg" xmlns:xlink="http://www.w3.org/1999/xlink">
<g id="graph0" class="graph" transform="scale(1 1) rotate(0) translate(4 1048)">
<title>snakemake_dag</title>
<polygon fill="#ffffff" stroke="transparent" points="-4,4 -4,-1048 2297.4025,-1048 2297.4025,4 -4,4"/>
<!-- 0 -->
<g id="node1" class="node">
<title>0</title>
<path fill="none" stroke="#d89c56" stroke-width="2" d="M844.2403,-36C844.2403,-36 814.2403,-36 814.2403,-36 808.2403,-36 802.2403,-30 802.2403,-24 802.2403,-24 802.2403,-12 802.2403,-12 802.2403,-6 808.2403,0 814.2403,0 814.2403,0 844.2403,0 844.2403,0 850.2403,0 856.2403,-6 856.2403,-12 856.2403,-12 856.2403,-24 856.2403,-24 856.2403,-30 850.2403,-36 844.2403,-36"/>
<text text-anchor="middle" x="829.2403" y="-15.5" font-family="sans" font-size="10.00" fill="#000000">all</text>
</g>
<!-- 1 -->
<g id="node2" class="node">
<title>1</title>
<path fill="none" stroke="#56d85b" stroke-width="2" stroke-dasharray="5,2" d="M1045.7403,-108C1045.7403,-108 992.7403,-108 992.7403,-108 986.7403,-108 980.7403,-102 980.7403,-96 980.7403,-96 980.7403,-84 980.7403,-84 980.7403,-78 986.7403,-72 992.7403,-72 992.7403,-72 1045.7403,-72 1045.7403,-72 1051.7403,-72 1057.7403,-78 1057.7403,-84 1057.7403,-84 1057.7403,-96 1057.7403,-96 1057.7403,-102 1051.7403,-108 1045.7403,-108"/>
<text text-anchor="middle" x="1019.2403" y="-87.5" font-family="sans" font-size="10.00" fill="#000000">homer_TFBS</text>
</g>
<!-- 1&#45;&gt;0 -->
<g id="edge1" class="edge">
<title>1&#45;&gt;0</title>
<path fill="none" stroke="#c0c0c0" stroke-width="2" d="M980.5171,-75.1534C977.7167,-74.0848 974.9354,-73.0249 972.2403,-72 936.1843,-58.288 894.9691,-42.7373 866.0788,-31.857"/>
<polygon fill="#c0c0c0" stroke="#c0c0c0" stroke-width="2" points="866.9945,-28.462 856.4026,-28.2139 864.528,-35.0131 866.9945,-28.462"/>
</g>
<!-- 2 -->
<g id="node3" class="node">
<title>2</title>
<path fill="none" stroke="#56d85b" stroke-width="2" stroke-dasharray="5,2" d="M950.7403,-108C950.7403,-108 897.7403,-108 897.7403,-108 891.7403,-108 885.7403,-102 885.7403,-96 885.7403,-96 885.7403,-84 885.7403,-84 885.7403,-78 891.7403,-72 897.7403,-72 897.7403,-72 950.7403,-72 950.7403,-72 956.7403,-72 962.7403,-78 962.7403,-84 962.7403,-84 962.7403,-96 962.7403,-96 962.7403,-102 956.7403,-108 950.7403,-108"/>
<text text-anchor="middle" x="924.2403" y="-87.5" font-family="sans" font-size="10.00" fill="#000000">homer_TFBS</text>
</g>
<!-- 2&#45;&gt;0 -->
<g id="edge2" class="edge">
<title>2&#45;&gt;0</title>
<path fill="none" stroke="#c0c0c0" stroke-width="2" d="M900.2678,-71.8314C888.4542,-62.8779 874.0431,-51.9558 861.2968,-42.2955"/>
<polygon fill="#c0c0c0" stroke="#c0c0c0" stroke-width="2" points="863.2889,-39.4137 853.2051,-36.1628 859.0608,-44.9925 863.2889,-39.4137"/>
</g>
<!-- 3 -->
<g id="node4" class="node">
<title>3</title>
<path fill="none" stroke="#56d85b" stroke-width="2" stroke-dasharray="5,2" d="M475.7403,-108C475.7403,-108 422.7403,-108 422.7403,-108 416.7403,-108 410.7403,-102 410.7403,-96 410.7403,-96 410.7403,-84 410.7403,-84 410.7403,-78 416.7403,-72 422.7403,-72 422.7403,-72 475.7403,-72 475.7403,-72 481.7403,-72 487.7403,-78 487.7403,-84 487.7403,-84 487.7403,-96 487.7403,-96 487.7403,-102 481.7403,-108 475.7403,-108"/>
<text text-anchor="middle" x="449.2403" y="-87.5" font-family="sans" font-size="10.00" fill="#000000">homer_TFBS</text>
</g>
<!-- 3&#45;&gt;0 -->
<g id="edge3" class="edge">
<title>3&#45;&gt;0</title>
<path fill="none" stroke="#c0c0c0" stroke-width="2" d="M487.7609,-74.5283C490.6089,-73.6063 493.4562,-72.7503 496.2403,-72 601.5513,-43.6176 729.8627,-27.9529 791.9829,-21.5224"/>
<polygon fill="#c0c0c0" stroke="#c0c0c0" stroke-width="2" points="792.4864,-24.9894 802.0823,-20.4984 791.7802,-18.0251 792.4864,-24.9894"/>
</g>
<!-- 4 -->
<g id="node5" class="node">
<title>4</title>
<path fill="none" stroke="#56d85b" stroke-width="2" stroke-dasharray="5,2" d="M760.7403,-108C760.7403,-108 707.7403,-108 707.7403,-108 701.7403,-108 695.7403,-102 695.7403,-96 695.7403,-96 695.7403,-84 695.7403,-84 695.7403,-78 701.7403,-72 707.7403,-72 707.7403,-72 760.7403,-72 760.7403,-72 766.7403,-72 772.7403,-78 772.7403,-84 772.7403,-84 772.7403,-96 772.7403,-96 772.7403,-102 766.7403,-108 760.7403,-108"/>
<text text-anchor="middle" x="734.2403" y="-87.5" font-family="sans" font-size="10.00" fill="#000000">homer_TFBS</text>
</g>
<!-- 4&#45;&gt;0 -->
<g id="edge4" class="edge">
<title>4&#45;&gt;0</title>
<path fill="none" stroke="#c0c0c0" stroke-width="2" d="M758.2128,-71.8314C770.0263,-62.8779 784.4374,-51.9558 797.1837,-42.2955"/>
<polygon fill="#c0c0c0" stroke="#c0c0c0" stroke-width="2" points="799.4198,-44.9925 805.2754,-36.1628 795.1916,-39.4137 799.4198,-44.9925"/>
</g>
<!-- 5 -->
<g id="node6" class="node">
<title>5</title>
<path fill="none" stroke="#56d85b" stroke-width="2" stroke-dasharray="5,2" d="M380.7403,-108C380.7403,-108 327.7403,-108 327.7403,-108 321.7403,-108 315.7403,-102 315.7403,-96 315.7403,-96 315.7403,-84 315.7403,-84 315.7403,-78 321.7403,-72 327.7403,-72 327.7403,-72 380.7403,-72 380.7403,-72 386.7403,-72 392.7403,-78 392.7403,-84 392.7403,-84 392.7403,-96 392.7403,-96 392.7403,-102 386.7403,-108 380.7403,-108"/>
<text text-anchor="middle" x="354.2403" y="-87.5" font-family="sans" font-size="10.00" fill="#000000">homer_TFBS</text>
</g>
<!-- 5&#45;&gt;0 -->
<g id="edge5" class="edge">
<title>5&#45;&gt;0</title>
<path fill="none" stroke="#c0c0c0" stroke-width="2" d="M392.9913,-74.3351C395.7597,-73.4711 398.5281,-72.6799 401.2403,-72 542.4927,-36.5897 716.0782,-23.818 791.3968,-19.7232"/>
<polygon fill="#c0c0c0" stroke="#c0c0c0" stroke-width="2" points="791.9772,-23.1977 801.7808,-19.1803 791.6117,-16.2073 791.9772,-23.1977"/>
</g>
<!-- 6 -->
<g id="node7" class="node">
<title>6</title>
<path fill="none" stroke="#56d85b" stroke-width="2" stroke-dasharray="5,2" d="M570.7403,-108C570.7403,-108 517.7403,-108 517.7403,-108 511.7403,-108 505.7403,-102 505.7403,-96 505.7403,-96 505.7403,-84 505.7403,-84 505.7403,-78 511.7403,-72 517.7403,-72 517.7403,-72 570.7403,-72 570.7403,-72 576.7403,-72 582.7403,-78 582.7403,-84 582.7403,-84 582.7403,-96 582.7403,-96 582.7403,-102 576.7403,-108 570.7403,-108"/>
<text text-anchor="middle" x="544.2403" y="-87.5" font-family="sans" font-size="10.00" fill="#000000">homer_TFBS</text>
</g>
<!-- 6&#45;&gt;0 -->
<g id="edge6" class="edge">
<title>6&#45;&gt;0</title>
<path fill="none" stroke="#c0c0c0" stroke-width="2" d="M582.8172,-74.725C585.652,-73.7569 588.4809,-72.8368 591.2403,-72 661.1654,-50.7956 744.8877,-33.6542 792.0846,-24.7245"/>
<polygon fill="#c0c0c0" stroke="#c0c0c0" stroke-width="2" points="792.9595,-28.1216 802.1447,-22.8411 791.6713,-21.2411 792.9595,-28.1216"/>
</g>
<!-- 7 -->
<g id="node8" class="node">
<title>7</title>
<path fill="none" stroke="#56d85b" stroke-width="2" stroke-dasharray="5,2" d="M665.7403,-108C665.7403,-108 612.7403,-108 612.7403,-108 606.7403,-108 600.7403,-102 600.7403,-96 600.7403,-96 600.7403,-84 600.7403,-84 600.7403,-78 606.7403,-72 612.7403,-72 612.7403,-72 665.7403,-72 665.7403,-72 671.7403,-72 677.7403,-78 677.7403,-84 677.7403,-84 677.7403,-96 677.7403,-96 677.7403,-102 671.7403,-108 665.7403,-108"/>
<text text-anchor="middle" x="639.2403" y="-87.5" font-family="sans" font-size="10.00" fill="#000000">homer_TFBS</text>
</g>
<!-- 7&#45;&gt;0 -->
<g id="edge7" class="edge">
<title>7&#45;&gt;0</title>
<path fill="none" stroke="#c0c0c0" stroke-width="2" d="M677.9635,-75.1534C680.7639,-74.0848 683.5452,-73.0249 686.2403,-72 722.2963,-58.288 763.5114,-42.7373 792.4017,-31.857"/>
<polygon fill="#c0c0c0" stroke="#c0c0c0" stroke-width="2" points="793.9525,-35.0131 802.0779,-28.2139 791.486,-28.462 793.9525,-35.0131"/>
</g>
<!-- 8 -->
<g id="node9" class="node">
<title>8</title>
<path fill="none" stroke="#56d85b" stroke-width="2" stroke-dasharray="5,2" d="M855.7403,-108C855.7403,-108 802.7403,-108 802.7403,-108 796.7403,-108 790.7403,-102 790.7403,-96 790.7403,-96 790.7403,-84 790.7403,-84 790.7403,-78 796.7403,-72 802.7403,-72 802.7403,-72 855.7403,-72 855.7403,-72 861.7403,-72 867.7403,-78 867.7403,-84 867.7403,-84 867.7403,-96 867.7403,-96 867.7403,-102 861.7403,-108 855.7403,-108"/>
<text text-anchor="middle" x="829.2403" y="-87.5" font-family="sans" font-size="10.00" fill="#000000">homer_TFBS</text>
</g>
<!-- 8&#45;&gt;0 -->
<g id="edge8" class="edge">
<title>8&#45;&gt;0</title>
<path fill="none" stroke="#c0c0c0" stroke-width="2" d="M829.2403,-71.8314C829.2403,-64.131 829.2403,-54.9743 829.2403,-46.4166"/>
<polygon fill="#c0c0c0" stroke="#c0c0c0" stroke-width="2" points="832.7404,-46.4132 829.2403,-36.4133 825.7404,-46.4133 832.7404,-46.4132"/>
</g>
<!-- 9 -->
<g id="node10" class="node">
<title>9</title>
<path fill="none" stroke="#b6d856" stroke-width="2" stroke-dasharray="5,2" d="M1601.2403,-540C1601.2403,-540 1519.2403,-540 1519.2403,-540 1513.2403,-540 1507.2403,-534 1507.2403,-528 1507.2403,-528 1507.2403,-516 1507.2403,-516 1507.2403,-510 1513.2403,-504 1519.2403,-504 1519.2403,-504 1601.2403,-504 1601.2403,-504 1607.2403,-504 1613.2403,-510 1613.2403,-516 1613.2403,-516 1613.2403,-528 1613.2403,-528 1613.2403,-534 1607.2403,-540 1601.2403,-540"/>
<text text-anchor="middle" x="1560.2403" y="-519.5" font-family="sans" font-size="10.00" fill="#000000">ucsc_view_bigWig</text>
</g>
<!-- 9&#45;&gt;0 -->
<g id="edge9" class="edge">
<title>9&#45;&gt;0</title>
<path fill="none" stroke="#c0c0c0" stroke-width="2" d="M1569.3595,-503.8786C1581.9817,-477.076 1603.2403,-424.9635 1603.2403,-378 1603.2403,-378 1603.2403,-378 1603.2403,-162 1603.2403,-98.8326 1551.8207,-95.6316 1493.2403,-72 1435.0197,-48.5135 997.9295,-26.0229 866.5066,-19.7331"/>
<polygon fill="#c0c0c0" stroke="#c0c0c0" stroke-width="2" points="866.6704,-16.2371 856.5155,-19.2581 866.3379,-23.2292 866.6704,-16.2371"/>
</g>
<!-- 10 -->
<g id="node11" class="node">
<title>10</title>
<path fill="none" stroke="#b6d856" stroke-width="2" stroke-dasharray="5,2" d="M1406.2403,-540C1406.2403,-540 1324.2403,-540 1324.2403,-540 1318.2403,-540 1312.2403,-534 1312.2403,-528 1312.2403,-528 1312.2403,-516 1312.2403,-516 1312.2403,-510 1318.2403,-504 1324.2403,-504 1324.2403,-504 1406.2403,-504 1406.2403,-504 1412.2403,-504 1418.2403,-510 1418.2403,-516 1418.2403,-516 1418.2403,-528 1418.2403,-528 1418.2403,-534 1412.2403,-540 1406.2403,-540"/>
<text text-anchor="middle" x="1365.2403" y="-519.5" font-family="sans" font-size="10.00" fill="#000000">ucsc_view_bigWig</text>
</g>
<!-- 10&#45;&gt;0 -->
<g id="edge10" class="edge">
<title>10&#45;&gt;0</title>
<path fill="none" stroke="#c0c0c0" stroke-width="2" d="M1418.3115,-508.6283C1477.5625,-490.1371 1565.2403,-450.5221 1565.2403,-378 1565.2403,-378 1565.2403,-378 1565.2403,-162 1565.2403,-85.7729 1491.5534,-96.112 1419.2403,-72 1315.8503,-37.5258 979.3418,-23.1237 866.5073,-19.1856"/>
<polygon fill="#c0c0c0" stroke="#c0c0c0" stroke-width="2" points="866.4151,-15.6805 856.3014,-18.8369 866.176,-22.6764 866.4151,-15.6805"/>
</g>
<!-- 11 -->
<g id="node12" class="node">
<title>11</title>
<path fill="none" stroke="#b6d856" stroke-width="2" stroke-dasharray="5,2" d="M505.2403,-540C505.2403,-540 423.2403,-540 423.2403,-540 417.2403,-540 411.2403,-534 411.2403,-528 411.2403,-528 411.2403,-516 411.2403,-516 411.2403,-510 417.2403,-504 423.2403,-504 423.2403,-504 505.2403,-504 505.2403,-504 511.2403,-504 517.2403,-510 517.2403,-516 517.2403,-516 517.2403,-528 517.2403,-528 517.2403,-534 511.2403,-540 505.2403,-540"/>
<text text-anchor="middle" x="464.2403" y="-519.5" font-family="sans" font-size="10.00" fill="#000000">ucsc_view_bigWig</text>
</g>
<!-- 11&#45;&gt;0 -->
<g id="edge11" class="edge">
<title>11&#45;&gt;0</title>
<path fill="none" stroke="#c0c0c0" stroke-width="2" d="M411.1248,-513.4237C306.1617,-494.9684 82.2403,-447.4575 82.2403,-378 82.2403,-378 82.2403,-378 82.2403,-162 82.2403,-97.3186 -201.7375,-185.7662 306.2403,-72 485.3801,-31.88 705.8307,-21.4695 792.1279,-18.8497"/>
<polygon fill="#c0c0c0" stroke="#c0c0c0" stroke-width="2" points="792.3175,-22.3458 802.2132,-18.561 792.1171,-15.3487 792.3175,-22.3458"/>
</g>
<!-- 12 -->
<g id="node13" class="node">
<title>12</title>
<path fill="none" stroke="#56d88a" stroke-width="2" d="M1499.7403,-684C1499.7403,-684 1434.7403,-684 1434.7403,-684 1428.7403,-684 1422.7403,-678 1422.7403,-672 1422.7403,-672 1422.7403,-660 1422.7403,-660 1422.7403,-654 1428.7403,-648 1434.7403,-648 1434.7403,-648 1499.7403,-648 1499.7403,-648 1505.7403,-648 1511.7403,-654 1511.7403,-660 1511.7403,-660 1511.7403,-672 1511.7403,-672 1511.7403,-678 1505.7403,-684 1499.7403,-684"/>
<text text-anchor="middle" x="1467.2403" y="-663.5" font-family="sans" font-size="10.00" fill="#000000">multiqc_fastqc</text>
</g>
<!-- 12&#45;&gt;0 -->
<g id="edge12" class="edge">
<title>12&#45;&gt;0</title>
<path fill="none" stroke="#c0c0c0" stroke-width="2" d="M1511.7891,-650.6284C1555.6356,-635.4157 1616.3303,-614.0969 1618.2403,-612 1646.0413,-581.4779 1641.2403,-563.2855 1641.2403,-522 1641.2403,-522 1641.2403,-522 1641.2403,-162 1641.2403,-104.4809 1600.7136,-95.5582 1548.2403,-72 1485.7745,-43.9557 1004.8642,-24.4031 866.4179,-19.3128"/>
<polygon fill="#c0c0c0" stroke="#c0c0c0" stroke-width="2" points="866.429,-15.811 856.3082,-18.9446 866.1741,-22.8064 866.429,-15.811"/>
</g>
<!-- 13 -->
<g id="node14" class="node">
<title>13</title>
<path fill="none" stroke="#5663d8" stroke-width="2" stroke-dasharray="5,2" d="M1376.7403,-252C1376.7403,-252 1251.7403,-252 1251.7403,-252 1245.7403,-252 1239.7403,-246 1239.7403,-240 1239.7403,-240 1239.7403,-228 1239.7403,-228 1239.7403,-222 1245.7403,-216 1251.7403,-216 1251.7403,-216 1376.7403,-216 1376.7403,-216 1382.7403,-216 1388.7403,-222 1388.7403,-228 1388.7403,-228 1388.7403,-240 1388.7403,-240 1388.7403,-246 1382.7403,-252 1376.7403,-252"/>
<text text-anchor="middle" x="1314.2403" y="-231.5" font-family="sans" font-size="10.00" fill="#000000">ucsc_view_common_peaks</text>
</g>
<!-- 13&#45;&gt;0 -->
<g id="edge13" class="edge">
<title>13&#45;&gt;0</title>
<path fill="none" stroke="#c0c0c0" stroke-width="2" d="M1389.0555,-225.2146C1458.7937,-214.0045 1546.6962,-190.2486 1508.2403,-144 1425.2002,-44.1328 996.3734,-23.0563 866.5344,-18.9369"/>
<polygon fill="#c0c0c0" stroke="#c0c0c0" stroke-width="2" points="866.4084,-15.4316 856.3074,-18.6283 866.1972,-22.4284 866.4084,-15.4316"/>
</g>
<!-- 14 -->
<g id="node15" class="node">
<title>14</title>
<path fill="none" stroke="#8fd856" stroke-width="2" stroke-dasharray="5,2" d="M1486.7403,-180C1486.7403,-180 1393.7403,-180 1393.7403,-180 1387.7403,-180 1381.7403,-174 1381.7403,-168 1381.7403,-168 1381.7403,-156 1381.7403,-156 1381.7403,-150 1387.7403,-144 1393.7403,-144 1393.7403,-144 1486.7403,-144 1486.7403,-144 1492.7403,-144 1498.7403,-150 1498.7403,-156 1498.7403,-156 1498.7403,-168 1498.7403,-168 1498.7403,-174 1492.7403,-180 1486.7403,-180"/>
<text text-anchor="middle" x="1440.2403" y="-165" font-family="sans" font-size="10.00" fill="#000000">TF_gene_punctate_R</text>
<text text-anchor="middle" x="1440.2403" y="-154" font-family="sans" font-size="10.00" fill="#000000">num: 1</text>
</g>
<!-- 14&#45;&gt;1 -->
<g id="edge14" class="edge">
<title>14&#45;&gt;1</title>
<path fill="none" stroke="#c0c0c0" stroke-width="2" d="M1381.5031,-145.8241C1378.7162,-145.1813 1375.9514,-144.5691 1373.2403,-144 1265.1638,-121.3124 1136.6334,-104.1106 1068.0683,-95.7049"/>
<polygon fill="#c0c0c0" stroke="#c0c0c0" stroke-width="2" points="1068.3433,-92.2126 1057.994,-94.4803 1067.4986,-99.1615 1068.3433,-92.2126"/>
</g>
<!-- 15 -->
<g id="node16" class="node">
<title>15</title>
<path fill="none" stroke="#c6d856" stroke-width="2" stroke-dasharray="5,2" d="M676.2403,-180C676.2403,-180 548.2403,-180 548.2403,-180 542.2403,-180 536.2403,-174 536.2403,-168 536.2403,-168 536.2403,-156 536.2403,-156 536.2403,-150 542.2403,-144 548.2403,-144 548.2403,-144 676.2403,-144 676.2403,-144 682.2403,-144 688.2403,-150 688.2403,-156 688.2403,-156 688.2403,-168 688.2403,-168 688.2403,-174 682.2403,-180 676.2403,-180"/>
<text text-anchor="middle" x="612.2403" y="-159.5" font-family="sans" font-size="10.00" fill="#000000">closest_TSS_each_cell_type</text>
</g>
<!-- 15&#45;&gt;1 -->
<g id="edge15" class="edge">
<title>15&#45;&gt;1</title>
<path fill="none" stroke="#c0c0c0" stroke-width="2" d="M688.6415,-145.5253C691.5415,-144.9939 694.4153,-144.4833 697.2403,-144 815.5368,-123.7636 850.8912,-137.4843 970.5733,-108.1314"/>
<polygon fill="#c0c0c0" stroke="#c0c0c0" stroke-width="2" points="971.6347,-111.4738 980.4856,-105.6504 969.935,-104.6833 971.6347,-111.4738"/>
</g>
<!-- 15&#45;&gt;2 -->
<g id="edge18" class="edge">
<title>15&#45;&gt;2</title>
<path fill="none" stroke="#c0c0c0" stroke-width="2" d="M688.6874,-145.7687C691.5745,-145.1692 694.4331,-144.5779 697.2403,-144 774.0273,-128.1914 797.0831,-130.4555 875.8039,-108.1951"/>
<polygon fill="#c0c0c0" stroke="#c0c0c0" stroke-width="2" points="877.0423,-111.4809 885.6873,-105.3559 875.1096,-104.753 877.0423,-111.4809"/>
</g>
<!-- 15&#45;&gt;3 -->
<g id="edge21" class="edge">
<title>15&#45;&gt;3</title>
<path fill="none" stroke="#c0c0c0" stroke-width="2" d="M571.1085,-143.8314C548.6451,-133.9089 520.7078,-121.5685 497.251,-111.2072"/>
<polygon fill="#c0c0c0" stroke="#c0c0c0" stroke-width="2" points="498.3983,-107.8878 487.8367,-107.0487 495.5699,-114.2909 498.3983,-107.8878"/>
</g>
<!-- 15&#45;&gt;4 -->
<g id="edge24" class="edge">
<title>15&#45;&gt;4</title>
<path fill="none" stroke="#c0c0c0" stroke-width="2" d="M643.026,-143.8314C658.6306,-134.6221 677.7643,-123.3301 694.4706,-113.4706"/>
<polygon fill="#c0c0c0" stroke="#c0c0c0" stroke-width="2" points="696.6312,-116.2596 703.4644,-108.1628 693.0734,-110.2312 696.6312,-116.2596"/>
</g>
<!-- 15&#45;&gt;5 -->
<g id="edge27" class="edge">
<title>15&#45;&gt;5</title>
<path fill="none" stroke="#c0c0c0" stroke-width="2" d="M535.9546,-144.7223C498.1124,-135.6237 451.6167,-123.657 402.6652,-108.3048"/>
<polygon fill="#c0c0c0" stroke="#c0c0c0" stroke-width="2" points="403.4342,-104.8769 392.844,-105.189 401.3174,-111.5492 403.4342,-104.8769"/>
</g>
<!-- 15&#45;&gt;6 -->
<g id="edge30" class="edge">
<title>15&#45;&gt;6</title>
<path fill="none" stroke="#c0c0c0" stroke-width="2" d="M595.081,-143.8314C587.0891,-135.3694 577.4365,-125.1489 568.6986,-115.8971"/>
<polygon fill="#c0c0c0" stroke="#c0c0c0" stroke-width="2" points="571.0414,-113.2802 561.6306,-108.4133 565.9523,-118.0866 571.0414,-113.2802"/>
</g>
<!-- 15&#45;&gt;7 -->
<g id="edge33" class="edge">
<title>15&#45;&gt;7</title>
<path fill="none" stroke="#c0c0c0" stroke-width="2" d="M619.0535,-143.8314C622.0046,-135.9617 625.5261,-126.5712 628.7953,-117.8533"/>
<polygon fill="#c0c0c0" stroke="#c0c0c0" stroke-width="2" points="632.1012,-119.0055 632.3353,-108.4133 625.5468,-116.5476 632.1012,-119.0055"/>
</g>
<!-- 15&#45;&gt;8 -->
<g id="edge36" class="edge">
<title>15&#45;&gt;8</title>
<path fill="none" stroke="#c0c0c0" stroke-width="2" d="M671.1361,-143.967C701.4298,-134.5085 739.1224,-122.46 780.9641,-108.0218"/>
<polygon fill="#c0c0c0" stroke="#c0c0c0" stroke-width="2" points="782.2263,-111.2886 790.5273,-104.705 779.9325,-104.6751 782.2263,-111.2886"/>
</g>
<!-- 16 -->
<g id="node17" class="node">
<title>16</title>
<path fill="none" stroke="#56d87b" stroke-width="2" stroke-dasharray="5,2" d="M505.7403,-180C505.7403,-180 392.7403,-180 392.7403,-180 386.7403,-180 380.7403,-174 380.7403,-168 380.7403,-168 380.7403,-156 380.7403,-156 380.7403,-150 386.7403,-144 392.7403,-144 392.7403,-144 505.7403,-144 505.7403,-144 511.7403,-144 517.7403,-150 517.7403,-156 517.7403,-156 517.7403,-168 517.7403,-168 517.7403,-174 511.7403,-180 505.7403,-180"/>
<text text-anchor="middle" x="449.2403" y="-165" font-family="sans" font-size="10.00" fill="#000000">union_summits_by_type</text>
<text text-anchor="middle" x="449.2403" y="-154" font-family="sans" font-size="10.00" fill="#000000">cell_type: GFP_ATAC&#45;Seq</text>
</g>
<!-- 16&#45;&gt;1 -->
<g id="edge16" class="edge">
<title>16&#45;&gt;1</title>
<path fill="none" stroke="#c0c0c0" stroke-width="2" d="M518.0379,-145.5497C521.1407,-144.989 524.2189,-144.4683 527.2403,-144 720.0679,-114.1147 776.8612,-150.6749 970.5926,-108.0328"/>
<polygon fill="#c0c0c0" stroke="#c0c0c0" stroke-width="2" points="971.5315,-111.4093 980.5226,-105.8048 969.9989,-104.5791 971.5315,-111.4093"/>
</g>
<!-- 16&#45;&gt;2 -->
<g id="edge19" class="edge">
<title>16&#45;&gt;2</title>
<path fill="none" stroke="#c0c0c0" stroke-width="2" d="M518.0511,-145.6321C521.1504,-145.0491 524.2242,-144.5011 527.2403,-144 678.1875,-118.9198 723.2045,-143.1881 875.3294,-108.1327"/>
<polygon fill="#c0c0c0" stroke="#c0c0c0" stroke-width="2" points="876.575,-111.4352 885.5068,-105.7367 874.9708,-104.6215 876.575,-111.4352"/>
</g>
<!-- 16&#45;&gt;3 -->
<g id="edge22" class="edge">
<title>16&#45;&gt;3</title>
<path fill="none" stroke="#c0c0c0" stroke-width="2" d="M449.2403,-143.8314C449.2403,-136.131 449.2403,-126.9743 449.2403,-118.4166"/>
<polygon fill="#c0c0c0" stroke="#c0c0c0" stroke-width="2" points="452.7404,-118.4132 449.2403,-108.4133 445.7404,-118.4133 452.7404,-118.4132"/>
</g>
<!-- 16&#45;&gt;4 -->
<g id="edge25" class="edge">
<title>16&#45;&gt;4</title>
<path fill="none" stroke="#c0c0c0" stroke-width="2" d="M518.1402,-146.0837C521.2153,-145.3785 524.2597,-144.6813 527.2403,-144 594.8387,-128.5476 615.1012,-128.7214 685.7871,-107.9283"/>
<polygon fill="#c0c0c0" stroke="#c0c0c0" stroke-width="2" points="687.0379,-111.2077 695.6218,-104.9975 685.0387,-104.4993 687.0379,-111.2077"/>
</g>
<!-- 16&#45;&gt;5 -->
<g id="edge28" class="edge">
<title>16&#45;&gt;5</title>
<path fill="none" stroke="#c0c0c0" stroke-width="2" d="M425.2678,-143.8314C413.4542,-134.8779 399.0431,-123.9558 386.2968,-114.2955"/>
<polygon fill="#c0c0c0" stroke="#c0c0c0" stroke-width="2" points="388.2889,-111.4137 378.2051,-108.1628 384.0608,-116.9925 388.2889,-111.4137"/>
</g>
<!-- 16&#45;&gt;6 -->
<g id="edge31" class="edge">
<title>16&#45;&gt;6</title>
<path fill="none" stroke="#c0c0c0" stroke-width="2" d="M473.2128,-143.8314C485.0263,-134.8779 499.4374,-123.9558 512.1837,-114.2955"/>
<polygon fill="#c0c0c0" stroke="#c0c0c0" stroke-width="2" points="514.4198,-116.9925 520.2754,-108.1628 510.1916,-111.4137 514.4198,-116.9925"/>
</g>
<!-- 16&#45;&gt;7 -->
<g id="edge34" class="edge">
<title>16&#45;&gt;7</title>
<path fill="none" stroke="#c0c0c0" stroke-width="2" d="M497.1853,-143.8314C525.9269,-132.9398 562.3561,-119.135 591.1276,-108.2322"/>
<polygon fill="#c0c0c0" stroke="#c0c0c0" stroke-width="2" points="592.4583,-111.4709 600.5691,-104.6543 589.9777,-104.9251 592.4583,-111.4709"/>
</g>
<!-- 16&#45;&gt;8 -->
<g id="edge37" class="edge">
<title>16&#45;&gt;8</title>
<path fill="none" stroke="#c0c0c0" stroke-width="2" d="M518.0766,-145.7766C521.1689,-145.1545 524.2343,-144.5588 527.2403,-144 636.1624,-123.752 668.9169,-135.4738 780.7185,-107.7994"/>
<polygon fill="#c0c0c0" stroke="#c0c0c0" stroke-width="2" points="781.8615,-111.1207 790.6994,-105.2775 780.1466,-104.334 781.8615,-111.1207"/>
</g>
<!-- 17 -->
<g id="node18" class="node">
<title>17</title>
<path fill="none" stroke="#8fd856" stroke-width="2" stroke-dasharray="5,2" d="M1351.7403,-180C1351.7403,-180 1258.7403,-180 1258.7403,-180 1252.7403,-180 1246.7403,-174 1246.7403,-168 1246.7403,-168 1246.7403,-156 1246.7403,-156 1246.7403,-150 1252.7403,-144 1258.7403,-144 1258.7403,-144 1351.7403,-144 1351.7403,-144 1357.7403,-144 1363.7403,-150 1363.7403,-156 1363.7403,-156 1363.7403,-168 1363.7403,-168 1363.7403,-174 1357.7403,-180 1351.7403,-180"/>
<text text-anchor="middle" x="1305.2403" y="-165" font-family="sans" font-size="10.00" fill="#000000">TF_gene_punctate_R</text>
<text text-anchor="middle" x="1305.2403" y="-154" font-family="sans" font-size="10.00" fill="#000000">num: 2</text>
</g>
<!-- 17&#45;&gt;2 -->
<g id="edge17" class="edge">
<title>17&#45;&gt;2</title>
<path fill="none" stroke="#c0c0c0" stroke-width="2" d="M1246.5148,-145.7673C1243.7247,-145.1397 1240.9561,-144.5463 1238.2403,-144 1124.3665,-121.0956 1089.7469,-136.2772 972.4873,-107.7173"/>
<polygon fill="#c0c0c0" stroke="#c0c0c0" stroke-width="2" points="973.3251,-104.3191 962.7757,-105.2991 971.6337,-111.1117 973.3251,-104.3191"/>
</g>
<!-- 18 -->
<g id="node19" class="node">
<title>18</title>
<path fill="none" stroke="#8fd856" stroke-width="2" stroke-dasharray="5,2" d="M350.7403,-180C350.7403,-180 257.7403,-180 257.7403,-180 251.7403,-180 245.7403,-174 245.7403,-168 245.7403,-168 245.7403,-156 245.7403,-156 245.7403,-150 251.7403,-144 257.7403,-144 257.7403,-144 350.7403,-144 350.7403,-144 356.7403,-144 362.7403,-150 362.7403,-156 362.7403,-156 362.7403,-168 362.7403,-168 362.7403,-174 356.7403,-180 350.7403,-180"/>
<text text-anchor="middle" x="304.2403" y="-165" font-family="sans" font-size="10.00" fill="#000000">TF_gene_punctate_R</text>
<text text-anchor="middle" x="304.2403" y="-154" font-family="sans" font-size="10.00" fill="#000000">num: 3</text>
</g>
<!-- 18&#45;&gt;3 -->
<g id="edge20" class="edge">
<title>18&#45;&gt;3</title>
<path fill="none" stroke="#c0c0c0" stroke-width="2" d="M340.8299,-143.8314C359.9642,-134.3302 383.5632,-122.6121 403.8525,-112.5374"/>
<polygon fill="#c0c0c0" stroke="#c0c0c0" stroke-width="2" points="405.5138,-115.6203 412.9138,-108.038 402.4005,-109.3506 405.5138,-115.6203"/>
</g>
<!-- 19 -->
<g id="node20" class="node">
<title>19</title>
<path fill="none" stroke="#8fd856" stroke-width="2" stroke-dasharray="5,2" d="M1081.7403,-180C1081.7403,-180 988.7403,-180 988.7403,-180 982.7403,-180 976.7403,-174 976.7403,-168 976.7403,-168 976.7403,-156 976.7403,-156 976.7403,-150 982.7403,-144 988.7403,-144 988.7403,-144 1081.7403,-144 1081.7403,-144 1087.7403,-144 1093.7403,-150 1093.7403,-156 1093.7403,-156 1093.7403,-168 1093.7403,-168 1093.7403,-174 1087.7403,-180 1081.7403,-180"/>
<text text-anchor="middle" x="1035.2403" y="-165" font-family="sans" font-size="10.00" fill="#000000">TF_gene_punctate_R</text>
<text text-anchor="middle" x="1035.2403" y="-154" font-family="sans" font-size="10.00" fill="#000000">num: 4</text>
</g>
<!-- 19&#45;&gt;4 -->
<g id="edge23" class="edge">
<title>19&#45;&gt;4</title>
<path fill="none" stroke="#c0c0c0" stroke-width="2" d="M976.4744,-145.9546C973.6951,-145.2768 970.9398,-144.6216 968.2403,-144 888.8222,-125.7126 864.4273,-130.7979 782.5195,-108.1265"/>
<polygon fill="#c0c0c0" stroke="#c0c0c0" stroke-width="2" points="783.3615,-104.7275 772.7867,-105.3787 781.4595,-111.4641 783.3615,-104.7275"/>
</g>
<!-- 20 -->
<g id="node21" class="node">
<title>20</title>
<path fill="none" stroke="#8fd856" stroke-width="2" stroke-dasharray="5,2" d="M215.7403,-180C215.7403,-180 122.7403,-180 122.7403,-180 116.7403,-180 110.7403,-174 110.7403,-168 110.7403,-168 110.7403,-156 110.7403,-156 110.7403,-150 116.7403,-144 122.7403,-144 122.7403,-144 215.7403,-144 215.7403,-144 221.7403,-144 227.7403,-150 227.7403,-156 227.7403,-156 227.7403,-168 227.7403,-168 227.7403,-174 221.7403,-180 215.7403,-180"/>
<text text-anchor="middle" x="169.2403" y="-165" font-family="sans" font-size="10.00" fill="#000000">TF_gene_punctate_R</text>
<text text-anchor="middle" x="169.2403" y="-154" font-family="sans" font-size="10.00" fill="#000000">num: 5</text>
</g>
<!-- 20&#45;&gt;5 -->
<g id="edge26" class="edge">
<title>20&#45;&gt;5</title>
<path fill="none" stroke="#c0c0c0" stroke-width="2" d="M215.9236,-143.8314C243.4999,-133.099 278.3444,-119.5379 306.1609,-108.712"/>
<polygon fill="#c0c0c0" stroke="#c0c0c0" stroke-width="2" points="307.6337,-111.8946 315.6834,-105.0059 305.0949,-105.3712 307.6337,-111.8946"/>
</g>
<!-- 21 -->
<g id="node22" class="node">
<title>21</title>
<path fill="none" stroke="#8fd856" stroke-width="2" stroke-dasharray="5,2" d="M811.7403,-180C811.7403,-180 718.7403,-180 718.7403,-180 712.7403,-180 706.7403,-174 706.7403,-168 706.7403,-168 706.7403,-156 706.7403,-156 706.7403,-150 712.7403,-144 718.7403,-144 718.7403,-144 811.7403,-144 811.7403,-144 817.7403,-144 823.7403,-150 823.7403,-156 823.7403,-156 823.7403,-168 823.7403,-168 823.7403,-174 817.7403,-180 811.7403,-180"/>
<text text-anchor="middle" x="765.2403" y="-165" font-family="sans" font-size="10.00" fill="#000000">TF_gene_punctate_R</text>
<text text-anchor="middle" x="765.2403" y="-154" font-family="sans" font-size="10.00" fill="#000000">num: 6</text>
</g>
<!-- 21&#45;&gt;6 -->
<g id="edge29" class="edge">
<title>21&#45;&gt;6</title>
<path fill="none" stroke="#c0c0c0" stroke-width="2" d="M706.5352,-144.8156C674.9738,-135.3368 635.2255,-123.0181 592.3763,-108.3085"/>
<polygon fill="#c0c0c0" stroke="#c0c0c0" stroke-width="2" points="593.4908,-104.9906 582.8961,-105.0321 591.2043,-111.6067 593.4908,-104.9906"/>
</g>
<!-- 22 -->
<g id="node23" class="node">
<title>22</title>
<path fill="none" stroke="#8fd856" stroke-width="2" stroke-dasharray="5,2" d="M946.7403,-180C946.7403,-180 853.7403,-180 853.7403,-180 847.7403,-180 841.7403,-174 841.7403,-168 841.7403,-168 841.7403,-156 841.7403,-156 841.7403,-150 847.7403,-144 853.7403,-144 853.7403,-144 946.7403,-144 946.7403,-144 952.7403,-144 958.7403,-150 958.7403,-156 958.7403,-156 958.7403,-168 958.7403,-168 958.7403,-174 952.7403,-180 946.7403,-180"/>
<text text-anchor="middle" x="900.2403" y="-165" font-family="sans" font-size="10.00" fill="#000000">TF_gene_punctate_R</text>
<text text-anchor="middle" x="900.2403" y="-154" font-family="sans" font-size="10.00" fill="#000000">num: 7</text>
</g>
<!-- 22&#45;&gt;7 -->
<g id="edge32" class="edge">
<title>22&#45;&gt;7</title>
<path fill="none" stroke="#c0c0c0" stroke-width="2" d="M841.6514,-146.4235C838.4693,-145.5986 835.3165,-144.7864 832.2403,-144 770.525,-128.2243 751.7555,-127.9764 687.6352,-108.2695"/>
<polygon fill="#c0c0c0" stroke="#c0c0c0" stroke-width="2" points="688.4237,-104.8493 677.8353,-105.2165 686.3417,-111.5325 688.4237,-104.8493"/>
</g>
<!-- 23 -->
<g id="node24" class="node">
<title>23</title>
<path fill="none" stroke="#8fd856" stroke-width="2" stroke-dasharray="5,2" d="M1216.7403,-180C1216.7403,-180 1123.7403,-180 1123.7403,-180 1117.7403,-180 1111.7403,-174 1111.7403,-168 1111.7403,-168 1111.7403,-156 1111.7403,-156 1111.7403,-150 1117.7403,-144 1123.7403,-144 1123.7403,-144 1216.7403,-144 1216.7403,-144 1222.7403,-144 1228.7403,-150 1228.7403,-156 1228.7403,-156 1228.7403,-168 1228.7403,-168 1228.7403,-174 1222.7403,-180 1216.7403,-180"/>
<text text-anchor="middle" x="1170.2403" y="-165" font-family="sans" font-size="10.00" fill="#000000">TF_gene_punctate_R</text>
<text text-anchor="middle" x="1170.2403" y="-154" font-family="sans" font-size="10.00" fill="#000000">num: 8</text>
</g>
<!-- 23&#45;&gt;8 -->
<g id="edge35" class="edge">
<title>23&#45;&gt;8</title>
<path fill="none" stroke="#c0c0c0" stroke-width="2" d="M1111.4984,-145.8463C1108.7127,-145.1975 1105.9495,-144.5781 1103.2403,-144 1006.877,-123.4395 977.4068,-133.3184 877.6722,-107.8007"/>
<polygon fill="#c0c0c0" stroke="#c0c0c0" stroke-width="2" points="878.3567,-104.362 867.7965,-105.2185 876.5859,-111.1344 878.3567,-104.362"/>
</g>
<!-- 24 -->
<g id="node25" class="node">
<title>24</title>
<path fill="none" stroke="#80d856" stroke-width="2" stroke-dasharray="5,2" d="M1597.2403,-612C1597.2403,-612 1529.2403,-612 1529.2403,-612 1523.2403,-612 1517.2403,-606 1517.2403,-600 1517.2403,-600 1517.2403,-588 1517.2403,-588 1517.2403,-582 1523.2403,-576 1529.2403,-576 1529.2403,-576 1597.2403,-576 1597.2403,-576 1603.2403,-576 1609.2403,-582 1609.2403,-588 1609.2403,-588 1609.2403,-600 1609.2403,-600 1609.2403,-606 1603.2403,-612 1597.2403,-612"/>
<text text-anchor="middle" x="1563.2403" y="-591.5" font-family="sans" font-size="10.00" fill="#000000">bam_to_bigWig</text>
</g>
<!-- 24&#45;&gt;9 -->
<g id="edge38" class="edge">
<title>24&#45;&gt;9</title>
<path fill="none" stroke="#c0c0c0" stroke-width="2" d="M1562.4832,-575.8314C1562.1624,-568.131 1561.7809,-558.9743 1561.4243,-550.4166"/>
<polygon fill="#c0c0c0" stroke="#c0c0c0" stroke-width="2" points="1564.9209,-550.2589 1561.0075,-540.4133 1557.9269,-550.5503 1564.9209,-550.2589"/>
</g>
<!-- 25 -->
<g id="node26" class="node">
<title>25</title>
<path fill="none" stroke="#567bd8" stroke-width="2" stroke-dasharray="5,2" d="M1483.7403,-612C1483.7403,-612 1444.7403,-612 1444.7403,-612 1438.7403,-612 1432.7403,-606 1432.7403,-600 1432.7403,-600 1432.7403,-588 1432.7403,-588 1432.7403,-582 1438.7403,-576 1444.7403,-576 1444.7403,-576 1483.7403,-576 1483.7403,-576 1489.7403,-576 1495.7403,-582 1495.7403,-588 1495.7403,-588 1495.7403,-600 1495.7403,-600 1495.7403,-606 1489.7403,-612 1483.7403,-612"/>
<text text-anchor="middle" x="1464.2403" y="-591.5" font-family="sans" font-size="10.00" fill="#000000">black_list</text>
</g>
<!-- 25&#45;&gt;9 -->
<g id="edge39" class="edge">
<title>25&#45;&gt;9</title>
<path fill="none" stroke="#c0c0c0" stroke-width="2" d="M1488.4651,-575.8314C1500.403,-566.8779 1514.9658,-555.9558 1527.8463,-546.2955"/>
<polygon fill="#c0c0c0" stroke="#c0c0c0" stroke-width="2" points="1530.1232,-548.9629 1536.0232,-540.1628 1525.9231,-543.3629 1530.1232,-548.9629"/>
</g>
<!-- 59 -->
<g id="node60" class="node">
<title>59</title>
<path fill="none" stroke="#56c9d8" stroke-width="2" stroke-dasharray="5,2" d="M1279.7403,-540C1279.7403,-540 1166.7403,-540 1166.7403,-540 1160.7403,-540 1154.7403,-534 1154.7403,-528 1154.7403,-528 1154.7403,-516 1154.7403,-516 1154.7403,-510 1160.7403,-504 1166.7403,-504 1166.7403,-504 1279.7403,-504 1279.7403,-504 1285.7403,-504 1291.7403,-510 1291.7403,-516 1291.7403,-516 1291.7403,-528 1291.7403,-528 1291.7403,-534 1285.7403,-540 1279.7403,-540"/>
<text text-anchor="middle" x="1223.2403" y="-525" font-family="sans" font-size="10.00" fill="#000000">union_peaks_by_type</text>
<text text-anchor="middle" x="1223.2403" y="-514" font-family="sans" font-size="10.00" fill="#000000">cell_type: RFP_ATAC&#45;Seq</text>
</g>
<!-- 25&#45;&gt;59 -->
<g id="edge117" class="edge">
<title>25&#45;&gt;59</title>
<path fill="none" stroke="#c0c0c0" stroke-width="2" d="M1432.6893,-580.5596C1428.5312,-578.9457 1424.3033,-577.3823 1420.2403,-576 1381.7268,-562.8972 1338.1723,-550.6942 1301.828,-541.2155"/>
<polygon fill="#c0c0c0" stroke="#c0c0c0" stroke-width="2" points="1302.3363,-537.7319 1291.7784,-538.6158 1300.5831,-544.5088 1302.3363,-537.7319"/>
</g>
<!-- 26 -->
<g id="node27" class="node">
<title>26</title>
<path fill="none" stroke="#80d856" stroke-width="2" stroke-dasharray="5,2" d="M1399.2403,-612C1399.2403,-612 1331.2403,-612 1331.2403,-612 1325.2403,-612 1319.2403,-606 1319.2403,-600 1319.2403,-600 1319.2403,-588 1319.2403,-588 1319.2403,-582 1325.2403,-576 1331.2403,-576 1331.2403,-576 1399.2403,-576 1399.2403,-576 1405.2403,-576 1411.2403,-582 1411.2403,-588 1411.2403,-588 1411.2403,-600 1411.2403,-600 1411.2403,-606 1405.2403,-612 1399.2403,-612"/>
<text text-anchor="middle" x="1365.2403" y="-591.5" font-family="sans" font-size="10.00" fill="#000000">bam_to_bigWig</text>
</g>
<!-- 26&#45;&gt;10 -->
<g id="edge40" class="edge">
<title>26&#45;&gt;10</title>
<path fill="none" stroke="#c0c0c0" stroke-width="2" d="M1365.2403,-575.8314C1365.2403,-568.131 1365.2403,-558.9743 1365.2403,-550.4166"/>
<polygon fill="#c0c0c0" stroke="#c0c0c0" stroke-width="2" points="1368.7404,-550.4132 1365.2403,-540.4133 1361.7404,-550.4133 1368.7404,-550.4132"/>
</g>
<!-- 27 -->
<g id="node28" class="node">
<title>27</title>
<path fill="none" stroke="#567bd8" stroke-width="2" stroke-dasharray="5,2" d="M1241.7403,-612C1241.7403,-612 1202.7403,-612 1202.7403,-612 1196.7403,-612 1190.7403,-606 1190.7403,-600 1190.7403,-600 1190.7403,-588 1190.7403,-588 1190.7403,-582 1196.7403,-576 1202.7403,-576 1202.7403,-576 1241.7403,-576 1241.7403,-576 1247.7403,-576 1253.7403,-582 1253.7403,-588 1253.7403,-588 1253.7403,-600 1253.7403,-600 1253.7403,-606 1247.7403,-612 1241.7403,-612"/>
<text text-anchor="middle" x="1222.2403" y="-591.5" font-family="sans" font-size="10.00" fill="#000000">black_list</text>
</g>
<!-- 27&#45;&gt;10 -->
<g id="edge41" class="edge">
<title>27&#45;&gt;10</title>
<path fill="none" stroke="#c0c0c0" stroke-width="2" d="M1253.9766,-578.0209C1273.488,-568.197 1298.7919,-555.4565 1320.3379,-544.6082"/>
<polygon fill="#c0c0c0" stroke="#c0c0c0" stroke-width="2" points="1321.9562,-547.712 1329.314,-540.0888 1318.8082,-541.4598 1321.9562,-547.712"/>
</g>
<!-- 27&#45;&gt;59 -->
<g id="edge118" class="edge">
<title>27&#45;&gt;59</title>
<path fill="none" stroke="#c0c0c0" stroke-width="2" d="M1222.4926,-575.8314C1222.5996,-568.131 1222.7267,-558.9743 1222.8456,-550.4166"/>
<polygon fill="#c0c0c0" stroke="#c0c0c0" stroke-width="2" points="1226.3452,-550.4609 1222.9845,-540.4133 1219.3459,-550.3637 1226.3452,-550.4609"/>
</g>
<!-- 28 -->
<g id="node29" class="node">
<title>28</title>
<path fill="none" stroke="#80d856" stroke-width="2" stroke-dasharray="5,2" d="M501.2403,-612C501.2403,-612 433.2403,-612 433.2403,-612 427.2403,-612 421.2403,-606 421.2403,-600 421.2403,-600 421.2403,-588 421.2403,-588 421.2403,-582 427.2403,-576 433.2403,-576 433.2403,-576 501.2403,-576 501.2403,-576 507.2403,-576 513.2403,-582 513.2403,-588 513.2403,-588 513.2403,-600 513.2403,-600 513.2403,-606 507.2403,-612 501.2403,-612"/>
<text text-anchor="middle" x="467.2403" y="-591.5" font-family="sans" font-size="10.00" fill="#000000">bam_to_bigWig</text>
</g>
<!-- 28&#45;&gt;11 -->
<g id="edge42" class="edge">
<title>28&#45;&gt;11</title>
<path fill="none" stroke="#c0c0c0" stroke-width="2" d="M466.4832,-575.8314C466.1624,-568.131 465.7809,-558.9743 465.4243,-550.4166"/>
<polygon fill="#c0c0c0" stroke="#c0c0c0" stroke-width="2" points="468.9209,-550.2589 465.0075,-540.4133 461.9269,-550.5503 468.9209,-550.2589"/>
</g>
<!-- 29 -->
<g id="node30" class="node">
<title>29</title>
<path fill="none" stroke="#567bd8" stroke-width="2" stroke-dasharray="5,2" d="M686.7403,-612C686.7403,-612 647.7403,-612 647.7403,-612 641.7403,-612 635.7403,-606 635.7403,-600 635.7403,-600 635.7403,-588 635.7403,-588 635.7403,-582 641.7403,-576 647.7403,-576 647.7403,-576 686.7403,-576 686.7403,-576 692.7403,-576 698.7403,-582 698.7403,-588 698.7403,-588 698.7403,-600 698.7403,-600 698.7403,-606 692.7403,-612 686.7403,-612"/>
<text text-anchor="middle" x="667.2403" y="-591.5" font-family="sans" font-size="10.00" fill="#000000">black_list</text>
</g>
<!-- 29&#45;&gt;11 -->
<g id="edge43" class="edge">
<title>29&#45;&gt;11</title>
<path fill="none" stroke="#c0c0c0" stroke-width="2" d="M635.5215,-582.75C605.9384,-572.2575 561.0267,-556.3282 524.614,-543.4133"/>
<polygon fill="#c0c0c0" stroke="#c0c0c0" stroke-width="2" points="525.6676,-540.0735 515.0729,-540.0293 523.3276,-546.6708 525.6676,-540.0735"/>
</g>
<!-- 51 -->
<g id="node52" class="node">
<title>51</title>
<path fill="none" stroke="#56c9d8" stroke-width="2" stroke-dasharray="5,2" d="M773.7403,-540C773.7403,-540 660.7403,-540 660.7403,-540 654.7403,-540 648.7403,-534 648.7403,-528 648.7403,-528 648.7403,-516 648.7403,-516 648.7403,-510 654.7403,-504 660.7403,-504 660.7403,-504 773.7403,-504 773.7403,-504 779.7403,-504 785.7403,-510 785.7403,-516 785.7403,-516 785.7403,-528 785.7403,-528 785.7403,-534 779.7403,-540 773.7403,-540"/>
<text text-anchor="middle" x="717.2403" y="-525" font-family="sans" font-size="10.00" fill="#000000">union_peaks_by_type</text>
<text text-anchor="middle" x="717.2403" y="-514" font-family="sans" font-size="10.00" fill="#000000">cell_type: GFP_ATAC&#45;Seq</text>
</g>
<!-- 29&#45;&gt;51 -->
<g id="edge100" class="edge">
<title>29&#45;&gt;51</title>
<path fill="none" stroke="#c0c0c0" stroke-width="2" d="M679.8574,-575.8314C685.5575,-567.6232 692.4066,-557.7606 698.6762,-548.7323"/>
<polygon fill="#c0c0c0" stroke="#c0c0c0" stroke-width="2" points="701.6241,-550.6234 704.4533,-540.4133 695.8745,-546.6306 701.6241,-550.6234"/>
</g>
<!-- 30 -->
<g id="node31" class="node">
<title>30</title>
<path fill="none" stroke="#5692d8" stroke-width="2" d="M1551.2403,-756C1551.2403,-756 1521.2403,-756 1521.2403,-756 1515.2403,-756 1509.2403,-750 1509.2403,-744 1509.2403,-744 1509.2403,-732 1509.2403,-732 1509.2403,-726 1515.2403,-720 1521.2403,-720 1521.2403,-720 1551.2403,-720 1551.2403,-720 1557.2403,-720 1563.2403,-726 1563.2403,-732 1563.2403,-732 1563.2403,-744 1563.2403,-744 1563.2403,-750 1557.2403,-756 1551.2403,-756"/>
<text text-anchor="middle" x="1536.2403" y="-735.5" font-family="sans" font-size="10.00" fill="#000000">fastqc</text>
</g>
<!-- 30&#45;&gt;12 -->
<g id="edge44" class="edge">
<title>30&#45;&gt;12</title>
<path fill="none" stroke="#c0c0c0" stroke-width="2" d="M1518.8287,-719.8314C1510.7193,-711.3694 1500.9246,-701.1489 1492.0583,-691.8971"/>
<polygon fill="#c0c0c0" stroke="#c0c0c0" stroke-width="2" points="1494.3324,-689.2115 1484.8863,-684.4133 1489.2784,-694.0549 1494.3324,-689.2115"/>
</g>
<!-- 31 -->
<g id="node32" class="node">
<title>31</title>
<path fill="none" stroke="#5692d8" stroke-width="2" d="M1467.2403,-756C1467.2403,-756 1437.2403,-756 1437.2403,-756 1431.2403,-756 1425.2403,-750 1425.2403,-744 1425.2403,-744 1425.2403,-732 1425.2403,-732 1425.2403,-726 1431.2403,-720 1437.2403,-720 1437.2403,-720 1467.2403,-720 1467.2403,-720 1473.2403,-720 1479.2403,-726 1479.2403,-732 1479.2403,-732 1479.2403,-744 1479.2403,-744 1479.2403,-750 1473.2403,-756 1467.2403,-756"/>
<text text-anchor="middle" x="1452.2403" y="-735.5" font-family="sans" font-size="10.00" fill="#000000">fastqc</text>
</g>
<!-- 31&#45;&gt;12 -->
<g id="edge45" class="edge">
<title>31&#45;&gt;12</title>
<path fill="none" stroke="#c0c0c0" stroke-width="2" d="M1456.0254,-719.8314C1457.6297,-712.131 1459.5373,-702.9743 1461.3201,-694.4166"/>
<polygon fill="#c0c0c0" stroke="#c0c0c0" stroke-width="2" points="1464.791,-694.9169 1463.4042,-684.4133 1457.9381,-693.4892 1464.791,-694.9169"/>
</g>
<!-- 32 -->
<g id="node33" class="node">
<title>32</title>
<path fill="none" stroke="#5692d8" stroke-width="2" d="M1388.2403,-756C1388.2403,-756 1358.2403,-756 1358.2403,-756 1352.2403,-756 1346.2403,-750 1346.2403,-744 1346.2403,-744 1346.2403,-732 1346.2403,-732 1346.2403,-726 1352.2403,-720 1358.2403,-720 1358.2403,-720 1388.2403,-720 1388.2403,-720 1394.2403,-720 1400.2403,-726 1400.2403,-732 1400.2403,-732 1400.2403,-744 1400.2403,-744 1400.2403,-750 1394.2403,-756 1388.2403,-756"/>
<text text-anchor="middle" x="1373.2403" y="-735.5" font-family="sans" font-size="10.00" fill="#000000">fastqc</text>
</g>
<!-- 32&#45;&gt;12 -->
<g id="edge46" class="edge">
<title>32&#45;&gt;12</title>
<path fill="none" stroke="#c0c0c0" stroke-width="2" d="M1396.9604,-719.8314C1408.6496,-710.8779 1422.9091,-699.9558 1435.5212,-690.2955"/>
<polygon fill="#c0c0c0" stroke="#c0c0c0" stroke-width="2" points="1437.7172,-693.0222 1443.5277,-684.1628 1433.4606,-687.4651 1437.7172,-693.0222"/>
</g>
<!-- 33 -->
<g id="node34" class="node">
<title>33</title>
<path fill="none" stroke="#d88556" stroke-width="2" stroke-dasharray="5,2" d="M1197.2403,-324C1197.2403,-324 1073.2403,-324 1073.2403,-324 1067.2403,-324 1061.2403,-318 1061.2403,-312 1061.2403,-312 1061.2403,-300 1061.2403,-300 1061.2403,-294 1067.2403,-288 1073.2403,-288 1073.2403,-288 1197.2403,-288 1197.2403,-288 1203.2403,-288 1209.2403,-294 1209.2403,-300 1209.2403,-300 1209.2403,-312 1209.2403,-312 1209.2403,-318 1203.2403,-324 1197.2403,-324"/>
<text text-anchor="middle" x="1135.2403" y="-303.5" font-family="sans" font-size="10.00" fill="#000000">common_peaks_across_all</text>
</g>
<!-- 33&#45;&gt;13 -->
<g id="edge47" class="edge">
<title>33&#45;&gt;13</title>
<path fill="none" stroke="#c0c0c0" stroke-width="2" d="M1180.4095,-287.8314C1204.5625,-278.1162 1234.4781,-266.0831 1259.8958,-255.8592"/>
<polygon fill="#c0c0c0" stroke="#c0c0c0" stroke-width="2" points="1261.4244,-259.017 1269.3958,-252.038 1258.8121,-252.5227 1261.4244,-259.017"/>
</g>
<!-- 34 -->
<g id="node35" class="node">
<title>34</title>
<path fill="none" stroke="#56d8c1" stroke-width="2" stroke-dasharray="5,2" d="M924.2403,-252C924.2403,-252 876.2403,-252 876.2403,-252 870.2403,-252 864.2403,-246 864.2403,-240 864.2403,-240 864.2403,-228 864.2403,-228 864.2403,-222 870.2403,-216 876.2403,-216 876.2403,-216 924.2403,-216 924.2403,-216 930.2403,-216 936.2403,-222 936.2403,-228 936.2403,-228 936.2403,-240 936.2403,-240 936.2403,-246 930.2403,-252 924.2403,-252"/>
<text text-anchor="middle" x="900.2403" y="-231.5" font-family="sans" font-size="10.00" fill="#000000">make_CGM</text>
</g>
<!-- 34&#45;&gt;14 -->
<g id="edge48" class="edge">
<title>34&#45;&gt;14</title>
<path fill="none" stroke="#c0c0c0" stroke-width="2" d="M936.4608,-225.768C952.555,-222.3452 971.7735,-218.5776 989.2403,-216 1155.5894,-191.4513 1202.7467,-209.624 1371.57,-180.1429"/>
<polygon fill="#c0c0c0" stroke="#c0c0c0" stroke-width="2" points="1372.3076,-183.5668 1381.5412,-178.3715 1371.0831,-176.6747 1372.3076,-183.5668"/>
</g>
<!-- 34&#45;&gt;17 -->
<g id="edge53" class="edge">
<title>34&#45;&gt;17</title>
<path fill="none" stroke="#c0c0c0" stroke-width="2" d="M936.5273,-226.1826C952.6338,-222.8365 971.8436,-219.0144 989.2403,-216 1096.1881,-197.4688 1126.9331,-202.2367 1236.3796,-180.2659"/>
<polygon fill="#c0c0c0" stroke="#c0c0c0" stroke-width="2" points="1237.4087,-183.6282 1246.5086,-178.2021 1236.0111,-176.7691 1237.4087,-183.6282"/>
</g>
<!-- 34&#45;&gt;18 -->
<g id="edge55" class="edge">
<title>34&#45;&gt;18</title>
<path fill="none" stroke="#c0c0c0" stroke-width="2" d="M864.0037,-231.066C763.894,-222.8426 484.1021,-199.0343 372.8595,-180.1018"/>
<polygon fill="#c0c0c0" stroke="#c0c0c0" stroke-width="2" points="373.402,-176.6435 362.9444,-178.3435 372.1796,-183.5359 373.402,-176.6435"/>
</g>
<!-- 34&#45;&gt;19 -->
<g id="edge57" class="edge">
<title>34&#45;&gt;19</title>
<path fill="none" stroke="#c0c0c0" stroke-width="2" d="M934.3065,-215.8314C951.8936,-206.4516 973.5318,-194.9112 992.2571,-184.9244"/>
<polygon fill="#c0c0c0" stroke="#c0c0c0" stroke-width="2" points="994.0085,-187.957 1001.185,-180.1628 990.7144,-181.7805 994.0085,-187.957"/>
</g>
<!-- 34&#45;&gt;20 -->
<g id="edge59" class="edge">
<title>34&#45;&gt;20</title>
<path fill="none" stroke="#c0c0c0" stroke-width="2" d="M864.1503,-230.9798C821.0891,-227.3823 746.915,-221.205 683.2403,-216 487.8908,-200.0315 434.3951,-213.5327 238.0015,-180.1472"/>
<polygon fill="#c0c0c0" stroke="#c0c0c0" stroke-width="2" points="238.38,-176.661 227.9315,-178.4159 237.1938,-183.5598 238.38,-176.661"/>
</g>
<!-- 34&#45;&gt;21 -->
<g id="edge61" class="edge">
<title>34&#45;&gt;21</title>
<path fill="none" stroke="#c0c0c0" stroke-width="2" d="M866.1741,-215.8314C848.587,-206.4516 826.9487,-194.9112 808.2235,-184.9244"/>
<polygon fill="#c0c0c0" stroke="#c0c0c0" stroke-width="2" points="809.7662,-181.7805 799.2956,-180.1628 806.472,-187.957 809.7662,-181.7805"/>
</g>
<!-- 34&#45;&gt;22 -->
<g id="edge63" class="edge">
<title>34&#45;&gt;22</title>
<path fill="none" stroke="#c0c0c0" stroke-width="2" d="M900.2403,-215.8314C900.2403,-208.131 900.2403,-198.9743 900.2403,-190.4166"/>
<polygon fill="#c0c0c0" stroke="#c0c0c0" stroke-width="2" points="903.7404,-190.4132 900.2403,-180.4133 896.7404,-190.4133 903.7404,-190.4132"/>
</g>
<!-- 34&#45;&gt;23 -->
<g id="edge65" class="edge">
<title>34&#45;&gt;23</title>
<path fill="none" stroke="#c0c0c0" stroke-width="2" d="M936.5511,-224.3699C975.189,-214.1162 1038.3798,-197.3285 1101.6717,-180.4168"/>
<polygon fill="#c0c0c0" stroke="#c0c0c0" stroke-width="2" points="1102.6593,-183.7758 1111.4164,-177.8122 1100.8517,-177.0132 1102.6593,-183.7758"/>
</g>
<!-- 35 -->
<g id="node36" class="node">
<title>35</title>
<path fill="none" stroke="#56d8c1" stroke-width="2" stroke-dasharray="5,2" d="M1058.2403,-252C1058.2403,-252 1010.2403,-252 1010.2403,-252 1004.2403,-252 998.2403,-246 998.2403,-240 998.2403,-240 998.2403,-228 998.2403,-228 998.2403,-222 1004.2403,-216 1010.2403,-216 1010.2403,-216 1058.2403,-216 1058.2403,-216 1064.2403,-216 1070.2403,-222 1070.2403,-228 1070.2403,-228 1070.2403,-240 1070.2403,-240 1070.2403,-246 1064.2403,-252 1058.2403,-252"/>
<text text-anchor="middle" x="1034.2403" y="-231.5" font-family="sans" font-size="10.00" fill="#000000">make_CGM</text>
</g>
<!-- 35&#45;&gt;14 -->
<g id="edge49" class="edge">
<title>35&#45;&gt;14</title>
<path fill="none" stroke="#c0c0c0" stroke-width="2" d="M1070.593,-229.4786C1131.1384,-221.6736 1256.5894,-204.3358 1371.4814,-180.2746"/>
<polygon fill="#c0c0c0" stroke="#c0c0c0" stroke-width="2" points="1372.4403,-183.6492 1381.4984,-178.1537 1370.9903,-176.801 1372.4403,-183.6492"/>
</g>
<!-- 35&#45;&gt;17 -->
<g id="edge54" class="edge">
<title>35&#45;&gt;17</title>
<path fill="none" stroke="#c0c0c0" stroke-width="2" d="M1070.3642,-224.4808C1109.1552,-214.2493 1172.8701,-197.4165 1236.6052,-180.4323"/>
<polygon fill="#c0c0c0" stroke="#c0c0c0" stroke-width="2" points="1237.6566,-183.7743 1246.4175,-177.8163 1235.8533,-177.0105 1237.6566,-183.7743"/>
</g>
<!-- 35&#45;&gt;18 -->
<g id="edge56" class="edge">
<title>35&#45;&gt;18</title>
<path fill="none" stroke="#c0c0c0" stroke-width="2" d="M998.0555,-225.5121C981.9679,-222.0418 962.7447,-218.308 945.2403,-216 695.1622,-183.0268 625.3173,-220.3565 373.1274,-180.1302"/>
<polygon fill="#c0c0c0" stroke="#c0c0c0" stroke-width="2" points="373.3525,-176.6211 362.9213,-178.4761 372.2326,-183.5309 373.3525,-176.6211"/>
</g>
<!-- 35&#45;&gt;19 -->
<g id="edge58" class="edge">
<title>35&#45;&gt;19</title>
<path fill="none" stroke="#c0c0c0" stroke-width="2" d="M1034.4926,-215.8314C1034.5996,-208.131 1034.7267,-198.9743 1034.8456,-190.4166"/>
<polygon fill="#c0c0c0" stroke="#c0c0c0" stroke-width="2" points="1038.3452,-190.4609 1034.9845,-180.4133 1031.3459,-190.3637 1038.3452,-190.4609"/>
</g>
<!-- 35&#45;&gt;20 -->
<g id="edge60" class="edge">
<title>35&#45;&gt;20</title>
<path fill="none" stroke="#c0c0c0" stroke-width="2" d="M998.0683,-225.4131C981.983,-221.9246 962.7581,-218.2038 945.2403,-216 635.5535,-177.041 549.734,-228.0877 238.1457,-180.1146"/>
<polygon fill="#c0c0c0" stroke="#c0c0c0" stroke-width="2" points="238.3352,-176.6019 227.9148,-178.5166 237.2548,-183.518 238.3352,-176.6019"/>
</g>
<!-- 35&#45;&gt;21 -->
<g id="edge62" class="edge">
<title>35&#45;&gt;21</title>
<path fill="none" stroke="#c0c0c0" stroke-width="2" d="M998.1119,-224.3564C959.6673,-214.0913 896.7905,-197.2935 833.7687,-180.4083"/>
<polygon fill="#c0c0c0" stroke="#c0c0c0" stroke-width="2" points="834.6304,-177.0158 824.0652,-177.8081 832.8185,-183.7773 834.6304,-177.0158"/>
</g>
<!-- 35&#45;&gt;22 -->
<g id="edge64" class="edge">
<title>35&#45;&gt;22</title>
<path fill="none" stroke="#c0c0c0" stroke-width="2" d="M1000.4264,-215.8314C982.9696,-206.4516 961.4916,-194.9112 942.9051,-184.9244"/>
<polygon fill="#c0c0c0" stroke="#c0c0c0" stroke-width="2" points="944.5089,-181.8129 934.0433,-180.1628 941.1956,-187.9792 944.5089,-181.8129"/>
</g>
<!-- 35&#45;&gt;23 -->
<g id="edge66" class="edge">
<title>35&#45;&gt;23</title>
<path fill="none" stroke="#c0c0c0" stroke-width="2" d="M1068.5588,-215.8314C1086.2762,-206.4516 1108.0747,-194.9112 1126.9387,-184.9244"/>
<polygon fill="#c0c0c0" stroke="#c0c0c0" stroke-width="2" points="1128.7324,-187.935 1135.9327,-180.1628 1125.4572,-181.7485 1128.7324,-187.935"/>
</g>
<!-- 36 -->
<g id="node37" class="node">
<title>36</title>
<path fill="none" stroke="#d87d56" stroke-width="2" stroke-dasharray="5,2" d="M866.2403,-396C866.2403,-396 752.2403,-396 752.2403,-396 746.2403,-396 740.2403,-390 740.2403,-384 740.2403,-384 740.2403,-372 740.2403,-372 740.2403,-366 746.2403,-360 752.2403,-360 752.2403,-360 866.2403,-360 866.2403,-360 872.2403,-360 878.2403,-366 878.2403,-372 878.2403,-372 878.2403,-384 878.2403,-384 878.2403,-390 872.2403,-396 866.2403,-396"/>
<text text-anchor="middle" x="809.2403" y="-375.5" font-family="sans" font-size="10.00" fill="#000000">common_peaks_by_type</text>
</g>
<!-- 36&#45;&gt;15 -->
<g id="edge50" class="edge">
<title>36&#45;&gt;15</title>
<path fill="none" stroke="#c0c0c0" stroke-width="2" d="M797.3727,-359.7533C776.4917,-328.3943 730.8615,-263.1089 683.2403,-216 672.5205,-205.3955 659.6843,-195.0461 647.8922,-186.2917"/>
<polygon fill="#c0c0c0" stroke="#c0c0c0" stroke-width="2" points="649.6825,-183.2662 639.5356,-180.2183 645.5671,-188.9287 649.6825,-183.2662"/>
</g>
<!-- 36&#45;&gt;33 -->
<g id="edge80" class="edge">
<title>36&#45;&gt;33</title>
<path fill="none" stroke="#c0c0c0" stroke-width="2" d="M878.3765,-362.7307C928.8746,-351.5777 997.6056,-336.3978 1051.2642,-324.5469"/>
<polygon fill="#c0c0c0" stroke="#c0c0c0" stroke-width="2" points="1052.0904,-327.9488 1061.1002,-322.3745 1050.5807,-321.1136 1052.0904,-327.9488"/>
</g>
<!-- 36&#45;&gt;34 -->
<g id="edge81" class="edge">
<title>36&#45;&gt;34</title>
<path fill="none" stroke="#c0c0c0" stroke-width="2" d="M809.3997,-359.6864C810.3687,-340.4331 814.2446,-309.9474 828.2403,-288 835.7383,-276.242 846.7594,-266.119 857.9358,-257.9201"/>
<polygon fill="#c0c0c0" stroke="#c0c0c0" stroke-width="2" points="860.2209,-260.5954 866.4569,-252.0302 856.2406,-254.8371 860.2209,-260.5954"/>
</g>
<!-- 49 -->
<g id="node50" class="node">
<title>49</title>
<path fill="none" stroke="#56b9d8" stroke-width="2" stroke-dasharray="5,2" d="M951.2403,-324C951.2403,-324 849.2403,-324 849.2403,-324 843.2403,-324 837.2403,-318 837.2403,-312 837.2403,-312 837.2403,-300 837.2403,-300 837.2403,-294 843.2403,-288 849.2403,-288 849.2403,-288 951.2403,-288 951.2403,-288 957.2403,-288 963.2403,-294 963.2403,-300 963.2403,-300 963.2403,-312 963.2403,-312 963.2403,-318 957.2403,-324 951.2403,-324"/>
<text text-anchor="middle" x="900.2403" y="-303.5" font-family="sans" font-size="10.00" fill="#000000">overlap_with_h3k27ac</text>
</g>
<!-- 36&#45;&gt;49 -->
<g id="edge98" class="edge">
<title>36&#45;&gt;49</title>
<path fill="none" stroke="#c0c0c0" stroke-width="2" d="M832.2034,-359.8314C843.4118,-350.9632 857.0612,-340.1637 869.1842,-330.5718"/>
<polygon fill="#c0c0c0" stroke="#c0c0c0" stroke-width="2" points="871.614,-333.1125 877.2845,-324.1628 867.2705,-327.6229 871.614,-333.1125"/>
</g>
<!-- 37 -->
<g id="node38" class="node">
<title>37</title>
<path fill="none" stroke="#d8ac56" stroke-width="2" stroke-dasharray="5,2" d="M662.7403,-252C662.7403,-252 585.7403,-252 585.7403,-252 579.7403,-252 573.7403,-246 573.7403,-240 573.7403,-240 573.7403,-228 573.7403,-228 573.7403,-222 579.7403,-216 585.7403,-216 585.7403,-216 662.7403,-216 662.7403,-216 668.7403,-216 674.7403,-222 674.7403,-228 674.7403,-228 674.7403,-240 674.7403,-240 674.7403,-246 668.7403,-252 662.7403,-252"/>
<text text-anchor="middle" x="624.2403" y="-231.5" font-family="sans" font-size="10.00" fill="#000000">build_tss_regions</text>
</g>
<!-- 37&#45;&gt;15 -->
<g id="edge51" class="edge">
<title>37&#45;&gt;15</title>
<path fill="none" stroke="#c0c0c0" stroke-width="2" d="M621.2122,-215.8314C619.9288,-208.131 618.4027,-198.9743 616.9764,-190.4166"/>
<polygon fill="#c0c0c0" stroke="#c0c0c0" stroke-width="2" points="620.4056,-189.7018 615.3091,-180.4133 613.5008,-190.8526 620.4056,-189.7018"/>
</g>
<!-- 38 -->
<g id="node39" class="node">
<title>38</title>
<path fill="none" stroke="#d87556" stroke-width="2" stroke-dasharray="5,2" d="M604.2403,-684C604.2403,-684 550.2403,-684 550.2403,-684 544.2403,-684 538.2403,-678 538.2403,-672 538.2403,-672 538.2403,-660 538.2403,-660 538.2403,-654 544.2403,-648 550.2403,-648 550.2403,-648 604.2403,-648 604.2403,-648 610.2403,-648 616.2403,-654 616.2403,-660 616.2403,-660 616.2403,-672 616.2403,-672 616.2403,-678 610.2403,-684 604.2403,-684"/>
<text text-anchor="middle" x="577.2403" y="-663.5" font-family="sans" font-size="10.00" fill="#000000">peak_calling</text>
</g>
<!-- 38&#45;&gt;16 -->
<g id="edge52" class="edge">
<title>38&#45;&gt;16</title>
<path fill="none" stroke="#c0c0c0" stroke-width="2" d="M570.4539,-647.6497C561.0606,-620.5619 545.2403,-568.0977 545.2403,-522 545.2403,-522 545.2403,-522 545.2403,-306 545.2403,-257.9377 507.7586,-213.7161 479.6359,-187.3006"/>
<polygon fill="#c0c0c0" stroke="#c0c0c0" stroke-width="2" points="481.7397,-184.4826 471.9909,-180.3339 477.0248,-189.6565 481.7397,-184.4826"/>
</g>
<!-- 38&#45;&gt;29 -->
<g id="edge74" class="edge">
<title>38&#45;&gt;29</title>
<path fill="none" stroke="#c0c0c0" stroke-width="2" d="M599.9511,-647.8314C611.0363,-638.9632 624.5357,-628.1637 636.5255,-618.5718"/>
<polygon fill="#c0c0c0" stroke="#c0c0c0" stroke-width="2" points="638.9145,-621.1429 644.5367,-612.1628 634.5416,-615.6768 638.9145,-621.1429"/>
</g>
<!-- 39 -->
<g id="node40" class="node">
<title>39</title>
<path fill="none" stroke="#56d863" stroke-width="2" stroke-dasharray="5,2" d="M1693.7403,-684C1693.7403,-684 1638.7403,-684 1638.7403,-684 1632.7403,-684 1626.7403,-678 1626.7403,-672 1626.7403,-672 1626.7403,-660 1626.7403,-660 1626.7403,-654 1632.7403,-648 1638.7403,-648 1638.7403,-648 1693.7403,-648 1693.7403,-648 1699.7403,-648 1705.7403,-654 1705.7403,-660 1705.7403,-660 1705.7403,-672 1705.7403,-672 1705.7403,-678 1699.7403,-684 1693.7403,-684"/>
<text text-anchor="middle" x="1666.2403" y="-663.5" font-family="sans" font-size="10.00" fill="#000000">downsample</text>
</g>
<!-- 39&#45;&gt;24 -->
<g id="edge67" class="edge">
<title>39&#45;&gt;24</title>
<path fill="none" stroke="#c0c0c0" stroke-width="2" d="M1640.249,-647.8314C1627.3187,-638.7927 1611.5181,-627.7476 1597.602,-618.0198"/>
<polygon fill="#c0c0c0" stroke="#c0c0c0" stroke-width="2" points="1599.4245,-615.0235 1589.2232,-612.1628 1595.414,-620.7608 1599.4245,-615.0235"/>
</g>
<!-- 40 -->
<g id="node41" class="node">
<title>40</title>
<path fill="none" stroke="#d87556" stroke-width="2" stroke-dasharray="5,2" d="M1596.2403,-684C1596.2403,-684 1542.2403,-684 1542.2403,-684 1536.2403,-684 1530.2403,-678 1530.2403,-672 1530.2403,-672 1530.2403,-660 1530.2403,-660 1530.2403,-654 1536.2403,-648 1542.2403,-648 1542.2403,-648 1596.2403,-648 1596.2403,-648 1602.2403,-648 1608.2403,-654 1608.2403,-660 1608.2403,-660 1608.2403,-672 1608.2403,-672 1608.2403,-678 1602.2403,-684 1596.2403,-684"/>
<text text-anchor="middle" x="1569.2403" y="-663.5" font-family="sans" font-size="10.00" fill="#000000">peak_calling</text>
</g>
<!-- 40&#45;&gt;25 -->
<g id="edge68" class="edge">
<title>40&#45;&gt;25</title>
<path fill="none" stroke="#c0c0c0" stroke-width="2" d="M1542.7443,-647.8314C1529.5629,-638.7927 1513.4555,-627.7476 1499.2692,-618.0198"/>
<polygon fill="#c0c0c0" stroke="#c0c0c0" stroke-width="2" points="1500.9544,-614.9316 1490.7277,-612.1628 1496.9957,-620.7047 1500.9544,-614.9316"/>
</g>
<!-- 41 -->
<g id="node42" class="node">
<title>41</title>
<path fill="none" stroke="#9fd856" stroke-width="2" stroke-dasharray="5,2" d="M1295.7403,-684C1295.7403,-684 1146.7403,-684 1146.7403,-684 1140.7403,-684 1134.7403,-678 1134.7403,-672 1134.7403,-672 1134.7403,-660 1134.7403,-660 1134.7403,-654 1140.7403,-648 1146.7403,-648 1146.7403,-648 1295.7403,-648 1295.7403,-648 1301.7403,-648 1307.7403,-654 1307.7403,-660 1307.7403,-660 1307.7403,-672 1307.7403,-672 1307.7403,-678 1301.7403,-684 1295.7403,-684"/>
<text text-anchor="middle" x="1221.2403" y="-663.5" font-family="sans" font-size="10.00" fill="#000000">retrieve_and_process_black_list</text>
</g>
<!-- 41&#45;&gt;25 -->
<g id="edge69" class="edge">
<title>41&#45;&gt;25</title>
<path fill="none" stroke="#c0c0c0" stroke-width="2" d="M1296.5518,-647.9011C1334.0564,-638.2983 1379.8932,-625.6689 1420.2403,-612 1421.2565,-611.6557 1422.2829,-611.3 1423.316,-610.9349"/>
<polygon fill="#c0c0c0" stroke="#c0c0c0" stroke-width="2" points="1424.5382,-614.2146 1432.6926,-607.4503 1422.0997,-607.653 1424.5382,-614.2146"/>
</g>
<!-- 41&#45;&gt;27 -->
<g id="edge72" class="edge">
<title>41&#45;&gt;27</title>
<path fill="none" stroke="#c0c0c0" stroke-width="2" d="M1221.4926,-647.8314C1221.5996,-640.131 1221.7267,-630.9743 1221.8456,-622.4166"/>
<polygon fill="#c0c0c0" stroke="#c0c0c0" stroke-width="2" points="1225.3452,-622.4609 1221.9845,-612.4133 1218.3459,-622.3637 1225.3452,-622.4609"/>
</g>
<!-- 41&#45;&gt;29 -->
<g id="edge75" class="edge">
<title>41&#45;&gt;29</title>
<path fill="none" stroke="#c0c0c0" stroke-width="2" d="M1134.6794,-649.4897C1131.4958,-648.9716 1128.3415,-648.473 1125.2403,-648 972.6073,-624.7202 790.0386,-605.8713 709.2452,-597.9877"/>
<polygon fill="#c0c0c0" stroke="#c0c0c0" stroke-width="2" points="709.2815,-594.4749 698.9902,-596.9928 708.6054,-601.4422 709.2815,-594.4749"/>
</g>
<!-- 42 -->
<g id="node43" class="node">
<title>42</title>
<path fill="none" stroke="#56d863" stroke-width="2" stroke-dasharray="5,2" d="M1392.7403,-684C1392.7403,-684 1337.7403,-684 1337.7403,-684 1331.7403,-684 1325.7403,-678 1325.7403,-672 1325.7403,-672 1325.7403,-660 1325.7403,-660 1325.7403,-654 1331.7403,-648 1337.7403,-648 1337.7403,-648 1392.7403,-648 1392.7403,-648 1398.7403,-648 1404.7403,-654 1404.7403,-660 1404.7403,-660 1404.7403,-672 1404.7403,-672 1404.7403,-678 1398.7403,-684 1392.7403,-684"/>
<text text-anchor="middle" x="1365.2403" y="-663.5" font-family="sans" font-size="10.00" fill="#000000">downsample</text>
</g>
<!-- 42&#45;&gt;26 -->
<g id="edge70" class="edge">
<title>42&#45;&gt;26</title>
<path fill="none" stroke="#c0c0c0" stroke-width="2" d="M1365.2403,-647.8314C1365.2403,-640.131 1365.2403,-630.9743 1365.2403,-622.4166"/>
<polygon fill="#c0c0c0" stroke="#c0c0c0" stroke-width="2" points="1368.7404,-622.4132 1365.2403,-612.4133 1361.7404,-622.4133 1368.7404,-622.4132"/>
</g>
<!-- 43 -->
<g id="node44" class="node">
<title>43</title>
<path fill="none" stroke="#d87556" stroke-width="2" stroke-dasharray="5,2" d="M1104.2403,-684C1104.2403,-684 1050.2403,-684 1050.2403,-684 1044.2403,-684 1038.2403,-678 1038.2403,-672 1038.2403,-672 1038.2403,-660 1038.2403,-660 1038.2403,-654 1044.2403,-648 1050.2403,-648 1050.2403,-648 1104.2403,-648 1104.2403,-648 1110.2403,-648 1116.2403,-654 1116.2403,-660 1116.2403,-660 1116.2403,-672 1116.2403,-672 1116.2403,-678 1110.2403,-684 1104.2403,-684"/>
<text text-anchor="middle" x="1077.2403" y="-663.5" font-family="sans" font-size="10.00" fill="#000000">peak_calling</text>
</g>
<!-- 43&#45;&gt;27 -->
<g id="edge71" class="edge">
<title>43&#45;&gt;27</title>
<path fill="none" stroke="#c0c0c0" stroke-width="2" d="M1113.8299,-647.8314C1134.439,-637.5979 1160.2274,-624.7926 1181.4812,-614.239"/>
<polygon fill="#c0c0c0" stroke="#c0c0c0" stroke-width="2" points="1183.1874,-617.2996 1190.5874,-609.7173 1180.0742,-611.0299 1183.1874,-617.2996"/>
</g>
<!-- 44 -->
<g id="node45" class="node">
<title>44</title>
<path fill="none" stroke="#56d863" stroke-width="2" stroke-dasharray="5,2" d="M494.7403,-684C494.7403,-684 439.7403,-684 439.7403,-684 433.7403,-684 427.7403,-678 427.7403,-672 427.7403,-672 427.7403,-660 427.7403,-660 427.7403,-654 433.7403,-648 439.7403,-648 439.7403,-648 494.7403,-648 494.7403,-648 500.7403,-648 506.7403,-654 506.7403,-660 506.7403,-660 506.7403,-672 506.7403,-672 506.7403,-678 500.7403,-684 494.7403,-684"/>
<text text-anchor="middle" x="467.2403" y="-663.5" font-family="sans" font-size="10.00" fill="#000000">downsample</text>
</g>
<!-- 44&#45;&gt;28 -->
<g id="edge73" class="edge">
<title>44&#45;&gt;28</title>
<path fill="none" stroke="#c0c0c0" stroke-width="2" d="M467.2403,-647.8314C467.2403,-640.131 467.2403,-630.9743 467.2403,-622.4166"/>
<polygon fill="#c0c0c0" stroke="#c0c0c0" stroke-width="2" points="470.7404,-622.4132 467.2403,-612.4133 463.7404,-622.4133 470.7404,-622.4132"/>
</g>
<!-- 45 -->
<g id="node46" class="node">
<title>45</title>
<path fill="none" stroke="#d8d356" stroke-width="2" stroke-dasharray="5,2" d="M1658.7403,-828C1658.7403,-828 1575.7403,-828 1575.7403,-828 1569.7403,-828 1563.7403,-822 1563.7403,-816 1563.7403,-816 1563.7403,-804 1563.7403,-804 1563.7403,-798 1569.7403,-792 1575.7403,-792 1575.7403,-792 1658.7403,-792 1658.7403,-792 1664.7403,-792 1670.7403,-798 1670.7403,-804 1670.7403,-804 1670.7403,-816 1670.7403,-816 1670.7403,-822 1664.7403,-828 1658.7403,-828"/>
<text text-anchor="middle" x="1617.2403" y="-813" font-family="sans" font-size="10.00" fill="#000000">merge_bam</text>
<text text-anchor="middle" x="1617.2403" y="-802" font-family="sans" font-size="10.00" fill="#000000">sample: RFP_IIG_3</text>
</g>
<!-- 45&#45;&gt;30 -->
<g id="edge76" class="edge">
<title>45&#45;&gt;30</title>
<path fill="none" stroke="#c0c0c0" stroke-width="2" d="M1596.8006,-791.8314C1586.9198,-783.0485 1574.9079,-772.3712 1564.1952,-762.8489"/>
<polygon fill="#c0c0c0" stroke="#c0c0c0" stroke-width="2" points="1566.4729,-760.1906 1556.6735,-756.1628 1561.8223,-765.4224 1566.4729,-760.1906"/>
</g>
<!-- 54 -->
<g id="node55" class="node">
<title>54</title>
<path fill="none" stroke="#d8c356" stroke-width="2" stroke-dasharray="5,2" d="M1638.2403,-756C1638.2403,-756 1596.2403,-756 1596.2403,-756 1590.2403,-756 1584.2403,-750 1584.2403,-744 1584.2403,-744 1584.2403,-732 1584.2403,-732 1584.2403,-726 1590.2403,-720 1596.2403,-720 1596.2403,-720 1638.2403,-720 1638.2403,-720 1644.2403,-720 1650.2403,-726 1650.2403,-732 1650.2403,-732 1650.2403,-744 1650.2403,-744 1650.2403,-750 1644.2403,-756 1638.2403,-756"/>
<text text-anchor="middle" x="1617.2403" y="-735.5" font-family="sans" font-size="10.00" fill="#000000">filter_bam</text>
</g>
<!-- 45&#45;&gt;54 -->
<g id="edge103" class="edge">
<title>45&#45;&gt;54</title>
<path fill="none" stroke="#c0c0c0" stroke-width="2" d="M1617.2403,-791.8314C1617.2403,-784.131 1617.2403,-774.9743 1617.2403,-766.4166"/>
<polygon fill="#c0c0c0" stroke="#c0c0c0" stroke-width="2" points="1620.7404,-766.4132 1617.2403,-756.4133 1613.7404,-766.4133 1620.7404,-766.4132"/>
</g>
<!-- 46 -->
<g id="node47" class="node">
<title>46</title>
<path fill="none" stroke="#d8d356" stroke-width="2" stroke-dasharray="5,2" d="M1303.7403,-828C1303.7403,-828 1222.7403,-828 1222.7403,-828 1216.7403,-828 1210.7403,-822 1210.7403,-816 1210.7403,-816 1210.7403,-804 1210.7403,-804 1210.7403,-798 1216.7403,-792 1222.7403,-792 1222.7403,-792 1303.7403,-792 1303.7403,-792 1309.7403,-792 1315.7403,-798 1315.7403,-804 1315.7403,-804 1315.7403,-816 1315.7403,-816 1315.7403,-822 1309.7403,-828 1303.7403,-828"/>
<text text-anchor="middle" x="1263.2403" y="-813" font-family="sans" font-size="10.00" fill="#000000">merge_bam</text>
<text text-anchor="middle" x="1263.2403" y="-802" font-family="sans" font-size="10.00" fill="#000000">sample: RFP_IIE_1</text>
</g>
<!-- 46&#45;&gt;31 -->
<g id="edge77" class="edge">
<title>46&#45;&gt;31</title>
<path fill="none" stroke="#c0c0c0" stroke-width="2" d="M1313.7785,-791.9023C1341.9803,-781.6545 1377.6847,-768.4339 1409.2403,-756 1411.3203,-755.1804 1413.4521,-754.3281 1415.6004,-753.4597"/>
<polygon fill="#c0c0c0" stroke="#c0c0c0" stroke-width="2" points="1417.0891,-756.6321 1425.0142,-749.6005 1414.4339,-750.1552 1417.0891,-756.6321"/>
</g>
<!-- 55 -->
<g id="node56" class="node">
<title>55</title>
<path fill="none" stroke="#d8c356" stroke-width="2" stroke-dasharray="5,2" d="M1284.2403,-756C1284.2403,-756 1242.2403,-756 1242.2403,-756 1236.2403,-756 1230.2403,-750 1230.2403,-744 1230.2403,-744 1230.2403,-732 1230.2403,-732 1230.2403,-726 1236.2403,-720 1242.2403,-720 1242.2403,-720 1284.2403,-720 1284.2403,-720 1290.2403,-720 1296.2403,-726 1296.2403,-732 1296.2403,-732 1296.2403,-744 1296.2403,-744 1296.2403,-750 1290.2403,-756 1284.2403,-756"/>
<text text-anchor="middle" x="1263.2403" y="-735.5" font-family="sans" font-size="10.00" fill="#000000">filter_bam</text>
</g>
<!-- 46&#45;&gt;55 -->
<g id="edge104" class="edge">
<title>46&#45;&gt;55</title>
<path fill="none" stroke="#c0c0c0" stroke-width="2" d="M1263.2403,-791.8314C1263.2403,-784.131 1263.2403,-774.9743 1263.2403,-766.4166"/>
<polygon fill="#c0c0c0" stroke="#c0c0c0" stroke-width="2" points="1266.7404,-766.4132 1263.2403,-756.4133 1259.7404,-766.4133 1266.7404,-766.4132"/>
</g>
<!-- 47 -->
<g id="node48" class="node">
<title>47</title>
<path fill="none" stroke="#d8d356" stroke-width="2" stroke-dasharray="5,2" d="M686.7403,-828C686.7403,-828 603.7403,-828 603.7403,-828 597.7403,-828 591.7403,-822 591.7403,-816 591.7403,-816 591.7403,-804 591.7403,-804 591.7403,-798 597.7403,-792 603.7403,-792 603.7403,-792 686.7403,-792 686.7403,-792 692.7403,-792 698.7403,-798 698.7403,-804 698.7403,-804 698.7403,-816 698.7403,-816 698.7403,-822 692.7403,-828 686.7403,-828"/>
<text text-anchor="middle" x="645.2403" y="-813" font-family="sans" font-size="10.00" fill="#000000">merge_bam</text>
<text text-anchor="middle" x="645.2403" y="-802" font-family="sans" font-size="10.00" fill="#000000">sample: GFP_IIG_7</text>
</g>
<!-- 47&#45;&gt;32 -->
<g id="edge78" class="edge">
<title>47&#45;&gt;32</title>
<path fill="none" stroke="#c0c0c0" stroke-width="2" d="M699.113,-808.8182C812.2028,-805.6316 1082.3127,-794.3138 1305.2403,-756 1315.4405,-754.2469 1326.3397,-751.6818 1336.3571,-749.0345"/>
<polygon fill="#c0c0c0" stroke="#c0c0c0" stroke-width="2" points="1337.3022,-752.4046 1346.0221,-746.3868 1335.4527,-745.6534 1337.3022,-752.4046"/>
</g>
<!-- 53 -->
<g id="node54" class="node">
<title>53</title>
<path fill="none" stroke="#d8c356" stroke-width="2" stroke-dasharray="5,2" d="M598.2403,-756C598.2403,-756 556.2403,-756 556.2403,-756 550.2403,-756 544.2403,-750 544.2403,-744 544.2403,-744 544.2403,-732 544.2403,-732 544.2403,-726 550.2403,-720 556.2403,-720 556.2403,-720 598.2403,-720 598.2403,-720 604.2403,-720 610.2403,-726 610.2403,-732 610.2403,-732 610.2403,-744 610.2403,-744 610.2403,-750 604.2403,-756 598.2403,-756"/>
<text text-anchor="middle" x="577.2403" y="-735.5" font-family="sans" font-size="10.00" fill="#000000">filter_bam</text>
</g>
<!-- 47&#45;&gt;53 -->
<g id="edge102" class="edge">
<title>47&#45;&gt;53</title>
<path fill="none" stroke="#c0c0c0" stroke-width="2" d="M628.081,-791.8314C620.0891,-783.3694 610.4365,-773.1489 601.6986,-763.8971"/>
<polygon fill="#c0c0c0" stroke="#c0c0c0" stroke-width="2" points="604.0414,-761.2802 594.6306,-756.4133 598.9523,-766.0866 604.0414,-761.2802"/>
</g>
<!-- 48 -->
<g id="node49" class="node">
<title>48</title>
<path fill="none" stroke="#d87d56" stroke-width="2" stroke-dasharray="5,2" d="M1192.2403,-396C1192.2403,-396 1078.2403,-396 1078.2403,-396 1072.2403,-396 1066.2403,-390 1066.2403,-384 1066.2403,-384 1066.2403,-372 1066.2403,-372 1066.2403,-366 1072.2403,-360 1078.2403,-360 1078.2403,-360 1192.2403,-360 1192.2403,-360 1198.2403,-360 1204.2403,-366 1204.2403,-372 1204.2403,-372 1204.2403,-384 1204.2403,-384 1204.2403,-390 1198.2403,-396 1192.2403,-396"/>
<text text-anchor="middle" x="1135.2403" y="-375.5" font-family="sans" font-size="10.00" fill="#000000">common_peaks_by_type</text>
</g>
<!-- 48&#45;&gt;33 -->
<g id="edge79" class="edge">
<title>48&#45;&gt;33</title>
<path fill="none" stroke="#c0c0c0" stroke-width="2" d="M1135.2403,-359.8314C1135.2403,-352.131 1135.2403,-342.9743 1135.2403,-334.4166"/>
<polygon fill="#c0c0c0" stroke="#c0c0c0" stroke-width="2" points="1138.7404,-334.4132 1135.2403,-324.4133 1131.7404,-334.4133 1138.7404,-334.4132"/>
</g>
<!-- 48&#45;&gt;35 -->
<g id="edge83" class="edge">
<title>48&#45;&gt;35</title>
<path fill="none" stroke="#c0c0c0" stroke-width="2" d="M1094.1079,-359.8891C1078.7543,-351.1578 1062.5611,-339.2261 1052.2403,-324 1039.926,-305.833 1035.652,-281.1623 1034.3312,-262.2449"/>
<polygon fill="#c0c0c0" stroke="#c0c0c0" stroke-width="2" points="1037.822,-261.9622 1033.8625,-252.1351 1030.8295,-262.2865 1037.822,-261.9622"/>
</g>
<!-- 50 -->
<g id="node51" class="node">
<title>50</title>
<path fill="none" stroke="#56b9d8" stroke-width="2" stroke-dasharray="5,2" d="M1341.2403,-324C1341.2403,-324 1239.2403,-324 1239.2403,-324 1233.2403,-324 1227.2403,-318 1227.2403,-312 1227.2403,-312 1227.2403,-300 1227.2403,-300 1227.2403,-294 1233.2403,-288 1239.2403,-288 1239.2403,-288 1341.2403,-288 1341.2403,-288 1347.2403,-288 1353.2403,-294 1353.2403,-300 1353.2403,-300 1353.2403,-312 1353.2403,-312 1353.2403,-318 1347.2403,-324 1341.2403,-324"/>
<text text-anchor="middle" x="1290.2403" y="-303.5" font-family="sans" font-size="10.00" fill="#000000">overlap_with_h3k27ac</text>
</g>
<!-- 48&#45;&gt;50 -->
<g id="edge99" class="edge">
<title>48&#45;&gt;50</title>
<path fill="none" stroke="#c0c0c0" stroke-width="2" d="M1174.3533,-359.8314C1194.9915,-350.2446 1220.4886,-338.4008 1242.3076,-328.2655"/>
<polygon fill="#c0c0c0" stroke="#c0c0c0" stroke-width="2" points="1243.8137,-331.4251 1251.4085,-324.038 1240.8647,-325.0766 1243.8137,-331.4251"/>
</g>
<!-- 49&#45;&gt;34 -->
<g id="edge82" class="edge">
<title>49&#45;&gt;34</title>
<path fill="none" stroke="#c0c0c0" stroke-width="2" d="M900.2403,-287.8314C900.2403,-280.131 900.2403,-270.9743 900.2403,-262.4166"/>
<polygon fill="#c0c0c0" stroke="#c0c0c0" stroke-width="2" points="903.7404,-262.4132 900.2403,-252.4133 896.7404,-262.4133 903.7404,-262.4132"/>
</g>
<!-- 50&#45;&gt;35 -->
<g id="edge84" class="edge">
<title>50&#45;&gt;35</title>
<path fill="none" stroke="#c0c0c0" stroke-width="2" d="M1226.9594,-288.2022C1181.4096,-275.3914 1121.0215,-258.4072 1080.0707,-246.8898"/>
<polygon fill="#c0c0c0" stroke="#c0c0c0" stroke-width="2" points="1080.931,-243.496 1070.3568,-244.1578 1079.0357,-250.2346 1080.931,-243.496"/>
</g>
<!-- 51&#45;&gt;36 -->
<g id="edge85" class="edge">
<title>51&#45;&gt;36</title>
<path fill="none" stroke="#c0c0c0" stroke-width="2" d="M717.371,-503.6681C718.3161,-484.3994 722.1721,-453.901 736.2403,-432 743.7764,-420.2679 754.8198,-410.1965 766.0471,-402.0387"/>
<polygon fill="#c0c0c0" stroke="#c0c0c0" stroke-width="2" points="768.3367,-404.713 774.6135,-396.1776 764.384,-398.9358 768.3367,-404.713"/>
</g>
<!-- 52 -->
<g id="node53" class="node">
<title>52</title>
<path fill="none" stroke="#56c1d8" stroke-width="2" stroke-dasharray="5,2" d="M860.7403,-468C860.7403,-468 757.7403,-468 757.7403,-468 751.7403,-468 745.7403,-462 745.7403,-456 745.7403,-456 745.7403,-444 745.7403,-444 745.7403,-438 751.7403,-432 757.7403,-432 757.7403,-432 860.7403,-432 860.7403,-432 866.7403,-432 872.7403,-438 872.7403,-444 872.7403,-444 872.7403,-456 872.7403,-456 872.7403,-462 866.7403,-468 860.7403,-468"/>
<text text-anchor="middle" x="809.2403" y="-447.5" font-family="sans" font-size="10.00" fill="#000000">merge_peaks_by_type</text>
</g>
<!-- 51&#45;&gt;52 -->
<g id="edge101" class="edge">
<title>51&#45;&gt;52</title>
<path fill="none" stroke="#c0c0c0" stroke-width="2" d="M740.4558,-503.8314C751.7873,-494.9632 765.5867,-484.1637 777.8429,-474.5718"/>
<polygon fill="#c0c0c0" stroke="#c0c0c0" stroke-width="2" points="780.3142,-477.0822 786.0322,-468.1628 776.0001,-471.5697 780.3142,-477.0822"/>
</g>
<!-- 52&#45;&gt;36 -->
<g id="edge86" class="edge">
<title>52&#45;&gt;36</title>
<path fill="none" stroke="#c0c0c0" stroke-width="2" d="M809.2403,-431.8314C809.2403,-424.131 809.2403,-414.9743 809.2403,-406.4166"/>
<polygon fill="#c0c0c0" stroke="#c0c0c0" stroke-width="2" points="812.7404,-406.4132 809.2403,-396.4133 805.7404,-406.4133 812.7404,-406.4132"/>
</g>
<!-- 53&#45;&gt;38 -->
<g id="edge87" class="edge">
<title>53&#45;&gt;38</title>
<path fill="none" stroke="#c0c0c0" stroke-width="2" d="M577.2403,-719.8314C577.2403,-712.131 577.2403,-702.9743 577.2403,-694.4166"/>
<polygon fill="#c0c0c0" stroke="#c0c0c0" stroke-width="2" points="580.7404,-694.4132 577.2403,-684.4133 573.7404,-694.4133 580.7404,-694.4132"/>
</g>
<!-- 53&#45;&gt;44 -->
<g id="edge92" class="edge">
<title>53&#45;&gt;44</title>
<path fill="none" stroke="#c0c0c0" stroke-width="2" d="M549.4826,-719.8314C535.5432,-710.7074 518.4805,-699.539 503.5171,-689.7449"/>
<polygon fill="#c0c0c0" stroke="#c0c0c0" stroke-width="2" points="505.2729,-686.711 494.989,-684.1628 501.4392,-692.5679 505.2729,-686.711"/>
</g>
<!-- 54&#45;&gt;39 -->
<g id="edge88" class="edge">
<title>54&#45;&gt;39</title>
<path fill="none" stroke="#c0c0c0" stroke-width="2" d="M1629.605,-719.8314C1635.1911,-711.6232 1641.9032,-701.7606 1648.0475,-692.7323"/>
<polygon fill="#c0c0c0" stroke="#c0c0c0" stroke-width="2" points="1650.9762,-694.6496 1653.709,-684.4133 1645.1892,-690.7112 1650.9762,-694.6496"/>
</g>
<!-- 54&#45;&gt;40 -->
<g id="edge89" class="edge">
<title>54&#45;&gt;40</title>
<path fill="none" stroke="#c0c0c0" stroke-width="2" d="M1605.1278,-719.8314C1599.7122,-711.7079 1593.2161,-701.9637 1587.2481,-693.0118"/>
<polygon fill="#c0c0c0" stroke="#c0c0c0" stroke-width="2" points="1589.975,-690.7923 1581.5158,-684.4133 1584.1506,-694.6753 1589.975,-690.7923"/>
</g>
<!-- 55&#45;&gt;42 -->
<g id="edge90" class="edge">
<title>55&#45;&gt;42</title>
<path fill="none" stroke="#c0c0c0" stroke-width="2" d="M1288.9792,-719.8314C1301.784,-710.7927 1317.4312,-699.7476 1331.2122,-690.0198"/>
<polygon fill="#c0c0c0" stroke="#c0c0c0" stroke-width="2" points="1333.3583,-692.7891 1339.5096,-684.1628 1329.3215,-687.0703 1333.3583,-692.7891"/>
</g>
<!-- 55&#45;&gt;43 -->
<g id="edge91" class="edge">
<title>55&#45;&gt;43</title>
<path fill="none" stroke="#c0c0c0" stroke-width="2" d="M1229.9872,-725.1278C1200.9803,-713.8994 1158.5257,-697.4653 1125.7325,-684.7712"/>
<polygon fill="#c0c0c0" stroke="#c0c0c0" stroke-width="2" points="1126.915,-681.4759 1116.3258,-681.1299 1124.388,-688.0039 1126.915,-681.4759"/>
</g>
<!-- 56 -->
<g id="node57" class="node">
<title>56</title>
<path fill="none" stroke="#56b1d8" stroke-width="2" stroke-dasharray="5,2" d="M1902.2403,-900C1902.2403,-900 1684.2403,-900 1684.2403,-900 1678.2403,-900 1672.2403,-894 1672.2403,-888 1672.2403,-888 1672.2403,-876 1672.2403,-876 1672.2403,-870 1678.2403,-864 1684.2403,-864 1684.2403,-864 1902.2403,-864 1902.2403,-864 1908.2403,-864 1914.2403,-870 1914.2403,-876 1914.2403,-876 1914.2403,-888 1914.2403,-888 1914.2403,-894 1908.2403,-900 1902.2403,-900"/>
<text text-anchor="middle" x="1793.2403" y="-885" font-family="sans" font-size="10.00" fill="#000000">align</text>
<text text-anchor="middle" x="1793.2403" y="-874" font-family="sans" font-size="10.00" fill="#000000">lane_sample: HN7NJBBXX_16871585_S2_L001</text>
</g>
<!-- 56&#45;&gt;45 -->
<g id="edge93" class="edge">
<title>56&#45;&gt;45</title>
<path fill="none" stroke="#c0c0c0" stroke-width="2" d="M1748.828,-863.8314C1725.0798,-854.1162 1695.6657,-842.0831 1670.6739,-831.8592"/>
<polygon fill="#c0c0c0" stroke="#c0c0c0" stroke-width="2" points="1671.9139,-828.585 1661.3331,-828.038 1669.2634,-835.0638 1671.9139,-828.585"/>
</g>
<!-- 57 -->
<g id="node58" class="node">
<title>57</title>
<path fill="none" stroke="#56b1d8" stroke-width="2" stroke-dasharray="5,2" d="M1350.2403,-900C1350.2403,-900 1128.2403,-900 1128.2403,-900 1122.2403,-900 1116.2403,-894 1116.2403,-888 1116.2403,-888 1116.2403,-876 1116.2403,-876 1116.2403,-870 1122.2403,-864 1128.2403,-864 1128.2403,-864 1350.2403,-864 1350.2403,-864 1356.2403,-864 1362.2403,-870 1362.2403,-876 1362.2403,-876 1362.2403,-888 1362.2403,-888 1362.2403,-894 1356.2403,-900 1350.2403,-900"/>
<text text-anchor="middle" x="1239.2403" y="-885" font-family="sans" font-size="10.00" fill="#000000">align</text>
<text text-anchor="middle" x="1239.2403" y="-874" font-family="sans" font-size="10.00" fill="#000000">lane_sample: HN7TMBBXX_16871599_S8_L004</text>
</g>
<!-- 57&#45;&gt;46 -->
<g id="edge94" class="edge">
<title>57&#45;&gt;46</title>
<path fill="none" stroke="#c0c0c0" stroke-width="2" d="M1245.2965,-863.8314C1247.8915,-856.0463 1250.9826,-846.7729 1253.862,-838.1347"/>
<polygon fill="#c0c0c0" stroke="#c0c0c0" stroke-width="2" points="1257.2606,-839.0069 1257.1025,-828.4133 1250.6198,-836.7933 1257.2606,-839.0069"/>
</g>
<!-- 58 -->
<g id="node59" class="node">
<title>58</title>
<path fill="none" stroke="#56b1d8" stroke-width="2" stroke-dasharray="5,2" d="M754.2403,-900C754.2403,-900 536.2403,-900 536.2403,-900 530.2403,-900 524.2403,-894 524.2403,-888 524.2403,-888 524.2403,-876 524.2403,-876 524.2403,-870 530.2403,-864 536.2403,-864 536.2403,-864 754.2403,-864 754.2403,-864 760.2403,-864 766.2403,-870 766.2403,-876 766.2403,-876 766.2403,-888 766.2403,-888 766.2403,-894 760.2403,-900 754.2403,-900"/>
<text text-anchor="middle" x="645.2403" y="-885" font-family="sans" font-size="10.00" fill="#000000">align</text>
<text text-anchor="middle" x="645.2403" y="-874" font-family="sans" font-size="10.00" fill="#000000">lane_sample: HN7NJBBXX_16871601_S3_L001</text>
</g>
<!-- 58&#45;&gt;47 -->
<g id="edge95" class="edge">
<title>58&#45;&gt;47</title>
<path fill="none" stroke="#c0c0c0" stroke-width="2" d="M645.2403,-863.8314C645.2403,-856.131 645.2403,-846.9743 645.2403,-838.4166"/>
<polygon fill="#c0c0c0" stroke="#c0c0c0" stroke-width="2" points="648.7404,-838.4132 645.2403,-828.4133 641.7404,-838.4133 648.7404,-838.4132"/>
</g>
<!-- 59&#45;&gt;48 -->
<g id="edge96" class="edge">
<title>59&#45;&gt;48</title>
<path fill="none" stroke="#c0c0c0" stroke-width="2" d="M1223.5352,-503.726C1223.0336,-484.5058 1219.868,-454.0474 1206.2403,-432 1198.9731,-420.243 1188.1435,-410.1203 1177.1185,-401.9214"/>
<polygon fill="#c0c0c0" stroke="#c0c0c0" stroke-width="2" points="1178.9047,-398.8994 1168.7054,-396.0315 1174.8901,-404.6338 1178.9047,-398.8994"/>
</g>
<!-- 60 -->
<g id="node61" class="node">
<title>60</title>
<path fill="none" stroke="#56c1d8" stroke-width="2" stroke-dasharray="5,2" d="M1184.7403,-468C1184.7403,-468 1081.7403,-468 1081.7403,-468 1075.7403,-468 1069.7403,-462 1069.7403,-456 1069.7403,-456 1069.7403,-444 1069.7403,-444 1069.7403,-438 1075.7403,-432 1081.7403,-432 1081.7403,-432 1184.7403,-432 1184.7403,-432 1190.7403,-432 1196.7403,-438 1196.7403,-444 1196.7403,-444 1196.7403,-456 1196.7403,-456 1196.7403,-462 1190.7403,-468 1184.7403,-468"/>
<text text-anchor="middle" x="1133.2403" y="-447.5" font-family="sans" font-size="10.00" fill="#000000">merge_peaks_by_type</text>
</g>
<!-- 59&#45;&gt;60 -->
<g id="edge119" class="edge">
<title>59&#45;&gt;60</title>
<path fill="none" stroke="#c0c0c0" stroke-width="2" d="M1200.5295,-503.8314C1189.4443,-494.9632 1175.9449,-484.1637 1163.9551,-474.5718"/>
<polygon fill="#c0c0c0" stroke="#c0c0c0" stroke-width="2" points="1165.939,-471.6768 1155.9438,-468.1628 1161.5661,-477.1429 1165.939,-471.6768"/>
</g>
<!-- 60&#45;&gt;48 -->
<g id="edge97" class="edge">
<title>60&#45;&gt;48</title>
<path fill="none" stroke="#c0c0c0" stroke-width="2" d="M1133.745,-431.8314C1133.9589,-424.131 1134.2132,-414.9743 1134.4509,-406.4166"/>
<polygon fill="#c0c0c0" stroke="#c0c0c0" stroke-width="2" points="1137.9497,-406.5066 1134.7288,-396.4133 1130.9524,-406.3122 1137.9497,-406.5066"/>
</g>
<!-- 61 -->
<g id="node62" class="node">
<title>61</title>
<path fill="none" stroke="#bed856" stroke-width="2" stroke-dasharray="5,2" d="M1936.2403,-972C1936.2403,-972 1650.2403,-972 1650.2403,-972 1644.2403,-972 1638.2403,-966 1638.2403,-960 1638.2403,-960 1638.2403,-948 1638.2403,-948 1638.2403,-942 1644.2403,-936 1650.2403,-936 1650.2403,-936 1936.2403,-936 1936.2403,-936 1942.2403,-936 1948.2403,-942 1948.2403,-948 1948.2403,-948 1948.2403,-960 1948.2403,-960 1948.2403,-966 1942.2403,-972 1936.2403,-972"/>
<text text-anchor="middle" x="1793.2403" y="-957" font-family="sans" font-size="10.00" fill="#000000">pull_lane_fastq_from_nisc_or_sra</text>
<text text-anchor="middle" x="1793.2403" y="-946" font-family="sans" font-size="10.00" fill="#000000">lane_files: HN7NJBBXX_16871585_S2_L001_R1_001.fastq.gz</text>
</g>
<!-- 61&#45;&gt;56 -->
<g id="edge105" class="edge">
<title>61&#45;&gt;56</title>
<path fill="none" stroke="#c0c0c0" stroke-width="2" d="M1793.2403,-935.8314C1793.2403,-928.131 1793.2403,-918.9743 1793.2403,-910.4166"/>
<polygon fill="#c0c0c0" stroke="#c0c0c0" stroke-width="2" points="1796.7404,-910.4132 1793.2403,-900.4133 1789.7404,-910.4133 1796.7404,-910.4132"/>
</g>
<!-- 62 -->
<g id="node63" class="node">
<title>62</title>
<path fill="none" stroke="#bed856" stroke-width="2" stroke-dasharray="5,2" d="M2264.2403,-972C2264.2403,-972 1978.2403,-972 1978.2403,-972 1972.2403,-972 1966.2403,-966 1966.2403,-960 1966.2403,-960 1966.2403,-948 1966.2403,-948 1966.2403,-942 1972.2403,-936 1978.2403,-936 1978.2403,-936 2264.2403,-936 2264.2403,-936 2270.2403,-936 2276.2403,-942 2276.2403,-948 2276.2403,-948 2276.2403,-960 2276.2403,-960 2276.2403,-966 2270.2403,-972 2264.2403,-972"/>
<text text-anchor="middle" x="2121.2403" y="-957" font-family="sans" font-size="10.00" fill="#000000">pull_lane_fastq_from_nisc_or_sra</text>
<text text-anchor="middle" x="2121.2403" y="-946" font-family="sans" font-size="10.00" fill="#000000">lane_files: HN7NJBBXX_16871585_S2_L001_R2_001.fastq.gz</text>
</g>
<!-- 62&#45;&gt;56 -->
<g id="edge106" class="edge">
<title>62&#45;&gt;56</title>
<path fill="none" stroke="#c0c0c0" stroke-width="2" d="M2038.8954,-935.9243C1992.115,-925.6554 1933.4341,-912.7743 1885.157,-902.1768"/>
<polygon fill="#c0c0c0" stroke="#c0c0c0" stroke-width="2" points="1885.8524,-898.7462 1875.3345,-900.0207 1884.3515,-905.5834 1885.8524,-898.7462"/>
</g>
<!-- 63 -->
<g id="node64" class="node">
<title>63</title>
<path fill="none" stroke="#569ad8" stroke-width="2" stroke-dasharray="5,2" d="M1223.2403,-1044C1223.2403,-1044 1177.2403,-1044 1177.2403,-1044 1171.2403,-1044 1165.2403,-1038 1165.2403,-1032 1165.2403,-1032 1165.2403,-1020 1165.2403,-1020 1165.2403,-1014 1171.2403,-1008 1177.2403,-1008 1177.2403,-1008 1223.2403,-1008 1223.2403,-1008 1229.2403,-1008 1235.2403,-1014 1235.2403,-1020 1235.2403,-1020 1235.2403,-1032 1235.2403,-1032 1235.2403,-1038 1229.2403,-1044 1223.2403,-1044"/>
<text text-anchor="middle" x="1200.2403" y="-1023.5" font-family="sans" font-size="10.00" fill="#000000">build_hg19</text>
</g>
<!-- 63&#45;&gt;56 -->
<g id="edge107" class="edge">
<title>63&#45;&gt;56</title>
<path fill="none" stroke="#c0c0c0" stroke-width="2" d="M1235.3095,-1025.5972C1417.411,-1023.3383 2248.2093,-1010.9198 2285.2403,-972 2296.2692,-960.4085 2295.919,-947.9149 2285.2403,-936 2261.4611,-909.4681 2061.9955,-894.6493 1924.4606,-887.5026"/>
<polygon fill="#c0c0c0" stroke="#c0c0c0" stroke-width="2" points="1924.4211,-883.9961 1914.2553,-886.9804 1924.0633,-890.9869 1924.4211,-883.9961"/>
</g>
<!-- 63&#45;&gt;57 -->
<g id="edge111" class="edge">
<title>63&#45;&gt;57</title>
<path fill="none" stroke="#c0c0c0" stroke-width="2" d="M1190.0934,-1007.756C1181.1393,-989.0936 1170.9788,-959.5742 1181.2403,-936 1186.0818,-924.8773 1194.4686,-915.0106 1203.3842,-906.8541"/>
<polygon fill="#c0c0c0" stroke="#c0c0c0" stroke-width="2" points="1205.9303,-909.2833 1211.2794,-900.138 1201.3947,-903.9515 1205.9303,-909.2833"/>
</g>
<!-- 63&#45;&gt;58 -->
<g id="edge115" class="edge">
<title>63&#45;&gt;58</title>
<path fill="none" stroke="#c0c0c0" stroke-width="2" d="M1165.0134,-1024.6657C1024.0001,-1019.1572 506.6912,-997.2835 483.2403,-972 454.2582,-940.7531 498.6421,-917.7462 548.2276,-902.818"/>
<polygon fill="#c0c0c0" stroke="#c0c0c0" stroke-width="2" points="549.2272,-906.1724 557.8614,-900.0323 547.2827,-899.4479 549.2272,-906.1724"/>
</g>
<!-- 64 -->
<g id="node65" class="node">
<title>64</title>
<path fill="none" stroke="#56d8b1" stroke-width="2" stroke-dasharray="5,2" d="M1276.2403,-972C1276.2403,-972 1202.2403,-972 1202.2403,-972 1196.2403,-972 1190.2403,-966 1190.2403,-960 1190.2403,-960 1190.2403,-948 1190.2403,-948 1190.2403,-942 1196.2403,-936 1202.2403,-936 1202.2403,-936 1276.2403,-936 1276.2403,-936 1282.2403,-936 1288.2403,-942 1288.2403,-948 1288.2403,-948 1288.2403,-960 1288.2403,-960 1288.2403,-966 1282.2403,-972 1276.2403,-972"/>
<text text-anchor="middle" x="1239.2403" y="-951.5" font-family="sans" font-size="10.00" fill="#000000">build_bwa_index</text>
</g>
<!-- 63&#45;&gt;64 -->
<g id="edge120" class="edge">
<title>63&#45;&gt;64</title>
<path fill="none" stroke="#c0c0c0" stroke-width="2" d="M1210.0816,-1007.8314C1214.436,-999.7925 1219.6501,-990.1666 1224.4572,-981.2918"/>
<polygon fill="#c0c0c0" stroke="#c0c0c0" stroke-width="2" points="1227.5811,-982.8732 1229.2664,-972.4133 1221.426,-979.5392 1227.5811,-982.8732"/>
</g>
<!-- 64&#45;&gt;56 -->
<g id="edge108" class="edge">
<title>64&#45;&gt;56</title>
<path fill="none" stroke="#c0c0c0" stroke-width="2" d="M1288.4322,-938.0268C1291.3978,-937.2841 1294.3498,-936.6 1297.2403,-936 1419.5165,-910.6168 1561.3822,-896.697 1661.9904,-889.3794"/>
<polygon fill="#c0c0c0" stroke="#c0c0c0" stroke-width="2" points="1662.4829,-892.8533 1672.2077,-888.6487 1661.9834,-885.8711 1662.4829,-892.8533"/>
</g>
<!-- 64&#45;&gt;57 -->
<g id="edge112" class="edge">
<title>64&#45;&gt;57</title>
<path fill="none" stroke="#c0c0c0" stroke-width="2" d="M1239.2403,-935.8314C1239.2403,-928.131 1239.2403,-918.9743 1239.2403,-910.4166"/>
<polygon fill="#c0c0c0" stroke="#c0c0c0" stroke-width="2" points="1242.7404,-910.4132 1239.2403,-900.4133 1235.7404,-910.4133 1242.7404,-910.4132"/>
</g>
<!-- 64&#45;&gt;58 -->
<g id="edge116" class="edge">
<title>64&#45;&gt;58</title>
<path fill="none" stroke="#c0c0c0" stroke-width="2" d="M1190.032,-944.017C1175.0485,-941.1817 1158.5055,-938.2553 1143.2403,-936 1019.3099,-917.6904 877.1665,-902.8882 776.5483,-893.4436"/>
<polygon fill="#c0c0c0" stroke="#c0c0c0" stroke-width="2" points="776.6131,-889.9345 766.3309,-892.4896 775.9622,-896.9042 776.6131,-889.9345"/>
</g>
<!-- 65 -->
<g id="node66" class="node">
<title>65</title>
<path fill="none" stroke="#bed856" stroke-width="2" stroke-dasharray="5,2" d="M1608.2403,-972C1608.2403,-972 1318.2403,-972 1318.2403,-972 1312.2403,-972 1306.2403,-966 1306.2403,-960 1306.2403,-960 1306.2403,-948 1306.2403,-948 1306.2403,-942 1312.2403,-936 1318.2403,-936 1318.2403,-936 1608.2403,-936 1608.2403,-936 1614.2403,-936 1620.2403,-942 1620.2403,-948 1620.2403,-948 1620.2403,-960 1620.2403,-960 1620.2403,-966 1614.2403,-972 1608.2403,-972"/>
<text text-anchor="middle" x="1463.2403" y="-957" font-family="sans" font-size="10.00" fill="#000000">pull_lane_fastq_from_nisc_or_sra</text>
<text text-anchor="middle" x="1463.2403" y="-946" font-family="sans" font-size="10.00" fill="#000000">lane_files: HN7TMBBXX_16871599_S8_L004_R1_001.fastq.gz</text>
</g>
<!-- 65&#45;&gt;57 -->
<g id="edge109" class="edge">
<title>65&#45;&gt;57</title>
<path fill="none" stroke="#c0c0c0" stroke-width="2" d="M1407.0047,-935.9243C1376.1164,-925.9959 1337.6307,-913.6255 1305.3147,-903.2382"/>
<polygon fill="#c0c0c0" stroke="#c0c0c0" stroke-width="2" points="1306.0903,-899.8112 1295.4989,-900.0831 1303.9482,-906.4754 1306.0903,-899.8112"/>
</g>
<!-- 66 -->
<g id="node67" class="node">
<title>66</title>
<path fill="none" stroke="#bed856" stroke-width="2" stroke-dasharray="5,2" d="M1122.2403,-972C1122.2403,-972 832.2403,-972 832.2403,-972 826.2403,-972 820.2403,-966 820.2403,-960 820.2403,-960 820.2403,-948 820.2403,-948 820.2403,-942 826.2403,-936 832.2403,-936 832.2403,-936 1122.2403,-936 1122.2403,-936 1128.2403,-936 1134.2403,-942 1134.2403,-948 1134.2403,-948 1134.2403,-960 1134.2403,-960 1134.2403,-966 1128.2403,-972 1122.2403,-972"/>
<text text-anchor="middle" x="977.2403" y="-957" font-family="sans" font-size="10.00" fill="#000000">pull_lane_fastq_from_nisc_or_sra</text>
<text text-anchor="middle" x="977.2403" y="-946" font-family="sans" font-size="10.00" fill="#000000">lane_files: HN7TMBBXX_16871599_S8_L004_R2_001.fastq.gz</text>
</g>
<!-- 66&#45;&gt;57 -->
<g id="edge110" class="edge">
<title>66&#45;&gt;57</title>
<path fill="none" stroke="#c0c0c0" stroke-width="2" d="M1043.0158,-935.9243C1079.6113,-925.8675 1125.3243,-913.3052 1163.4194,-902.8363"/>
<polygon fill="#c0c0c0" stroke="#c0c0c0" stroke-width="2" points="1164.7227,-906.108 1173.4377,-900.0831 1162.8677,-899.3582 1164.7227,-906.108"/>
</g>
<!-- 67 -->
<g id="node68" class="node">
<title>67</title>
<path fill="none" stroke="#bed856" stroke-width="2" stroke-dasharray="5,2" d="M790.2403,-972C790.2403,-972 504.2403,-972 504.2403,-972 498.2403,-972 492.2403,-966 492.2403,-960 492.2403,-960 492.2403,-948 492.2403,-948 492.2403,-942 498.2403,-936 504.2403,-936 504.2403,-936 790.2403,-936 790.2403,-936 796.2403,-936 802.2403,-942 802.2403,-948 802.2403,-948 802.2403,-960 802.2403,-960 802.2403,-966 796.2403,-972 790.2403,-972"/>
<text text-anchor="middle" x="647.2403" y="-957" font-family="sans" font-size="10.00" fill="#000000">pull_lane_fastq_from_nisc_or_sra</text>
<text text-anchor="middle" x="647.2403" y="-946" font-family="sans" font-size="10.00" fill="#000000">lane_files: HN7NJBBXX_16871601_S3_L001_R1_001.fastq.gz</text>
</g>
<!-- 67&#45;&gt;58 -->
<g id="edge113" class="edge">
<title>67&#45;&gt;58</title>
<path fill="none" stroke="#c0c0c0" stroke-width="2" d="M646.7356,-935.8314C646.5217,-928.131 646.2673,-918.9743 646.0296,-910.4166"/>
<polygon fill="#c0c0c0" stroke="#c0c0c0" stroke-width="2" points="649.5282,-910.3122 645.7518,-900.4133 642.5309,-910.5066 649.5282,-910.3122"/>
</g>
<!-- 68 -->
<g id="node69" class="node">
<title>68</title>
<path fill="none" stroke="#bed856" stroke-width="2" stroke-dasharray="5,2" d="M424.2403,-972C424.2403,-972 138.2403,-972 138.2403,-972 132.2403,-972 126.2403,-966 126.2403,-960 126.2403,-960 126.2403,-948 126.2403,-948 126.2403,-942 132.2403,-936 138.2403,-936 138.2403,-936 424.2403,-936 424.2403,-936 430.2403,-936 436.2403,-942 436.2403,-948 436.2403,-948 436.2403,-960 436.2403,-960 436.2403,-966 430.2403,-972 424.2403,-972"/>
<text text-anchor="middle" x="281.2403" y="-957" font-family="sans" font-size="10.00" fill="#000000">pull_lane_fastq_from_nisc_or_sra</text>
<text text-anchor="middle" x="281.2403" y="-946" font-family="sans" font-size="10.00" fill="#000000">lane_files: HN7NJBBXX_16871601_S3_L001_R2_001.fastq.gz</text>
</g>
<!-- 68&#45;&gt;58 -->
<g id="edge114" class="edge">
<title>68&#45;&gt;58</title>
<path fill="none" stroke="#c0c0c0" stroke-width="2" d="M372.623,-935.9243C424.8629,-925.5911 490.4755,-912.6128 544.2404,-901.978"/>
<polygon fill="#c0c0c0" stroke="#c0c0c0" stroke-width="2" points="545.005,-905.3947 554.1357,-900.0207 543.6466,-898.5277 545.005,-905.3947"/>
</g>
</g>
</svg>
