<?xml version="1.0" encoding="UTF-8" standalone="no"?>
<!DOCTYPE svg PUBLIC "-//W3C//DTD SVG 1.1//EN"
 "http://www.w3.org/Graphics/SVG/1.1/DTD/svg11.dtd">
<!-- Generated by graphviz version 2.40.1 (20161225.0304)
 -->
<!-- Title: snakemake_dag Pages: 1 -->
<svg width="2419pt" height="1052pt"
 viewBox="0.00 0.00 2419.18 1052.00" xmlns="http://www.w3.org/2000/svg" xmlns:xlink="http://www.w3.org/1999/xlink">
<g id="graph0" class="graph" transform="scale(1 1) rotate(0) translate(4 1048)">
<title>snakemake_dag</title>
<polygon fill="#ffffff" stroke="transparent" points="-4,4 -4,-1048 2415.1781,-1048 2415.1781,4 -4,4"/>
<!-- 0 -->
<g id="node1" class="node">
<title>0</title>
<path fill="none" stroke="#d87556" stroke-width="2" d="M992,-36C992,-36 962,-36 962,-36 956,-36 950,-30 950,-24 950,-24 950,-12 950,-12 950,-6 956,0 962,0 962,0 992,0 992,0 998,0 1004,-6 1004,-12 1004,-12 1004,-24 1004,-24 1004,-30 998,-36 992,-36"/>
<text text-anchor="middle" x="977" y="-15.5" font-family="sans" font-size="10.00" fill="#000000">all</text>
</g>
<!-- 1 -->
<g id="node2" class="node">
<title>1</title>
<path fill="none" stroke="#568ad8" stroke-width="2" stroke-dasharray="5,2" d="M528.5,-108C528.5,-108 475.5,-108 475.5,-108 469.5,-108 463.5,-102 463.5,-96 463.5,-96 463.5,-84 463.5,-84 463.5,-78 469.5,-72 475.5,-72 475.5,-72 528.5,-72 528.5,-72 534.5,-72 540.5,-78 540.5,-84 540.5,-84 540.5,-96 540.5,-96 540.5,-102 534.5,-108 528.5,-108"/>
<text text-anchor="middle" x="502" y="-87.5" font-family="sans" font-size="10.00" fill="#000000">homer_TFBS</text>
</g>
<!-- 1&#45;&gt;0 -->
<g id="edge1" class="edge">
<title>1&#45;&gt;0</title>
<path fill="none" stroke="#c0c0c0" stroke-width="2" d="M540.751,-74.3351C543.5194,-73.4711 546.2879,-72.6799 549,-72 690.2524,-36.5897 863.8379,-23.818 939.1565,-19.7232"/>
<polygon fill="#c0c0c0" stroke="#c0c0c0" stroke-width="2" points="939.7369,-23.1977 949.5405,-19.1803 939.3714,-16.2073 939.7369,-23.1977"/>
</g>
<!-- 2 -->
<g id="node3" class="node">
<title>2</title>
<path fill="none" stroke="#568ad8" stroke-width="2" stroke-dasharray="5,2" d="M813.5,-108C813.5,-108 760.5,-108 760.5,-108 754.5,-108 748.5,-102 748.5,-96 748.5,-96 748.5,-84 748.5,-84 748.5,-78 754.5,-72 760.5,-72 760.5,-72 813.5,-72 813.5,-72 819.5,-72 825.5,-78 825.5,-84 825.5,-84 825.5,-96 825.5,-96 825.5,-102 819.5,-108 813.5,-108"/>
<text text-anchor="middle" x="787" y="-87.5" font-family="sans" font-size="10.00" fill="#000000">homer_TFBS</text>
</g>
<!-- 2&#45;&gt;0 -->
<g id="edge2" class="edge">
<title>2&#45;&gt;0</title>
<path fill="none" stroke="#c0c0c0" stroke-width="2" d="M825.9078,-75.256C859.3604,-62.5792 907.2703,-44.4239 940.1209,-31.9752"/>
<polygon fill="#c0c0c0" stroke="#c0c0c0" stroke-width="2" points="941.6889,-35.124 949.7997,-28.3075 939.2084,-28.5782 941.6889,-35.124"/>
</g>
<!-- 3 -->
<g id="node4" class="node">
<title>3</title>
<path fill="none" stroke="#568ad8" stroke-width="2" stroke-dasharray="5,2" d="M1098.5,-108C1098.5,-108 1045.5,-108 1045.5,-108 1039.5,-108 1033.5,-102 1033.5,-96 1033.5,-96 1033.5,-84 1033.5,-84 1033.5,-78 1039.5,-72 1045.5,-72 1045.5,-72 1098.5,-72 1098.5,-72 1104.5,-72 1110.5,-78 1110.5,-84 1110.5,-84 1110.5,-96 1110.5,-96 1110.5,-102 1104.5,-108 1098.5,-108"/>
<text text-anchor="middle" x="1072" y="-87.5" font-family="sans" font-size="10.00" fill="#000000">homer_TFBS</text>
</g>
<!-- 3&#45;&gt;0 -->
<g id="edge3" class="edge">
<title>3&#45;&gt;0</title>
<path fill="none" stroke="#c0c0c0" stroke-width="2" d="M1048.0275,-71.8314C1036.2139,-62.8779 1021.8028,-51.9558 1009.0565,-42.2955"/>
<polygon fill="#c0c0c0" stroke="#c0c0c0" stroke-width="2" points="1011.0486,-39.4137 1000.9648,-36.1628 1006.8205,-44.9925 1011.0486,-39.4137"/>
</g>
<!-- 4 -->
<g id="node5" class="node">
<title>4</title>
<path fill="none" stroke="#568ad8" stroke-width="2" stroke-dasharray="5,2" d="M1003.5,-108C1003.5,-108 950.5,-108 950.5,-108 944.5,-108 938.5,-102 938.5,-96 938.5,-96 938.5,-84 938.5,-84 938.5,-78 944.5,-72 950.5,-72 950.5,-72 1003.5,-72 1003.5,-72 1009.5,-72 1015.5,-78 1015.5,-84 1015.5,-84 1015.5,-96 1015.5,-96 1015.5,-102 1009.5,-108 1003.5,-108"/>
<text text-anchor="middle" x="977" y="-87.5" font-family="sans" font-size="10.00" fill="#000000">homer_TFBS</text>
</g>
<!-- 4&#45;&gt;0 -->
<g id="edge4" class="edge">
<title>4&#45;&gt;0</title>
<path fill="none" stroke="#c0c0c0" stroke-width="2" d="M977,-71.8314C977,-64.131 977,-54.9743 977,-46.4166"/>
<polygon fill="#c0c0c0" stroke="#c0c0c0" stroke-width="2" points="980.5001,-46.4132 977,-36.4133 973.5001,-46.4133 980.5001,-46.4132"/>
</g>
<!-- 5 -->
<g id="node6" class="node">
<title>5</title>
<path fill="none" stroke="#568ad8" stroke-width="2" stroke-dasharray="5,2" d="M433.5,-108C433.5,-108 380.5,-108 380.5,-108 374.5,-108 368.5,-102 368.5,-96 368.5,-96 368.5,-84 368.5,-84 368.5,-78 374.5,-72 380.5,-72 380.5,-72 433.5,-72 433.5,-72 439.5,-72 445.5,-78 445.5,-84 445.5,-84 445.5,-96 445.5,-96 445.5,-102 439.5,-108 433.5,-108"/>
<text text-anchor="middle" x="407" y="-87.5" font-family="sans" font-size="10.00" fill="#000000">homer_TFBS</text>
</g>
<!-- 5&#45;&gt;0 -->
<g id="edge5" class="edge">
<title>5&#45;&gt;0</title>
<path fill="none" stroke="#c0c0c0" stroke-width="2" d="M445.7338,-74.2645C448.5062,-73.4173 451.2804,-72.6492 454,-72 546.706,-49.871 836.1814,-27.9119 939.7141,-20.5707"/>
<polygon fill="#c0c0c0" stroke="#c0c0c0" stroke-width="2" points="939.9784,-24.0609 949.7077,-19.8666 939.4864,-17.0782 939.9784,-24.0609"/>
</g>
<!-- 6 -->
<g id="node7" class="node">
<title>6</title>
<path fill="none" stroke="#568ad8" stroke-width="2" stroke-dasharray="5,2" d="M908.5,-108C908.5,-108 855.5,-108 855.5,-108 849.5,-108 843.5,-102 843.5,-96 843.5,-96 843.5,-84 843.5,-84 843.5,-78 849.5,-72 855.5,-72 855.5,-72 908.5,-72 908.5,-72 914.5,-72 920.5,-78 920.5,-84 920.5,-84 920.5,-96 920.5,-96 920.5,-102 914.5,-108 908.5,-108"/>
<text text-anchor="middle" x="882" y="-87.5" font-family="sans" font-size="10.00" fill="#000000">homer_TFBS</text>
</g>
<!-- 6&#45;&gt;0 -->
<g id="edge6" class="edge">
<title>6&#45;&gt;0</title>
<path fill="none" stroke="#c0c0c0" stroke-width="2" d="M905.9725,-71.8314C917.7861,-62.8779 932.1972,-51.9558 944.9435,-42.2955"/>
<polygon fill="#c0c0c0" stroke="#c0c0c0" stroke-width="2" points="947.1795,-44.9925 953.0352,-36.1628 942.9514,-39.4137 947.1795,-44.9925"/>
</g>
<!-- 7 -->
<g id="node8" class="node">
<title>7</title>
<path fill="none" stroke="#568ad8" stroke-width="2" stroke-dasharray="5,2" d="M718.5,-108C718.5,-108 665.5,-108 665.5,-108 659.5,-108 653.5,-102 653.5,-96 653.5,-96 653.5,-84 653.5,-84 653.5,-78 659.5,-72 665.5,-72 665.5,-72 718.5,-72 718.5,-72 724.5,-72 730.5,-78 730.5,-84 730.5,-84 730.5,-96 730.5,-96 730.5,-102 724.5,-108 718.5,-108"/>
<text text-anchor="middle" x="692" y="-87.5" font-family="sans" font-size="10.00" fill="#000000">homer_TFBS</text>
</g>
<!-- 7&#45;&gt;0 -->
<g id="edge7" class="edge">
<title>7&#45;&gt;0</title>
<path fill="none" stroke="#c0c0c0" stroke-width="2" d="M730.577,-74.725C733.4117,-73.7569 736.2407,-72.8368 739,-72 808.9251,-50.7956 892.6474,-33.6542 939.8444,-24.7245"/>
<polygon fill="#c0c0c0" stroke="#c0c0c0" stroke-width="2" points="940.7192,-28.1216 949.9044,-22.8411 939.4311,-21.2411 940.7192,-28.1216"/>
</g>
<!-- 8 -->
<g id="node9" class="node">
<title>8</title>
<path fill="none" stroke="#568ad8" stroke-width="2" stroke-dasharray="5,2" d="M623.5,-108C623.5,-108 570.5,-108 570.5,-108 564.5,-108 558.5,-102 558.5,-96 558.5,-96 558.5,-84 558.5,-84 558.5,-78 564.5,-72 570.5,-72 570.5,-72 623.5,-72 623.5,-72 629.5,-72 635.5,-78 635.5,-84 635.5,-84 635.5,-96 635.5,-96 635.5,-102 629.5,-108 623.5,-108"/>
<text text-anchor="middle" x="597" y="-87.5" font-family="sans" font-size="10.00" fill="#000000">homer_TFBS</text>
</g>
<!-- 8&#45;&gt;0 -->
<g id="edge8" class="edge">
<title>8&#45;&gt;0</title>
<path fill="none" stroke="#c0c0c0" stroke-width="2" d="M635.5206,-74.5283C638.3686,-73.6063 641.2159,-72.7503 644,-72 749.311,-43.6176 877.6224,-27.9529 939.7426,-21.5224"/>
<polygon fill="#c0c0c0" stroke="#c0c0c0" stroke-width="2" points="940.2461,-24.9894 949.842,-20.4984 939.5399,-18.0251 940.2461,-24.9894"/>
</g>
<!-- 9 -->
<g id="node10" class="node">
<title>9</title>
<path fill="none" stroke="#d8cb56" stroke-width="2" stroke-dasharray="5,2" d="M475.5,-468C475.5,-468 362.5,-468 362.5,-468 356.5,-468 350.5,-462 350.5,-456 350.5,-456 350.5,-444 350.5,-444 350.5,-438 356.5,-432 362.5,-432 362.5,-432 475.5,-432 475.5,-432 481.5,-432 487.5,-438 487.5,-444 487.5,-444 487.5,-456 487.5,-456 487.5,-462 481.5,-468 475.5,-468"/>
<text text-anchor="middle" x="419" y="-453" font-family="sans" font-size="10.00" fill="#000000">computeMatrix</text>
<text text-anchor="middle" x="419" y="-442" font-family="sans" font-size="10.00" fill="#000000">cell_type: GFP_ATAC&#45;Seq</text>
</g>
<!-- 9&#45;&gt;0 -->
<g id="edge9" class="edge">
<title>9&#45;&gt;0</title>
<path fill="none" stroke="#c0c0c0" stroke-width="2" d="M350.2799,-445.3861C231.4107,-433.2744 0,-389.7008 0,-234 0,-234 0,-234 0,-162 0,-65.1795 760.6613,-27.1072 939.6218,-19.4898"/>
<polygon fill="#c0c0c0" stroke="#c0c0c0" stroke-width="2" points="940.0052,-22.9769 949.8497,-19.0608 939.7118,-15.983 940.0052,-22.9769"/>
</g>
<!-- 10 -->
<g id="node11" class="node">
<title>10</title>
<path fill="none" stroke="#d8cb56" stroke-width="2" stroke-dasharray="5,2" d="M1653.5,-540C1653.5,-540 1540.5,-540 1540.5,-540 1534.5,-540 1528.5,-534 1528.5,-528 1528.5,-528 1528.5,-516 1528.5,-516 1528.5,-510 1534.5,-504 1540.5,-504 1540.5,-504 1653.5,-504 1653.5,-504 1659.5,-504 1665.5,-510 1665.5,-516 1665.5,-516 1665.5,-528 1665.5,-528 1665.5,-534 1659.5,-540 1653.5,-540"/>
<text text-anchor="middle" x="1597" y="-525" font-family="sans" font-size="10.00" fill="#000000">computeMatrix</text>
<text text-anchor="middle" x="1597" y="-514" font-family="sans" font-size="10.00" fill="#000000">cell_type: RFP_ATAC&#45;Seq</text>
</g>
<!-- 10&#45;&gt;0 -->
<g id="edge10" class="edge">
<title>10&#45;&gt;0</title>
<path fill="none" stroke="#c0c0c0" stroke-width="2" d="M1597,-503.8146C1597,-476.4983 1597,-423.25 1597,-378 1597,-378 1597,-378 1597,-162 1597,-108.1855 1564.0057,-96.3199 1516,-72 1471.408,-49.4095 1129.1044,-27.0956 1014.3565,-20.1809"/>
<polygon fill="#c0c0c0" stroke="#c0c0c0" stroke-width="2" points="1014.4822,-16.6822 1004.291,-19.5788 1014.0641,-23.6697 1014.4822,-16.6822"/>
</g>
<!-- 11 -->
<g id="node12" class="node">
<title>11</title>
<path fill="none" stroke="#56d8a9" stroke-width="2" stroke-dasharray="5,2" d="M1374,-540C1374,-540 1292,-540 1292,-540 1286,-540 1280,-534 1280,-528 1280,-528 1280,-516 1280,-516 1280,-510 1286,-504 1292,-504 1292,-504 1374,-504 1374,-504 1380,-504 1386,-510 1386,-516 1386,-516 1386,-528 1386,-528 1386,-534 1380,-540 1374,-540"/>
<text text-anchor="middle" x="1333" y="-519.5" font-family="sans" font-size="10.00" fill="#000000">ucsc_view_bigWig</text>
</g>
<!-- 11&#45;&gt;0 -->
<g id="edge11" class="edge">
<title>11&#45;&gt;0</title>
<path fill="none" stroke="#c0c0c0" stroke-width="2" d="M1386.1194,-506.5159C1441.7131,-486.656 1521,-446.3507 1521,-378 1521,-378 1521,-378 1521,-162 1521,-99.8588 1470.9629,-96.8346 1414,-72 1342.3811,-40.7758 1106.5255,-24.987 1014.3675,-19.8912"/>
<polygon fill="#c0c0c0" stroke="#c0c0c0" stroke-width="2" points="1014.2905,-16.382 1004.1158,-19.3359 1013.9118,-23.3717 1014.2905,-16.382"/>
</g>
<!-- 12 -->
<g id="node13" class="node">
<title>12</title>
<path fill="none" stroke="#56d8a9" stroke-width="2" stroke-dasharray="5,2" d="M1498,-540C1498,-540 1416,-540 1416,-540 1410,-540 1404,-534 1404,-528 1404,-528 1404,-516 1404,-516 1404,-510 1410,-504 1416,-504 1416,-504 1498,-504 1498,-504 1504,-504 1510,-510 1510,-516 1510,-516 1510,-528 1510,-528 1510,-534 1504,-540 1498,-540"/>
<text text-anchor="middle" x="1457" y="-519.5" font-family="sans" font-size="10.00" fill="#000000">ucsc_view_bigWig</text>
</g>
<!-- 12&#45;&gt;0 -->
<g id="edge12" class="edge">
<title>12&#45;&gt;0</title>
<path fill="none" stroke="#c0c0c0" stroke-width="2" d="M1481.1726,-503.9762C1511.3354,-479.2186 1559,-431.6136 1559,-378 1559,-378 1559,-378 1559,-162 1559,-105.1163 1519.351,-96.471 1468,-72 1387.6102,-33.6908 1114.5062,-21.9993 1014.2787,-18.9507"/>
<polygon fill="#c0c0c0" stroke="#c0c0c0" stroke-width="2" points="1014.127,-15.4449 1004.029,-18.651 1013.9224,-22.4419 1014.127,-15.4449"/>
</g>
<!-- 13 -->
<g id="node14" class="node">
<title>13</title>
<path fill="none" stroke="#56d8a9" stroke-width="2" stroke-dasharray="5,2" d="M936,-540C936,-540 854,-540 854,-540 848,-540 842,-534 842,-528 842,-528 842,-516 842,-516 842,-510 848,-504 854,-504 854,-504 936,-504 936,-504 942,-504 948,-510 948,-516 948,-516 948,-528 948,-528 948,-534 942,-540 936,-540"/>
<text text-anchor="middle" x="895" y="-519.5" font-family="sans" font-size="10.00" fill="#000000">ucsc_view_bigWig</text>
</g>
<!-- 13&#45;&gt;0 -->
<g id="edge13" class="edge">
<title>13&#45;&gt;0</title>
<path fill="none" stroke="#c0c0c0" stroke-width="2" d="M948.2181,-514.6252C1092.9597,-493.8498 1483,-432.7834 1483,-378 1483,-378 1483,-378 1483,-162 1483,-64.5727 1131.5897,-29.5231 1014.4708,-20.5472"/>
<polygon fill="#c0c0c0" stroke="#c0c0c0" stroke-width="2" points="1014.4374,-17.035 1004.2048,-19.7816 1013.9168,-24.0157 1014.4374,-17.035"/>
</g>
<!-- 14 -->
<g id="node15" class="node">
<title>14</title>
<path fill="none" stroke="#d85656" stroke-width="2" d="M1725.5,-684C1725.5,-684 1660.5,-684 1660.5,-684 1654.5,-684 1648.5,-678 1648.5,-672 1648.5,-672 1648.5,-660 1648.5,-660 1648.5,-654 1654.5,-648 1660.5,-648 1660.5,-648 1725.5,-648 1725.5,-648 1731.5,-648 1737.5,-654 1737.5,-660 1737.5,-660 1737.5,-672 1737.5,-672 1737.5,-678 1731.5,-684 1725.5,-684"/>
<text text-anchor="middle" x="1693" y="-663.5" font-family="sans" font-size="10.00" fill="#000000">multiqc_fastqc</text>
</g>
<!-- 14&#45;&gt;0 -->
<g id="edge14" class="edge">
<title>14&#45;&gt;0</title>
<path fill="none" stroke="#c0c0c0" stroke-width="2" d="M1693.2072,-647.8149C1693.5001,-620.4989 1694,-567.2511 1694,-522 1694,-522 1694,-522 1694,-162 1694,-90.2584 1627.5892,-96.0534 1560,-72 1458.6462,-35.9306 1126.3203,-22.5905 1014.2703,-19.0521"/>
<polygon fill="#c0c0c0" stroke="#c0c0c0" stroke-width="2" points="1014.2326,-15.5494 1004.1296,-18.7399 1014.0171,-22.5461 1014.2326,-15.5494"/>
</g>
<!-- 15 -->
<g id="node16" class="node">
<title>15</title>
<path fill="none" stroke="#d89c56" stroke-width="2" stroke-dasharray="5,2" d="M1294.5,-252C1294.5,-252 1169.5,-252 1169.5,-252 1163.5,-252 1157.5,-246 1157.5,-240 1157.5,-240 1157.5,-228 1157.5,-228 1157.5,-222 1163.5,-216 1169.5,-216 1169.5,-216 1294.5,-216 1294.5,-216 1300.5,-216 1306.5,-222 1306.5,-228 1306.5,-228 1306.5,-240 1306.5,-240 1306.5,-246 1300.5,-252 1294.5,-252"/>
<text text-anchor="middle" x="1232" y="-231.5" font-family="sans" font-size="10.00" fill="#000000">ucsc_view_common_peaks</text>
</g>
<!-- 15&#45;&gt;0 -->
<g id="edge15" class="edge">
<title>15&#45;&gt;0</title>
<path fill="none" stroke="#c0c0c0" stroke-width="2" d="M1306.5966,-225.7972C1375.5331,-215.0978 1462.2218,-191.7857 1426,-144 1375.3318,-77.1559 1112.5478,-35.9746 1014.203,-22.7032"/>
<polygon fill="#c0c0c0" stroke="#c0c0c0" stroke-width="2" points="1014.4999,-19.212 1004.1259,-21.3637 1013.5775,-26.1509 1014.4999,-19.212"/>
</g>
<!-- 16 -->
<g id="node17" class="node">
<title>16</title>
<path fill="none" stroke="#59d856" stroke-width="2" stroke-dasharray="5,2" d="M268.5,-180C268.5,-180 175.5,-180 175.5,-180 169.5,-180 163.5,-174 163.5,-168 163.5,-168 163.5,-156 163.5,-156 163.5,-150 169.5,-144 175.5,-144 175.5,-144 268.5,-144 268.5,-144 274.5,-144 280.5,-150 280.5,-156 280.5,-156 280.5,-168 280.5,-168 280.5,-174 274.5,-180 268.5,-180"/>
<text text-anchor="middle" x="222" y="-165" font-family="sans" font-size="10.00" fill="#000000">TF_gene_punctate_R</text>
<text text-anchor="middle" x="222" y="-154" font-family="sans" font-size="10.00" fill="#000000">num: 1</text>
</g>
<!-- 16&#45;&gt;1 -->
<g id="edge16" class="edge">
<title>16&#45;&gt;1</title>
<path fill="none" stroke="#c0c0c0" stroke-width="2" d="M280.7854,-146.0371C283.5594,-145.3373 286.3083,-144.6548 289,-144 358.9401,-126.9855 380.2714,-129.0232 453.6772,-107.869"/>
<polygon fill="#c0c0c0" stroke="#c0c0c0" stroke-width="2" points="454.7766,-111.1941 463.3895,-105.0242 452.8088,-104.4764 454.7766,-111.1941"/>
</g>
<!-- 17 -->
<g id="node18" class="node">
<title>17</title>
<path fill="none" stroke="#68d856" stroke-width="2" stroke-dasharray="5,2" d="M729,-180C729,-180 601,-180 601,-180 595,-180 589,-174 589,-168 589,-168 589,-156 589,-156 589,-150 595,-144 601,-144 601,-144 729,-144 729,-144 735,-144 741,-150 741,-156 741,-156 741,-168 741,-168 741,-174 735,-180 729,-180"/>
<text text-anchor="middle" x="665" y="-159.5" font-family="sans" font-size="10.00" fill="#000000">closest_TSS_each_cell_type</text>
</g>
<!-- 17&#45;&gt;1 -->
<g id="edge17" class="edge">
<title>17&#45;&gt;1</title>
<path fill="none" stroke="#c0c0c0" stroke-width="2" d="M623.8682,-143.8314C601.4048,-133.9089 573.4676,-121.5685 550.0107,-111.2072"/>
<polygon fill="#c0c0c0" stroke="#c0c0c0" stroke-width="2" points="551.158,-107.8878 540.5965,-107.0487 548.3296,-114.2909 551.158,-107.8878"/>
</g>
<!-- 17&#45;&gt;2 -->
<g id="edge20" class="edge">
<title>17&#45;&gt;2</title>
<path fill="none" stroke="#c0c0c0" stroke-width="2" d="M695.7858,-143.8314C711.3903,-134.6221 730.524,-123.3301 747.2303,-113.4706"/>
<polygon fill="#c0c0c0" stroke="#c0c0c0" stroke-width="2" points="749.3909,-116.2596 756.2241,-108.1628 745.8331,-110.2312 749.3909,-116.2596"/>
</g>
<!-- 17&#45;&gt;3 -->
<g id="edge23" class="edge">
<title>17&#45;&gt;3</title>
<path fill="none" stroke="#c0c0c0" stroke-width="2" d="M741.4013,-145.5253C744.3012,-144.9939 747.175,-144.4833 750,-144 868.2965,-123.7636 903.6509,-137.4843 1023.333,-108.1314"/>
<polygon fill="#c0c0c0" stroke="#c0c0c0" stroke-width="2" points="1024.3944,-111.4738 1033.2453,-105.6504 1022.6947,-104.6833 1024.3944,-111.4738"/>
</g>
<!-- 17&#45;&gt;4 -->
<g id="edge26" class="edge">
<title>17&#45;&gt;4</title>
<path fill="none" stroke="#c0c0c0" stroke-width="2" d="M741.4471,-145.7687C744.3342,-145.1692 747.1929,-144.5779 750,-144 826.787,-128.1914 849.8428,-130.4555 928.5636,-108.1951"/>
<polygon fill="#c0c0c0" stroke="#c0c0c0" stroke-width="2" points="929.8021,-111.4809 938.447,-105.3559 927.8693,-104.753 929.8021,-111.4809"/>
</g>
<!-- 17&#45;&gt;5 -->
<g id="edge29" class="edge">
<title>17&#45;&gt;5</title>
<path fill="none" stroke="#c0c0c0" stroke-width="2" d="M588.7143,-144.7223C550.8722,-135.6237 504.3765,-123.657 455.4249,-108.3048"/>
<polygon fill="#c0c0c0" stroke="#c0c0c0" stroke-width="2" points="456.1939,-104.8769 445.6037,-105.189 454.0771,-111.5492 456.1939,-104.8769"/>
</g>
<!-- 17&#45;&gt;6 -->
<g id="edge32" class="edge">
<title>17&#45;&gt;6</title>
<path fill="none" stroke="#c0c0c0" stroke-width="2" d="M724.6802,-143.9741C755.0426,-134.587 792.6994,-122.6163 833.6975,-108.3795"/>
<polygon fill="#c0c0c0" stroke="#c0c0c0" stroke-width="2" points="835.0511,-111.6141 843.337,-105.0115 832.7422,-105.0059 835.0511,-111.6141"/>
</g>
<!-- 17&#45;&gt;7 -->
<g id="edge35" class="edge">
<title>17&#45;&gt;7</title>
<path fill="none" stroke="#c0c0c0" stroke-width="2" d="M671.8132,-143.8314C674.7644,-135.9617 678.2858,-126.5712 681.555,-117.8533"/>
<polygon fill="#c0c0c0" stroke="#c0c0c0" stroke-width="2" points="684.8609,-119.0055 685.095,-108.4133 678.3066,-116.5476 684.8609,-119.0055"/>
</g>
<!-- 17&#45;&gt;8 -->
<g id="edge38" class="edge">
<title>17&#45;&gt;8</title>
<path fill="none" stroke="#c0c0c0" stroke-width="2" d="M647.8407,-143.8314C639.8489,-135.3694 630.1962,-125.1489 621.4584,-115.8971"/>
<polygon fill="#c0c0c0" stroke="#c0c0c0" stroke-width="2" points="623.8011,-113.2802 614.3903,-108.4133 618.712,-118.0866 623.8011,-113.2802"/>
</g>
<!-- 18 -->
<g id="node19" class="node">
<title>18</title>
<path fill="none" stroke="#56d863" stroke-width="2" stroke-dasharray="5,2" d="M558.5,-180C558.5,-180 445.5,-180 445.5,-180 439.5,-180 433.5,-174 433.5,-168 433.5,-168 433.5,-156 433.5,-156 433.5,-150 439.5,-144 445.5,-144 445.5,-144 558.5,-144 558.5,-144 564.5,-144 570.5,-150 570.5,-156 570.5,-156 570.5,-168 570.5,-168 570.5,-174 564.5,-180 558.5,-180"/>
<text text-anchor="middle" x="502" y="-165" font-family="sans" font-size="10.00" fill="#000000">union_summits_by_type</text>
<text text-anchor="middle" x="502" y="-154" font-family="sans" font-size="10.00" fill="#000000">cell_type: GFP_ATAC&#45;Seq</text>
</g>
<!-- 18&#45;&gt;1 -->
<g id="edge18" class="edge">
<title>18&#45;&gt;1</title>
<path fill="none" stroke="#c0c0c0" stroke-width="2" d="M502,-143.8314C502,-136.131 502,-126.9743 502,-118.4166"/>
<polygon fill="#c0c0c0" stroke="#c0c0c0" stroke-width="2" points="505.5001,-118.4132 502,-108.4133 498.5001,-118.4133 505.5001,-118.4132"/>
</g>
<!-- 18&#45;&gt;2 -->
<g id="edge21" class="edge">
<title>18&#45;&gt;2</title>
<path fill="none" stroke="#c0c0c0" stroke-width="2" d="M570.8999,-146.0837C573.9751,-145.3785 577.0194,-144.6813 580,-144 647.5984,-128.5476 667.8609,-128.7214 738.5468,-107.9283"/>
<polygon fill="#c0c0c0" stroke="#c0c0c0" stroke-width="2" points="739.7976,-111.2077 748.3815,-104.9975 737.7984,-104.4993 739.7976,-111.2077"/>
</g>
<!-- 18&#45;&gt;3 -->
<g id="edge24" class="edge">
<title>18&#45;&gt;3</title>
<path fill="none" stroke="#c0c0c0" stroke-width="2" d="M570.7976,-145.5497C573.9005,-144.989 576.9786,-144.4683 580,-144 772.8276,-114.1147 829.6209,-150.6749 1023.3523,-108.0328"/>
<polygon fill="#c0c0c0" stroke="#c0c0c0" stroke-width="2" points="1024.2912,-111.4093 1033.2824,-105.8048 1022.7587,-104.5791 1024.2912,-111.4093"/>
</g>
<!-- 18&#45;&gt;4 -->
<g id="edge27" class="edge">
<title>18&#45;&gt;4</title>
<path fill="none" stroke="#c0c0c0" stroke-width="2" d="M570.8109,-145.6321C573.9101,-145.0491 576.9839,-144.5011 580,-144 730.9472,-118.9198 775.9642,-143.1881 928.0891,-108.1327"/>
<polygon fill="#c0c0c0" stroke="#c0c0c0" stroke-width="2" points="929.3347,-111.4352 938.2665,-105.7367 927.7305,-104.6215 929.3347,-111.4352"/>
</g>
<!-- 18&#45;&gt;5 -->
<g id="edge30" class="edge">
<title>18&#45;&gt;5</title>
<path fill="none" stroke="#c0c0c0" stroke-width="2" d="M478.0275,-143.8314C466.2139,-134.8779 451.8028,-123.9558 439.0565,-114.2955"/>
<polygon fill="#c0c0c0" stroke="#c0c0c0" stroke-width="2" points="441.0486,-111.4137 430.9648,-108.1628 436.8205,-116.9925 441.0486,-111.4137"/>
</g>
<!-- 18&#45;&gt;6 -->
<g id="edge33" class="edge">
<title>18&#45;&gt;6</title>
<path fill="none" stroke="#c0c0c0" stroke-width="2" d="M570.8359,-145.7745C573.9284,-145.153 576.9939,-144.558 580,-144 689.348,-123.7036 722.3288,-135.9104 833.5669,-108.0745"/>
<polygon fill="#c0c0c0" stroke="#c0c0c0" stroke-width="2" points="834.6746,-111.404 843.4965,-105.5368 832.9413,-104.622 834.6746,-111.404"/>
</g>
<!-- 18&#45;&gt;7 -->
<g id="edge36" class="edge">
<title>18&#45;&gt;7</title>
<path fill="none" stroke="#c0c0c0" stroke-width="2" d="M549.945,-143.8314C578.6866,-132.9398 615.1159,-119.135 643.8873,-108.2322"/>
<polygon fill="#c0c0c0" stroke="#c0c0c0" stroke-width="2" points="645.218,-111.4709 653.3288,-104.6543 642.7374,-104.9251 645.218,-111.4709"/>
</g>
<!-- 18&#45;&gt;8 -->
<g id="edge39" class="edge">
<title>18&#45;&gt;8</title>
<path fill="none" stroke="#c0c0c0" stroke-width="2" d="M525.9725,-143.8314C537.7861,-134.8779 552.1972,-123.9558 564.9435,-114.2955"/>
<polygon fill="#c0c0c0" stroke="#c0c0c0" stroke-width="2" points="567.1795,-116.9925 573.0352,-108.1628 562.9514,-111.4137 567.1795,-116.9925"/>
</g>
<!-- 19 -->
<g id="node20" class="node">
<title>19</title>
<path fill="none" stroke="#59d856" stroke-width="2" stroke-dasharray="5,2" d="M999.5,-180C999.5,-180 906.5,-180 906.5,-180 900.5,-180 894.5,-174 894.5,-168 894.5,-168 894.5,-156 894.5,-156 894.5,-150 900.5,-144 906.5,-144 906.5,-144 999.5,-144 999.5,-144 1005.5,-144 1011.5,-150 1011.5,-156 1011.5,-156 1011.5,-168 1011.5,-168 1011.5,-174 1005.5,-180 999.5,-180"/>
<text text-anchor="middle" x="953" y="-165" font-family="sans" font-size="10.00" fill="#000000">TF_gene_punctate_R</text>
<text text-anchor="middle" x="953" y="-154" font-family="sans" font-size="10.00" fill="#000000">num: 2</text>
</g>
<!-- 19&#45;&gt;2 -->
<g id="edge19" class="edge">
<title>19&#45;&gt;2</title>
<path fill="none" stroke="#c0c0c0" stroke-width="2" d="M911.1112,-143.8314C887.9631,-133.7912 859.1074,-121.2755 835.0466,-110.8395"/>
<polygon fill="#c0c0c0" stroke="#c0c0c0" stroke-width="2" points="836.3098,-107.5724 825.7428,-106.8041 833.5243,-113.9943 836.3098,-107.5724"/>
</g>
<!-- 20 -->
<g id="node21" class="node">
<title>20</title>
<path fill="none" stroke="#59d856" stroke-width="2" stroke-dasharray="5,2" d="M1404.5,-180C1404.5,-180 1311.5,-180 1311.5,-180 1305.5,-180 1299.5,-174 1299.5,-168 1299.5,-168 1299.5,-156 1299.5,-156 1299.5,-150 1305.5,-144 1311.5,-144 1311.5,-144 1404.5,-144 1404.5,-144 1410.5,-144 1416.5,-150 1416.5,-156 1416.5,-156 1416.5,-168 1416.5,-168 1416.5,-174 1410.5,-180 1404.5,-180"/>
<text text-anchor="middle" x="1358" y="-165" font-family="sans" font-size="10.00" fill="#000000">TF_gene_punctate_R</text>
<text text-anchor="middle" x="1358" y="-154" font-family="sans" font-size="10.00" fill="#000000">num: 3</text>
</g>
<!-- 20&#45;&gt;3 -->
<g id="edge22" class="edge">
<title>20&#45;&gt;3</title>
<path fill="none" stroke="#c0c0c0" stroke-width="2" d="M1299.1921,-146.127C1296.4241,-145.4032 1293.6826,-144.691 1291,-144 1232.599,-128.9567 1165.2083,-112.4705 1120.779,-101.7215"/>
<polygon fill="#c0c0c0" stroke="#c0c0c0" stroke-width="2" points="1121.372,-98.2641 1110.8296,-99.3174 1119.7279,-105.0683 1121.372,-98.2641"/>
</g>
<!-- 21 -->
<g id="node22" class="node">
<title>21</title>
<path fill="none" stroke="#59d856" stroke-width="2" stroke-dasharray="5,2" d="M1269.5,-180C1269.5,-180 1176.5,-180 1176.5,-180 1170.5,-180 1164.5,-174 1164.5,-168 1164.5,-168 1164.5,-156 1164.5,-156 1164.5,-150 1170.5,-144 1176.5,-144 1176.5,-144 1269.5,-144 1269.5,-144 1275.5,-144 1281.5,-150 1281.5,-156 1281.5,-156 1281.5,-168 1281.5,-168 1281.5,-174 1275.5,-180 1269.5,-180"/>
<text text-anchor="middle" x="1223" y="-165" font-family="sans" font-size="10.00" fill="#000000">TF_gene_punctate_R</text>
<text text-anchor="middle" x="1223" y="-154" font-family="sans" font-size="10.00" fill="#000000">num: 4</text>
</g>
<!-- 21&#45;&gt;4 -->
<g id="edge25" class="edge">
<title>21&#45;&gt;4</title>
<path fill="none" stroke="#c0c0c0" stroke-width="2" d="M1164.2558,-146.1209C1116.0173,-133.0625 1052.3697,-115.7835 1025.4717,-107.8577"/>
<polygon fill="#c0c0c0" stroke="#c0c0c0" stroke-width="2" points="1026.2512,-104.4359 1015.6644,-104.8497 1024.1986,-111.1282 1026.2512,-104.4359"/>
</g>
<!-- 22 -->
<g id="node23" class="node">
<title>22</title>
<path fill="none" stroke="#59d856" stroke-width="2" stroke-dasharray="5,2" d="M133.5,-180C133.5,-180 40.5,-180 40.5,-180 34.5,-180 28.5,-174 28.5,-168 28.5,-168 28.5,-156 28.5,-156 28.5,-150 34.5,-144 40.5,-144 40.5,-144 133.5,-144 133.5,-144 139.5,-144 145.5,-150 145.5,-156 145.5,-156 145.5,-168 145.5,-168 145.5,-174 139.5,-180 133.5,-180"/>
<text text-anchor="middle" x="87" y="-165" font-family="sans" font-size="10.00" fill="#000000">TF_gene_punctate_R</text>
<text text-anchor="middle" x="87" y="-154" font-family="sans" font-size="10.00" fill="#000000">num: 5</text>
</g>
<!-- 22&#45;&gt;5 -->
<g id="edge28" class="edge">
<title>22&#45;&gt;5</title>
<path fill="none" stroke="#c0c0c0" stroke-width="2" d="M145.7817,-146.0219C148.5567,-145.3262 151.3068,-144.6487 154,-144 224.6702,-126.9774 307.1077,-109.8947 358.1859,-99.6321"/>
<polygon fill="#c0c0c0" stroke="#c0c0c0" stroke-width="2" points="359.164,-103.0058 368.2821,-97.6103 357.7895,-96.142 359.164,-103.0058"/>
</g>
<!-- 23 -->
<g id="node24" class="node">
<title>23</title>
<path fill="none" stroke="#59d856" stroke-width="2" stroke-dasharray="5,2" d="M1134.5,-180C1134.5,-180 1041.5,-180 1041.5,-180 1035.5,-180 1029.5,-174 1029.5,-168 1029.5,-168 1029.5,-156 1029.5,-156 1029.5,-150 1035.5,-144 1041.5,-144 1041.5,-144 1134.5,-144 1134.5,-144 1140.5,-144 1146.5,-150 1146.5,-156 1146.5,-156 1146.5,-168 1146.5,-168 1146.5,-174 1140.5,-180 1134.5,-180"/>
<text text-anchor="middle" x="1088" y="-165" font-family="sans" font-size="10.00" fill="#000000">TF_gene_punctate_R</text>
<text text-anchor="middle" x="1088" y="-154" font-family="sans" font-size="10.00" fill="#000000">num: 6</text>
</g>
<!-- 23&#45;&gt;6 -->
<g id="edge31" class="edge">
<title>23&#45;&gt;6</title>
<path fill="none" stroke="#c0c0c0" stroke-width="2" d="M1033.7494,-143.8983C1005.4649,-134.3587 970.1006,-122.274 930.3739,-108.0896"/>
<polygon fill="#c0c0c0" stroke="#c0c0c0" stroke-width="2" points="931.3312,-104.7148 920.7366,-104.6378 928.9708,-111.3048 931.3312,-104.7148"/>
</g>
<!-- 24 -->
<g id="node25" class="node">
<title>24</title>
<path fill="none" stroke="#59d856" stroke-width="2" stroke-dasharray="5,2" d="M864.5,-180C864.5,-180 771.5,-180 771.5,-180 765.5,-180 759.5,-174 759.5,-168 759.5,-168 759.5,-156 759.5,-156 759.5,-150 765.5,-144 771.5,-144 771.5,-144 864.5,-144 864.5,-144 870.5,-144 876.5,-150 876.5,-156 876.5,-156 876.5,-168 876.5,-168 876.5,-174 870.5,-180 864.5,-180"/>
<text text-anchor="middle" x="818" y="-165" font-family="sans" font-size="10.00" fill="#000000">TF_gene_punctate_R</text>
<text text-anchor="middle" x="818" y="-154" font-family="sans" font-size="10.00" fill="#000000">num: 7</text>
</g>
<!-- 24&#45;&gt;7 -->
<g id="edge34" class="edge">
<title>24&#45;&gt;7</title>
<path fill="none" stroke="#c0c0c0" stroke-width="2" d="M786.2049,-143.8314C769.9395,-134.5368 749.9614,-123.1208 732.5949,-113.1971"/>
<polygon fill="#c0c0c0" stroke="#c0c0c0" stroke-width="2" points="734.2039,-110.0854 723.7849,-108.1628 730.7309,-116.1631 734.2039,-110.0854"/>
</g>
<!-- 25 -->
<g id="node26" class="node">
<title>25</title>
<path fill="none" stroke="#59d856" stroke-width="2" stroke-dasharray="5,2" d="M403.5,-180C403.5,-180 310.5,-180 310.5,-180 304.5,-180 298.5,-174 298.5,-168 298.5,-168 298.5,-156 298.5,-156 298.5,-150 304.5,-144 310.5,-144 310.5,-144 403.5,-144 403.5,-144 409.5,-144 415.5,-150 415.5,-156 415.5,-156 415.5,-168 415.5,-168 415.5,-174 409.5,-180 403.5,-180"/>
<text text-anchor="middle" x="357" y="-165" font-family="sans" font-size="10.00" fill="#000000">TF_gene_punctate_R</text>
<text text-anchor="middle" x="357" y="-154" font-family="sans" font-size="10.00" fill="#000000">num: 8</text>
</g>
<!-- 25&#45;&gt;8 -->
<g id="edge37" class="edge">
<title>25&#45;&gt;8</title>
<path fill="none" stroke="#c0c0c0" stroke-width="2" d="M415.7996,-146.0494C458.435,-134.384 513.357,-119.1289 548.5217,-107.993"/>
<polygon fill="#c0c0c0" stroke="#c0c0c0" stroke-width="2" points="549.8884,-111.2295 558.3269,-104.823 547.7351,-104.569 549.8884,-111.2295"/>
</g>
<!-- 26 -->
<g id="node27" class="node">
<title>26</title>
<path fill="none" stroke="#56d8d8" stroke-width="2" stroke-dasharray="5,2" d="M829,-612C829,-612 761,-612 761,-612 755,-612 749,-606 749,-600 749,-600 749,-588 749,-588 749,-582 755,-576 761,-576 761,-576 829,-576 829,-576 835,-576 841,-582 841,-588 841,-588 841,-600 841,-600 841,-606 835,-612 829,-612"/>
<text text-anchor="middle" x="795" y="-591.5" font-family="sans" font-size="10.00" fill="#000000">bam_to_bigWig</text>
</g>
<!-- 26&#45;&gt;9 -->
<g id="edge40" class="edge">
<title>26&#45;&gt;9</title>
<path fill="none" stroke="#c0c0c0" stroke-width="2" d="M748.895,-576.3428C680.019,-549.9647 550.3945,-500.3213 475.7806,-471.7458"/>
<polygon fill="#c0c0c0" stroke="#c0c0c0" stroke-width="2" points="476.6641,-468.3363 466.0738,-468.0282 474.1605,-474.8733 476.6641,-468.3363"/>
</g>
<!-- 26&#45;&gt;13 -->
<g id="edge47" class="edge">
<title>26&#45;&gt;13</title>
<path fill="none" stroke="#c0c0c0" stroke-width="2" d="M820.2342,-575.8314C832.788,-566.7927 848.1283,-555.7476 861.6391,-546.0198"/>
<polygon fill="#c0c0c0" stroke="#c0c0c0" stroke-width="2" points="863.7036,-548.8463 869.7739,-540.1628 859.6134,-543.1655 863.7036,-548.8463"/>
</g>
<!-- 27 -->
<g id="node28" class="node">
<title>27</title>
<path fill="none" stroke="#56d8d8" stroke-width="2" stroke-dasharray="5,2" d="M1530,-612C1530,-612 1462,-612 1462,-612 1456,-612 1450,-606 1450,-600 1450,-600 1450,-588 1450,-588 1450,-582 1456,-576 1462,-576 1462,-576 1530,-576 1530,-576 1536,-576 1542,-582 1542,-588 1542,-588 1542,-600 1542,-600 1542,-606 1536,-612 1530,-612"/>
<text text-anchor="middle" x="1496" y="-591.5" font-family="sans" font-size="10.00" fill="#000000">bam_to_bigWig</text>
</g>
<!-- 27&#45;&gt;10 -->
<g id="edge41" class="edge">
<title>27&#45;&gt;10</title>
<path fill="none" stroke="#c0c0c0" stroke-width="2" d="M1521.4866,-575.8314C1534.1659,-566.7927 1549.6596,-555.7476 1563.3055,-546.0198"/>
<polygon fill="#c0c0c0" stroke="#c0c0c0" stroke-width="2" points="1565.4105,-548.8176 1571.5216,-540.1628 1561.3471,-543.1176 1565.4105,-548.8176"/>
</g>
<!-- 27&#45;&gt;12 -->
<g id="edge45" class="edge">
<title>27&#45;&gt;12</title>
<path fill="none" stroke="#c0c0c0" stroke-width="2" d="M1486.1587,-575.8314C1481.8043,-567.7925 1476.5902,-558.1666 1471.7831,-549.2918"/>
<polygon fill="#c0c0c0" stroke="#c0c0c0" stroke-width="2" points="1474.8143,-547.5392 1466.9739,-540.4133 1468.6592,-550.8732 1474.8143,-547.5392"/>
</g>
<!-- 28 -->
<g id="node29" class="node">
<title>28</title>
<path fill="none" stroke="#56d8d8" stroke-width="2" stroke-dasharray="5,2" d="M1420,-612C1420,-612 1352,-612 1352,-612 1346,-612 1340,-606 1340,-600 1340,-600 1340,-588 1340,-588 1340,-582 1346,-576 1352,-576 1352,-576 1420,-576 1420,-576 1426,-576 1432,-582 1432,-588 1432,-588 1432,-600 1432,-600 1432,-606 1426,-612 1420,-612"/>
<text text-anchor="middle" x="1386" y="-591.5" font-family="sans" font-size="10.00" fill="#000000">bam_to_bigWig</text>
</g>
<!-- 28&#45;&gt;10 -->
<g id="edge42" class="edge">
<title>28&#45;&gt;10</title>
<path fill="none" stroke="#c0c0c0" stroke-width="2" d="M1432.0441,-578.2883C1462.0632,-568.0448 1501.618,-554.5474 1534.4689,-543.3376"/>
<polygon fill="#c0c0c0" stroke="#c0c0c0" stroke-width="2" points="1535.6518,-546.6322 1543.9856,-540.0902 1533.3911,-540.0073 1535.6518,-546.6322"/>
</g>
<!-- 28&#45;&gt;11 -->
<g id="edge43" class="edge">
<title>28&#45;&gt;11</title>
<path fill="none" stroke="#c0c0c0" stroke-width="2" d="M1372.6259,-575.8314C1366.5838,-567.6232 1359.3237,-557.7606 1352.6779,-548.7323"/>
<polygon fill="#c0c0c0" stroke="#c0c0c0" stroke-width="2" points="1355.3011,-546.3918 1346.5542,-540.4133 1349.6637,-550.5415 1355.3011,-546.3918"/>
</g>
<!-- 29 -->
<g id="node30" class="node">
<title>29</title>
<path fill="none" stroke="#56d88a" stroke-width="2" stroke-dasharray="5,2" d="M1212.5,-612C1212.5,-612 1173.5,-612 1173.5,-612 1167.5,-612 1161.5,-606 1161.5,-600 1161.5,-600 1161.5,-588 1161.5,-588 1161.5,-582 1167.5,-576 1173.5,-576 1173.5,-576 1212.5,-576 1212.5,-576 1218.5,-576 1224.5,-582 1224.5,-588 1224.5,-588 1224.5,-600 1224.5,-600 1224.5,-606 1218.5,-612 1212.5,-612"/>
<text text-anchor="middle" x="1193" y="-591.5" font-family="sans" font-size="10.00" fill="#000000">black_list</text>
</g>
<!-- 29&#45;&gt;11 -->
<g id="edge44" class="edge">
<title>29&#45;&gt;11</title>
<path fill="none" stroke="#c0c0c0" stroke-width="2" d="M1224.7682,-577.6621C1243.7427,-567.9038 1268.1235,-555.3651 1288.9396,-544.6596"/>
<polygon fill="#c0c0c0" stroke="#c0c0c0" stroke-width="2" points="1290.6255,-547.7284 1297.9177,-540.0423 1287.424,-541.5034 1290.6255,-547.7284"/>
</g>
<!-- 61 -->
<g id="node62" class="node">
<title>61</title>
<path fill="none" stroke="#56d89a" stroke-width="2" stroke-dasharray="5,2" d="M1249.5,-540C1249.5,-540 1136.5,-540 1136.5,-540 1130.5,-540 1124.5,-534 1124.5,-528 1124.5,-528 1124.5,-516 1124.5,-516 1124.5,-510 1130.5,-504 1136.5,-504 1136.5,-504 1249.5,-504 1249.5,-504 1255.5,-504 1261.5,-510 1261.5,-516 1261.5,-516 1261.5,-528 1261.5,-528 1261.5,-534 1255.5,-540 1249.5,-540"/>
<text text-anchor="middle" x="1193" y="-525" font-family="sans" font-size="10.00" fill="#000000">union_peaks_by_type</text>
<text text-anchor="middle" x="1193" y="-514" font-family="sans" font-size="10.00" fill="#000000">cell_type: RFP_ATAC&#45;Seq</text>
</g>
<!-- 29&#45;&gt;61 -->
<g id="edge123" class="edge">
<title>29&#45;&gt;61</title>
<path fill="none" stroke="#c0c0c0" stroke-width="2" d="M1193,-575.8314C1193,-568.131 1193,-558.9743 1193,-550.4166"/>
<polygon fill="#c0c0c0" stroke="#c0c0c0" stroke-width="2" points="1196.5001,-550.4132 1193,-540.4133 1189.5001,-550.4133 1196.5001,-550.4132"/>
</g>
<!-- 30 -->
<g id="node31" class="node">
<title>30</title>
<path fill="none" stroke="#56d88a" stroke-width="2" stroke-dasharray="5,2" d="M1301.5,-612C1301.5,-612 1262.5,-612 1262.5,-612 1256.5,-612 1250.5,-606 1250.5,-600 1250.5,-600 1250.5,-588 1250.5,-588 1250.5,-582 1256.5,-576 1262.5,-576 1262.5,-576 1301.5,-576 1301.5,-576 1307.5,-576 1313.5,-582 1313.5,-588 1313.5,-588 1313.5,-600 1313.5,-600 1313.5,-606 1307.5,-612 1301.5,-612"/>
<text text-anchor="middle" x="1282" y="-591.5" font-family="sans" font-size="10.00" fill="#000000">black_list</text>
</g>
<!-- 30&#45;&gt;12 -->
<g id="edge46" class="edge">
<title>30&#45;&gt;12</title>
<path fill="none" stroke="#c0c0c0" stroke-width="2" d="M1313.6912,-580.9613C1338.7547,-570.6495 1374.3031,-556.0239 1403.7238,-543.9194"/>
<polygon fill="#c0c0c0" stroke="#c0c0c0" stroke-width="2" points="1405.1234,-547.1282 1413.0395,-540.0866 1402.4599,-540.6547 1405.1234,-547.1282"/>
</g>
<!-- 30&#45;&gt;61 -->
<g id="edge122" class="edge">
<title>30&#45;&gt;61</title>
<path fill="none" stroke="#c0c0c0" stroke-width="2" d="M1259.5415,-575.8314C1248.5795,-566.9632 1235.2301,-556.1637 1223.3735,-546.5718"/>
<polygon fill="#c0c0c0" stroke="#c0c0c0" stroke-width="2" points="1225.4271,-543.7313 1215.4513,-540.1628 1221.0245,-549.1734 1225.4271,-543.7313"/>
</g>
<!-- 31 -->
<g id="node32" class="node">
<title>31</title>
<path fill="none" stroke="#56d88a" stroke-width="2" stroke-dasharray="5,2" d="M911.5,-612C911.5,-612 872.5,-612 872.5,-612 866.5,-612 860.5,-606 860.5,-600 860.5,-600 860.5,-588 860.5,-588 860.5,-582 866.5,-576 872.5,-576 872.5,-576 911.5,-576 911.5,-576 917.5,-576 923.5,-582 923.5,-588 923.5,-588 923.5,-600 923.5,-600 923.5,-606 917.5,-612 911.5,-612"/>
<text text-anchor="middle" x="892" y="-591.5" font-family="sans" font-size="10.00" fill="#000000">black_list</text>
</g>
<!-- 31&#45;&gt;13 -->
<g id="edge48" class="edge">
<title>31&#45;&gt;13</title>
<path fill="none" stroke="#c0c0c0" stroke-width="2" d="M892.757,-575.8314C893.0779,-568.131 893.4594,-558.9743 893.816,-550.4166"/>
<polygon fill="#c0c0c0" stroke="#c0c0c0" stroke-width="2" points="897.3133,-550.5503 894.2328,-540.4133 890.3194,-550.2589 897.3133,-550.5503"/>
</g>
<!-- 53 -->
<g id="node54" class="node">
<title>53</title>
<path fill="none" stroke="#56d89a" stroke-width="2" stroke-dasharray="5,2" d="M811.5,-540C811.5,-540 698.5,-540 698.5,-540 692.5,-540 686.5,-534 686.5,-528 686.5,-528 686.5,-516 686.5,-516 686.5,-510 692.5,-504 698.5,-504 698.5,-504 811.5,-504 811.5,-504 817.5,-504 823.5,-510 823.5,-516 823.5,-516 823.5,-528 823.5,-528 823.5,-534 817.5,-540 811.5,-540"/>
<text text-anchor="middle" x="755" y="-525" font-family="sans" font-size="10.00" fill="#000000">union_peaks_by_type</text>
<text text-anchor="middle" x="755" y="-514" font-family="sans" font-size="10.00" fill="#000000">cell_type: GFP_ATAC&#45;Seq</text>
</g>
<!-- 31&#45;&gt;53 -->
<g id="edge105" class="edge">
<title>31&#45;&gt;53</title>
<path fill="none" stroke="#c0c0c0" stroke-width="2" d="M860.2251,-577.3008C841.8545,-567.6461 818.4806,-555.3621 798.4307,-544.8249"/>
<polygon fill="#c0c0c0" stroke="#c0c0c0" stroke-width="2" points="799.9627,-541.6761 789.4824,-540.1222 796.7062,-547.8725 799.9627,-541.6761"/>
</g>
<!-- 32 -->
<g id="node33" class="node">
<title>32</title>
<path fill="none" stroke="#56a2d8" stroke-width="2" d="M1645,-756C1645,-756 1615,-756 1615,-756 1609,-756 1603,-750 1603,-744 1603,-744 1603,-732 1603,-732 1603,-726 1609,-720 1615,-720 1615,-720 1645,-720 1645,-720 1651,-720 1657,-726 1657,-732 1657,-732 1657,-744 1657,-744 1657,-750 1651,-756 1645,-756"/>
<text text-anchor="middle" x="1630" y="-735.5" font-family="sans" font-size="10.00" fill="#000000">fastqc</text>
</g>
<!-- 32&#45;&gt;14 -->
<g id="edge49" class="edge">
<title>32&#45;&gt;14</title>
<path fill="none" stroke="#c0c0c0" stroke-width="2" d="M1645.8976,-719.8314C1653.2278,-711.454 1662.066,-701.3531 1670.0969,-692.1749"/>
<polygon fill="#c0c0c0" stroke="#c0c0c0" stroke-width="2" points="1672.9373,-694.2438 1676.8884,-684.4133 1667.6693,-689.6343 1672.9373,-694.2438"/>
</g>
<!-- 33 -->
<g id="node34" class="node">
<title>33</title>
<path fill="none" stroke="#56a2d8" stroke-width="2" d="M1717,-756C1717,-756 1687,-756 1687,-756 1681,-756 1675,-750 1675,-744 1675,-744 1675,-732 1675,-732 1675,-726 1681,-720 1687,-720 1687,-720 1717,-720 1717,-720 1723,-720 1729,-726 1729,-732 1729,-732 1729,-744 1729,-744 1729,-750 1723,-756 1717,-756"/>
<text text-anchor="middle" x="1702" y="-735.5" font-family="sans" font-size="10.00" fill="#000000">fastqc</text>
</g>
<!-- 33&#45;&gt;14 -->
<g id="edge50" class="edge">
<title>33&#45;&gt;14</title>
<path fill="none" stroke="#c0c0c0" stroke-width="2" d="M1699.7289,-719.8314C1698.7664,-712.131 1697.6218,-702.9743 1696.5521,-694.4166"/>
<polygon fill="#c0c0c0" stroke="#c0c0c0" stroke-width="2" points="1700.0151,-693.9019 1695.3017,-684.4133 1693.0691,-694.7702 1700.0151,-693.9019"/>
</g>
<!-- 34 -->
<g id="node35" class="node">
<title>34</title>
<path fill="none" stroke="#56a2d8" stroke-width="2" d="M1573,-756C1573,-756 1543,-756 1543,-756 1537,-756 1531,-750 1531,-744 1531,-744 1531,-732 1531,-732 1531,-726 1537,-720 1543,-720 1543,-720 1573,-720 1573,-720 1579,-720 1585,-726 1585,-732 1585,-732 1585,-744 1585,-744 1585,-750 1579,-756 1573,-756"/>
<text text-anchor="middle" x="1558" y="-735.5" font-family="sans" font-size="10.00" fill="#000000">fastqc</text>
</g>
<!-- 34&#45;&gt;14 -->
<g id="edge51" class="edge">
<title>34&#45;&gt;14</title>
<path fill="none" stroke="#c0c0c0" stroke-width="2" d="M1585.3193,-723.4297C1603.9258,-713.5062 1628.9367,-700.1671 1650.1707,-688.8423"/>
<polygon fill="#c0c0c0" stroke="#c0c0c0" stroke-width="2" points="1651.8336,-691.9221 1659.0101,-684.128 1648.5394,-685.7457 1651.8336,-691.9221"/>
</g>
<!-- 35 -->
<g id="node36" class="node">
<title>35</title>
<path fill="none" stroke="#ced856" stroke-width="2" stroke-dasharray="5,2" d="M1011,-324C1011,-324 887,-324 887,-324 881,-324 875,-318 875,-312 875,-312 875,-300 875,-300 875,-294 881,-288 887,-288 887,-288 1011,-288 1011,-288 1017,-288 1023,-294 1023,-300 1023,-300 1023,-312 1023,-312 1023,-318 1017,-324 1011,-324"/>
<text text-anchor="middle" x="949" y="-303.5" font-family="sans" font-size="10.00" fill="#000000">common_peaks_across_all</text>
</g>
<!-- 35&#45;&gt;15 -->
<g id="edge52" class="edge">
<title>35&#45;&gt;15</title>
<path fill="none" stroke="#c0c0c0" stroke-width="2" d="M1020.0476,-287.9243C1059.9128,-277.7819 1109.7945,-265.0912 1151.1507,-254.5694"/>
<polygon fill="#c0c0c0" stroke="#c0c0c0" stroke-width="2" points="1152.0949,-257.9408 1160.9232,-252.0831 1150.3689,-251.1569 1152.0949,-257.9408"/>
</g>
<!-- 36 -->
<g id="node37" class="node">
<title>36</title>
<path fill="none" stroke="#d88556" stroke-width="2" stroke-dasharray="5,2" d="M857,-252C857,-252 809,-252 809,-252 803,-252 797,-246 797,-240 797,-240 797,-228 797,-228 797,-222 803,-216 809,-216 809,-216 857,-216 857,-216 863,-216 869,-222 869,-228 869,-228 869,-240 869,-240 869,-246 863,-252 857,-252"/>
<text text-anchor="middle" x="833" y="-231.5" font-family="sans" font-size="10.00" fill="#000000">make_CGM</text>
</g>
<!-- 36&#45;&gt;16 -->
<g id="edge53" class="edge">
<title>36&#45;&gt;16</title>
<path fill="none" stroke="#c0c0c0" stroke-width="2" d="M796.9911,-230.5052C686.4566,-219.7682 355.9643,-187.5916 290.9658,-179.7469"/>
<polygon fill="#c0c0c0" stroke="#c0c0c0" stroke-width="2" points="291.0825,-176.2307 280.7024,-178.353 290.1404,-183.167 291.0825,-176.2307"/>
</g>
<!-- 36&#45;&gt;19 -->
<g id="edge58" class="edge">
<title>36&#45;&gt;19</title>
<path fill="none" stroke="#c0c0c0" stroke-width="2" d="M863.2811,-215.8314C878.6298,-206.6221 897.4498,-195.3301 913.8823,-185.4706"/>
<polygon fill="#c0c0c0" stroke="#c0c0c0" stroke-width="2" points="915.9544,-188.3091 922.7286,-180.1628 912.3529,-182.3066 915.9544,-188.3091"/>
</g>
<!-- 36&#45;&gt;20 -->
<g id="edge60" class="edge">
<title>36&#45;&gt;20</title>
<path fill="none" stroke="#c0c0c0" stroke-width="2" d="M869.1702,-229.2869C897.8579,-225.5797 938.9788,-220.3347 975,-216 1112.0512,-199.5076 1150.3547,-206.0819 1289.1209,-180.2226"/>
<polygon fill="#c0c0c0" stroke="#c0c0c0" stroke-width="2" points="1290.1109,-183.5976 1299.2884,-178.3039 1288.8128,-176.719 1290.1109,-183.5976"/>
</g>
<!-- 36&#45;&gt;21 -->
<g id="edge62" class="edge">
<title>36&#45;&gt;21</title>
<path fill="none" stroke="#c0c0c0" stroke-width="2" d="M869.0644,-229.1343C927.2233,-221.0355 1045.4714,-203.5291 1154.4157,-180.2511"/>
<polygon fill="#c0c0c0" stroke="#c0c0c0" stroke-width="2" points="1155.2162,-183.659 1164.2526,-178.1278 1153.7392,-176.8166 1155.2162,-183.659"/>
</g>
<!-- 36&#45;&gt;22 -->
<g id="edge64" class="edge">
<title>36&#45;&gt;22</title>
<path fill="none" stroke="#c0c0c0" stroke-width="2" d="M796.9806,-230.3111C759.154,-226.4934 697.9281,-220.4736 645,-216 430.2697,-197.8506 371.5034,-215.9832 155.7475,-180.1319"/>
<polygon fill="#c0c0c0" stroke="#c0c0c0" stroke-width="2" points="156.129,-176.647 145.687,-178.4403 154.9682,-183.5501 156.129,-176.647"/>
</g>
<!-- 36&#45;&gt;23 -->
<g id="edge66" class="edge">
<title>36&#45;&gt;23</title>
<path fill="none" stroke="#c0c0c0" stroke-width="2" d="M869.2645,-223.7606C908.2422,-212.7551 971.1092,-195.0045 1019.4647,-181.3512"/>
<polygon fill="#c0c0c0" stroke="#c0c0c0" stroke-width="2" points="1020.567,-184.6768 1029.2396,-178.5912 1018.6648,-177.9402 1020.567,-184.6768"/>
</g>
<!-- 36&#45;&gt;24 -->
<g id="edge68" class="edge">
<title>36&#45;&gt;24</title>
<path fill="none" stroke="#c0c0c0" stroke-width="2" d="M829.2149,-215.8314C827.6106,-208.131 825.703,-198.9743 823.9201,-190.4166"/>
<polygon fill="#c0c0c0" stroke="#c0c0c0" stroke-width="2" points="827.3021,-189.4892 821.8361,-180.4133 820.4493,-190.9169 827.3021,-189.4892"/>
</g>
<!-- 36&#45;&gt;25 -->
<g id="edge70" class="edge">
<title>36&#45;&gt;25</title>
<path fill="none" stroke="#c0c0c0" stroke-width="2" d="M796.9053,-230.8401C726.9862,-224.3743 568.1176,-208.0043 425.9305,-180.2609"/>
<polygon fill="#c0c0c0" stroke="#c0c0c0" stroke-width="2" points="426.2122,-176.7489 415.7233,-178.2437 424.855,-183.6161 426.2122,-176.7489"/>
</g>
<!-- 37 -->
<g id="node38" class="node">
<title>37</title>
<path fill="none" stroke="#d88556" stroke-width="2" stroke-dasharray="5,2" d="M1044,-252C1044,-252 996,-252 996,-252 990,-252 984,-246 984,-240 984,-240 984,-228 984,-228 984,-222 990,-216 996,-216 996,-216 1044,-216 1044,-216 1050,-216 1056,-222 1056,-228 1056,-228 1056,-240 1056,-240 1056,-246 1050,-252 1044,-252"/>
<text text-anchor="middle" x="1020" y="-231.5" font-family="sans" font-size="10.00" fill="#000000">make_CGM</text>
</g>
<!-- 37&#45;&gt;16 -->
<g id="edge54" class="edge">
<title>37&#45;&gt;16</title>
<path fill="none" stroke="#c0c0c0" stroke-width="2" d="M983.8858,-228.7635C955.2291,-224.7677 914.1224,-219.3897 878,-216 620.1959,-191.8076 549.6267,-221.4657 290.7603,-180.1122"/>
<polygon fill="#c0c0c0" stroke="#c0c0c0" stroke-width="2" points="291.1108,-176.6235 280.6802,-178.4815 289.9929,-183.5337 291.1108,-176.6235"/>
</g>
<!-- 37&#45;&gt;19 -->
<g id="edge59" class="edge">
<title>37&#45;&gt;19</title>
<path fill="none" stroke="#c0c0c0" stroke-width="2" d="M1003.0931,-215.8314C995.2187,-207.3694 985.708,-197.1489 977.0987,-187.8971"/>
<polygon fill="#c0c0c0" stroke="#c0c0c0" stroke-width="2" points="979.5092,-185.3497 970.1346,-180.4133 974.3847,-190.1183 979.5092,-185.3497"/>
</g>
<!-- 37&#45;&gt;20 -->
<g id="edge61" class="edge">
<title>37&#45;&gt;20</title>
<path fill="none" stroke="#c0c0c0" stroke-width="2" d="M1056.1079,-227.5865C1106.3214,-218.497 1200.2747,-200.8745 1289.2467,-180.3444"/>
<polygon fill="#c0c0c0" stroke="#c0c0c0" stroke-width="2" points="1290.2814,-183.6973 1299.2291,-178.0236 1288.6962,-176.8791 1290.2814,-183.6973"/>
</g>
<!-- 37&#45;&gt;21 -->
<g id="edge63" class="edge">
<title>37&#45;&gt;21</title>
<path fill="none" stroke="#c0c0c0" stroke-width="2" d="M1056.2923,-221.1278C1085.7929,-210.6646 1128.0381,-195.6811 1162.6196,-183.4157"/>
<polygon fill="#c0c0c0" stroke="#c0c0c0" stroke-width="2" points="1163.8983,-186.6759 1172.1531,-180.0344 1161.5584,-180.0785 1163.8983,-186.6759"/>
</g>
<!-- 37&#45;&gt;22 -->
<g id="edge65" class="edge">
<title>37&#45;&gt;22</title>
<path fill="none" stroke="#c0c0c0" stroke-width="2" d="M983.8962,-228.6498C955.2451,-224.5913 914.1411,-219.1845 878,-216 560.3589,-188.0119 474.0235,-229.2172 155.6446,-180.0767"/>
<polygon fill="#c0c0c0" stroke="#c0c0c0" stroke-width="2" points="156.0942,-176.6046 145.674,-178.5201 155.0144,-183.5208 156.0942,-176.6046"/>
</g>
<!-- 37&#45;&gt;23 -->
<g id="edge67" class="edge">
<title>37&#45;&gt;23</title>
<path fill="none" stroke="#c0c0c0" stroke-width="2" d="M1037.1593,-215.8314C1045.1511,-207.3694 1054.8038,-197.1489 1063.5416,-187.8971"/>
<polygon fill="#c0c0c0" stroke="#c0c0c0" stroke-width="2" points="1066.288,-190.0866 1070.6097,-180.4133 1061.1989,-185.2802 1066.288,-190.0866"/>
</g>
<!-- 37&#45;&gt;24 -->
<g id="edge69" class="edge">
<title>37&#45;&gt;24</title>
<path fill="none" stroke="#c0c0c0" stroke-width="2" d="M983.8864,-221.1278C954.5312,-210.6646 912.4941,-195.6811 878.083,-183.4157"/>
<polygon fill="#c0c0c0" stroke="#c0c0c0" stroke-width="2" points="879.1911,-180.0951 868.5964,-180.0344 876.8408,-186.6887 879.1911,-180.0951"/>
</g>
<!-- 37&#45;&gt;25 -->
<g id="edge71" class="edge">
<title>37&#45;&gt;25</title>
<path fill="none" stroke="#c0c0c0" stroke-width="2" d="M983.868,-228.9443C955.2015,-225.0482 914.0902,-219.7162 878,-216 679.8978,-195.6013 625.2186,-213.7966 425.6152,-180.117"/>
<polygon fill="#c0c0c0" stroke="#c0c0c0" stroke-width="2" points="426.1373,-176.6555 415.6905,-178.4201 424.9576,-183.5554 426.1373,-176.6555"/>
</g>
<!-- 38 -->
<g id="node39" class="node">
<title>38</title>
<path fill="none" stroke="#5663d8" stroke-width="2" stroke-dasharray="5,2" d="M836,-396C836,-396 722,-396 722,-396 716,-396 710,-390 710,-384 710,-384 710,-372 710,-372 710,-366 716,-360 722,-360 722,-360 836,-360 836,-360 842,-360 848,-366 848,-372 848,-372 848,-384 848,-384 848,-390 842,-396 836,-396"/>
<text text-anchor="middle" x="779" y="-375.5" font-family="sans" font-size="10.00" fill="#000000">common_peaks_by_type</text>
</g>
<!-- 38&#45;&gt;17 -->
<g id="edge55" class="edge">
<title>38&#45;&gt;17</title>
<path fill="none" stroke="#c0c0c0" stroke-width="2" d="M727.8389,-359.898C711.2699,-351.512 694.4813,-339.8131 684,-324 657.248,-283.6392 657.7569,-224.9195 661.0445,-190.3734"/>
<polygon fill="#c0c0c0" stroke="#c0c0c0" stroke-width="2" points="664.5645,-190.3832 662.1785,-180.0605 657.6064,-189.618 664.5645,-190.3832"/>
</g>
<!-- 38&#45;&gt;35 -->
<g id="edge85" class="edge">
<title>38&#45;&gt;35</title>
<path fill="none" stroke="#c0c0c0" stroke-width="2" d="M821.8982,-359.8314C844.7357,-350.159 872.998,-338.1891 897.0687,-327.9944"/>
<polygon fill="#c0c0c0" stroke="#c0c0c0" stroke-width="2" points="898.5671,-331.1608 906.4103,-324.038 895.8371,-324.7151 898.5671,-331.1608"/>
</g>
<!-- 38&#45;&gt;36 -->
<g id="edge86" class="edge">
<title>38&#45;&gt;36</title>
<path fill="none" stroke="#c0c0c0" stroke-width="2" d="M801.3397,-359.856C811.3742,-350.3305 822.2353,-337.7809 828,-324 836.1783,-304.4493 837.1033,-280.3981 836.1603,-262.0786"/>
<polygon fill="#c0c0c0" stroke="#c0c0c0" stroke-width="2" points="839.6459,-261.752 835.4299,-252.0321 832.6643,-262.2596 839.6459,-261.752"/>
</g>
<!-- 51 -->
<g id="node52" class="node">
<title>51</title>
<path fill="none" stroke="#bed856" stroke-width="2" stroke-dasharray="5,2" d="M807,-324C807,-324 705,-324 705,-324 699,-324 693,-318 693,-312 693,-312 693,-300 693,-300 693,-294 699,-288 705,-288 705,-288 807,-288 807,-288 813,-288 819,-294 819,-300 819,-300 819,-312 819,-312 819,-318 813,-324 807,-324"/>
<text text-anchor="middle" x="756" y="-303.5" font-family="sans" font-size="10.00" fill="#000000">overlap_with_h3k27ac</text>
</g>
<!-- 38&#45;&gt;51 -->
<g id="edge103" class="edge">
<title>38&#45;&gt;51</title>
<path fill="none" stroke="#c0c0c0" stroke-width="2" d="M773.1961,-359.8314C770.7092,-352.0463 767.7469,-342.7729 764.9875,-334.1347"/>
<polygon fill="#c0c0c0" stroke="#c0c0c0" stroke-width="2" points="768.2591,-332.874 761.882,-324.4133 761.591,-335.0041 768.2591,-332.874"/>
</g>
<!-- 39 -->
<g id="node40" class="node">
<title>39</title>
<path fill="none" stroke="#78d856" stroke-width="2" stroke-dasharray="5,2" d="M624.5,-252C624.5,-252 547.5,-252 547.5,-252 541.5,-252 535.5,-246 535.5,-240 535.5,-240 535.5,-228 535.5,-228 535.5,-222 541.5,-216 547.5,-216 547.5,-216 624.5,-216 624.5,-216 630.5,-216 636.5,-222 636.5,-228 636.5,-228 636.5,-240 636.5,-240 636.5,-246 630.5,-252 624.5,-252"/>
<text text-anchor="middle" x="586" y="-231.5" font-family="sans" font-size="10.00" fill="#000000">build_tss_regions</text>
</g>
<!-- 39&#45;&gt;17 -->
<g id="edge56" class="edge">
<title>39&#45;&gt;17</title>
<path fill="none" stroke="#c0c0c0" stroke-width="2" d="M605.935,-215.8314C615.4783,-207.1337 627.0599,-196.5783 637.4306,-187.1265"/>
<polygon fill="#c0c0c0" stroke="#c0c0c0" stroke-width="2" points="640.038,-189.4857 645.0713,-180.1628 635.3228,-184.3121 640.038,-189.4857"/>
</g>
<!-- 40 -->
<g id="node41" class="node">
<title>40</title>
<path fill="none" stroke="#56d85b" stroke-width="2" stroke-dasharray="5,2" d="M725,-684C725,-684 671,-684 671,-684 665,-684 659,-678 659,-672 659,-672 659,-660 659,-660 659,-654 665,-648 671,-648 671,-648 725,-648 725,-648 731,-648 737,-654 737,-660 737,-660 737,-672 737,-672 737,-678 731,-684 725,-684"/>
<text text-anchor="middle" x="698" y="-663.5" font-family="sans" font-size="10.00" fill="#000000">peak_calling</text>
</g>
<!-- 40&#45;&gt;18 -->
<g id="edge57" class="edge">
<title>40&#45;&gt;18</title>
<path fill="none" stroke="#c0c0c0" stroke-width="2" d="M658.6905,-661.6484C516.6047,-645.3982 38,-585.917 38,-522 38,-522 38,-522 38,-306 38,-286.0584 291.2869,-216.9776 423.5863,-182.2548"/>
<polygon fill="#c0c0c0" stroke="#c0c0c0" stroke-width="2" points="424.499,-185.6339 433.2855,-179.7138 422.725,-178.8624 424.499,-185.6339"/>
</g>
<!-- 40&#45;&gt;31 -->
<g id="edge79" class="edge">
<title>40&#45;&gt;31</title>
<path fill="none" stroke="#c0c0c0" stroke-width="2" d="M737.002,-651.2793C740.0433,-650.1605 743.0696,-649.0564 746,-648 792.0143,-631.4114 804.3805,-629.6452 850,-612 850.3191,-611.8766 850.6393,-611.7522 850.9606,-611.627"/>
<polygon fill="#c0c0c0" stroke="#c0c0c0" stroke-width="2" points="852.4812,-614.7879 860.4517,-607.8078 849.868,-608.2939 852.4812,-614.7879"/>
</g>
<!-- 41 -->
<g id="node42" class="node">
<title>41</title>
<path fill="none" stroke="#a7d856" stroke-width="2" stroke-dasharray="5,2" d="M822.5,-684C822.5,-684 767.5,-684 767.5,-684 761.5,-684 755.5,-678 755.5,-672 755.5,-672 755.5,-660 755.5,-660 755.5,-654 761.5,-648 767.5,-648 767.5,-648 822.5,-648 822.5,-648 828.5,-648 834.5,-654 834.5,-660 834.5,-660 834.5,-672 834.5,-672 834.5,-678 828.5,-684 822.5,-684"/>
<text text-anchor="middle" x="795" y="-663.5" font-family="sans" font-size="10.00" fill="#000000">downsample</text>
</g>
<!-- 41&#45;&gt;26 -->
<g id="edge72" class="edge">
<title>41&#45;&gt;26</title>
<path fill="none" stroke="#c0c0c0" stroke-width="2" d="M795,-647.8314C795,-640.131 795,-630.9743 795,-622.4166"/>
<polygon fill="#c0c0c0" stroke="#c0c0c0" stroke-width="2" points="798.5001,-622.4132 795,-612.4133 791.5001,-622.4133 798.5001,-622.4132"/>
</g>
<!-- 42 -->
<g id="node43" class="node">
<title>42</title>
<path fill="none" stroke="#a7d856" stroke-width="2" stroke-dasharray="5,2" d="M1517.5,-684C1517.5,-684 1462.5,-684 1462.5,-684 1456.5,-684 1450.5,-678 1450.5,-672 1450.5,-672 1450.5,-660 1450.5,-660 1450.5,-654 1456.5,-648 1462.5,-648 1462.5,-648 1517.5,-648 1517.5,-648 1523.5,-648 1529.5,-654 1529.5,-660 1529.5,-660 1529.5,-672 1529.5,-672 1529.5,-678 1523.5,-684 1517.5,-684"/>
<text text-anchor="middle" x="1490" y="-663.5" font-family="sans" font-size="10.00" fill="#000000">downsample</text>
</g>
<!-- 42&#45;&gt;27 -->
<g id="edge73" class="edge">
<title>42&#45;&gt;27</title>
<path fill="none" stroke="#c0c0c0" stroke-width="2" d="M1491.5141,-647.8314C1492.1558,-640.131 1492.9188,-630.9743 1493.6319,-622.4166"/>
<polygon fill="#c0c0c0" stroke="#c0c0c0" stroke-width="2" points="1497.1229,-622.6694 1494.4656,-612.4133 1490.1471,-622.088 1497.1229,-622.6694"/>
</g>
<!-- 43 -->
<g id="node44" class="node">
<title>43</title>
<path fill="none" stroke="#a7d856" stroke-width="2" stroke-dasharray="5,2" d="M1413.5,-684C1413.5,-684 1358.5,-684 1358.5,-684 1352.5,-684 1346.5,-678 1346.5,-672 1346.5,-672 1346.5,-660 1346.5,-660 1346.5,-654 1352.5,-648 1358.5,-648 1358.5,-648 1413.5,-648 1413.5,-648 1419.5,-648 1425.5,-654 1425.5,-660 1425.5,-660 1425.5,-672 1425.5,-672 1425.5,-678 1419.5,-684 1413.5,-684"/>
<text text-anchor="middle" x="1386" y="-663.5" font-family="sans" font-size="10.00" fill="#000000">downsample</text>
</g>
<!-- 43&#45;&gt;28 -->
<g id="edge74" class="edge">
<title>43&#45;&gt;28</title>
<path fill="none" stroke="#c0c0c0" stroke-width="2" d="M1386,-647.8314C1386,-640.131 1386,-630.9743 1386,-622.4166"/>
<polygon fill="#c0c0c0" stroke="#c0c0c0" stroke-width="2" points="1389.5001,-622.4132 1386,-612.4133 1382.5001,-622.4133 1389.5001,-622.4132"/>
</g>
<!-- 44 -->
<g id="node45" class="node">
<title>44</title>
<path fill="none" stroke="#56d85b" stroke-width="2" stroke-dasharray="5,2" d="M1220,-684C1220,-684 1166,-684 1166,-684 1160,-684 1154,-678 1154,-672 1154,-672 1154,-660 1154,-660 1154,-654 1160,-648 1166,-648 1166,-648 1220,-648 1220,-648 1226,-648 1232,-654 1232,-660 1232,-660 1232,-672 1232,-672 1232,-678 1226,-684 1220,-684"/>
<text text-anchor="middle" x="1193" y="-663.5" font-family="sans" font-size="10.00" fill="#000000">peak_calling</text>
</g>
<!-- 44&#45;&gt;29 -->
<g id="edge75" class="edge">
<title>44&#45;&gt;29</title>
<path fill="none" stroke="#c0c0c0" stroke-width="2" d="M1193,-647.8314C1193,-640.131 1193,-630.9743 1193,-622.4166"/>
<polygon fill="#c0c0c0" stroke="#c0c0c0" stroke-width="2" points="1196.5001,-622.4132 1193,-612.4133 1189.5001,-622.4133 1196.5001,-622.4132"/>
</g>
<!-- 45 -->
<g id="node46" class="node">
<title>45</title>
<path fill="none" stroke="#56b9d8" stroke-width="2" stroke-dasharray="5,2" d="M1123.5,-684C1123.5,-684 974.5,-684 974.5,-684 968.5,-684 962.5,-678 962.5,-672 962.5,-672 962.5,-660 962.5,-660 962.5,-654 968.5,-648 974.5,-648 974.5,-648 1123.5,-648 1123.5,-648 1129.5,-648 1135.5,-654 1135.5,-660 1135.5,-660 1135.5,-672 1135.5,-672 1135.5,-678 1129.5,-684 1123.5,-684"/>
<text text-anchor="middle" x="1049" y="-663.5" font-family="sans" font-size="10.00" fill="#000000">retrieve_and_process_black_list</text>
</g>
<!-- 45&#45;&gt;29 -->
<g id="edge76" class="edge">
<title>45&#45;&gt;29</title>
<path fill="none" stroke="#c0c0c0" stroke-width="2" d="M1085.3373,-647.8314C1105.6591,-637.6705 1131.0518,-624.9741 1152.0723,-614.4639"/>
<polygon fill="#c0c0c0" stroke="#c0c0c0" stroke-width="2" points="1153.7074,-617.5595 1161.0864,-609.9568 1150.5769,-611.2985 1153.7074,-617.5595"/>
</g>
<!-- 45&#45;&gt;30 -->
<g id="edge78" class="edge">
<title>45&#45;&gt;30</title>
<path fill="none" stroke="#c0c0c0" stroke-width="2" d="M1115.2996,-647.9452C1150.7208,-637.9734 1194.9534,-624.9997 1234,-612 1236.2443,-611.2528 1238.54,-610.4667 1240.8522,-609.6579"/>
<polygon fill="#c0c0c0" stroke="#c0c0c0" stroke-width="2" points="1242.1308,-612.9177 1250.3613,-606.2462 1239.7668,-606.329 1242.1308,-612.9177"/>
</g>
<!-- 45&#45;&gt;31 -->
<g id="edge80" class="edge">
<title>45&#45;&gt;31</title>
<path fill="none" stroke="#c0c0c0" stroke-width="2" d="M1009.3823,-647.8314C986.0691,-637.14 956.6348,-623.6414 933.0734,-612.8362"/>
<polygon fill="#c0c0c0" stroke="#c0c0c0" stroke-width="2" points="934.2492,-609.525 923.7004,-608.5378 931.3312,-615.8878 934.2492,-609.525"/>
</g>
<!-- 46 -->
<g id="node47" class="node">
<title>46</title>
<path fill="none" stroke="#56d85b" stroke-width="2" stroke-dasharray="5,2" d="M1316,-684C1316,-684 1262,-684 1262,-684 1256,-684 1250,-678 1250,-672 1250,-672 1250,-660 1250,-660 1250,-654 1256,-648 1262,-648 1262,-648 1316,-648 1316,-648 1322,-648 1328,-654 1328,-660 1328,-660 1328,-672 1328,-672 1328,-678 1322,-684 1316,-684"/>
<text text-anchor="middle" x="1289" y="-663.5" font-family="sans" font-size="10.00" fill="#000000">peak_calling</text>
</g>
<!-- 46&#45;&gt;30 -->
<g id="edge77" class="edge">
<title>46&#45;&gt;30</title>
<path fill="none" stroke="#c0c0c0" stroke-width="2" d="M1287.2336,-647.8314C1286.485,-640.131 1285.5947,-630.9743 1284.7627,-622.4166"/>
<polygon fill="#c0c0c0" stroke="#c0c0c0" stroke-width="2" points="1288.2415,-622.0276 1283.7902,-612.4133 1281.2744,-622.7051 1288.2415,-622.0276"/>
</g>
<!-- 47 -->
<g id="node48" class="node">
<title>47</title>
<path fill="none" stroke="#b6d856" stroke-width="2" stroke-dasharray="5,2" d="M1428.5,-828C1428.5,-828 1345.5,-828 1345.5,-828 1339.5,-828 1333.5,-822 1333.5,-816 1333.5,-816 1333.5,-804 1333.5,-804 1333.5,-798 1339.5,-792 1345.5,-792 1345.5,-792 1428.5,-792 1428.5,-792 1434.5,-792 1440.5,-798 1440.5,-804 1440.5,-804 1440.5,-816 1440.5,-816 1440.5,-822 1434.5,-828 1428.5,-828"/>
<text text-anchor="middle" x="1387" y="-813" font-family="sans" font-size="10.00" fill="#000000">merge_bam</text>
<text text-anchor="middle" x="1387" y="-802" font-family="sans" font-size="10.00" fill="#000000">sample: RFP_IIG_3</text>
</g>
<!-- 47&#45;&gt;32 -->
<g id="edge81" class="edge">
<title>47&#45;&gt;32</title>
<path fill="none" stroke="#c0c0c0" stroke-width="2" d="M1440.6963,-799.2218C1480.8167,-790.4428 1536.9416,-776.6262 1593.3292,-755.8904"/>
<polygon fill="#c0c0c0" stroke="#c0c0c0" stroke-width="2" points="1594.6096,-759.1484 1602.7463,-752.3627 1592.1539,-752.5932 1594.6096,-759.1484"/>
</g>
<!-- 57 -->
<g id="node58" class="node">
<title>57</title>
<path fill="none" stroke="#567bd8" stroke-width="2" stroke-dasharray="5,2" d="M1407,-756C1407,-756 1365,-756 1365,-756 1359,-756 1353,-750 1353,-744 1353,-744 1353,-732 1353,-732 1353,-726 1359,-720 1365,-720 1365,-720 1407,-720 1407,-720 1413,-720 1419,-726 1419,-732 1419,-732 1419,-744 1419,-744 1419,-750 1413,-756 1407,-756"/>
<text text-anchor="middle" x="1386" y="-735.5" font-family="sans" font-size="10.00" fill="#000000">filter_bam</text>
</g>
<!-- 47&#45;&gt;57 -->
<g id="edge109" class="edge">
<title>47&#45;&gt;57</title>
<path fill="none" stroke="#c0c0c0" stroke-width="2" d="M1386.7477,-791.8314C1386.6407,-784.131 1386.5135,-774.9743 1386.3947,-766.4166"/>
<polygon fill="#c0c0c0" stroke="#c0c0c0" stroke-width="2" points="1389.8944,-766.3637 1386.2557,-756.4133 1382.8951,-766.4609 1389.8944,-766.3637"/>
</g>
<!-- 48 -->
<g id="node49" class="node">
<title>48</title>
<path fill="none" stroke="#b6d856" stroke-width="2" stroke-dasharray="5,2" d="M1742.5,-828C1742.5,-828 1661.5,-828 1661.5,-828 1655.5,-828 1649.5,-822 1649.5,-816 1649.5,-816 1649.5,-804 1649.5,-804 1649.5,-798 1655.5,-792 1661.5,-792 1661.5,-792 1742.5,-792 1742.5,-792 1748.5,-792 1754.5,-798 1754.5,-804 1754.5,-804 1754.5,-816 1754.5,-816 1754.5,-822 1748.5,-828 1742.5,-828"/>
<text text-anchor="middle" x="1702" y="-813" font-family="sans" font-size="10.00" fill="#000000">merge_bam</text>
<text text-anchor="middle" x="1702" y="-802" font-family="sans" font-size="10.00" fill="#000000">sample: RFP_IIE_1</text>
</g>
<!-- 48&#45;&gt;33 -->
<g id="edge82" class="edge">
<title>48&#45;&gt;33</title>
<path fill="none" stroke="#c0c0c0" stroke-width="2" d="M1702,-791.8314C1702,-784.131 1702,-774.9743 1702,-766.4166"/>
<polygon fill="#c0c0c0" stroke="#c0c0c0" stroke-width="2" points="1705.5001,-766.4132 1702,-756.4133 1698.5001,-766.4133 1705.5001,-766.4132"/>
</g>
<!-- 56 -->
<g id="node57" class="node">
<title>56</title>
<path fill="none" stroke="#567bd8" stroke-width="2" stroke-dasharray="5,2" d="M1501,-756C1501,-756 1459,-756 1459,-756 1453,-756 1447,-750 1447,-744 1447,-744 1447,-732 1447,-732 1447,-726 1453,-720 1459,-720 1459,-720 1501,-720 1501,-720 1507,-720 1513,-726 1513,-732 1513,-732 1513,-744 1513,-744 1513,-750 1507,-756 1501,-756"/>
<text text-anchor="middle" x="1480" y="-735.5" font-family="sans" font-size="10.00" fill="#000000">filter_bam</text>
</g>
<!-- 48&#45;&gt;56 -->
<g id="edge108" class="edge">
<title>48&#45;&gt;56</title>
<path fill="none" stroke="#c0c0c0" stroke-width="2" d="M1649.1075,-795.8389C1615.2256,-786.3787 1570.2192,-773.094 1522.839,-756.1318"/>
<polygon fill="#c0c0c0" stroke="#c0c0c0" stroke-width="2" points="1523.9281,-752.8039 1513.3339,-752.6904 1521.545,-759.3857 1523.9281,-752.8039"/>
</g>
<!-- 49 -->
<g id="node50" class="node">
<title>49</title>
<path fill="none" stroke="#b6d856" stroke-width="2" stroke-dasharray="5,2" d="M826.5,-828C826.5,-828 743.5,-828 743.5,-828 737.5,-828 731.5,-822 731.5,-816 731.5,-816 731.5,-804 731.5,-804 731.5,-798 737.5,-792 743.5,-792 743.5,-792 826.5,-792 826.5,-792 832.5,-792 838.5,-798 838.5,-804 838.5,-804 838.5,-816 838.5,-816 838.5,-822 832.5,-828 826.5,-828"/>
<text text-anchor="middle" x="785" y="-813" font-family="sans" font-size="10.00" fill="#000000">merge_bam</text>
<text text-anchor="middle" x="785" y="-802" font-family="sans" font-size="10.00" fill="#000000">sample: GFP_IIG_7</text>
</g>
<!-- 49&#45;&gt;34 -->
<g id="edge83" class="edge">
<title>49&#45;&gt;34</title>
<path fill="none" stroke="#c0c0c0" stroke-width="2" d="M838.6489,-808.769C982.4519,-805.051 1374.9506,-792.0485 1521.2363,-755.4691"/>
<polygon fill="#c0c0c0" stroke="#c0c0c0" stroke-width="2" points="1522.1495,-758.848 1530.924,-752.9101 1520.3617,-752.0802 1522.1495,-758.848"/>
</g>
<!-- 55 -->
<g id="node56" class="node">
<title>55</title>
<path fill="none" stroke="#567bd8" stroke-width="2" stroke-dasharray="5,2" d="M806,-756C806,-756 764,-756 764,-756 758,-756 752,-750 752,-744 752,-744 752,-732 752,-732 752,-726 758,-720 764,-720 764,-720 806,-720 806,-720 812,-720 818,-726 818,-732 818,-732 818,-744 818,-744 818,-750 812,-756 806,-756"/>
<text text-anchor="middle" x="785" y="-735.5" font-family="sans" font-size="10.00" fill="#000000">filter_bam</text>
</g>
<!-- 49&#45;&gt;55 -->
<g id="edge107" class="edge">
<title>49&#45;&gt;55</title>
<path fill="none" stroke="#c0c0c0" stroke-width="2" d="M785,-791.8314C785,-784.131 785,-774.9743 785,-766.4166"/>
<polygon fill="#c0c0c0" stroke="#c0c0c0" stroke-width="2" points="788.5001,-766.4132 785,-756.4133 781.5001,-766.4133 788.5001,-766.4132"/>
</g>
<!-- 50 -->
<g id="node51" class="node">
<title>50</title>
<path fill="none" stroke="#5663d8" stroke-width="2" stroke-dasharray="5,2" d="M1161,-396C1161,-396 1047,-396 1047,-396 1041,-396 1035,-390 1035,-384 1035,-384 1035,-372 1035,-372 1035,-366 1041,-360 1047,-360 1047,-360 1161,-360 1161,-360 1167,-360 1173,-366 1173,-372 1173,-372 1173,-384 1173,-384 1173,-390 1167,-396 1161,-396"/>
<text text-anchor="middle" x="1104" y="-375.5" font-family="sans" font-size="10.00" fill="#000000">common_peaks_by_type</text>
</g>
<!-- 50&#45;&gt;35 -->
<g id="edge84" class="edge">
<title>50&#45;&gt;35</title>
<path fill="none" stroke="#c0c0c0" stroke-width="2" d="M1064.887,-359.8314C1044.2488,-350.2446 1018.7516,-338.4008 996.9327,-328.2655"/>
<polygon fill="#c0c0c0" stroke="#c0c0c0" stroke-width="2" points="998.3756,-325.0766 987.8318,-324.038 995.4266,-331.4251 998.3756,-325.0766"/>
</g>
<!-- 50&#45;&gt;37 -->
<g id="edge88" class="edge">
<title>50&#45;&gt;37</title>
<path fill="none" stroke="#c0c0c0" stroke-width="2" d="M1140.8018,-359.8574C1154.4596,-351.0627 1168.4533,-339.0935 1176,-324 1183.1554,-309.6892 1185.2806,-301.0334 1176,-288 1162.946,-269.6673 1107.197,-253.5048 1066.051,-243.7494"/>
<polygon fill="#c0c0c0" stroke="#c0c0c0" stroke-width="2" points="1066.735,-240.3152 1056.2032,-241.4694 1065.156,-247.1348 1066.735,-240.3152"/>
</g>
<!-- 52 -->
<g id="node53" class="node">
<title>52</title>
<path fill="none" stroke="#bed856" stroke-width="2" stroke-dasharray="5,2" d="M1155,-324C1155,-324 1053,-324 1053,-324 1047,-324 1041,-318 1041,-312 1041,-312 1041,-300 1041,-300 1041,-294 1047,-288 1053,-288 1053,-288 1155,-288 1155,-288 1161,-288 1167,-294 1167,-300 1167,-300 1167,-312 1167,-312 1167,-318 1161,-324 1155,-324"/>
<text text-anchor="middle" x="1104" y="-303.5" font-family="sans" font-size="10.00" fill="#000000">overlap_with_h3k27ac</text>
</g>
<!-- 50&#45;&gt;52 -->
<g id="edge104" class="edge">
<title>50&#45;&gt;52</title>
<path fill="none" stroke="#c0c0c0" stroke-width="2" d="M1104,-359.8314C1104,-352.131 1104,-342.9743 1104,-334.4166"/>
<polygon fill="#c0c0c0" stroke="#c0c0c0" stroke-width="2" points="1107.5001,-334.4132 1104,-324.4133 1100.5001,-334.4133 1107.5001,-334.4132"/>
</g>
<!-- 51&#45;&gt;36 -->
<g id="edge87" class="edge">
<title>51&#45;&gt;36</title>
<path fill="none" stroke="#c0c0c0" stroke-width="2" d="M775.4304,-287.8314C784.732,-279.1337 796.0204,-268.5783 806.1286,-259.1265"/>
<polygon fill="#c0c0c0" stroke="#c0c0c0" stroke-width="2" points="808.6621,-261.5493 813.5759,-252.1628 803.8811,-256.4363 808.6621,-261.5493"/>
</g>
<!-- 52&#45;&gt;37 -->
<g id="edge89" class="edge">
<title>52&#45;&gt;37</title>
<path fill="none" stroke="#c0c0c0" stroke-width="2" d="M1082.8033,-287.8314C1072.5566,-279.0485 1060.0997,-268.3712 1048.9903,-258.8489"/>
<polygon fill="#c0c0c0" stroke="#c0c0c0" stroke-width="2" points="1051.0603,-256.0134 1041.19,-252.1628 1046.5048,-261.3282 1051.0603,-256.0134"/>
</g>
<!-- 53&#45;&gt;38 -->
<g id="edge90" class="edge">
<title>53&#45;&gt;38</title>
<path fill="none" stroke="#c0c0c0" stroke-width="2" d="M751.2333,-503.7802C748.1162,-485.3905 745.0716,-456.3123 751,-432 753.2539,-422.7566 757.3893,-413.3312 761.8027,-404.9966"/>
<polygon fill="#c0c0c0" stroke="#c0c0c0" stroke-width="2" points="764.9471,-406.5463 766.8183,-396.118 758.8524,-403.1033 764.9471,-406.5463"/>
</g>
<!-- 54 -->
<g id="node55" class="node">
<title>54</title>
<path fill="none" stroke="#d89556" stroke-width="2" stroke-dasharray="5,2" d="M875.5,-468C875.5,-468 772.5,-468 772.5,-468 766.5,-468 760.5,-462 760.5,-456 760.5,-456 760.5,-444 760.5,-444 760.5,-438 766.5,-432 772.5,-432 772.5,-432 875.5,-432 875.5,-432 881.5,-432 887.5,-438 887.5,-444 887.5,-444 887.5,-456 887.5,-456 887.5,-462 881.5,-468 875.5,-468"/>
<text text-anchor="middle" x="824" y="-447.5" font-family="sans" font-size="10.00" fill="#000000">merge_peaks_by_type</text>
</g>
<!-- 53&#45;&gt;54 -->
<g id="edge106" class="edge">
<title>53&#45;&gt;54</title>
<path fill="none" stroke="#c0c0c0" stroke-width="2" d="M772.4116,-503.8314C780.521,-495.3694 790.3156,-485.1489 799.182,-475.8971"/>
<polygon fill="#c0c0c0" stroke="#c0c0c0" stroke-width="2" points="801.9618,-478.0549 806.354,-468.4133 796.9079,-473.2115 801.9618,-478.0549"/>
</g>
<!-- 54&#45;&gt;38 -->
<g id="edge91" class="edge">
<title>54&#45;&gt;38</title>
<path fill="none" stroke="#c0c0c0" stroke-width="2" d="M812.6446,-431.8314C807.5674,-423.7079 801.4773,-413.9637 795.8824,-405.0118"/>
<polygon fill="#c0c0c0" stroke="#c0c0c0" stroke-width="2" points="798.7763,-403.0383 790.5083,-396.4133 792.8403,-406.7483 798.7763,-403.0383"/>
</g>
<!-- 55&#45;&gt;40 -->
<g id="edge92" class="edge">
<title>55&#45;&gt;40</title>
<path fill="none" stroke="#c0c0c0" stroke-width="2" d="M763.0462,-719.8314C752.3305,-710.9632 739.2811,-700.1637 727.691,-690.5718"/>
<polygon fill="#c0c0c0" stroke="#c0c0c0" stroke-width="2" points="729.8822,-687.8422 719.9467,-684.1628 725.4192,-693.2349 729.8822,-687.8422"/>
</g>
<!-- 55&#45;&gt;41 -->
<g id="edge93" class="edge">
<title>55&#45;&gt;41</title>
<path fill="none" stroke="#c0c0c0" stroke-width="2" d="M787.5234,-719.8314C788.5929,-712.131 789.8647,-702.9743 791.0532,-694.4166"/>
<polygon fill="#c0c0c0" stroke="#c0c0c0" stroke-width="2" points="794.5336,-694.7997 792.4426,-684.4133 787.6001,-693.8367 794.5336,-694.7997"/>
</g>
<!-- 56&#45;&gt;42 -->
<g id="edge94" class="edge">
<title>56&#45;&gt;42</title>
<path fill="none" stroke="#c0c0c0" stroke-width="2" d="M1482.5234,-719.8314C1483.5929,-712.131 1484.8647,-702.9743 1486.0532,-694.4166"/>
<polygon fill="#c0c0c0" stroke="#c0c0c0" stroke-width="2" points="1489.5336,-694.7997 1487.4426,-684.4133 1482.6001,-693.8367 1489.5336,-694.7997"/>
</g>
<!-- 56&#45;&gt;46 -->
<g id="edge97" class="edge">
<title>56&#45;&gt;46</title>
<path fill="none" stroke="#c0c0c0" stroke-width="2" d="M1446.7303,-725.4586C1416.6715,-714.1275 1372.044,-697.3045 1337.9222,-684.4419"/>
<polygon fill="#c0c0c0" stroke="#c0c0c0" stroke-width="2" points="1338.7405,-681.01 1328.1487,-680.7576 1336.2713,-687.5601 1338.7405,-681.01"/>
</g>
<!-- 57&#45;&gt;43 -->
<g id="edge95" class="edge">
<title>57&#45;&gt;43</title>
<path fill="none" stroke="#c0c0c0" stroke-width="2" d="M1386,-719.8314C1386,-712.131 1386,-702.9743 1386,-694.4166"/>
<polygon fill="#c0c0c0" stroke="#c0c0c0" stroke-width="2" points="1389.5001,-694.4132 1386,-684.4133 1382.5001,-694.4133 1389.5001,-694.4132"/>
</g>
<!-- 57&#45;&gt;44 -->
<g id="edge96" class="edge">
<title>57&#45;&gt;44</title>
<path fill="none" stroke="#c0c0c0" stroke-width="2" d="M1352.8784,-725.6894C1325.4356,-715.484 1285.167,-700.4967 1241.4155,-684.1519"/>
<polygon fill="#c0c0c0" stroke="#c0c0c0" stroke-width="2" points="1242.6225,-680.8665 1232.0299,-680.6447 1240.1721,-687.4237 1242.6225,-680.8665"/>
</g>
<!-- 58 -->
<g id="node59" class="node">
<title>58</title>
<path fill="none" stroke="#56c1d8" stroke-width="2" stroke-dasharray="5,2" d="M1496,-900C1496,-900 1278,-900 1278,-900 1272,-900 1266,-894 1266,-888 1266,-888 1266,-876 1266,-876 1266,-870 1272,-864 1278,-864 1278,-864 1496,-864 1496,-864 1502,-864 1508,-870 1508,-876 1508,-876 1508,-888 1508,-888 1508,-894 1502,-900 1496,-900"/>
<text text-anchor="middle" x="1387" y="-885" font-family="sans" font-size="10.00" fill="#000000">align</text>
<text text-anchor="middle" x="1387" y="-874" font-family="sans" font-size="10.00" fill="#000000">lane_sample: HN7NJBBXX_16871585_S2_L001</text>
</g>
<!-- 58&#45;&gt;47 -->
<g id="edge98" class="edge">
<title>58&#45;&gt;47</title>
<path fill="none" stroke="#c0c0c0" stroke-width="2" d="M1387,-863.8314C1387,-856.131 1387,-846.9743 1387,-838.4166"/>
<polygon fill="#c0c0c0" stroke="#c0c0c0" stroke-width="2" points="1390.5001,-838.4132 1387,-828.4133 1383.5001,-838.4133 1390.5001,-838.4132"/>
</g>
<!-- 59 -->
<g id="node60" class="node">
<title>59</title>
<path fill="none" stroke="#56c1d8" stroke-width="2" stroke-dasharray="5,2" d="M2016,-900C2016,-900 1794,-900 1794,-900 1788,-900 1782,-894 1782,-888 1782,-888 1782,-876 1782,-876 1782,-870 1788,-864 1794,-864 1794,-864 2016,-864 2016,-864 2022,-864 2028,-870 2028,-876 2028,-876 2028,-888 2028,-888 2028,-894 2022,-900 2016,-900"/>
<text text-anchor="middle" x="1905" y="-885" font-family="sans" font-size="10.00" fill="#000000">align</text>
<text text-anchor="middle" x="1905" y="-874" font-family="sans" font-size="10.00" fill="#000000">lane_sample: HN7TMBBXX_16871599_S8_L004</text>
</g>
<!-- 59&#45;&gt;48 -->
<g id="edge99" class="edge">
<title>59&#45;&gt;48</title>
<path fill="none" stroke="#c0c0c0" stroke-width="2" d="M1854.0366,-863.9243C1826.2853,-854.0815 1791.7672,-841.8386 1762.6386,-831.5073"/>
<polygon fill="#c0c0c0" stroke="#c0c0c0" stroke-width="2" points="1763.5792,-828.1273 1752.9844,-828.0831 1761.2392,-834.7246 1763.5792,-828.1273"/>
</g>
<!-- 60 -->
<g id="node61" class="node">
<title>60</title>
<path fill="none" stroke="#56c1d8" stroke-width="2" stroke-dasharray="5,2" d="M874,-900C874,-900 656,-900 656,-900 650,-900 644,-894 644,-888 644,-888 644,-876 644,-876 644,-870 650,-864 656,-864 656,-864 874,-864 874,-864 880,-864 886,-870 886,-876 886,-876 886,-888 886,-888 886,-894 880,-900 874,-900"/>
<text text-anchor="middle" x="765" y="-885" font-family="sans" font-size="10.00" fill="#000000">align</text>
<text text-anchor="middle" x="765" y="-874" font-family="sans" font-size="10.00" fill="#000000">lane_sample: HN7NJBBXX_16871601_S3_L001</text>
</g>
<!-- 60&#45;&gt;49 -->
<g id="edge100" class="edge">
<title>60&#45;&gt;49</title>
<path fill="none" stroke="#c0c0c0" stroke-width="2" d="M770.0468,-863.8314C772.2094,-856.0463 774.7853,-846.7729 777.1848,-838.1347"/>
<polygon fill="#c0c0c0" stroke="#c0c0c0" stroke-width="2" points="780.581,-838.9852 779.8852,-828.4133 773.8364,-837.1117 780.581,-838.9852"/>
</g>
<!-- 61&#45;&gt;50 -->
<g id="edge101" class="edge">
<title>61&#45;&gt;50</title>
<path fill="none" stroke="#c0c0c0" stroke-width="2" d="M1193.0529,-503.7151C1192.3052,-484.4858 1188.7742,-454.0199 1175,-432 1167.67,-420.2821 1156.8213,-410.1712 1145.7983,-401.9711"/>
<polygon fill="#c0c0c0" stroke="#c0c0c0" stroke-width="2" points="1147.588,-398.9515 1137.3903,-396.078 1143.5703,-404.6837 1147.588,-398.9515"/>
</g>
<!-- 62 -->
<g id="node63" class="node">
<title>62</title>
<path fill="none" stroke="#d89556" stroke-width="2" stroke-dasharray="5,2" d="M1153.5,-468C1153.5,-468 1050.5,-468 1050.5,-468 1044.5,-468 1038.5,-462 1038.5,-456 1038.5,-456 1038.5,-444 1038.5,-444 1038.5,-438 1044.5,-432 1050.5,-432 1050.5,-432 1153.5,-432 1153.5,-432 1159.5,-432 1165.5,-438 1165.5,-444 1165.5,-444 1165.5,-456 1165.5,-456 1165.5,-462 1159.5,-468 1153.5,-468"/>
<text text-anchor="middle" x="1102" y="-447.5" font-family="sans" font-size="10.00" fill="#000000">merge_peaks_by_type</text>
</g>
<!-- 61&#45;&gt;62 -->
<g id="edge124" class="edge">
<title>61&#45;&gt;62</title>
<path fill="none" stroke="#c0c0c0" stroke-width="2" d="M1170.0369,-503.8314C1158.8285,-494.9632 1145.1791,-484.1637 1133.0561,-474.5718"/>
<polygon fill="#c0c0c0" stroke="#c0c0c0" stroke-width="2" points="1134.9697,-471.6229 1124.9558,-468.1628 1130.6263,-477.1125 1134.9697,-471.6229"/>
</g>
<!-- 62&#45;&gt;50 -->
<g id="edge102" class="edge">
<title>62&#45;&gt;50</title>
<path fill="none" stroke="#c0c0c0" stroke-width="2" d="M1102.5047,-431.8314C1102.7186,-424.131 1102.9729,-414.9743 1103.2106,-406.4166"/>
<polygon fill="#c0c0c0" stroke="#c0c0c0" stroke-width="2" points="1106.7094,-406.5066 1103.4885,-396.4133 1099.7121,-406.3122 1106.7094,-406.5066"/>
</g>
<!-- 63 -->
<g id="node64" class="node">
<title>63</title>
<path fill="none" stroke="#56d8a2" stroke-width="2" stroke-dasharray="5,2" d="M1352,-972C1352,-972 1066,-972 1066,-972 1060,-972 1054,-966 1054,-960 1054,-960 1054,-948 1054,-948 1054,-942 1060,-936 1066,-936 1066,-936 1352,-936 1352,-936 1358,-936 1364,-942 1364,-948 1364,-948 1364,-960 1364,-960 1364,-966 1358,-972 1352,-972"/>
<text text-anchor="middle" x="1209" y="-957" font-family="sans" font-size="10.00" fill="#000000">pull_lane_fastq_from_nisc_or_sra</text>
<text text-anchor="middle" x="1209" y="-946" font-family="sans" font-size="10.00" fill="#000000">lane_files: HN7NJBBXX_16871585_S2_L001_R1_001.fastq.gz</text>
</g>
<!-- 63&#45;&gt;58 -->
<g id="edge110" class="edge">
<title>63&#45;&gt;58</title>
<path fill="none" stroke="#c0c0c0" stroke-width="2" d="M1253.9169,-935.8314C1277.935,-926.1162 1307.6834,-914.0831 1332.9592,-903.8592"/>
<polygon fill="#c0c0c0" stroke="#c0c0c0" stroke-width="2" points="1334.4482,-907.0325 1342.4061,-900.038 1331.8233,-900.5432 1334.4482,-907.0325"/>
</g>
<!-- 64 -->
<g id="node65" class="node">
<title>64</title>
<path fill="none" stroke="#56d8a2" stroke-width="2" stroke-dasharray="5,2" d="M1718,-972C1718,-972 1432,-972 1432,-972 1426,-972 1420,-966 1420,-960 1420,-960 1420,-948 1420,-948 1420,-942 1426,-936 1432,-936 1432,-936 1718,-936 1718,-936 1724,-936 1730,-942 1730,-948 1730,-948 1730,-960 1730,-960 1730,-966 1724,-972 1718,-972"/>
<text text-anchor="middle" x="1575" y="-957" font-family="sans" font-size="10.00" fill="#000000">pull_lane_fastq_from_nisc_or_sra</text>
<text text-anchor="middle" x="1575" y="-946" font-family="sans" font-size="10.00" fill="#000000">lane_files: HN7NJBBXX_16871585_S2_L001_R2_001.fastq.gz</text>
</g>
<!-- 64&#45;&gt;58 -->
<g id="edge111" class="edge">
<title>64&#45;&gt;58</title>
<path fill="none" stroke="#c0c0c0" stroke-width="2" d="M1527.5597,-935.8314C1502.0805,-926.0734 1470.4956,-913.977 1443.7243,-903.7242"/>
<polygon fill="#c0c0c0" stroke="#c0c0c0" stroke-width="2" points="1444.6896,-900.346 1434.0992,-900.038 1442.186,-906.883 1444.6896,-900.346"/>
</g>
<!-- 65 -->
<g id="node66" class="node">
<title>65</title>
<path fill="none" stroke="#d8bc56" stroke-width="2" stroke-dasharray="5,2" d="M1212,-1044C1212,-1044 1166,-1044 1166,-1044 1160,-1044 1154,-1038 1154,-1032 1154,-1032 1154,-1020 1154,-1020 1154,-1014 1160,-1008 1166,-1008 1166,-1008 1212,-1008 1212,-1008 1218,-1008 1224,-1014 1224,-1020 1224,-1020 1224,-1032 1224,-1032 1224,-1038 1218,-1044 1212,-1044"/>
<text text-anchor="middle" x="1189" y="-1023.5" font-family="sans" font-size="10.00" fill="#000000">build_hg19</text>
</g>
<!-- 65&#45;&gt;58 -->
<g id="edge112" class="edge">
<title>65&#45;&gt;58</title>
<path fill="none" stroke="#c0c0c0" stroke-width="2" d="M1224.3954,-1020.2205C1272.1403,-1011.6831 1353.4666,-994.2791 1373,-972 1387.6011,-955.3465 1390.4159,-929.9754 1389.9707,-910.4108"/>
<polygon fill="#c0c0c0" stroke="#c0c0c0" stroke-width="2" points="1393.4561,-910.0362 1389.4421,-900.2312 1386.4655,-910.3993 1393.4561,-910.0362"/>
</g>
<!-- 65&#45;&gt;59 -->
<g id="edge116" class="edge">
<title>65&#45;&gt;59</title>
<path fill="none" stroke="#c0c0c0" stroke-width="2" d="M1224.3066,-1025.7877C1419.6927,-1024.4443 2361.1885,-1015.7127 2403,-972 2414.0595,-960.4376 2413.6865,-947.9079 2403,-936 2378.9522,-909.2036 2177.6162,-894.4785 2038.4299,-887.4206"/>
<polygon fill="#c0c0c0" stroke="#c0c0c0" stroke-width="2" points="2038.2631,-883.908 2028.101,-886.9051 2037.9141,-890.8993 2038.2631,-883.908"/>
</g>
<!-- 65&#45;&gt;60 -->
<g id="edge120" class="edge">
<title>65&#45;&gt;60</title>
<path fill="none" stroke="#c0c0c0" stroke-width="2" d="M1153.9945,-1025.4674C1033.0861,-1023.2704 638.3969,-1012.9887 601,-972 572.2095,-940.4443 616.2903,-917.5572 665.9645,-902.7607"/>
<polygon fill="#c0c0c0" stroke="#c0c0c0" stroke-width="2" points="666.9676,-906.1142 675.6206,-900.0005 665.0437,-899.3838 666.9676,-906.1142"/>
</g>
<!-- 66 -->
<g id="node67" class="node">
<title>66</title>
<path fill="none" stroke="#56b1d8" stroke-width="2" stroke-dasharray="5,2" d="M1024,-972C1024,-972 950,-972 950,-972 944,-972 938,-966 938,-960 938,-960 938,-948 938,-948 938,-942 944,-936 950,-936 950,-936 1024,-936 1024,-936 1030,-936 1036,-942 1036,-948 1036,-948 1036,-960 1036,-960 1036,-966 1030,-972 1024,-972"/>
<text text-anchor="middle" x="987" y="-951.5" font-family="sans" font-size="10.00" fill="#000000">build_bwa_index</text>
</g>
<!-- 65&#45;&gt;66 -->
<g id="edge125" class="edge">
<title>65&#45;&gt;66</title>
<path fill="none" stroke="#c0c0c0" stroke-width="2" d="M1153.8143,-1013.4586C1124.0576,-1002.8522 1080.8012,-987.4341 1045.7936,-974.9561"/>
<polygon fill="#c0c0c0" stroke="#c0c0c0" stroke-width="2" points="1046.7511,-971.5818 1036.1565,-971.5211 1044.4009,-978.1755 1046.7511,-971.5818"/>
</g>
<!-- 66&#45;&gt;58 -->
<g id="edge113" class="edge">
<title>66&#45;&gt;58</title>
<path fill="none" stroke="#c0c0c0" stroke-width="2" d="M1036.2283,-938.1919C1039.1847,-937.4078 1042.1248,-936.6695 1045,-936 1113.9088,-919.9555 1191.7494,-907.2494 1255.7416,-898.2037"/>
<polygon fill="#c0c0c0" stroke="#c0c0c0" stroke-width="2" points="1256.4712,-901.6358 1265.8895,-896.7834 1255.5009,-894.7033 1256.4712,-901.6358"/>
</g>
<!-- 66&#45;&gt;59 -->
<g id="edge117" class="edge">
<title>66&#45;&gt;59</title>
<path fill="none" stroke="#c0c0c0" stroke-width="2" d="M1036.1611,-937.8691C1039.1344,-937.1661 1042.0966,-936.5338 1045,-936 1114.3288,-923.2543 1547.7381,-900.0056 1771.5446,-888.6282"/>
<polygon fill="#c0c0c0" stroke="#c0c0c0" stroke-width="2" points="1771.9036,-892.1146 1781.7133,-888.1121 1771.5487,-885.1236 1771.9036,-892.1146"/>
</g>
<!-- 66&#45;&gt;60 -->
<g id="edge121" class="edge">
<title>66&#45;&gt;60</title>
<path fill="none" stroke="#c0c0c0" stroke-width="2" d="M937.731,-938.0209C906.2236,-927.8022 864.9864,-914.428 830.706,-903.31"/>
<polygon fill="#c0c0c0" stroke="#c0c0c0" stroke-width="2" points="831.3657,-899.8446 820.7737,-900.0888 829.2061,-906.5032 831.3657,-899.8446"/>
</g>
<!-- 67 -->
<g id="node68" class="node">
<title>67</title>
<path fill="none" stroke="#56d8a2" stroke-width="2" stroke-dasharray="5,2" d="M2050,-972C2050,-972 1760,-972 1760,-972 1754,-972 1748,-966 1748,-960 1748,-960 1748,-948 1748,-948 1748,-942 1754,-936 1760,-936 1760,-936 2050,-936 2050,-936 2056,-936 2062,-942 2062,-948 2062,-948 2062,-960 2062,-960 2062,-966 2056,-972 2050,-972"/>
<text text-anchor="middle" x="1905" y="-957" font-family="sans" font-size="10.00" fill="#000000">pull_lane_fastq_from_nisc_or_sra</text>
<text text-anchor="middle" x="1905" y="-946" font-family="sans" font-size="10.00" fill="#000000">lane_files: HN7TMBBXX_16871599_S8_L004_R1_001.fastq.gz</text>
</g>
<!-- 67&#45;&gt;59 -->
<g id="edge114" class="edge">
<title>67&#45;&gt;59</title>
<path fill="none" stroke="#c0c0c0" stroke-width="2" d="M1905,-935.8314C1905,-928.131 1905,-918.9743 1905,-910.4166"/>
<polygon fill="#c0c0c0" stroke="#c0c0c0" stroke-width="2" points="1908.5001,-910.4132 1905,-900.4133 1901.5001,-910.4133 1908.5001,-910.4132"/>
</g>
<!-- 68 -->
<g id="node69" class="node">
<title>68</title>
<path fill="none" stroke="#56d8a2" stroke-width="2" stroke-dasharray="5,2" d="M2382,-972C2382,-972 2092,-972 2092,-972 2086,-972 2080,-966 2080,-960 2080,-960 2080,-948 2080,-948 2080,-942 2086,-936 2092,-936 2092,-936 2382,-936 2382,-936 2388,-936 2394,-942 2394,-948 2394,-948 2394,-960 2394,-960 2394,-966 2388,-972 2382,-972"/>
<text text-anchor="middle" x="2237" y="-957" font-family="sans" font-size="10.00" fill="#000000">pull_lane_fastq_from_nisc_or_sra</text>
<text text-anchor="middle" x="2237" y="-946" font-family="sans" font-size="10.00" fill="#000000">lane_files: HN7TMBBXX_16871599_S8_L004_R2_001.fastq.gz</text>
</g>
<!-- 68&#45;&gt;59 -->
<g id="edge115" class="edge">
<title>68&#45;&gt;59</title>
<path fill="none" stroke="#c0c0c0" stroke-width="2" d="M2153.6509,-935.9243C2106.3001,-925.6554 2046.9035,-912.7743 1998.0377,-902.1768"/>
<polygon fill="#c0c0c0" stroke="#c0c0c0" stroke-width="2" points="1998.61,-898.7197 1988.0954,-900.0207 1997.1264,-905.5607 1998.61,-898.7197"/>
</g>
<!-- 69 -->
<g id="node70" class="node">
<title>69</title>
<path fill="none" stroke="#56d8a2" stroke-width="2" stroke-dasharray="5,2" d="M542,-972C542,-972 256,-972 256,-972 250,-972 244,-966 244,-960 244,-960 244,-948 244,-948 244,-942 250,-936 256,-936 256,-936 542,-936 542,-936 548,-936 554,-942 554,-948 554,-948 554,-960 554,-960 554,-966 548,-972 542,-972"/>
<text text-anchor="middle" x="399" y="-957" font-family="sans" font-size="10.00" fill="#000000">pull_lane_fastq_from_nisc_or_sra</text>
<text text-anchor="middle" x="399" y="-946" font-family="sans" font-size="10.00" fill="#000000">lane_files: HN7NJBBXX_16871601_S3_L001_R1_001.fastq.gz</text>
</g>
<!-- 69&#45;&gt;60 -->
<g id="edge118" class="edge">
<title>69&#45;&gt;60</title>
<path fill="none" stroke="#c0c0c0" stroke-width="2" d="M490.8848,-935.9243C543.4118,-925.5911 609.3849,-912.6128 663.4452,-901.978"/>
<polygon fill="#c0c0c0" stroke="#c0c0c0" stroke-width="2" points="664.2585,-905.3852 673.3949,-900.0207 662.9073,-898.5168 664.2585,-905.3852"/>
</g>
<!-- 70 -->
<g id="node71" class="node">
<title>70</title>
<path fill="none" stroke="#56d8a2" stroke-width="2" stroke-dasharray="5,2" d="M908,-972C908,-972 622,-972 622,-972 616,-972 610,-966 610,-960 610,-960 610,-948 610,-948 610,-942 616,-936 622,-936 622,-936 908,-936 908,-936 914,-936 920,-942 920,-948 920,-948 920,-960 920,-960 920,-966 914,-972 908,-972"/>
<text text-anchor="middle" x="765" y="-957" font-family="sans" font-size="10.00" fill="#000000">pull_lane_fastq_from_nisc_or_sra</text>
<text text-anchor="middle" x="765" y="-946" font-family="sans" font-size="10.00" fill="#000000">lane_files: HN7NJBBXX_16871601_S3_L001_R2_001.fastq.gz</text>
</g>
<!-- 70&#45;&gt;60 -->
<g id="edge119" class="edge">
<title>70&#45;&gt;60</title>
<path fill="none" stroke="#c0c0c0" stroke-width="2" d="M765,-935.8314C765,-928.131 765,-918.9743 765,-910.4166"/>
<polygon fill="#c0c0c0" stroke="#c0c0c0" stroke-width="2" points="768.5001,-910.4132 765,-900.4133 761.5001,-910.4133 768.5001,-910.4132"/>
</g>
</g>
</svg>
