<?xml version="1.0" encoding="UTF-8" standalone="no"?>
<!DOCTYPE svg PUBLIC "-//W3C//DTD SVG 1.1//EN"
 "http://www.w3.org/Graphics/SVG/1.1/DTD/svg11.dtd">
<!-- Generated by graphviz version 2.40.1 (20161225.0304)
 -->
<!-- Title: snakemake_dag Pages: 1 -->
<svg width="2878pt" height="1052pt"
 viewBox="0.00 0.00 2878.43 1052.00" xmlns="http://www.w3.org/2000/svg" xmlns:xlink="http://www.w3.org/1999/xlink">
<g id="graph0" class="graph" transform="scale(1 1) rotate(0) translate(4 1048)">
<title>snakemake_dag</title>
<polygon fill="#ffffff" stroke="transparent" points="-4,4 -4,-1048 2874.4313,-1048 2874.4313,4 -4,4"/>
<!-- 0 -->
<g id="node1" class="node">
<title>0</title>
<path fill="none" stroke="#70d856" stroke-width="2" d="M844.2403,-36C844.2403,-36 814.2403,-36 814.2403,-36 808.2403,-36 802.2403,-30 802.2403,-24 802.2403,-24 802.2403,-12 802.2403,-12 802.2403,-6 808.2403,0 814.2403,0 814.2403,0 844.2403,0 844.2403,0 850.2403,0 856.2403,-6 856.2403,-12 856.2403,-12 856.2403,-24 856.2403,-24 856.2403,-30 850.2403,-36 844.2403,-36"/>
<text text-anchor="middle" x="829.2403" y="-15.5" font-family="sans" font-size="10.00" fill="#000000">all</text>
</g>
<!-- 1 -->
<g id="node2" class="node">
<title>1</title>
<path fill="none" stroke="#567bd8" stroke-width="2" stroke-dasharray="5,2" d="M1045.7403,-108C1045.7403,-108 992.7403,-108 992.7403,-108 986.7403,-108 980.7403,-102 980.7403,-96 980.7403,-96 980.7403,-84 980.7403,-84 980.7403,-78 986.7403,-72 992.7403,-72 992.7403,-72 1045.7403,-72 1045.7403,-72 1051.7403,-72 1057.7403,-78 1057.7403,-84 1057.7403,-84 1057.7403,-96 1057.7403,-96 1057.7403,-102 1051.7403,-108 1045.7403,-108"/>
<text text-anchor="middle" x="1019.2403" y="-87.5" font-family="sans" font-size="10.00" fill="#000000">homer_TFBS</text>
</g>
<!-- 1&#45;&gt;0 -->
<g id="edge1" class="edge">
<title>1&#45;&gt;0</title>
<path fill="none" stroke="#c0c0c0" stroke-width="2" d="M980.5171,-75.1534C977.7167,-74.0848 974.9354,-73.0249 972.2403,-72 936.1843,-58.288 894.9691,-42.7373 866.0788,-31.857"/>
<polygon fill="#c0c0c0" stroke="#c0c0c0" stroke-width="2" points="866.9945,-28.462 856.4026,-28.2139 864.528,-35.0131 866.9945,-28.462"/>
</g>
<!-- 2 -->
<g id="node3" class="node">
<title>2</title>
<path fill="none" stroke="#567bd8" stroke-width="2" stroke-dasharray="5,2" d="M950.7403,-108C950.7403,-108 897.7403,-108 897.7403,-108 891.7403,-108 885.7403,-102 885.7403,-96 885.7403,-96 885.7403,-84 885.7403,-84 885.7403,-78 891.7403,-72 897.7403,-72 897.7403,-72 950.7403,-72 950.7403,-72 956.7403,-72 962.7403,-78 962.7403,-84 962.7403,-84 962.7403,-96 962.7403,-96 962.7403,-102 956.7403,-108 950.7403,-108"/>
<text text-anchor="middle" x="924.2403" y="-87.5" font-family="sans" font-size="10.00" fill="#000000">homer_TFBS</text>
</g>
<!-- 2&#45;&gt;0 -->
<g id="edge2" class="edge">
<title>2&#45;&gt;0</title>
<path fill="none" stroke="#c0c0c0" stroke-width="2" d="M900.2678,-71.8314C888.4542,-62.8779 874.0431,-51.9558 861.2968,-42.2955"/>
<polygon fill="#c0c0c0" stroke="#c0c0c0" stroke-width="2" points="863.2889,-39.4137 853.2051,-36.1628 859.0608,-44.9925 863.2889,-39.4137"/>
</g>
<!-- 3 -->
<g id="node4" class="node">
<title>3</title>
<path fill="none" stroke="#567bd8" stroke-width="2" stroke-dasharray="5,2" d="M475.7403,-108C475.7403,-108 422.7403,-108 422.7403,-108 416.7403,-108 410.7403,-102 410.7403,-96 410.7403,-96 410.7403,-84 410.7403,-84 410.7403,-78 416.7403,-72 422.7403,-72 422.7403,-72 475.7403,-72 475.7403,-72 481.7403,-72 487.7403,-78 487.7403,-84 487.7403,-84 487.7403,-96 487.7403,-96 487.7403,-102 481.7403,-108 475.7403,-108"/>
<text text-anchor="middle" x="449.2403" y="-87.5" font-family="sans" font-size="10.00" fill="#000000">homer_TFBS</text>
</g>
<!-- 3&#45;&gt;0 -->
<g id="edge3" class="edge">
<title>3&#45;&gt;0</title>
<path fill="none" stroke="#c0c0c0" stroke-width="2" d="M487.7609,-74.5283C490.6089,-73.6063 493.4562,-72.7503 496.2403,-72 601.5513,-43.6176 729.8627,-27.9529 791.9829,-21.5224"/>
<polygon fill="#c0c0c0" stroke="#c0c0c0" stroke-width="2" points="792.4864,-24.9894 802.0823,-20.4984 791.7802,-18.0251 792.4864,-24.9894"/>
</g>
<!-- 4 -->
<g id="node5" class="node">
<title>4</title>
<path fill="none" stroke="#567bd8" stroke-width="2" stroke-dasharray="5,2" d="M760.7403,-108C760.7403,-108 707.7403,-108 707.7403,-108 701.7403,-108 695.7403,-102 695.7403,-96 695.7403,-96 695.7403,-84 695.7403,-84 695.7403,-78 701.7403,-72 707.7403,-72 707.7403,-72 760.7403,-72 760.7403,-72 766.7403,-72 772.7403,-78 772.7403,-84 772.7403,-84 772.7403,-96 772.7403,-96 772.7403,-102 766.7403,-108 760.7403,-108"/>
<text text-anchor="middle" x="734.2403" y="-87.5" font-family="sans" font-size="10.00" fill="#000000">homer_TFBS</text>
</g>
<!-- 4&#45;&gt;0 -->
<g id="edge4" class="edge">
<title>4&#45;&gt;0</title>
<path fill="none" stroke="#c0c0c0" stroke-width="2" d="M758.2128,-71.8314C770.0263,-62.8779 784.4374,-51.9558 797.1837,-42.2955"/>
<polygon fill="#c0c0c0" stroke="#c0c0c0" stroke-width="2" points="799.4198,-44.9925 805.2754,-36.1628 795.1916,-39.4137 799.4198,-44.9925"/>
</g>
<!-- 5 -->
<g id="node6" class="node">
<title>5</title>
<path fill="none" stroke="#567bd8" stroke-width="2" stroke-dasharray="5,2" d="M380.7403,-108C380.7403,-108 327.7403,-108 327.7403,-108 321.7403,-108 315.7403,-102 315.7403,-96 315.7403,-96 315.7403,-84 315.7403,-84 315.7403,-78 321.7403,-72 327.7403,-72 327.7403,-72 380.7403,-72 380.7403,-72 386.7403,-72 392.7403,-78 392.7403,-84 392.7403,-84 392.7403,-96 392.7403,-96 392.7403,-102 386.7403,-108 380.7403,-108"/>
<text text-anchor="middle" x="354.2403" y="-87.5" font-family="sans" font-size="10.00" fill="#000000">homer_TFBS</text>
</g>
<!-- 5&#45;&gt;0 -->
<g id="edge5" class="edge">
<title>5&#45;&gt;0</title>
<path fill="none" stroke="#c0c0c0" stroke-width="2" d="M392.9913,-74.3351C395.7597,-73.4711 398.5281,-72.6799 401.2403,-72 542.4927,-36.5897 716.0782,-23.818 791.3968,-19.7232"/>
<polygon fill="#c0c0c0" stroke="#c0c0c0" stroke-width="2" points="791.9772,-23.1977 801.7808,-19.1803 791.6117,-16.2073 791.9772,-23.1977"/>
</g>
<!-- 6 -->
<g id="node7" class="node">
<title>6</title>
<path fill="none" stroke="#567bd8" stroke-width="2" stroke-dasharray="5,2" d="M570.7403,-108C570.7403,-108 517.7403,-108 517.7403,-108 511.7403,-108 505.7403,-102 505.7403,-96 505.7403,-96 505.7403,-84 505.7403,-84 505.7403,-78 511.7403,-72 517.7403,-72 517.7403,-72 570.7403,-72 570.7403,-72 576.7403,-72 582.7403,-78 582.7403,-84 582.7403,-84 582.7403,-96 582.7403,-96 582.7403,-102 576.7403,-108 570.7403,-108"/>
<text text-anchor="middle" x="544.2403" y="-87.5" font-family="sans" font-size="10.00" fill="#000000">homer_TFBS</text>
</g>
<!-- 6&#45;&gt;0 -->
<g id="edge6" class="edge">
<title>6&#45;&gt;0</title>
<path fill="none" stroke="#c0c0c0" stroke-width="2" d="M582.8172,-74.725C585.652,-73.7569 588.4809,-72.8368 591.2403,-72 661.1654,-50.7956 744.8877,-33.6542 792.0846,-24.7245"/>
<polygon fill="#c0c0c0" stroke="#c0c0c0" stroke-width="2" points="792.9595,-28.1216 802.1447,-22.8411 791.6713,-21.2411 792.9595,-28.1216"/>
</g>
<!-- 7 -->
<g id="node8" class="node">
<title>7</title>
<path fill="none" stroke="#567bd8" stroke-width="2" stroke-dasharray="5,2" d="M665.7403,-108C665.7403,-108 612.7403,-108 612.7403,-108 606.7403,-108 600.7403,-102 600.7403,-96 600.7403,-96 600.7403,-84 600.7403,-84 600.7403,-78 606.7403,-72 612.7403,-72 612.7403,-72 665.7403,-72 665.7403,-72 671.7403,-72 677.7403,-78 677.7403,-84 677.7403,-84 677.7403,-96 677.7403,-96 677.7403,-102 671.7403,-108 665.7403,-108"/>
<text text-anchor="middle" x="639.2403" y="-87.5" font-family="sans" font-size="10.00" fill="#000000">homer_TFBS</text>
</g>
<!-- 7&#45;&gt;0 -->
<g id="edge7" class="edge">
<title>7&#45;&gt;0</title>
<path fill="none" stroke="#c0c0c0" stroke-width="2" d="M677.9635,-75.1534C680.7639,-74.0848 683.5452,-73.0249 686.2403,-72 722.2963,-58.288 763.5114,-42.7373 792.4017,-31.857"/>
<polygon fill="#c0c0c0" stroke="#c0c0c0" stroke-width="2" points="793.9525,-35.0131 802.0779,-28.2139 791.486,-28.462 793.9525,-35.0131"/>
</g>
<!-- 8 -->
<g id="node9" class="node">
<title>8</title>
<path fill="none" stroke="#567bd8" stroke-width="2" stroke-dasharray="5,2" d="M855.7403,-108C855.7403,-108 802.7403,-108 802.7403,-108 796.7403,-108 790.7403,-102 790.7403,-96 790.7403,-96 790.7403,-84 790.7403,-84 790.7403,-78 796.7403,-72 802.7403,-72 802.7403,-72 855.7403,-72 855.7403,-72 861.7403,-72 867.7403,-78 867.7403,-84 867.7403,-84 867.7403,-96 867.7403,-96 867.7403,-102 861.7403,-108 855.7403,-108"/>
<text text-anchor="middle" x="829.2403" y="-87.5" font-family="sans" font-size="10.00" fill="#000000">homer_TFBS</text>
</g>
<!-- 8&#45;&gt;0 -->
<g id="edge8" class="edge">
<title>8&#45;&gt;0</title>
<path fill="none" stroke="#c0c0c0" stroke-width="2" d="M829.2403,-71.8314C829.2403,-64.131 829.2403,-54.9743 829.2403,-46.4166"/>
<polygon fill="#c0c0c0" stroke="#c0c0c0" stroke-width="2" points="832.7404,-46.4132 829.2403,-36.4133 825.7404,-46.4133 832.7404,-46.4132"/>
</g>
<!-- 9 -->
<g id="node10" class="node">
<title>9</title>
<path fill="none" stroke="#bed856" stroke-width="2" stroke-dasharray="5,2" d="M1601.2403,-540C1601.2403,-540 1519.2403,-540 1519.2403,-540 1513.2403,-540 1507.2403,-534 1507.2403,-528 1507.2403,-528 1507.2403,-516 1507.2403,-516 1507.2403,-510 1513.2403,-504 1519.2403,-504 1519.2403,-504 1601.2403,-504 1601.2403,-504 1607.2403,-504 1613.2403,-510 1613.2403,-516 1613.2403,-516 1613.2403,-528 1613.2403,-528 1613.2403,-534 1607.2403,-540 1601.2403,-540"/>
<text text-anchor="middle" x="1560.2403" y="-519.5" font-family="sans" font-size="10.00" fill="#000000">ucsc_view_bigWig</text>
</g>
<!-- 9&#45;&gt;0 -->
<g id="edge9" class="edge">
<title>9&#45;&gt;0</title>
<path fill="none" stroke="#c0c0c0" stroke-width="2" d="M1569.3595,-503.8786C1581.9817,-477.076 1603.2403,-424.9635 1603.2403,-378 1603.2403,-378 1603.2403,-378 1603.2403,-162 1603.2403,-98.8326 1551.8207,-95.6316 1493.2403,-72 1435.0197,-48.5135 997.9295,-26.0229 866.5066,-19.7331"/>
<polygon fill="#c0c0c0" stroke="#c0c0c0" stroke-width="2" points="866.6704,-16.2371 856.5155,-19.2581 866.3379,-23.2292 866.6704,-16.2371"/>
</g>
<!-- 10 -->
<g id="node11" class="node">
<title>10</title>
<path fill="none" stroke="#bed856" stroke-width="2" stroke-dasharray="5,2" d="M1414.2403,-540C1414.2403,-540 1332.2403,-540 1332.2403,-540 1326.2403,-540 1320.2403,-534 1320.2403,-528 1320.2403,-528 1320.2403,-516 1320.2403,-516 1320.2403,-510 1326.2403,-504 1332.2403,-504 1332.2403,-504 1414.2403,-504 1414.2403,-504 1420.2403,-504 1426.2403,-510 1426.2403,-516 1426.2403,-516 1426.2403,-528 1426.2403,-528 1426.2403,-534 1420.2403,-540 1414.2403,-540"/>
<text text-anchor="middle" x="1373.2403" y="-519.5" font-family="sans" font-size="10.00" fill="#000000">ucsc_view_bigWig</text>
</g>
<!-- 10&#45;&gt;0 -->
<g id="edge10" class="edge">
<title>10&#45;&gt;0</title>
<path fill="none" stroke="#c0c0c0" stroke-width="2" d="M1426.468,-507.2058C1483.2894,-487.7816 1565.2403,-447.6875 1565.2403,-378 1565.2403,-378 1565.2403,-378 1565.2403,-162 1565.2403,-85.7729 1491.5534,-96.112 1419.2403,-72 1315.8503,-37.5258 979.3418,-23.1237 866.5073,-19.1856"/>
<polygon fill="#c0c0c0" stroke="#c0c0c0" stroke-width="2" points="866.4151,-15.6805 856.3014,-18.8369 866.176,-22.6764 866.4151,-15.6805"/>
</g>
<!-- 11 -->
<g id="node12" class="node">
<title>11</title>
<path fill="none" stroke="#bed856" stroke-width="2" stroke-dasharray="5,2" d="M489.2403,-540C489.2403,-540 407.2403,-540 407.2403,-540 401.2403,-540 395.2403,-534 395.2403,-528 395.2403,-528 395.2403,-516 395.2403,-516 395.2403,-510 401.2403,-504 407.2403,-504 407.2403,-504 489.2403,-504 489.2403,-504 495.2403,-504 501.2403,-510 501.2403,-516 501.2403,-516 501.2403,-528 501.2403,-528 501.2403,-534 495.2403,-540 489.2403,-540"/>
<text text-anchor="middle" x="448.2403" y="-519.5" font-family="sans" font-size="10.00" fill="#000000">ucsc_view_bigWig</text>
</g>
<!-- 11&#45;&gt;0 -->
<g id="edge11" class="edge">
<title>11&#45;&gt;0</title>
<path fill="none" stroke="#c0c0c0" stroke-width="2" d="M395.0207,-512.5584C293.5115,-493.0287 82.2403,-444.405 82.2403,-378 82.2403,-378 82.2403,-378 82.2403,-162 82.2403,-97.3186 -201.7375,-185.7662 306.2403,-72 485.3801,-31.88 705.8307,-21.4695 792.1279,-18.8497"/>
<polygon fill="#c0c0c0" stroke="#c0c0c0" stroke-width="2" points="792.3175,-22.3458 802.2132,-18.561 792.1171,-15.3487 792.3175,-22.3458"/>
</g>
<!-- 12 -->
<g id="node13" class="node">
<title>12</title>
<path fill="none" stroke="#ced856" stroke-width="2" d="M1507.7403,-684C1507.7403,-684 1442.7403,-684 1442.7403,-684 1436.7403,-684 1430.7403,-678 1430.7403,-672 1430.7403,-672 1430.7403,-660 1430.7403,-660 1430.7403,-654 1436.7403,-648 1442.7403,-648 1442.7403,-648 1507.7403,-648 1507.7403,-648 1513.7403,-648 1519.7403,-654 1519.7403,-660 1519.7403,-660 1519.7403,-672 1519.7403,-672 1519.7403,-678 1513.7403,-684 1507.7403,-684"/>
<text text-anchor="middle" x="1475.2403" y="-663.5" font-family="sans" font-size="10.00" fill="#000000">multiqc_fastqc</text>
</g>
<!-- 12&#45;&gt;0 -->
<g id="edge12" class="edge">
<title>12&#45;&gt;0</title>
<path fill="none" stroke="#c0c0c0" stroke-width="2" d="M1519.8584,-650.7842C1561.7957,-636.303 1618.6707,-616.1245 1622.2403,-612 1648.9937,-581.0878 1641.2403,-562.8816 1641.2403,-522 1641.2403,-522 1641.2403,-522 1641.2403,-162 1641.2403,-104.4809 1600.7136,-95.5582 1548.2403,-72 1485.7745,-43.9557 1004.8642,-24.4031 866.4179,-19.3128"/>
<polygon fill="#c0c0c0" stroke="#c0c0c0" stroke-width="2" points="866.429,-15.811 856.3082,-18.9446 866.1741,-22.8064 866.429,-15.811"/>
</g>
<!-- 13 -->
<g id="node14" class="node">
<title>13</title>
<path fill="none" stroke="#78d856" stroke-width="2" stroke-dasharray="5,2" d="M1376.7403,-252C1376.7403,-252 1251.7403,-252 1251.7403,-252 1245.7403,-252 1239.7403,-246 1239.7403,-240 1239.7403,-240 1239.7403,-228 1239.7403,-228 1239.7403,-222 1245.7403,-216 1251.7403,-216 1251.7403,-216 1376.7403,-216 1376.7403,-216 1382.7403,-216 1388.7403,-222 1388.7403,-228 1388.7403,-228 1388.7403,-240 1388.7403,-240 1388.7403,-246 1382.7403,-252 1376.7403,-252"/>
<text text-anchor="middle" x="1314.2403" y="-231.5" font-family="sans" font-size="10.00" fill="#000000">ucsc_view_common_peaks</text>
</g>
<!-- 13&#45;&gt;0 -->
<g id="edge13" class="edge">
<title>13&#45;&gt;0</title>
<path fill="none" stroke="#c0c0c0" stroke-width="2" d="M1389.0555,-225.2146C1458.7937,-214.0045 1546.6962,-190.2486 1508.2403,-144 1425.2002,-44.1328 996.3734,-23.0563 866.5344,-18.9369"/>
<polygon fill="#c0c0c0" stroke="#c0c0c0" stroke-width="2" points="866.4084,-15.4316 856.3074,-18.6283 866.1972,-22.4284 866.4084,-15.4316"/>
</g>
<!-- 14 -->
<g id="node15" class="node">
<title>14</title>
<path fill="none" stroke="#80d856" stroke-width="2" stroke-dasharray="5,2" d="M1486.7403,-180C1486.7403,-180 1393.7403,-180 1393.7403,-180 1387.7403,-180 1381.7403,-174 1381.7403,-168 1381.7403,-168 1381.7403,-156 1381.7403,-156 1381.7403,-150 1387.7403,-144 1393.7403,-144 1393.7403,-144 1486.7403,-144 1486.7403,-144 1492.7403,-144 1498.7403,-150 1498.7403,-156 1498.7403,-156 1498.7403,-168 1498.7403,-168 1498.7403,-174 1492.7403,-180 1486.7403,-180"/>
<text text-anchor="middle" x="1440.2403" y="-165" font-family="sans" font-size="10.00" fill="#000000">TF_gene_punctate_R</text>
<text text-anchor="middle" x="1440.2403" y="-154" font-family="sans" font-size="10.00" fill="#000000">num: 1</text>
</g>
<!-- 14&#45;&gt;1 -->
<g id="edge14" class="edge">
<title>14&#45;&gt;1</title>
<path fill="none" stroke="#c0c0c0" stroke-width="2" d="M1381.5031,-145.8241C1378.7162,-145.1813 1375.9514,-144.5691 1373.2403,-144 1265.1638,-121.3124 1136.6334,-104.1106 1068.0683,-95.7049"/>
<polygon fill="#c0c0c0" stroke="#c0c0c0" stroke-width="2" points="1068.3433,-92.2126 1057.994,-94.4803 1067.4986,-99.1615 1068.3433,-92.2126"/>
</g>
<!-- 15 -->
<g id="node16" class="node">
<title>15</title>
<path fill="none" stroke="#56d8c1" stroke-width="2" stroke-dasharray="5,2" d="M676.2403,-180C676.2403,-180 548.2403,-180 548.2403,-180 542.2403,-180 536.2403,-174 536.2403,-168 536.2403,-168 536.2403,-156 536.2403,-156 536.2403,-150 542.2403,-144 548.2403,-144 548.2403,-144 676.2403,-144 676.2403,-144 682.2403,-144 688.2403,-150 688.2403,-156 688.2403,-156 688.2403,-168 688.2403,-168 688.2403,-174 682.2403,-180 676.2403,-180"/>
<text text-anchor="middle" x="612.2403" y="-159.5" font-family="sans" font-size="10.00" fill="#000000">closest_TSS_each_cell_type</text>
</g>
<!-- 15&#45;&gt;1 -->
<g id="edge15" class="edge">
<title>15&#45;&gt;1</title>
<path fill="none" stroke="#c0c0c0" stroke-width="2" d="M688.6415,-145.5253C691.5415,-144.9939 694.4153,-144.4833 697.2403,-144 815.5368,-123.7636 850.8912,-137.4843 970.5733,-108.1314"/>
<polygon fill="#c0c0c0" stroke="#c0c0c0" stroke-width="2" points="971.6347,-111.4738 980.4856,-105.6504 969.935,-104.6833 971.6347,-111.4738"/>
</g>
<!-- 15&#45;&gt;2 -->
<g id="edge18" class="edge">
<title>15&#45;&gt;2</title>
<path fill="none" stroke="#c0c0c0" stroke-width="2" d="M688.6874,-145.7687C691.5745,-145.1692 694.4331,-144.5779 697.2403,-144 774.0273,-128.1914 797.0831,-130.4555 875.8039,-108.1951"/>
<polygon fill="#c0c0c0" stroke="#c0c0c0" stroke-width="2" points="877.0423,-111.4809 885.6873,-105.3559 875.1096,-104.753 877.0423,-111.4809"/>
</g>
<!-- 15&#45;&gt;3 -->
<g id="edge21" class="edge">
<title>15&#45;&gt;3</title>
<path fill="none" stroke="#c0c0c0" stroke-width="2" d="M571.1085,-143.8314C548.6451,-133.9089 520.7078,-121.5685 497.251,-111.2072"/>
<polygon fill="#c0c0c0" stroke="#c0c0c0" stroke-width="2" points="498.3983,-107.8878 487.8367,-107.0487 495.5699,-114.2909 498.3983,-107.8878"/>
</g>
<!-- 15&#45;&gt;4 -->
<g id="edge24" class="edge">
<title>15&#45;&gt;4</title>
<path fill="none" stroke="#c0c0c0" stroke-width="2" d="M643.026,-143.8314C658.6306,-134.6221 677.7643,-123.3301 694.4706,-113.4706"/>
<polygon fill="#c0c0c0" stroke="#c0c0c0" stroke-width="2" points="696.6312,-116.2596 703.4644,-108.1628 693.0734,-110.2312 696.6312,-116.2596"/>
</g>
<!-- 15&#45;&gt;5 -->
<g id="edge27" class="edge">
<title>15&#45;&gt;5</title>
<path fill="none" stroke="#c0c0c0" stroke-width="2" d="M535.9546,-144.7223C498.1124,-135.6237 451.6167,-123.657 402.6652,-108.3048"/>
<polygon fill="#c0c0c0" stroke="#c0c0c0" stroke-width="2" points="403.4342,-104.8769 392.844,-105.189 401.3174,-111.5492 403.4342,-104.8769"/>
</g>
<!-- 15&#45;&gt;6 -->
<g id="edge30" class="edge">
<title>15&#45;&gt;6</title>
<path fill="none" stroke="#c0c0c0" stroke-width="2" d="M595.081,-143.8314C587.0891,-135.3694 577.4365,-125.1489 568.6986,-115.8971"/>
<polygon fill="#c0c0c0" stroke="#c0c0c0" stroke-width="2" points="571.0414,-113.2802 561.6306,-108.4133 565.9523,-118.0866 571.0414,-113.2802"/>
</g>
<!-- 15&#45;&gt;7 -->
<g id="edge33" class="edge">
<title>15&#45;&gt;7</title>
<path fill="none" stroke="#c0c0c0" stroke-width="2" d="M619.0535,-143.8314C622.0046,-135.9617 625.5261,-126.5712 628.7953,-117.8533"/>
<polygon fill="#c0c0c0" stroke="#c0c0c0" stroke-width="2" points="632.1012,-119.0055 632.3353,-108.4133 625.5468,-116.5476 632.1012,-119.0055"/>
</g>
<!-- 15&#45;&gt;8 -->
<g id="edge36" class="edge">
<title>15&#45;&gt;8</title>
<path fill="none" stroke="#c0c0c0" stroke-width="2" d="M671.1361,-143.967C701.4298,-134.5085 739.1224,-122.46 780.9641,-108.0218"/>
<polygon fill="#c0c0c0" stroke="#c0c0c0" stroke-width="2" points="782.2263,-111.2886 790.5273,-104.705 779.9325,-104.6751 782.2263,-111.2886"/>
</g>
<!-- 16 -->
<g id="node17" class="node">
<title>16</title>
<path fill="none" stroke="#56d8a2" stroke-width="2" stroke-dasharray="5,2" d="M505.7403,-180C505.7403,-180 392.7403,-180 392.7403,-180 386.7403,-180 380.7403,-174 380.7403,-168 380.7403,-168 380.7403,-156 380.7403,-156 380.7403,-150 386.7403,-144 392.7403,-144 392.7403,-144 505.7403,-144 505.7403,-144 511.7403,-144 517.7403,-150 517.7403,-156 517.7403,-156 517.7403,-168 517.7403,-168 517.7403,-174 511.7403,-180 505.7403,-180"/>
<text text-anchor="middle" x="449.2403" y="-165" font-family="sans" font-size="10.00" fill="#000000">union_summits_by_type</text>
<text text-anchor="middle" x="449.2403" y="-154" font-family="sans" font-size="10.00" fill="#000000">cell_type: GFP_ATAC&#45;Seq</text>
</g>
<!-- 16&#45;&gt;1 -->
<g id="edge16" class="edge">
<title>16&#45;&gt;1</title>
<path fill="none" stroke="#c0c0c0" stroke-width="2" d="M518.0379,-145.5497C521.1407,-144.989 524.2189,-144.4683 527.2403,-144 720.0679,-114.1147 776.8612,-150.6749 970.5926,-108.0328"/>
<polygon fill="#c0c0c0" stroke="#c0c0c0" stroke-width="2" points="971.5315,-111.4093 980.5226,-105.8048 969.9989,-104.5791 971.5315,-111.4093"/>
</g>
<!-- 16&#45;&gt;2 -->
<g id="edge19" class="edge">
<title>16&#45;&gt;2</title>
<path fill="none" stroke="#c0c0c0" stroke-width="2" d="M518.0511,-145.6321C521.1504,-145.0491 524.2242,-144.5011 527.2403,-144 678.1875,-118.9198 723.2045,-143.1881 875.3294,-108.1327"/>
<polygon fill="#c0c0c0" stroke="#c0c0c0" stroke-width="2" points="876.575,-111.4352 885.5068,-105.7367 874.9708,-104.6215 876.575,-111.4352"/>
</g>
<!-- 16&#45;&gt;3 -->
<g id="edge22" class="edge">
<title>16&#45;&gt;3</title>
<path fill="none" stroke="#c0c0c0" stroke-width="2" d="M449.2403,-143.8314C449.2403,-136.131 449.2403,-126.9743 449.2403,-118.4166"/>
<polygon fill="#c0c0c0" stroke="#c0c0c0" stroke-width="2" points="452.7404,-118.4132 449.2403,-108.4133 445.7404,-118.4133 452.7404,-118.4132"/>
</g>
<!-- 16&#45;&gt;4 -->
<g id="edge25" class="edge">
<title>16&#45;&gt;4</title>
<path fill="none" stroke="#c0c0c0" stroke-width="2" d="M518.1402,-146.0837C521.2153,-145.3785 524.2597,-144.6813 527.2403,-144 594.8387,-128.5476 615.1012,-128.7214 685.7871,-107.9283"/>
<polygon fill="#c0c0c0" stroke="#c0c0c0" stroke-width="2" points="687.0379,-111.2077 695.6218,-104.9975 685.0387,-104.4993 687.0379,-111.2077"/>
</g>
<!-- 16&#45;&gt;5 -->
<g id="edge28" class="edge">
<title>16&#45;&gt;5</title>
<path fill="none" stroke="#c0c0c0" stroke-width="2" d="M425.2678,-143.8314C413.4542,-134.8779 399.0431,-123.9558 386.2968,-114.2955"/>
<polygon fill="#c0c0c0" stroke="#c0c0c0" stroke-width="2" points="388.2889,-111.4137 378.2051,-108.1628 384.0608,-116.9925 388.2889,-111.4137"/>
</g>
<!-- 16&#45;&gt;6 -->
<g id="edge31" class="edge">
<title>16&#45;&gt;6</title>
<path fill="none" stroke="#c0c0c0" stroke-width="2" d="M473.2128,-143.8314C485.0263,-134.8779 499.4374,-123.9558 512.1837,-114.2955"/>
<polygon fill="#c0c0c0" stroke="#c0c0c0" stroke-width="2" points="514.4198,-116.9925 520.2754,-108.1628 510.1916,-111.4137 514.4198,-116.9925"/>
</g>
<!-- 16&#45;&gt;7 -->
<g id="edge34" class="edge">
<title>16&#45;&gt;7</title>
<path fill="none" stroke="#c0c0c0" stroke-width="2" d="M497.1853,-143.8314C525.9269,-132.9398 562.3561,-119.135 591.1276,-108.2322"/>
<polygon fill="#c0c0c0" stroke="#c0c0c0" stroke-width="2" points="592.4583,-111.4709 600.5691,-104.6543 589.9777,-104.9251 592.4583,-111.4709"/>
</g>
<!-- 16&#45;&gt;8 -->
<g id="edge37" class="edge">
<title>16&#45;&gt;8</title>
<path fill="none" stroke="#c0c0c0" stroke-width="2" d="M518.0766,-145.7766C521.1689,-145.1545 524.2343,-144.5588 527.2403,-144 636.1624,-123.752 668.9169,-135.4738 780.7185,-107.7994"/>
<polygon fill="#c0c0c0" stroke="#c0c0c0" stroke-width="2" points="781.8615,-111.1207 790.6994,-105.2775 780.1466,-104.334 781.8615,-111.1207"/>
</g>
<!-- 17 -->
<g id="node18" class="node">
<title>17</title>
<path fill="none" stroke="#80d856" stroke-width="2" stroke-dasharray="5,2" d="M1351.7403,-180C1351.7403,-180 1258.7403,-180 1258.7403,-180 1252.7403,-180 1246.7403,-174 1246.7403,-168 1246.7403,-168 1246.7403,-156 1246.7403,-156 1246.7403,-150 1252.7403,-144 1258.7403,-144 1258.7403,-144 1351.7403,-144 1351.7403,-144 1357.7403,-144 1363.7403,-150 1363.7403,-156 1363.7403,-156 1363.7403,-168 1363.7403,-168 1363.7403,-174 1357.7403,-180 1351.7403,-180"/>
<text text-anchor="middle" x="1305.2403" y="-165" font-family="sans" font-size="10.00" fill="#000000">TF_gene_punctate_R</text>
<text text-anchor="middle" x="1305.2403" y="-154" font-family="sans" font-size="10.00" fill="#000000">num: 2</text>
</g>
<!-- 17&#45;&gt;2 -->
<g id="edge17" class="edge">
<title>17&#45;&gt;2</title>
<path fill="none" stroke="#c0c0c0" stroke-width="2" d="M1246.5148,-145.7673C1243.7247,-145.1397 1240.9561,-144.5463 1238.2403,-144 1124.3665,-121.0956 1089.7469,-136.2772 972.4873,-107.7173"/>
<polygon fill="#c0c0c0" stroke="#c0c0c0" stroke-width="2" points="973.3251,-104.3191 962.7757,-105.2991 971.6337,-111.1117 973.3251,-104.3191"/>
</g>
<!-- 18 -->
<g id="node19" class="node">
<title>18</title>
<path fill="none" stroke="#80d856" stroke-width="2" stroke-dasharray="5,2" d="M350.7403,-180C350.7403,-180 257.7403,-180 257.7403,-180 251.7403,-180 245.7403,-174 245.7403,-168 245.7403,-168 245.7403,-156 245.7403,-156 245.7403,-150 251.7403,-144 257.7403,-144 257.7403,-144 350.7403,-144 350.7403,-144 356.7403,-144 362.7403,-150 362.7403,-156 362.7403,-156 362.7403,-168 362.7403,-168 362.7403,-174 356.7403,-180 350.7403,-180"/>
<text text-anchor="middle" x="304.2403" y="-165" font-family="sans" font-size="10.00" fill="#000000">TF_gene_punctate_R</text>
<text text-anchor="middle" x="304.2403" y="-154" font-family="sans" font-size="10.00" fill="#000000">num: 3</text>
</g>
<!-- 18&#45;&gt;3 -->
<g id="edge20" class="edge">
<title>18&#45;&gt;3</title>
<path fill="none" stroke="#c0c0c0" stroke-width="2" d="M340.8299,-143.8314C359.9642,-134.3302 383.5632,-122.6121 403.8525,-112.5374"/>
<polygon fill="#c0c0c0" stroke="#c0c0c0" stroke-width="2" points="405.5138,-115.6203 412.9138,-108.038 402.4005,-109.3506 405.5138,-115.6203"/>
</g>
<!-- 19 -->
<g id="node20" class="node">
<title>19</title>
<path fill="none" stroke="#80d856" stroke-width="2" stroke-dasharray="5,2" d="M1081.7403,-180C1081.7403,-180 988.7403,-180 988.7403,-180 982.7403,-180 976.7403,-174 976.7403,-168 976.7403,-168 976.7403,-156 976.7403,-156 976.7403,-150 982.7403,-144 988.7403,-144 988.7403,-144 1081.7403,-144 1081.7403,-144 1087.7403,-144 1093.7403,-150 1093.7403,-156 1093.7403,-156 1093.7403,-168 1093.7403,-168 1093.7403,-174 1087.7403,-180 1081.7403,-180"/>
<text text-anchor="middle" x="1035.2403" y="-165" font-family="sans" font-size="10.00" fill="#000000">TF_gene_punctate_R</text>
<text text-anchor="middle" x="1035.2403" y="-154" font-family="sans" font-size="10.00" fill="#000000">num: 4</text>
</g>
<!-- 19&#45;&gt;4 -->
<g id="edge23" class="edge">
<title>19&#45;&gt;4</title>
<path fill="none" stroke="#c0c0c0" stroke-width="2" d="M976.4744,-145.9546C973.6951,-145.2768 970.9398,-144.6216 968.2403,-144 888.8222,-125.7126 864.4273,-130.7979 782.5195,-108.1265"/>
<polygon fill="#c0c0c0" stroke="#c0c0c0" stroke-width="2" points="783.3615,-104.7275 772.7867,-105.3787 781.4595,-111.4641 783.3615,-104.7275"/>
</g>
<!-- 20 -->
<g id="node21" class="node">
<title>20</title>
<path fill="none" stroke="#80d856" stroke-width="2" stroke-dasharray="5,2" d="M215.7403,-180C215.7403,-180 122.7403,-180 122.7403,-180 116.7403,-180 110.7403,-174 110.7403,-168 110.7403,-168 110.7403,-156 110.7403,-156 110.7403,-150 116.7403,-144 122.7403,-144 122.7403,-144 215.7403,-144 215.7403,-144 221.7403,-144 227.7403,-150 227.7403,-156 227.7403,-156 227.7403,-168 227.7403,-168 227.7403,-174 221.7403,-180 215.7403,-180"/>
<text text-anchor="middle" x="169.2403" y="-165" font-family="sans" font-size="10.00" fill="#000000">TF_gene_punctate_R</text>
<text text-anchor="middle" x="169.2403" y="-154" font-family="sans" font-size="10.00" fill="#000000">num: 5</text>
</g>
<!-- 20&#45;&gt;5 -->
<g id="edge26" class="edge">
<title>20&#45;&gt;5</title>
<path fill="none" stroke="#c0c0c0" stroke-width="2" d="M215.9236,-143.8314C243.4999,-133.099 278.3444,-119.5379 306.1609,-108.712"/>
<polygon fill="#c0c0c0" stroke="#c0c0c0" stroke-width="2" points="307.6337,-111.8946 315.6834,-105.0059 305.0949,-105.3712 307.6337,-111.8946"/>
</g>
<!-- 21 -->
<g id="node22" class="node">
<title>21</title>
<path fill="none" stroke="#80d856" stroke-width="2" stroke-dasharray="5,2" d="M811.7403,-180C811.7403,-180 718.7403,-180 718.7403,-180 712.7403,-180 706.7403,-174 706.7403,-168 706.7403,-168 706.7403,-156 706.7403,-156 706.7403,-150 712.7403,-144 718.7403,-144 718.7403,-144 811.7403,-144 811.7403,-144 817.7403,-144 823.7403,-150 823.7403,-156 823.7403,-156 823.7403,-168 823.7403,-168 823.7403,-174 817.7403,-180 811.7403,-180"/>
<text text-anchor="middle" x="765.2403" y="-165" font-family="sans" font-size="10.00" fill="#000000">TF_gene_punctate_R</text>
<text text-anchor="middle" x="765.2403" y="-154" font-family="sans" font-size="10.00" fill="#000000">num: 6</text>
</g>
<!-- 21&#45;&gt;6 -->
<g id="edge29" class="edge">
<title>21&#45;&gt;6</title>
<path fill="none" stroke="#c0c0c0" stroke-width="2" d="M706.5352,-144.8156C674.9738,-135.3368 635.2255,-123.0181 592.3763,-108.3085"/>
<polygon fill="#c0c0c0" stroke="#c0c0c0" stroke-width="2" points="593.4908,-104.9906 582.8961,-105.0321 591.2043,-111.6067 593.4908,-104.9906"/>
</g>
<!-- 22 -->
<g id="node23" class="node">
<title>22</title>
<path fill="none" stroke="#80d856" stroke-width="2" stroke-dasharray="5,2" d="M946.7403,-180C946.7403,-180 853.7403,-180 853.7403,-180 847.7403,-180 841.7403,-174 841.7403,-168 841.7403,-168 841.7403,-156 841.7403,-156 841.7403,-150 847.7403,-144 853.7403,-144 853.7403,-144 946.7403,-144 946.7403,-144 952.7403,-144 958.7403,-150 958.7403,-156 958.7403,-156 958.7403,-168 958.7403,-168 958.7403,-174 952.7403,-180 946.7403,-180"/>
<text text-anchor="middle" x="900.2403" y="-165" font-family="sans" font-size="10.00" fill="#000000">TF_gene_punctate_R</text>
<text text-anchor="middle" x="900.2403" y="-154" font-family="sans" font-size="10.00" fill="#000000">num: 7</text>
</g>
<!-- 22&#45;&gt;7 -->
<g id="edge32" class="edge">
<title>22&#45;&gt;7</title>
<path fill="none" stroke="#c0c0c0" stroke-width="2" d="M841.6514,-146.4235C838.4693,-145.5986 835.3165,-144.7864 832.2403,-144 770.525,-128.2243 751.7555,-127.9764 687.6352,-108.2695"/>
<polygon fill="#c0c0c0" stroke="#c0c0c0" stroke-width="2" points="688.4237,-104.8493 677.8353,-105.2165 686.3417,-111.5325 688.4237,-104.8493"/>
</g>
<!-- 23 -->
<g id="node24" class="node">
<title>23</title>
<path fill="none" stroke="#80d856" stroke-width="2" stroke-dasharray="5,2" d="M1216.7403,-180C1216.7403,-180 1123.7403,-180 1123.7403,-180 1117.7403,-180 1111.7403,-174 1111.7403,-168 1111.7403,-168 1111.7403,-156 1111.7403,-156 1111.7403,-150 1117.7403,-144 1123.7403,-144 1123.7403,-144 1216.7403,-144 1216.7403,-144 1222.7403,-144 1228.7403,-150 1228.7403,-156 1228.7403,-156 1228.7403,-168 1228.7403,-168 1228.7403,-174 1222.7403,-180 1216.7403,-180"/>
<text text-anchor="middle" x="1170.2403" y="-165" font-family="sans" font-size="10.00" fill="#000000">TF_gene_punctate_R</text>
<text text-anchor="middle" x="1170.2403" y="-154" font-family="sans" font-size="10.00" fill="#000000">num: 8</text>
</g>
<!-- 23&#45;&gt;8 -->
<g id="edge35" class="edge">
<title>23&#45;&gt;8</title>
<path fill="none" stroke="#c0c0c0" stroke-width="2" d="M1111.4984,-145.8463C1108.7127,-145.1975 1105.9495,-144.5781 1103.2403,-144 1006.877,-123.4395 977.4068,-133.3184 877.6722,-107.8007"/>
<polygon fill="#c0c0c0" stroke="#c0c0c0" stroke-width="2" points="878.3567,-104.362 867.7965,-105.2185 876.5859,-111.1344 878.3567,-104.362"/>
</g>
<!-- 24 -->
<g id="node25" class="node">
<title>24</title>
<path fill="none" stroke="#68d856" stroke-width="2" stroke-dasharray="5,2" d="M1601.2403,-612C1601.2403,-612 1533.2403,-612 1533.2403,-612 1527.2403,-612 1521.2403,-606 1521.2403,-600 1521.2403,-600 1521.2403,-588 1521.2403,-588 1521.2403,-582 1527.2403,-576 1533.2403,-576 1533.2403,-576 1601.2403,-576 1601.2403,-576 1607.2403,-576 1613.2403,-582 1613.2403,-588 1613.2403,-588 1613.2403,-600 1613.2403,-600 1613.2403,-606 1607.2403,-612 1601.2403,-612"/>
<text text-anchor="middle" x="1567.2403" y="-591.5" font-family="sans" font-size="10.00" fill="#000000">bam_to_bigWig</text>
</g>
<!-- 24&#45;&gt;9 -->
<g id="edge38" class="edge">
<title>24&#45;&gt;9</title>
<path fill="none" stroke="#c0c0c0" stroke-width="2" d="M1565.4739,-575.8314C1564.7252,-568.131 1563.835,-558.9743 1563.003,-550.4166"/>
<polygon fill="#c0c0c0" stroke="#c0c0c0" stroke-width="2" points="1566.4818,-550.0276 1562.0305,-540.4133 1559.5146,-550.7051 1566.4818,-550.0276"/>
</g>
<!-- 25 -->
<g id="node26" class="node">
<title>25</title>
<path fill="none" stroke="#56d88a" stroke-width="2" stroke-dasharray="5,2" d="M1489.7403,-612C1489.7403,-612 1450.7403,-612 1450.7403,-612 1444.7403,-612 1438.7403,-606 1438.7403,-600 1438.7403,-600 1438.7403,-588 1438.7403,-588 1438.7403,-582 1444.7403,-576 1450.7403,-576 1450.7403,-576 1489.7403,-576 1489.7403,-576 1495.7403,-576 1501.7403,-582 1501.7403,-588 1501.7403,-588 1501.7403,-600 1501.7403,-600 1501.7403,-606 1495.7403,-612 1489.7403,-612"/>
<text text-anchor="middle" x="1470.2403" y="-591.5" font-family="sans" font-size="10.00" fill="#000000">black_list</text>
</g>
<!-- 25&#45;&gt;9 -->
<g id="edge39" class="edge">
<title>25&#45;&gt;9</title>
<path fill="none" stroke="#c0c0c0" stroke-width="2" d="M1492.9511,-575.8314C1504.0363,-566.9632 1517.5357,-556.1637 1529.5255,-546.5718"/>
<polygon fill="#c0c0c0" stroke="#c0c0c0" stroke-width="2" points="1531.9145,-549.1429 1537.5367,-540.1628 1527.5416,-543.6768 1531.9145,-549.1429"/>
</g>
<!-- 60 -->
<g id="node61" class="node">
<title>60</title>
<path fill="none" stroke="#59d856" stroke-width="2" stroke-dasharray="5,2" d="M1285.7403,-540C1285.7403,-540 1172.7403,-540 1172.7403,-540 1166.7403,-540 1160.7403,-534 1160.7403,-528 1160.7403,-528 1160.7403,-516 1160.7403,-516 1160.7403,-510 1166.7403,-504 1172.7403,-504 1172.7403,-504 1285.7403,-504 1285.7403,-504 1291.7403,-504 1297.7403,-510 1297.7403,-516 1297.7403,-516 1297.7403,-528 1297.7403,-528 1297.7403,-534 1291.7403,-540 1285.7403,-540"/>
<text text-anchor="middle" x="1229.2403" y="-525" font-family="sans" font-size="10.00" fill="#000000">union_peaks_by_type</text>
<text text-anchor="middle" x="1229.2403" y="-514" font-family="sans" font-size="10.00" fill="#000000">cell_type: RFP_ATAC&#45;Seq</text>
</g>
<!-- 25&#45;&gt;60 -->
<g id="edge123" class="edge">
<title>25&#45;&gt;60</title>
<path fill="none" stroke="#c0c0c0" stroke-width="2" d="M1438.3183,-579.773C1434.941,-578.4321 1431.5369,-577.1474 1428.2403,-576 1389.1357,-562.3898 1344.7442,-550.0548 1307.8257,-540.6211"/>
<polygon fill="#c0c0c0" stroke="#c0c0c0" stroke-width="2" points="1308.6698,-537.2244 1298.1166,-538.1627 1306.9516,-544.0103 1308.6698,-537.2244"/>
</g>
<!-- 26 -->
<g id="node27" class="node">
<title>26</title>
<path fill="none" stroke="#68d856" stroke-width="2" stroke-dasharray="5,2" d="M1407.2403,-612C1407.2403,-612 1339.2403,-612 1339.2403,-612 1333.2403,-612 1327.2403,-606 1327.2403,-600 1327.2403,-600 1327.2403,-588 1327.2403,-588 1327.2403,-582 1333.2403,-576 1339.2403,-576 1339.2403,-576 1407.2403,-576 1407.2403,-576 1413.2403,-576 1419.2403,-582 1419.2403,-588 1419.2403,-588 1419.2403,-600 1419.2403,-600 1419.2403,-606 1413.2403,-612 1407.2403,-612"/>
<text text-anchor="middle" x="1373.2403" y="-591.5" font-family="sans" font-size="10.00" fill="#000000">bam_to_bigWig</text>
</g>
<!-- 26&#45;&gt;10 -->
<g id="edge40" class="edge">
<title>26&#45;&gt;10</title>
<path fill="none" stroke="#c0c0c0" stroke-width="2" d="M1373.2403,-575.8314C1373.2403,-568.131 1373.2403,-558.9743 1373.2403,-550.4166"/>
<polygon fill="#c0c0c0" stroke="#c0c0c0" stroke-width="2" points="1376.7404,-550.4132 1373.2403,-540.4133 1369.7404,-550.4133 1376.7404,-550.4132"/>
</g>
<!-- 27 -->
<g id="node28" class="node">
<title>27</title>
<path fill="none" stroke="#56d88a" stroke-width="2" stroke-dasharray="5,2" d="M1248.7403,-612C1248.7403,-612 1209.7403,-612 1209.7403,-612 1203.7403,-612 1197.7403,-606 1197.7403,-600 1197.7403,-600 1197.7403,-588 1197.7403,-588 1197.7403,-582 1203.7403,-576 1209.7403,-576 1209.7403,-576 1248.7403,-576 1248.7403,-576 1254.7403,-576 1260.7403,-582 1260.7403,-588 1260.7403,-588 1260.7403,-600 1260.7403,-600 1260.7403,-606 1254.7403,-612 1248.7403,-612"/>
<text text-anchor="middle" x="1229.2403" y="-591.5" font-family="sans" font-size="10.00" fill="#000000">black_list</text>
</g>
<!-- 27&#45;&gt;10 -->
<g id="edge41" class="edge">
<title>27&#45;&gt;10</title>
<path fill="none" stroke="#c0c0c0" stroke-width="2" d="M1260.8417,-578.1993C1280.5458,-568.3472 1306.2183,-555.511 1328.0528,-544.5937"/>
<polygon fill="#c0c0c0" stroke="#c0c0c0" stroke-width="2" points="1329.7679,-547.6494 1337.1469,-540.0467 1326.6373,-541.3884 1329.7679,-547.6494"/>
</g>
<!-- 27&#45;&gt;60 -->
<g id="edge122" class="edge">
<title>27&#45;&gt;60</title>
<path fill="none" stroke="#c0c0c0" stroke-width="2" d="M1229.2403,-575.8314C1229.2403,-568.131 1229.2403,-558.9743 1229.2403,-550.4166"/>
<polygon fill="#c0c0c0" stroke="#c0c0c0" stroke-width="2" points="1232.7404,-550.4132 1229.2403,-540.4133 1225.7404,-550.4133 1232.7404,-550.4132"/>
</g>
<!-- 28 -->
<g id="node29" class="node">
<title>28</title>
<path fill="none" stroke="#68d856" stroke-width="2" stroke-dasharray="5,2" d="M482.2403,-612C482.2403,-612 414.2403,-612 414.2403,-612 408.2403,-612 402.2403,-606 402.2403,-600 402.2403,-600 402.2403,-588 402.2403,-588 402.2403,-582 408.2403,-576 414.2403,-576 414.2403,-576 482.2403,-576 482.2403,-576 488.2403,-576 494.2403,-582 494.2403,-588 494.2403,-588 494.2403,-600 494.2403,-600 494.2403,-606 488.2403,-612 482.2403,-612"/>
<text text-anchor="middle" x="448.2403" y="-591.5" font-family="sans" font-size="10.00" fill="#000000">bam_to_bigWig</text>
</g>
<!-- 28&#45;&gt;11 -->
<g id="edge42" class="edge">
<title>28&#45;&gt;11</title>
<path fill="none" stroke="#c0c0c0" stroke-width="2" d="M448.2403,-575.8314C448.2403,-568.131 448.2403,-558.9743 448.2403,-550.4166"/>
<polygon fill="#c0c0c0" stroke="#c0c0c0" stroke-width="2" points="451.7404,-550.4132 448.2403,-540.4133 444.7404,-550.4133 451.7404,-550.4132"/>
</g>
<!-- 29 -->
<g id="node30" class="node">
<title>29</title>
<path fill="none" stroke="#56d88a" stroke-width="2" stroke-dasharray="5,2" d="M673.7403,-612C673.7403,-612 634.7403,-612 634.7403,-612 628.7403,-612 622.7403,-606 622.7403,-600 622.7403,-600 622.7403,-588 622.7403,-588 622.7403,-582 628.7403,-576 634.7403,-576 634.7403,-576 673.7403,-576 673.7403,-576 679.7403,-576 685.7403,-582 685.7403,-588 685.7403,-588 685.7403,-600 685.7403,-600 685.7403,-606 679.7403,-612 673.7403,-612"/>
<text text-anchor="middle" x="654.2403" y="-591.5" font-family="sans" font-size="10.00" fill="#000000">black_list</text>
</g>
<!-- 29&#45;&gt;11 -->
<g id="edge43" class="edge">
<title>29&#45;&gt;11</title>
<path fill="none" stroke="#c0c0c0" stroke-width="2" d="M622.5042,-582.9078C592.5631,-572.4429 546.8636,-556.4703 509.7748,-543.5072"/>
<polygon fill="#c0c0c0" stroke="#c0c0c0" stroke-width="2" points="510.6503,-540.1057 500.0555,-540.1102 508.3407,-546.7137 510.6503,-540.1057"/>
</g>
<!-- 51 -->
<g id="node52" class="node">
<title>51</title>
<path fill="none" stroke="#59d856" stroke-width="2" stroke-dasharray="5,2" d="M773.7403,-540C773.7403,-540 660.7403,-540 660.7403,-540 654.7403,-540 648.7403,-534 648.7403,-528 648.7403,-528 648.7403,-516 648.7403,-516 648.7403,-510 654.7403,-504 660.7403,-504 660.7403,-504 773.7403,-504 773.7403,-504 779.7403,-504 785.7403,-510 785.7403,-516 785.7403,-516 785.7403,-528 785.7403,-528 785.7403,-534 779.7403,-540 773.7403,-540"/>
<text text-anchor="middle" x="717.2403" y="-525" font-family="sans" font-size="10.00" fill="#000000">union_peaks_by_type</text>
<text text-anchor="middle" x="717.2403" y="-514" font-family="sans" font-size="10.00" fill="#000000">cell_type: GFP_ATAC&#45;Seq</text>
</g>
<!-- 29&#45;&gt;51 -->
<g id="edge101" class="edge">
<title>29&#45;&gt;51</title>
<path fill="none" stroke="#c0c0c0" stroke-width="2" d="M670.1378,-575.8314C677.468,-567.454 686.3063,-557.3531 694.3372,-548.1749"/>
<polygon fill="#c0c0c0" stroke="#c0c0c0" stroke-width="2" points="697.1776,-550.2438 701.1287,-540.4133 691.9096,-545.6343 697.1776,-550.2438"/>
</g>
<!-- 30 -->
<g id="node31" class="node">
<title>30</title>
<path fill="none" stroke="#97d856" stroke-width="2" d="M1587.2403,-756C1587.2403,-756 1557.2403,-756 1557.2403,-756 1551.2403,-756 1545.2403,-750 1545.2403,-744 1545.2403,-744 1545.2403,-732 1545.2403,-732 1545.2403,-726 1551.2403,-720 1557.2403,-720 1557.2403,-720 1587.2403,-720 1587.2403,-720 1593.2403,-720 1599.2403,-726 1599.2403,-732 1599.2403,-732 1599.2403,-744 1599.2403,-744 1599.2403,-750 1593.2403,-756 1587.2403,-756"/>
<text text-anchor="middle" x="1572.2403" y="-735.5" font-family="sans" font-size="10.00" fill="#000000">fastqc</text>
</g>
<!-- 30&#45;&gt;12 -->
<g id="edge44" class="edge">
<title>30&#45;&gt;12</title>
<path fill="none" stroke="#c0c0c0" stroke-width="2" d="M1547.7631,-719.8314C1535.7008,-710.8779 1520.9863,-699.9558 1507.9717,-690.2955"/>
<polygon fill="#c0c0c0" stroke="#c0c0c0" stroke-width="2" points="1509.8254,-687.3127 1499.7096,-684.1628 1505.6533,-692.9335 1509.8254,-687.3127"/>
</g>
<!-- 31 -->
<g id="node32" class="node">
<title>31</title>
<path fill="none" stroke="#97d856" stroke-width="2" d="M1478.2403,-756C1478.2403,-756 1448.2403,-756 1448.2403,-756 1442.2403,-756 1436.2403,-750 1436.2403,-744 1436.2403,-744 1436.2403,-732 1436.2403,-732 1436.2403,-726 1442.2403,-720 1448.2403,-720 1448.2403,-720 1478.2403,-720 1478.2403,-720 1484.2403,-720 1490.2403,-726 1490.2403,-732 1490.2403,-732 1490.2403,-744 1490.2403,-744 1490.2403,-750 1484.2403,-756 1478.2403,-756"/>
<text text-anchor="middle" x="1463.2403" y="-735.5" font-family="sans" font-size="10.00" fill="#000000">fastqc</text>
</g>
<!-- 31&#45;&gt;12 -->
<g id="edge45" class="edge">
<title>31&#45;&gt;12</title>
<path fill="none" stroke="#c0c0c0" stroke-width="2" d="M1466.2684,-719.8314C1467.5518,-712.131 1469.0779,-702.9743 1470.5042,-694.4166"/>
<polygon fill="#c0c0c0" stroke="#c0c0c0" stroke-width="2" points="1473.9797,-694.8526 1472.1714,-684.4133 1467.0749,-693.7018 1473.9797,-694.8526"/>
</g>
<!-- 32 -->
<g id="node33" class="node">
<title>32</title>
<path fill="none" stroke="#97d856" stroke-width="2" d="M1358.2403,-756C1358.2403,-756 1328.2403,-756 1328.2403,-756 1322.2403,-756 1316.2403,-750 1316.2403,-744 1316.2403,-744 1316.2403,-732 1316.2403,-732 1316.2403,-726 1322.2403,-720 1328.2403,-720 1328.2403,-720 1358.2403,-720 1358.2403,-720 1364.2403,-720 1370.2403,-726 1370.2403,-732 1370.2403,-732 1370.2403,-744 1370.2403,-744 1370.2403,-750 1364.2403,-756 1358.2403,-756"/>
<text text-anchor="middle" x="1343.2403" y="-735.5" font-family="sans" font-size="10.00" fill="#000000">fastqc</text>
</g>
<!-- 32&#45;&gt;12 -->
<g id="edge46" class="edge">
<title>32&#45;&gt;12</title>
<path fill="none" stroke="#c0c0c0" stroke-width="2" d="M1370.271,-723.256C1388.4051,-713.3646 1412.6543,-700.1378 1433.2771,-688.889"/>
<polygon fill="#c0c0c0" stroke="#c0c0c0" stroke-width="2" points="1435.0597,-691.9036 1442.1626,-684.0423 1431.7077,-685.7583 1435.0597,-691.9036"/>
</g>
<!-- 33 -->
<g id="node34" class="node">
<title>33</title>
<path fill="none" stroke="#569ad8" stroke-width="2" stroke-dasharray="5,2" d="M1199.2403,-324C1199.2403,-324 1075.2403,-324 1075.2403,-324 1069.2403,-324 1063.2403,-318 1063.2403,-312 1063.2403,-312 1063.2403,-300 1063.2403,-300 1063.2403,-294 1069.2403,-288 1075.2403,-288 1075.2403,-288 1199.2403,-288 1199.2403,-288 1205.2403,-288 1211.2403,-294 1211.2403,-300 1211.2403,-300 1211.2403,-312 1211.2403,-312 1211.2403,-318 1205.2403,-324 1199.2403,-324"/>
<text text-anchor="middle" x="1137.2403" y="-303.5" font-family="sans" font-size="10.00" fill="#000000">common_peaks_across_all</text>
</g>
<!-- 33&#45;&gt;13 -->
<g id="edge47" class="edge">
<title>33&#45;&gt;13</title>
<path fill="none" stroke="#c0c0c0" stroke-width="2" d="M1181.9048,-287.8314C1205.788,-278.1162 1235.3693,-266.0831 1260.503,-255.8592"/>
<polygon fill="#c0c0c0" stroke="#c0c0c0" stroke-width="2" points="1261.9527,-259.0481 1269.8969,-252.038 1259.3151,-252.564 1261.9527,-259.0481"/>
</g>
<!-- 34 -->
<g id="node35" class="node">
<title>34</title>
<path fill="none" stroke="#d8d356" stroke-width="2" stroke-dasharray="5,2" d="M924.2403,-252C924.2403,-252 876.2403,-252 876.2403,-252 870.2403,-252 864.2403,-246 864.2403,-240 864.2403,-240 864.2403,-228 864.2403,-228 864.2403,-222 870.2403,-216 876.2403,-216 876.2403,-216 924.2403,-216 924.2403,-216 930.2403,-216 936.2403,-222 936.2403,-228 936.2403,-228 936.2403,-240 936.2403,-240 936.2403,-246 930.2403,-252 924.2403,-252"/>
<text text-anchor="middle" x="900.2403" y="-231.5" font-family="sans" font-size="10.00" fill="#000000">make_CGM</text>
</g>
<!-- 34&#45;&gt;14 -->
<g id="edge48" class="edge">
<title>34&#45;&gt;14</title>
<path fill="none" stroke="#c0c0c0" stroke-width="2" d="M936.4375,-225.8699C952.8015,-222.4248 972.4248,-218.6117 990.2403,-216 1156.1834,-191.6737 1203.1916,-209.5767 1371.5946,-180.1392"/>
<polygon fill="#c0c0c0" stroke="#c0c0c0" stroke-width="2" points="1372.3082,-183.5673 1381.5411,-178.3707 1371.0827,-176.6754 1372.3082,-183.5673"/>
</g>
<!-- 34&#45;&gt;17 -->
<g id="edge53" class="edge">
<title>34&#45;&gt;17</title>
<path fill="none" stroke="#c0c0c0" stroke-width="2" d="M936.5044,-226.2897C952.8814,-222.9257 972.4963,-219.06 990.2403,-216 1096.782,-197.6264 1127.379,-202.1917 1236.4169,-180.2598"/>
<polygon fill="#c0c0c0" stroke="#c0c0c0" stroke-width="2" points="1237.4101,-183.6293 1246.5082,-178.2002 1236.0102,-176.7707 1237.4101,-183.6293"/>
</g>
<!-- 34&#45;&gt;18 -->
<g id="edge55" class="edge">
<title>34&#45;&gt;18</title>
<path fill="none" stroke="#c0c0c0" stroke-width="2" d="M864.0037,-231.066C763.894,-222.8426 484.1021,-199.0343 372.8595,-180.1018"/>
<polygon fill="#c0c0c0" stroke="#c0c0c0" stroke-width="2" points="373.402,-176.6435 362.9444,-178.3435 372.1796,-183.5359 373.402,-176.6435"/>
</g>
<!-- 34&#45;&gt;19 -->
<g id="edge57" class="edge">
<title>34&#45;&gt;19</title>
<path fill="none" stroke="#c0c0c0" stroke-width="2" d="M934.3065,-215.8314C951.8936,-206.4516 973.5318,-194.9112 992.2571,-184.9244"/>
<polygon fill="#c0c0c0" stroke="#c0c0c0" stroke-width="2" points="994.0085,-187.957 1001.185,-180.1628 990.7144,-181.7805 994.0085,-187.957"/>
</g>
<!-- 34&#45;&gt;20 -->
<g id="edge59" class="edge">
<title>34&#45;&gt;20</title>
<path fill="none" stroke="#c0c0c0" stroke-width="2" d="M864.0834,-231.1485C736.5527,-221.0805 311.7929,-187.4545 237.9788,-179.6439"/>
<polygon fill="#c0c0c0" stroke="#c0c0c0" stroke-width="2" points="238.2833,-176.1551 227.9319,-178.4133 237.4322,-183.1032 238.2833,-176.1551"/>
</g>
<!-- 34&#45;&gt;21 -->
<g id="edge61" class="edge">
<title>34&#45;&gt;21</title>
<path fill="none" stroke="#c0c0c0" stroke-width="2" d="M866.1741,-215.8314C848.587,-206.4516 826.9487,-194.9112 808.2235,-184.9244"/>
<polygon fill="#c0c0c0" stroke="#c0c0c0" stroke-width="2" points="809.7662,-181.7805 799.2956,-180.1628 806.472,-187.957 809.7662,-181.7805"/>
</g>
<!-- 34&#45;&gt;22 -->
<g id="edge63" class="edge">
<title>34&#45;&gt;22</title>
<path fill="none" stroke="#c0c0c0" stroke-width="2" d="M900.2403,-215.8314C900.2403,-208.131 900.2403,-198.9743 900.2403,-190.4166"/>
<polygon fill="#c0c0c0" stroke="#c0c0c0" stroke-width="2" points="903.7404,-190.4132 900.2403,-180.4133 896.7404,-190.4133 903.7404,-190.4132"/>
</g>
<!-- 34&#45;&gt;23 -->
<g id="edge65" class="edge">
<title>34&#45;&gt;23</title>
<path fill="none" stroke="#c0c0c0" stroke-width="2" d="M936.5511,-224.3699C975.189,-214.1162 1038.3798,-197.3285 1101.6717,-180.4168"/>
<polygon fill="#c0c0c0" stroke="#c0c0c0" stroke-width="2" points="1102.6593,-183.7758 1111.4164,-177.8122 1100.8517,-177.0132 1102.6593,-183.7758"/>
</g>
<!-- 35 -->
<g id="node36" class="node">
<title>35</title>
<path fill="none" stroke="#d8d356" stroke-width="2" stroke-dasharray="5,2" d="M1059.2403,-252C1059.2403,-252 1011.2403,-252 1011.2403,-252 1005.2403,-252 999.2403,-246 999.2403,-240 999.2403,-240 999.2403,-228 999.2403,-228 999.2403,-222 1005.2403,-216 1011.2403,-216 1011.2403,-216 1059.2403,-216 1059.2403,-216 1065.2403,-216 1071.2403,-222 1071.2403,-228 1071.2403,-228 1071.2403,-240 1071.2403,-240 1071.2403,-246 1065.2403,-252 1059.2403,-252"/>
<text text-anchor="middle" x="1035.2403" y="-231.5" font-family="sans" font-size="10.00" fill="#000000">make_CGM</text>
</g>
<!-- 35&#45;&gt;14 -->
<g id="edge49" class="edge">
<title>35&#45;&gt;14</title>
<path fill="none" stroke="#c0c0c0" stroke-width="2" d="M1071.4852,-229.4695C1131.8512,-221.6515 1256.931,-204.2949 1371.5084,-180.2697"/>
<polygon fill="#c0c0c0" stroke="#c0c0c0" stroke-width="2" points="1372.4413,-183.6498 1381.4981,-178.1521 1370.9896,-176.802 1372.4413,-183.6498"/>
</g>
<!-- 35&#45;&gt;17 -->
<g id="edge54" class="edge">
<title>35&#45;&gt;17</title>
<path fill="none" stroke="#c0c0c0" stroke-width="2" d="M1071.5511,-224.3699C1110.189,-214.1162 1173.3798,-197.3285 1236.6717,-180.4168"/>
<polygon fill="#c0c0c0" stroke="#c0c0c0" stroke-width="2" points="1237.6593,-183.7758 1246.4164,-177.8122 1235.8517,-177.0132 1237.6593,-183.7758"/>
</g>
<!-- 35&#45;&gt;18 -->
<g id="edge56" class="edge">
<title>35&#45;&gt;18</title>
<path fill="none" stroke="#c0c0c0" stroke-width="2" d="M999.0791,-225.6105C982.722,-222.1151 963.0942,-218.3345 945.2403,-216 695.1268,-183.2969 625.3163,-220.3636 373.1274,-180.1304"/>
<polygon fill="#c0c0c0" stroke="#c0c0c0" stroke-width="2" points="373.3525,-176.6213 362.9213,-178.4761 372.2325,-183.5311 373.3525,-176.6213"/>
</g>
<!-- 35&#45;&gt;19 -->
<g id="edge58" class="edge">
<title>35&#45;&gt;19</title>
<path fill="none" stroke="#c0c0c0" stroke-width="2" d="M1035.2403,-215.8314C1035.2403,-208.131 1035.2403,-198.9743 1035.2403,-190.4166"/>
<polygon fill="#c0c0c0" stroke="#c0c0c0" stroke-width="2" points="1038.7404,-190.4132 1035.2403,-180.4133 1031.7404,-190.4133 1038.7404,-190.4132"/>
</g>
<!-- 35&#45;&gt;20 -->
<g id="edge60" class="edge">
<title>35&#45;&gt;20</title>
<path fill="none" stroke="#c0c0c0" stroke-width="2" d="M999.0918,-225.5109C982.7372,-221.9964 963.1078,-218.2282 945.2403,-216 635.5116,-177.3755 549.7331,-228.0949 238.1457,-180.1147"/>
<polygon fill="#c0c0c0" stroke="#c0c0c0" stroke-width="2" points="238.3352,-176.602 227.9148,-178.5166 237.2548,-183.5181 238.3352,-176.602"/>
</g>
<!-- 35&#45;&gt;21 -->
<g id="edge62" class="edge">
<title>35&#45;&gt;21</title>
<path fill="none" stroke="#c0c0c0" stroke-width="2" d="M998.9295,-224.3699C960.2916,-214.1162 897.1008,-197.3285 833.8089,-180.4168"/>
<polygon fill="#c0c0c0" stroke="#c0c0c0" stroke-width="2" points="834.6288,-177.0132 824.0641,-177.8122 832.8212,-183.7758 834.6288,-177.0132"/>
</g>
<!-- 35&#45;&gt;22 -->
<g id="edge64" class="edge">
<title>35&#45;&gt;22</title>
<path fill="none" stroke="#c0c0c0" stroke-width="2" d="M1001.1741,-215.8314C983.587,-206.4516 961.9487,-194.9112 943.2235,-184.9244"/>
<polygon fill="#c0c0c0" stroke="#c0c0c0" stroke-width="2" points="944.7662,-181.7805 934.2956,-180.1628 941.472,-187.957 944.7662,-181.7805"/>
</g>
<!-- 35&#45;&gt;23 -->
<g id="edge66" class="edge">
<title>35&#45;&gt;23</title>
<path fill="none" stroke="#c0c0c0" stroke-width="2" d="M1069.3065,-215.8314C1086.8936,-206.4516 1108.5318,-194.9112 1127.2571,-184.9244"/>
<polygon fill="#c0c0c0" stroke="#c0c0c0" stroke-width="2" points="1129.0085,-187.957 1136.185,-180.1628 1125.7144,-181.7805 1129.0085,-187.957"/>
</g>
<!-- 36 -->
<g id="node37" class="node">
<title>36</title>
<path fill="none" stroke="#d89c56" stroke-width="2" stroke-dasharray="5,2" d="M866.2403,-396C866.2403,-396 752.2403,-396 752.2403,-396 746.2403,-396 740.2403,-390 740.2403,-384 740.2403,-384 740.2403,-372 740.2403,-372 740.2403,-366 746.2403,-360 752.2403,-360 752.2403,-360 866.2403,-360 866.2403,-360 872.2403,-360 878.2403,-366 878.2403,-372 878.2403,-372 878.2403,-384 878.2403,-384 878.2403,-390 872.2403,-396 866.2403,-396"/>
<text text-anchor="middle" x="809.2403" y="-375.5" font-family="sans" font-size="10.00" fill="#000000">common_peaks_by_type</text>
</g>
<!-- 36&#45;&gt;15 -->
<g id="edge50" class="edge">
<title>36&#45;&gt;15</title>
<path fill="none" stroke="#c0c0c0" stroke-width="2" d="M795.0246,-359.8727C770.737,-329.2405 719.2162,-265.7156 671.2403,-216 661.7298,-206.1447 650.7897,-195.8676 640.9332,-186.9567"/>
<polygon fill="#c0c0c0" stroke="#c0c0c0" stroke-width="2" points="643.0958,-184.1953 633.3089,-180.1374 638.4292,-189.4128 643.0958,-184.1953"/>
</g>
<!-- 36&#45;&gt;33 -->
<g id="edge80" class="edge">
<title>36&#45;&gt;33</title>
<path fill="none" stroke="#c0c0c0" stroke-width="2" d="M878.3998,-362.8186C929.3584,-351.6326 998.93,-336.3608 1053.1125,-324.4671"/>
<polygon fill="#c0c0c0" stroke="#c0c0c0" stroke-width="2" points="1054.0255,-327.8501 1063.0425,-322.2873 1052.5246,-321.0129 1054.0255,-327.8501"/>
</g>
<!-- 36&#45;&gt;34 -->
<g id="edge81" class="edge">
<title>36&#45;&gt;34</title>
<path fill="none" stroke="#c0c0c0" stroke-width="2" d="M809.3997,-359.6864C810.3687,-340.4331 814.2446,-309.9474 828.2403,-288 835.7383,-276.242 846.7594,-266.119 857.9358,-257.9201"/>
<polygon fill="#c0c0c0" stroke="#c0c0c0" stroke-width="2" points="860.2209,-260.5954 866.4569,-252.0302 856.2406,-254.8371 860.2209,-260.5954"/>
</g>
<!-- 49 -->
<g id="node50" class="node">
<title>49</title>
<path fill="none" stroke="#56d85b" stroke-width="2" stroke-dasharray="5,2" d="M951.2403,-324C951.2403,-324 849.2403,-324 849.2403,-324 843.2403,-324 837.2403,-318 837.2403,-312 837.2403,-312 837.2403,-300 837.2403,-300 837.2403,-294 843.2403,-288 849.2403,-288 849.2403,-288 951.2403,-288 951.2403,-288 957.2403,-288 963.2403,-294 963.2403,-300 963.2403,-300 963.2403,-312 963.2403,-312 963.2403,-318 957.2403,-324 951.2403,-324"/>
<text text-anchor="middle" x="900.2403" y="-303.5" font-family="sans" font-size="10.00" fill="#000000">overlap_with_h3k27ac</text>
</g>
<!-- 36&#45;&gt;49 -->
<g id="edge99" class="edge">
<title>36&#45;&gt;49</title>
<path fill="none" stroke="#c0c0c0" stroke-width="2" d="M832.2034,-359.8314C843.4118,-350.9632 857.0612,-340.1637 869.1842,-330.5718"/>
<polygon fill="#c0c0c0" stroke="#c0c0c0" stroke-width="2" points="871.614,-333.1125 877.2845,-324.1628 867.2705,-327.6229 871.614,-333.1125"/>
</g>
<!-- 37 -->
<g id="node38" class="node">
<title>37</title>
<path fill="none" stroke="#d8c356" stroke-width="2" stroke-dasharray="5,2" d="M650.7403,-252C650.7403,-252 573.7403,-252 573.7403,-252 567.7403,-252 561.7403,-246 561.7403,-240 561.7403,-240 561.7403,-228 561.7403,-228 561.7403,-222 567.7403,-216 573.7403,-216 573.7403,-216 650.7403,-216 650.7403,-216 656.7403,-216 662.7403,-222 662.7403,-228 662.7403,-228 662.7403,-240 662.7403,-240 662.7403,-246 656.7403,-252 650.7403,-252"/>
<text text-anchor="middle" x="612.2403" y="-231.5" font-family="sans" font-size="10.00" fill="#000000">build_tss_regions</text>
</g>
<!-- 37&#45;&gt;15 -->
<g id="edge51" class="edge">
<title>37&#45;&gt;15</title>
<path fill="none" stroke="#c0c0c0" stroke-width="2" d="M612.2403,-215.8314C612.2403,-208.131 612.2403,-198.9743 612.2403,-190.4166"/>
<polygon fill="#c0c0c0" stroke="#c0c0c0" stroke-width="2" points="615.7404,-190.4132 612.2403,-180.4133 608.7404,-190.4133 615.7404,-190.4132"/>
</g>
<!-- 38 -->
<g id="node39" class="node">
<title>38</title>
<path fill="none" stroke="#d87d56" stroke-width="2" stroke-dasharray="5,2" d="M572.2403,-684C572.2403,-684 518.2403,-684 518.2403,-684 512.2403,-684 506.2403,-678 506.2403,-672 506.2403,-672 506.2403,-660 506.2403,-660 506.2403,-654 512.2403,-648 518.2403,-648 518.2403,-648 572.2403,-648 572.2403,-648 578.2403,-648 584.2403,-654 584.2403,-660 584.2403,-660 584.2403,-672 584.2403,-672 584.2403,-678 578.2403,-684 572.2403,-684"/>
<text text-anchor="middle" x="545.2403" y="-663.5" font-family="sans" font-size="10.00" fill="#000000">peak_calling</text>
</g>
<!-- 38&#45;&gt;16 -->
<g id="edge52" class="edge">
<title>38&#45;&gt;16</title>
<path fill="none" stroke="#c0c0c0" stroke-width="2" d="M542.5467,-647.862C538.7389,-620.6061 532.2403,-567.434 532.2403,-522 532.2403,-522 532.2403,-522 532.2403,-306 532.2403,-259.5145 499.372,-214.51 475.0027,-187.5311"/>
<polygon fill="#c0c0c0" stroke="#c0c0c0" stroke-width="2" points="477.4485,-185.0215 468.0743,-180.0844 472.3236,-189.7898 477.4485,-185.0215"/>
</g>
<!-- 38&#45;&gt;29 -->
<g id="edge74" class="edge">
<title>38&#45;&gt;29</title>
<path fill="none" stroke="#c0c0c0" stroke-width="2" d="M572.7456,-647.8314C586.5583,-638.7074 603.4659,-627.539 618.2932,-617.7449"/>
<polygon fill="#c0c0c0" stroke="#c0c0c0" stroke-width="2" points="620.3289,-620.5949 626.7438,-612.1628 616.4707,-614.7541 620.3289,-620.5949"/>
</g>
<!-- 39 -->
<g id="node40" class="node">
<title>39</title>
<path fill="none" stroke="#c6d856" stroke-width="2" stroke-dasharray="5,2" d="M1701.7403,-684C1701.7403,-684 1646.7403,-684 1646.7403,-684 1640.7403,-684 1634.7403,-678 1634.7403,-672 1634.7403,-672 1634.7403,-660 1634.7403,-660 1634.7403,-654 1640.7403,-648 1646.7403,-648 1646.7403,-648 1701.7403,-648 1701.7403,-648 1707.7403,-648 1713.7403,-654 1713.7403,-660 1713.7403,-660 1713.7403,-672 1713.7403,-672 1713.7403,-678 1707.7403,-684 1701.7403,-684"/>
<text text-anchor="middle" x="1674.2403" y="-663.5" font-family="sans" font-size="10.00" fill="#000000">downsample</text>
</g>
<!-- 39&#45;&gt;24 -->
<g id="edge67" class="edge">
<title>39&#45;&gt;24</title>
<path fill="none" stroke="#c0c0c0" stroke-width="2" d="M1647.2397,-647.8314C1633.8071,-638.7927 1617.393,-627.7476 1602.9364,-618.0198"/>
<polygon fill="#c0c0c0" stroke="#c0c0c0" stroke-width="2" points="1604.4828,-614.8418 1594.2323,-612.1628 1600.5749,-620.6494 1604.4828,-614.8418"/>
</g>
<!-- 40 -->
<g id="node41" class="node">
<title>40</title>
<path fill="none" stroke="#d87d56" stroke-width="2" stroke-dasharray="5,2" d="M1604.2403,-684C1604.2403,-684 1550.2403,-684 1550.2403,-684 1544.2403,-684 1538.2403,-678 1538.2403,-672 1538.2403,-672 1538.2403,-660 1538.2403,-660 1538.2403,-654 1544.2403,-648 1550.2403,-648 1550.2403,-648 1604.2403,-648 1604.2403,-648 1610.2403,-648 1616.2403,-654 1616.2403,-660 1616.2403,-660 1616.2403,-672 1616.2403,-672 1616.2403,-678 1610.2403,-684 1604.2403,-684"/>
<text text-anchor="middle" x="1577.2403" y="-663.5" font-family="sans" font-size="10.00" fill="#000000">peak_calling</text>
</g>
<!-- 40&#45;&gt;25 -->
<g id="edge68" class="edge">
<title>40&#45;&gt;25</title>
<path fill="none" stroke="#c0c0c0" stroke-width="2" d="M1550.2397,-647.8314C1536.8071,-638.7927 1520.393,-627.7476 1505.9364,-618.0198"/>
<polygon fill="#c0c0c0" stroke="#c0c0c0" stroke-width="2" points="1507.4828,-614.8418 1497.2323,-612.1628 1503.5749,-620.6494 1507.4828,-614.8418"/>
</g>
<!-- 41 -->
<g id="node42" class="node">
<title>41</title>
<path fill="none" stroke="#56d882" stroke-width="2" stroke-dasharray="5,2" d="M1303.7403,-684C1303.7403,-684 1154.7403,-684 1154.7403,-684 1148.7403,-684 1142.7403,-678 1142.7403,-672 1142.7403,-672 1142.7403,-660 1142.7403,-660 1142.7403,-654 1148.7403,-648 1154.7403,-648 1154.7403,-648 1303.7403,-648 1303.7403,-648 1309.7403,-648 1315.7403,-654 1315.7403,-660 1315.7403,-660 1315.7403,-672 1315.7403,-672 1315.7403,-678 1309.7403,-684 1303.7403,-684"/>
<text text-anchor="middle" x="1229.2403" y="-663.5" font-family="sans" font-size="10.00" fill="#000000">retrieve_and_process_black_list</text>
</g>
<!-- 41&#45;&gt;25 -->
<g id="edge69" class="edge">
<title>41&#45;&gt;25</title>
<path fill="none" stroke="#c0c0c0" stroke-width="2" d="M1305.5982,-647.9469C1342.9489,-638.4429 1388.3459,-625.8851 1428.2403,-612 1428.4463,-611.9283 1428.6528,-611.856 1428.8596,-611.7833"/>
<polygon fill="#c0c0c0" stroke="#c0c0c0" stroke-width="2" points="1430.1898,-615.0224 1438.3183,-608.227 1427.7262,-608.4703 1430.1898,-615.0224"/>
</g>
<!-- 41&#45;&gt;27 -->
<g id="edge72" class="edge">
<title>41&#45;&gt;27</title>
<path fill="none" stroke="#c0c0c0" stroke-width="2" d="M1229.2403,-647.8314C1229.2403,-640.131 1229.2403,-630.9743 1229.2403,-622.4166"/>
<polygon fill="#c0c0c0" stroke="#c0c0c0" stroke-width="2" points="1232.7404,-622.4132 1229.2403,-612.4133 1225.7404,-622.4133 1232.7404,-622.4132"/>
</g>
<!-- 41&#45;&gt;29 -->
<g id="edge75" class="edge">
<title>41&#45;&gt;29</title>
<path fill="none" stroke="#c0c0c0" stroke-width="2" d="M1142.6825,-649.4693C1139.498,-648.957 1136.3427,-648.4651 1133.2403,-648 972.3234,-623.8765 779.5295,-605.247 696.1056,-597.6817"/>
<polygon fill="#c0c0c0" stroke="#c0c0c0" stroke-width="2" points="696.2865,-594.1839 686.0127,-596.7721 695.6582,-601.1556 696.2865,-594.1839"/>
</g>
<!-- 42 -->
<g id="node43" class="node">
<title>42</title>
<path fill="none" stroke="#c6d856" stroke-width="2" stroke-dasharray="5,2" d="M1400.7403,-684C1400.7403,-684 1345.7403,-684 1345.7403,-684 1339.7403,-684 1333.7403,-678 1333.7403,-672 1333.7403,-672 1333.7403,-660 1333.7403,-660 1333.7403,-654 1339.7403,-648 1345.7403,-648 1345.7403,-648 1400.7403,-648 1400.7403,-648 1406.7403,-648 1412.7403,-654 1412.7403,-660 1412.7403,-660 1412.7403,-672 1412.7403,-672 1412.7403,-678 1406.7403,-684 1400.7403,-684"/>
<text text-anchor="middle" x="1373.2403" y="-663.5" font-family="sans" font-size="10.00" fill="#000000">downsample</text>
</g>
<!-- 42&#45;&gt;26 -->
<g id="edge70" class="edge">
<title>42&#45;&gt;26</title>
<path fill="none" stroke="#c0c0c0" stroke-width="2" d="M1373.2403,-647.8314C1373.2403,-640.131 1373.2403,-630.9743 1373.2403,-622.4166"/>
<polygon fill="#c0c0c0" stroke="#c0c0c0" stroke-width="2" points="1376.7404,-622.4132 1373.2403,-612.4133 1369.7404,-622.4133 1376.7404,-622.4132"/>
</g>
<!-- 43 -->
<g id="node44" class="node">
<title>43</title>
<path fill="none" stroke="#d87d56" stroke-width="2" stroke-dasharray="5,2" d="M1112.2403,-684C1112.2403,-684 1058.2403,-684 1058.2403,-684 1052.2403,-684 1046.2403,-678 1046.2403,-672 1046.2403,-672 1046.2403,-660 1046.2403,-660 1046.2403,-654 1052.2403,-648 1058.2403,-648 1058.2403,-648 1112.2403,-648 1112.2403,-648 1118.2403,-648 1124.2403,-654 1124.2403,-660 1124.2403,-660 1124.2403,-672 1124.2403,-672 1124.2403,-678 1118.2403,-684 1112.2403,-684"/>
<text text-anchor="middle" x="1085.2403" y="-663.5" font-family="sans" font-size="10.00" fill="#000000">peak_calling</text>
</g>
<!-- 43&#45;&gt;27 -->
<g id="edge71" class="edge">
<title>43&#45;&gt;27</title>
<path fill="none" stroke="#c0c0c0" stroke-width="2" d="M1121.5776,-647.8314C1141.8993,-637.6705 1167.292,-624.9741 1188.3125,-614.4639"/>
<polygon fill="#c0c0c0" stroke="#c0c0c0" stroke-width="2" points="1189.9477,-617.5595 1197.3267,-609.9568 1186.8171,-611.2985 1189.9477,-617.5595"/>
</g>
<!-- 44 -->
<g id="node45" class="node">
<title>44</title>
<path fill="none" stroke="#c6d856" stroke-width="2" stroke-dasharray="5,2" d="M475.7403,-684C475.7403,-684 420.7403,-684 420.7403,-684 414.7403,-684 408.7403,-678 408.7403,-672 408.7403,-672 408.7403,-660 408.7403,-660 408.7403,-654 414.7403,-648 420.7403,-648 420.7403,-648 475.7403,-648 475.7403,-648 481.7403,-648 487.7403,-654 487.7403,-660 487.7403,-660 487.7403,-672 487.7403,-672 487.7403,-678 481.7403,-684 475.7403,-684"/>
<text text-anchor="middle" x="448.2403" y="-663.5" font-family="sans" font-size="10.00" fill="#000000">downsample</text>
</g>
<!-- 44&#45;&gt;28 -->
<g id="edge73" class="edge">
<title>44&#45;&gt;28</title>
<path fill="none" stroke="#c0c0c0" stroke-width="2" d="M448.2403,-647.8314C448.2403,-640.131 448.2403,-630.9743 448.2403,-622.4166"/>
<polygon fill="#c0c0c0" stroke="#c0c0c0" stroke-width="2" points="451.7404,-622.4132 448.2403,-612.4133 444.7404,-622.4133 451.7404,-622.4132"/>
</g>
<!-- 45 -->
<g id="node46" class="node">
<title>45</title>
<path fill="none" stroke="#b6d856" stroke-width="2" stroke-dasharray="5,2" d="M1716.7403,-828C1716.7403,-828 1633.7403,-828 1633.7403,-828 1627.7403,-828 1621.7403,-822 1621.7403,-816 1621.7403,-816 1621.7403,-804 1621.7403,-804 1621.7403,-798 1627.7403,-792 1633.7403,-792 1633.7403,-792 1716.7403,-792 1716.7403,-792 1722.7403,-792 1728.7403,-798 1728.7403,-804 1728.7403,-804 1728.7403,-816 1728.7403,-816 1728.7403,-822 1722.7403,-828 1716.7403,-828"/>
<text text-anchor="middle" x="1675.2403" y="-813" font-family="sans" font-size="10.00" fill="#000000">merge_bam</text>
<text text-anchor="middle" x="1675.2403" y="-802" font-family="sans" font-size="10.00" fill="#000000">sample: RFP_IIG_3</text>
</g>
<!-- 45&#45;&gt;30 -->
<g id="edge76" class="edge">
<title>45&#45;&gt;30</title>
<path fill="none" stroke="#c0c0c0" stroke-width="2" d="M1649.249,-791.8314C1636.3187,-782.7927 1620.5181,-771.7476 1606.602,-762.0198"/>
<polygon fill="#c0c0c0" stroke="#c0c0c0" stroke-width="2" points="1608.4245,-759.0235 1598.2232,-756.1628 1604.414,-764.7608 1608.4245,-759.0235"/>
</g>
<!-- 54 -->
<g id="node55" class="node">
<title>54</title>
<path fill="none" stroke="#d88556" stroke-width="2" stroke-dasharray="5,2" d="M1695.2403,-756C1695.2403,-756 1653.2403,-756 1653.2403,-756 1647.2403,-756 1641.2403,-750 1641.2403,-744 1641.2403,-744 1641.2403,-732 1641.2403,-732 1641.2403,-726 1647.2403,-720 1653.2403,-720 1653.2403,-720 1695.2403,-720 1695.2403,-720 1701.2403,-720 1707.2403,-726 1707.2403,-732 1707.2403,-732 1707.2403,-744 1707.2403,-744 1707.2403,-750 1701.2403,-756 1695.2403,-756"/>
<text text-anchor="middle" x="1674.2403" y="-735.5" font-family="sans" font-size="10.00" fill="#000000">filter_bam</text>
</g>
<!-- 45&#45;&gt;54 -->
<g id="edge104" class="edge">
<title>45&#45;&gt;54</title>
<path fill="none" stroke="#c0c0c0" stroke-width="2" d="M1674.9879,-791.8314C1674.881,-784.131 1674.7538,-774.9743 1674.6349,-766.4166"/>
<polygon fill="#c0c0c0" stroke="#c0c0c0" stroke-width="2" points="1678.1346,-766.3637 1674.496,-756.4133 1671.1353,-766.4609 1678.1346,-766.3637"/>
</g>
<!-- 46 -->
<g id="node47" class="node">
<title>46</title>
<path fill="none" stroke="#b6d856" stroke-width="2" stroke-dasharray="5,2" d="M1293.7403,-828C1293.7403,-828 1212.7403,-828 1212.7403,-828 1206.7403,-828 1200.7403,-822 1200.7403,-816 1200.7403,-816 1200.7403,-804 1200.7403,-804 1200.7403,-798 1206.7403,-792 1212.7403,-792 1212.7403,-792 1293.7403,-792 1293.7403,-792 1299.7403,-792 1305.7403,-798 1305.7403,-804 1305.7403,-804 1305.7403,-816 1305.7403,-816 1305.7403,-822 1299.7403,-828 1293.7403,-828"/>
<text text-anchor="middle" x="1253.2403" y="-813" font-family="sans" font-size="10.00" fill="#000000">merge_bam</text>
<text text-anchor="middle" x="1253.2403" y="-802" font-family="sans" font-size="10.00" fill="#000000">sample: RFP_IIE_1</text>
</g>
<!-- 46&#45;&gt;31 -->
<g id="edge77" class="edge">
<title>46&#45;&gt;31</title>
<path fill="none" stroke="#c0c0c0" stroke-width="2" d="M1305.9611,-791.9243C1343.5072,-779.0513 1393.027,-762.0731 1426.3881,-750.635"/>
<polygon fill="#c0c0c0" stroke="#c0c0c0" stroke-width="2" points="1427.8674,-753.8279 1436.1917,-747.2738 1425.597,-747.2063 1427.8674,-753.8279"/>
</g>
<!-- 55 -->
<g id="node56" class="node">
<title>55</title>
<path fill="none" stroke="#d88556" stroke-width="2" stroke-dasharray="5,2" d="M1274.2403,-756C1274.2403,-756 1232.2403,-756 1232.2403,-756 1226.2403,-756 1220.2403,-750 1220.2403,-744 1220.2403,-744 1220.2403,-732 1220.2403,-732 1220.2403,-726 1226.2403,-720 1232.2403,-720 1232.2403,-720 1274.2403,-720 1274.2403,-720 1280.2403,-720 1286.2403,-726 1286.2403,-732 1286.2403,-732 1286.2403,-744 1286.2403,-744 1286.2403,-750 1280.2403,-756 1274.2403,-756"/>
<text text-anchor="middle" x="1253.2403" y="-735.5" font-family="sans" font-size="10.00" fill="#000000">filter_bam</text>
</g>
<!-- 46&#45;&gt;55 -->
<g id="edge105" class="edge">
<title>46&#45;&gt;55</title>
<path fill="none" stroke="#c0c0c0" stroke-width="2" d="M1253.2403,-791.8314C1253.2403,-784.131 1253.2403,-774.9743 1253.2403,-766.4166"/>
<polygon fill="#c0c0c0" stroke="#c0c0c0" stroke-width="2" points="1256.7404,-766.4132 1253.2403,-756.4133 1249.7404,-766.4133 1256.7404,-766.4132"/>
</g>
<!-- 47 -->
<g id="node48" class="node">
<title>47</title>
<path fill="none" stroke="#b6d856" stroke-width="2" stroke-dasharray="5,2" d="M581.7403,-828C581.7403,-828 498.7403,-828 498.7403,-828 492.7403,-828 486.7403,-822 486.7403,-816 486.7403,-816 486.7403,-804 486.7403,-804 486.7403,-798 492.7403,-792 498.7403,-792 498.7403,-792 581.7403,-792 581.7403,-792 587.7403,-792 593.7403,-798 593.7403,-804 593.7403,-804 593.7403,-816 593.7403,-816 593.7403,-822 587.7403,-828 581.7403,-828"/>
<text text-anchor="middle" x="540.2403" y="-813" font-family="sans" font-size="10.00" fill="#000000">merge_bam</text>
<text text-anchor="middle" x="540.2403" y="-802" font-family="sans" font-size="10.00" fill="#000000">sample: GFP_IIG_7</text>
</g>
<!-- 47&#45;&gt;32 -->
<g id="edge78" class="edge">
<title>47&#45;&gt;32</title>
<path fill="none" stroke="#c0c0c0" stroke-width="2" d="M593.943,-808.1619C743.2565,-802.7332 1161.16,-785.2919 1295.2403,-756 1298.9356,-755.1927 1302.7269,-754.1573 1306.4805,-752.9919"/>
<polygon fill="#c0c0c0" stroke="#c0c0c0" stroke-width="2" points="1307.898,-756.2066 1316.2364,-749.6704 1305.6419,-749.5802 1307.898,-756.2066"/>
</g>
<!-- 53 -->
<g id="node54" class="node">
<title>53</title>
<path fill="none" stroke="#d88556" stroke-width="2" stroke-dasharray="5,2" d="M561.2403,-756C561.2403,-756 519.2403,-756 519.2403,-756 513.2403,-756 507.2403,-750 507.2403,-744 507.2403,-744 507.2403,-732 507.2403,-732 507.2403,-726 513.2403,-720 519.2403,-720 519.2403,-720 561.2403,-720 561.2403,-720 567.2403,-720 573.2403,-726 573.2403,-732 573.2403,-732 573.2403,-744 573.2403,-744 573.2403,-750 567.2403,-756 561.2403,-756"/>
<text text-anchor="middle" x="540.2403" y="-735.5" font-family="sans" font-size="10.00" fill="#000000">filter_bam</text>
</g>
<!-- 47&#45;&gt;53 -->
<g id="edge103" class="edge">
<title>47&#45;&gt;53</title>
<path fill="none" stroke="#c0c0c0" stroke-width="2" d="M540.2403,-791.8314C540.2403,-784.131 540.2403,-774.9743 540.2403,-766.4166"/>
<polygon fill="#c0c0c0" stroke="#c0c0c0" stroke-width="2" points="543.7404,-766.4132 540.2403,-756.4133 536.7404,-766.4133 543.7404,-766.4132"/>
</g>
<!-- 48 -->
<g id="node49" class="node">
<title>48</title>
<path fill="none" stroke="#d89c56" stroke-width="2" stroke-dasharray="5,2" d="M1194.2403,-396C1194.2403,-396 1080.2403,-396 1080.2403,-396 1074.2403,-396 1068.2403,-390 1068.2403,-384 1068.2403,-384 1068.2403,-372 1068.2403,-372 1068.2403,-366 1074.2403,-360 1080.2403,-360 1080.2403,-360 1194.2403,-360 1194.2403,-360 1200.2403,-360 1206.2403,-366 1206.2403,-372 1206.2403,-372 1206.2403,-384 1206.2403,-384 1206.2403,-390 1200.2403,-396 1194.2403,-396"/>
<text text-anchor="middle" x="1137.2403" y="-375.5" font-family="sans" font-size="10.00" fill="#000000">common_peaks_by_type</text>
</g>
<!-- 48&#45;&gt;33 -->
<g id="edge79" class="edge">
<title>48&#45;&gt;33</title>
<path fill="none" stroke="#c0c0c0" stroke-width="2" d="M1137.2403,-359.8314C1137.2403,-352.131 1137.2403,-342.9743 1137.2403,-334.4166"/>
<polygon fill="#c0c0c0" stroke="#c0c0c0" stroke-width="2" points="1140.7404,-334.4132 1137.2403,-324.4133 1133.7404,-334.4133 1140.7404,-334.4132"/>
</g>
<!-- 48&#45;&gt;35 -->
<g id="edge83" class="edge">
<title>48&#45;&gt;35</title>
<path fill="none" stroke="#c0c0c0" stroke-width="2" d="M1096.1902,-359.8329C1080.8486,-351.0935 1064.6421,-339.1709 1054.2403,-324 1041.8021,-305.8592 1037.2481,-281.1865 1035.695,-262.2617"/>
<polygon fill="#c0c0c0" stroke="#c0c0c0" stroke-width="2" points="1039.1813,-261.9243 1035.1,-252.1472 1032.1934,-262.3355 1039.1813,-261.9243"/>
</g>
<!-- 50 -->
<g id="node51" class="node">
<title>50</title>
<path fill="none" stroke="#56d85b" stroke-width="2" stroke-dasharray="5,2" d="M1343.2403,-324C1343.2403,-324 1241.2403,-324 1241.2403,-324 1235.2403,-324 1229.2403,-318 1229.2403,-312 1229.2403,-312 1229.2403,-300 1229.2403,-300 1229.2403,-294 1235.2403,-288 1241.2403,-288 1241.2403,-288 1343.2403,-288 1343.2403,-288 1349.2403,-288 1355.2403,-294 1355.2403,-300 1355.2403,-300 1355.2403,-312 1355.2403,-312 1355.2403,-318 1349.2403,-324 1343.2403,-324"/>
<text text-anchor="middle" x="1292.2403" y="-303.5" font-family="sans" font-size="10.00" fill="#000000">overlap_with_h3k27ac</text>
</g>
<!-- 48&#45;&gt;50 -->
<g id="edge100" class="edge">
<title>48&#45;&gt;50</title>
<path fill="none" stroke="#c0c0c0" stroke-width="2" d="M1176.3533,-359.8314C1196.9915,-350.2446 1222.4886,-338.4008 1244.3076,-328.2655"/>
<polygon fill="#c0c0c0" stroke="#c0c0c0" stroke-width="2" points="1245.8137,-331.4251 1253.4085,-324.038 1242.8647,-325.0766 1245.8137,-331.4251"/>
</g>
<!-- 49&#45;&gt;34 -->
<g id="edge82" class="edge">
<title>49&#45;&gt;34</title>
<path fill="none" stroke="#c0c0c0" stroke-width="2" d="M900.2403,-287.8314C900.2403,-280.131 900.2403,-270.9743 900.2403,-262.4166"/>
<polygon fill="#c0c0c0" stroke="#c0c0c0" stroke-width="2" points="903.7404,-262.4132 900.2403,-252.4133 896.7404,-262.4133 903.7404,-262.4132"/>
</g>
<!-- 50&#45;&gt;35 -->
<g id="edge84" class="edge">
<title>50&#45;&gt;35</title>
<path fill="none" stroke="#c0c0c0" stroke-width="2" d="M1229.0418,-288.2946C1183.3201,-275.4854 1122.5759,-258.4676 1081.3682,-246.923"/>
<polygon fill="#c0c0c0" stroke="#c0c0c0" stroke-width="2" points="1082.1664,-243.5119 1071.5929,-244.1844 1080.278,-250.2524 1082.1664,-243.5119"/>
</g>
<!-- 51&#45;&gt;36 -->
<g id="edge85" class="edge">
<title>51&#45;&gt;36</title>
<path fill="none" stroke="#c0c0c0" stroke-width="2" d="M717.371,-503.6681C718.3161,-484.3994 722.1721,-453.901 736.2403,-432 743.7764,-420.2679 754.8198,-410.1965 766.0471,-402.0387"/>
<polygon fill="#c0c0c0" stroke="#c0c0c0" stroke-width="2" points="768.3367,-404.713 774.6135,-396.1776 764.384,-398.9358 768.3367,-404.713"/>
</g>
<!-- 52 -->
<g id="node53" class="node">
<title>52</title>
<path fill="none" stroke="#56d89a" stroke-width="2" stroke-dasharray="5,2" d="M860.7403,-468C860.7403,-468 757.7403,-468 757.7403,-468 751.7403,-468 745.7403,-462 745.7403,-456 745.7403,-456 745.7403,-444 745.7403,-444 745.7403,-438 751.7403,-432 757.7403,-432 757.7403,-432 860.7403,-432 860.7403,-432 866.7403,-432 872.7403,-438 872.7403,-444 872.7403,-444 872.7403,-456 872.7403,-456 872.7403,-462 866.7403,-468 860.7403,-468"/>
<text text-anchor="middle" x="809.2403" y="-447.5" font-family="sans" font-size="10.00" fill="#000000">merge_peaks_by_type</text>
</g>
<!-- 51&#45;&gt;52 -->
<g id="edge102" class="edge">
<title>51&#45;&gt;52</title>
<path fill="none" stroke="#c0c0c0" stroke-width="2" d="M740.4558,-503.8314C751.7873,-494.9632 765.5867,-484.1637 777.8429,-474.5718"/>
<polygon fill="#c0c0c0" stroke="#c0c0c0" stroke-width="2" points="780.3142,-477.0822 786.0322,-468.1628 776.0001,-471.5697 780.3142,-477.0822"/>
</g>
<!-- 52&#45;&gt;36 -->
<g id="edge86" class="edge">
<title>52&#45;&gt;36</title>
<path fill="none" stroke="#c0c0c0" stroke-width="2" d="M809.2403,-431.8314C809.2403,-424.131 809.2403,-414.9743 809.2403,-406.4166"/>
<polygon fill="#c0c0c0" stroke="#c0c0c0" stroke-width="2" points="812.7404,-406.4132 809.2403,-396.4133 805.7404,-406.4133 812.7404,-406.4132"/>
</g>
<!-- 53&#45;&gt;38 -->
<g id="edge87" class="edge">
<title>53&#45;&gt;38</title>
<path fill="none" stroke="#c0c0c0" stroke-width="2" d="M541.502,-719.8314C542.0367,-712.131 542.6726,-702.9743 543.2669,-694.4166"/>
<polygon fill="#c0c0c0" stroke="#c0c0c0" stroke-width="2" points="546.7603,-694.6317 543.9616,-684.4133 539.7771,-694.1467 546.7603,-694.6317"/>
</g>
<!-- 53&#45;&gt;44 -->
<g id="edge92" class="edge">
<title>53&#45;&gt;44</title>
<path fill="none" stroke="#c0c0c0" stroke-width="2" d="M517.0248,-719.8314C505.6933,-710.9632 491.8939,-700.1637 479.6376,-690.5718"/>
<polygon fill="#c0c0c0" stroke="#c0c0c0" stroke-width="2" points="481.4805,-687.5697 471.4483,-684.1628 477.1663,-693.0822 481.4805,-687.5697"/>
</g>
<!-- 54&#45;&gt;39 -->
<g id="edge88" class="edge">
<title>54&#45;&gt;39</title>
<path fill="none" stroke="#c0c0c0" stroke-width="2" d="M1674.2403,-719.8314C1674.2403,-712.131 1674.2403,-702.9743 1674.2403,-694.4166"/>
<polygon fill="#c0c0c0" stroke="#c0c0c0" stroke-width="2" points="1677.7404,-694.4132 1674.2403,-684.4133 1670.7404,-694.4133 1677.7404,-694.4132"/>
</g>
<!-- 54&#45;&gt;40 -->
<g id="edge89" class="edge">
<title>54&#45;&gt;40</title>
<path fill="none" stroke="#c0c0c0" stroke-width="2" d="M1649.7631,-719.8314C1637.7008,-710.8779 1622.9863,-699.9558 1609.9717,-690.2955"/>
<polygon fill="#c0c0c0" stroke="#c0c0c0" stroke-width="2" points="1611.8254,-687.3127 1601.7096,-684.1628 1607.6533,-692.9335 1611.8254,-687.3127"/>
</g>
<!-- 55&#45;&gt;42 -->
<g id="edge90" class="edge">
<title>55&#45;&gt;42</title>
<path fill="none" stroke="#c0c0c0" stroke-width="2" d="M1283.5213,-719.8314C1298.8701,-710.6221 1317.6901,-699.3301 1334.1226,-689.4706"/>
<polygon fill="#c0c0c0" stroke="#c0c0c0" stroke-width="2" points="1336.1947,-692.3091 1342.9689,-684.1628 1332.5932,-686.3066 1336.1947,-692.3091"/>
</g>
<!-- 55&#45;&gt;43 -->
<g id="edge91" class="edge">
<title>55&#45;&gt;43</title>
<path fill="none" stroke="#c0c0c0" stroke-width="2" d="M1220.0489,-723.7751C1195.4133,-713.217 1161.4383,-698.6563 1133.7599,-686.7941"/>
<polygon fill="#c0c0c0" stroke="#c0c0c0" stroke-width="2" points="1134.8282,-683.4441 1124.258,-682.7219 1132.0707,-689.8781 1134.8282,-683.4441"/>
</g>
<!-- 56 -->
<g id="node57" class="node">
<title>56</title>
<path fill="none" stroke="#d86e56" stroke-width="2" stroke-dasharray="5,2" d="M1785.2403,-900C1785.2403,-900 1567.2403,-900 1567.2403,-900 1561.2403,-900 1555.2403,-894 1555.2403,-888 1555.2403,-888 1555.2403,-876 1555.2403,-876 1555.2403,-870 1561.2403,-864 1567.2403,-864 1567.2403,-864 1785.2403,-864 1785.2403,-864 1791.2403,-864 1797.2403,-870 1797.2403,-876 1797.2403,-876 1797.2403,-888 1797.2403,-888 1797.2403,-894 1791.2403,-900 1785.2403,-900"/>
<text text-anchor="middle" x="1676.2403" y="-885" font-family="sans" font-size="10.00" fill="#000000">align</text>
<text text-anchor="middle" x="1676.2403" y="-874" font-family="sans" font-size="10.00" fill="#000000">lane_sample: HN7NJBBXX_16871585_S2_L001</text>
</g>
<!-- 56&#45;&gt;45 -->
<g id="edge93" class="edge">
<title>56&#45;&gt;45</title>
<path fill="none" stroke="#c0c0c0" stroke-width="2" d="M1675.9879,-863.8314C1675.881,-856.131 1675.7538,-846.9743 1675.6349,-838.4166"/>
<polygon fill="#c0c0c0" stroke="#c0c0c0" stroke-width="2" points="1679.1346,-838.3637 1675.496,-828.4133 1672.1353,-838.4609 1679.1346,-838.3637"/>
</g>
<!-- 57 -->
<g id="node58" class="node">
<title>57</title>
<path fill="none" stroke="#d86e56" stroke-width="2" stroke-dasharray="5,2" d="M2479.2403,-900C2479.2403,-900 2261.2403,-900 2261.2403,-900 2255.2403,-900 2249.2403,-894 2249.2403,-888 2249.2403,-888 2249.2403,-876 2249.2403,-876 2249.2403,-870 2255.2403,-864 2261.2403,-864 2261.2403,-864 2479.2403,-864 2479.2403,-864 2485.2403,-864 2491.2403,-870 2491.2403,-876 2491.2403,-876 2491.2403,-888 2491.2403,-888 2491.2403,-894 2485.2403,-900 2479.2403,-900"/>
<text text-anchor="middle" x="2370.2403" y="-885" font-family="sans" font-size="10.00" fill="#000000">align</text>
<text text-anchor="middle" x="2370.2403" y="-874" font-family="sans" font-size="10.00" fill="#000000">lane_sample: HN7NJBBXX_16871585_S2_L002</text>
</g>
<!-- 57&#45;&gt;45 -->
<g id="edge94" class="edge">
<title>57&#45;&gt;45</title>
<path fill="none" stroke="#c0c0c0" stroke-width="2" d="M2249.1805,-869.4586C2100.8165,-854.0885 1854.9132,-828.6136 1739.1875,-816.6247"/>
<polygon fill="#c0c0c0" stroke="#c0c0c0" stroke-width="2" points="1739.3787,-813.1259 1729.0713,-815.5767 1738.6574,-820.0887 1739.3787,-813.1259"/>
</g>
<!-- 58 -->
<g id="node59" class="node">
<title>58</title>
<path fill="none" stroke="#d86e56" stroke-width="2" stroke-dasharray="5,2" d="M1341.2403,-900C1341.2403,-900 1119.2403,-900 1119.2403,-900 1113.2403,-900 1107.2403,-894 1107.2403,-888 1107.2403,-888 1107.2403,-876 1107.2403,-876 1107.2403,-870 1113.2403,-864 1119.2403,-864 1119.2403,-864 1341.2403,-864 1341.2403,-864 1347.2403,-864 1353.2403,-870 1353.2403,-876 1353.2403,-876 1353.2403,-888 1353.2403,-888 1353.2403,-894 1347.2403,-900 1341.2403,-900"/>
<text text-anchor="middle" x="1230.2403" y="-885" font-family="sans" font-size="10.00" fill="#000000">align</text>
<text text-anchor="middle" x="1230.2403" y="-874" font-family="sans" font-size="10.00" fill="#000000">lane_sample: HN7TMBBXX_16871599_S8_L004</text>
</g>
<!-- 58&#45;&gt;46 -->
<g id="edge95" class="edge">
<title>58&#45;&gt;46</title>
<path fill="none" stroke="#c0c0c0" stroke-width="2" d="M1236.0441,-863.8314C1238.531,-856.0463 1241.4934,-846.7729 1244.2528,-838.1347"/>
<polygon fill="#c0c0c0" stroke="#c0c0c0" stroke-width="2" points="1247.6493,-839.0041 1247.3583,-828.4133 1240.9812,-836.874 1247.6493,-839.0041"/>
</g>
<!-- 59 -->
<g id="node60" class="node">
<title>59</title>
<path fill="none" stroke="#d86e56" stroke-width="2" stroke-dasharray="5,2" d="M639.2403,-900C639.2403,-900 421.2403,-900 421.2403,-900 415.2403,-900 409.2403,-894 409.2403,-888 409.2403,-888 409.2403,-876 409.2403,-876 409.2403,-870 415.2403,-864 421.2403,-864 421.2403,-864 639.2403,-864 639.2403,-864 645.2403,-864 651.2403,-870 651.2403,-876 651.2403,-876 651.2403,-888 651.2403,-888 651.2403,-894 645.2403,-900 639.2403,-900"/>
<text text-anchor="middle" x="530.2403" y="-885" font-family="sans" font-size="10.00" fill="#000000">align</text>
<text text-anchor="middle" x="530.2403" y="-874" font-family="sans" font-size="10.00" fill="#000000">lane_sample: HN7NJBBXX_16871601_S3_L001</text>
</g>
<!-- 59&#45;&gt;47 -->
<g id="edge96" class="edge">
<title>59&#45;&gt;47</title>
<path fill="none" stroke="#c0c0c0" stroke-width="2" d="M532.7637,-863.8314C533.8332,-856.131 535.1049,-846.9743 536.2935,-838.4166"/>
<polygon fill="#c0c0c0" stroke="#c0c0c0" stroke-width="2" points="539.7738,-838.7997 537.6829,-828.4133 532.8404,-837.8367 539.7738,-838.7997"/>
</g>
<!-- 60&#45;&gt;48 -->
<g id="edge97" class="edge">
<title>60&#45;&gt;48</title>
<path fill="none" stroke="#c0c0c0" stroke-width="2" d="M1229.1095,-503.6681C1228.1645,-484.3994 1224.3084,-453.901 1210.2403,-432 1202.7042,-420.2679 1191.6608,-410.1965 1180.4335,-402.0387"/>
<polygon fill="#c0c0c0" stroke="#c0c0c0" stroke-width="2" points="1182.0966,-398.9358 1171.8671,-396.1776 1178.1438,-404.713 1182.0966,-398.9358"/>
</g>
<!-- 61 -->
<g id="node62" class="node">
<title>61</title>
<path fill="none" stroke="#56d89a" stroke-width="2" stroke-dasharray="5,2" d="M1188.7403,-468C1188.7403,-468 1085.7403,-468 1085.7403,-468 1079.7403,-468 1073.7403,-462 1073.7403,-456 1073.7403,-456 1073.7403,-444 1073.7403,-444 1073.7403,-438 1079.7403,-432 1085.7403,-432 1085.7403,-432 1188.7403,-432 1188.7403,-432 1194.7403,-432 1200.7403,-438 1200.7403,-444 1200.7403,-444 1200.7403,-456 1200.7403,-456 1200.7403,-462 1194.7403,-468 1188.7403,-468"/>
<text text-anchor="middle" x="1137.2403" y="-447.5" font-family="sans" font-size="10.00" fill="#000000">merge_peaks_by_type</text>
</g>
<!-- 60&#45;&gt;61 -->
<g id="edge124" class="edge">
<title>60&#45;&gt;61</title>
<path fill="none" stroke="#c0c0c0" stroke-width="2" d="M1206.0248,-503.8314C1194.6933,-494.9632 1180.8939,-484.1637 1168.6376,-474.5718"/>
<polygon fill="#c0c0c0" stroke="#c0c0c0" stroke-width="2" points="1170.4805,-471.5697 1160.4483,-468.1628 1166.1663,-477.0822 1170.4805,-471.5697"/>
</g>
<!-- 61&#45;&gt;48 -->
<g id="edge98" class="edge">
<title>61&#45;&gt;48</title>
<path fill="none" stroke="#c0c0c0" stroke-width="2" d="M1137.2403,-431.8314C1137.2403,-424.131 1137.2403,-414.9743 1137.2403,-406.4166"/>
<polygon fill="#c0c0c0" stroke="#c0c0c0" stroke-width="2" points="1140.7404,-406.4132 1137.2403,-396.4133 1133.7404,-406.4133 1140.7404,-406.4132"/>
</g>
<!-- 62 -->
<g id="node63" class="node">
<title>62</title>
<path fill="none" stroke="#56b9d8" stroke-width="2" stroke-dasharray="5,2" d="M2147.2403,-972C2147.2403,-972 1861.2403,-972 1861.2403,-972 1855.2403,-972 1849.2403,-966 1849.2403,-960 1849.2403,-960 1849.2403,-948 1849.2403,-948 1849.2403,-942 1855.2403,-936 1861.2403,-936 1861.2403,-936 2147.2403,-936 2147.2403,-936 2153.2403,-936 2159.2403,-942 2159.2403,-948 2159.2403,-948 2159.2403,-960 2159.2403,-960 2159.2403,-966 2153.2403,-972 2147.2403,-972"/>
<text text-anchor="middle" x="2004.2403" y="-957" font-family="sans" font-size="10.00" fill="#000000">pull_lane_fastq_from_nisc_or_sra</text>
<text text-anchor="middle" x="2004.2403" y="-946" font-family="sans" font-size="10.00" fill="#000000">lane_files: HN7NJBBXX_16871585_S2_L001_R1_001.fastq.gz</text>
</g>
<!-- 62&#45;&gt;56 -->
<g id="edge106" class="edge">
<title>62&#45;&gt;56</title>
<path fill="none" stroke="#c0c0c0" stroke-width="2" d="M1921.8954,-935.9243C1875.115,-925.6554 1816.4341,-912.7743 1768.157,-902.1768"/>
<polygon fill="#c0c0c0" stroke="#c0c0c0" stroke-width="2" points="1768.8524,-898.7462 1758.3345,-900.0207 1767.3515,-905.5834 1768.8524,-898.7462"/>
</g>
<!-- 63 -->
<g id="node64" class="node">
<title>63</title>
<path fill="none" stroke="#56b9d8" stroke-width="2" stroke-dasharray="5,2" d="M1819.2403,-972C1819.2403,-972 1533.2403,-972 1533.2403,-972 1527.2403,-972 1521.2403,-966 1521.2403,-960 1521.2403,-960 1521.2403,-948 1521.2403,-948 1521.2403,-942 1527.2403,-936 1533.2403,-936 1533.2403,-936 1819.2403,-936 1819.2403,-936 1825.2403,-936 1831.2403,-942 1831.2403,-948 1831.2403,-948 1831.2403,-960 1831.2403,-960 1831.2403,-966 1825.2403,-972 1819.2403,-972"/>
<text text-anchor="middle" x="1676.2403" y="-957" font-family="sans" font-size="10.00" fill="#000000">pull_lane_fastq_from_nisc_or_sra</text>
<text text-anchor="middle" x="1676.2403" y="-946" font-family="sans" font-size="10.00" fill="#000000">lane_files: HN7NJBBXX_16871585_S2_L001_R2_001.fastq.gz</text>
</g>
<!-- 63&#45;&gt;56 -->
<g id="edge107" class="edge">
<title>63&#45;&gt;56</title>
<path fill="none" stroke="#c0c0c0" stroke-width="2" d="M1676.2403,-935.8314C1676.2403,-928.131 1676.2403,-918.9743 1676.2403,-910.4166"/>
<polygon fill="#c0c0c0" stroke="#c0c0c0" stroke-width="2" points="1679.7404,-910.4132 1676.2403,-900.4133 1672.7404,-910.4133 1679.7404,-910.4132"/>
</g>
<!-- 64 -->
<g id="node65" class="node">
<title>64</title>
<path fill="none" stroke="#5692d8" stroke-width="2" stroke-dasharray="5,2" d="M1477.2403,-1044C1477.2403,-1044 1431.2403,-1044 1431.2403,-1044 1425.2403,-1044 1419.2403,-1038 1419.2403,-1032 1419.2403,-1032 1419.2403,-1020 1419.2403,-1020 1419.2403,-1014 1425.2403,-1008 1431.2403,-1008 1431.2403,-1008 1477.2403,-1008 1477.2403,-1008 1483.2403,-1008 1489.2403,-1014 1489.2403,-1020 1489.2403,-1020 1489.2403,-1032 1489.2403,-1032 1489.2403,-1038 1483.2403,-1044 1477.2403,-1044"/>
<text text-anchor="middle" x="1454.2403" y="-1023.5" font-family="sans" font-size="10.00" fill="#000000">build_hg19</text>
</g>
<!-- 64&#45;&gt;56 -->
<g id="edge108" class="edge">
<title>64&#45;&gt;56</title>
<path fill="none" stroke="#c0c0c0" stroke-width="2" d="M1489.3199,-1024.66C1629.744,-1019.1294 2144.8909,-997.182 2168.2403,-972 2179.119,-960.2674 2178.919,-947.9149 2168.2403,-936 2144.4611,-909.4681 1944.9955,-894.6493 1807.4606,-887.5026"/>
<polygon fill="#c0c0c0" stroke="#c0c0c0" stroke-width="2" points="1807.4211,-883.9961 1797.2553,-886.9804 1807.0633,-890.9869 1807.4211,-883.9961"/>
</g>
<!-- 64&#45;&gt;57 -->
<g id="edge112" class="edge">
<title>64&#45;&gt;57</title>
<path fill="none" stroke="#c0c0c0" stroke-width="2" d="M1489.4358,-1025.3185C1704.9243,-1021.0654 2837.6839,-997.5162 2862.2403,-972 2873.3351,-960.4715 2872.919,-947.9149 2862.2403,-936 2838.4611,-909.4681 2638.9955,-894.6493 2501.4606,-887.5026"/>
<polygon fill="#c0c0c0" stroke="#c0c0c0" stroke-width="2" points="2501.4211,-883.9961 2491.2553,-886.9804 2501.0633,-890.9869 2501.4211,-883.9961"/>
</g>
<!-- 64&#45;&gt;58 -->
<g id="edge116" class="edge">
<title>64&#45;&gt;58</title>
<path fill="none" stroke="#c0c0c0" stroke-width="2" d="M1419.0677,-1023.7312C1327.545,-1017.4717 1087.4464,-998.6407 1064.2403,-972 1036.433,-940.0772 1078.9237,-917.4589 1127.8642,-902.8812"/>
<polygon fill="#c0c0c0" stroke="#c0c0c0" stroke-width="2" points="1129.0617,-906.1794 1137.7194,-900.0725 1127.1431,-899.4474 1129.0617,-906.1794"/>
</g>
<!-- 64&#45;&gt;59 -->
<g id="edge120" class="edge">
<title>64&#45;&gt;59</title>
<path fill="none" stroke="#c0c0c0" stroke-width="2" d="M1419.0741,-1025.601C1236.4696,-1023.3613 403.376,-1011.0246 366.2403,-972 336.5308,-940.7794 381.6859,-917.7434 432.0759,-902.7955"/>
<polygon fill="#c0c0c0" stroke="#c0c0c0" stroke-width="2" points="433.2072,-906.1126 441.8653,-900.0062 431.2889,-899.3805 433.2072,-906.1126"/>
</g>
<!-- 65 -->
<g id="node66" class="node">
<title>65</title>
<path fill="none" stroke="#5673d8" stroke-width="2" stroke-dasharray="5,2" d="M1491.2403,-972C1491.2403,-972 1417.2403,-972 1417.2403,-972 1411.2403,-972 1405.2403,-966 1405.2403,-960 1405.2403,-960 1405.2403,-948 1405.2403,-948 1405.2403,-942 1411.2403,-936 1417.2403,-936 1417.2403,-936 1491.2403,-936 1491.2403,-936 1497.2403,-936 1503.2403,-942 1503.2403,-948 1503.2403,-948 1503.2403,-960 1503.2403,-960 1503.2403,-966 1497.2403,-972 1491.2403,-972"/>
<text text-anchor="middle" x="1454.2403" y="-951.5" font-family="sans" font-size="10.00" fill="#000000">build_bwa_index</text>
</g>
<!-- 64&#45;&gt;65 -->
<g id="edge125" class="edge">
<title>64&#45;&gt;65</title>
<path fill="none" stroke="#c0c0c0" stroke-width="2" d="M1454.2403,-1007.8314C1454.2403,-1000.131 1454.2403,-990.9743 1454.2403,-982.4166"/>
<polygon fill="#c0c0c0" stroke="#c0c0c0" stroke-width="2" points="1457.7404,-982.4132 1454.2403,-972.4133 1450.7404,-982.4133 1457.7404,-982.4132"/>
</g>
<!-- 65&#45;&gt;56 -->
<g id="edge109" class="edge">
<title>65&#45;&gt;56</title>
<path fill="none" stroke="#c0c0c0" stroke-width="2" d="M1503.5093,-938.0209C1535.0167,-927.8022 1576.2539,-914.428 1610.5343,-903.31"/>
<polygon fill="#c0c0c0" stroke="#c0c0c0" stroke-width="2" points="1612.0341,-906.5032 1620.4666,-900.0888 1609.8746,-899.8446 1612.0341,-906.5032"/>
</g>
<!-- 65&#45;&gt;57 -->
<g id="edge113" class="edge">
<title>65&#45;&gt;57</title>
<path fill="none" stroke="#c0c0c0" stroke-width="2" d="M1503.4015,-937.8696C1506.3747,-937.1665 1509.3369,-936.534 1512.2403,-936 1647.7526,-911.0766 2034.0951,-894.0151 2238.9705,-886.4393"/>
<polygon fill="#c0c0c0" stroke="#c0c0c0" stroke-width="2" points="2239.3246,-889.9288 2249.1892,-886.0638 2239.0674,-882.9335 2239.3246,-889.9288"/>
</g>
<!-- 65&#45;&gt;58 -->
<g id="edge117" class="edge">
<title>65&#45;&gt;58</title>
<path fill="none" stroke="#c0c0c0" stroke-width="2" d="M1405.0825,-938.1993C1373.0633,-927.9074 1330.9125,-914.3589 1296.0201,-903.1435"/>
<polygon fill="#c0c0c0" stroke="#c0c0c0" stroke-width="2" points="1296.9769,-899.7748 1286.3855,-900.0467 1294.8348,-906.439 1296.9769,-899.7748"/>
</g>
<!-- 65&#45;&gt;59 -->
<g id="edge121" class="edge">
<title>65&#45;&gt;59</title>
<path fill="none" stroke="#c0c0c0" stroke-width="2" d="M1405.0795,-937.8676C1402.1061,-937.165 1399.1438,-936.5332 1396.2403,-936 1259.212,-910.8388 868.0913,-893.846 661.6009,-886.3535"/>
<polygon fill="#c0c0c0" stroke="#c0c0c0" stroke-width="2" points="661.7259,-882.8558 651.6062,-885.993 661.4735,-889.8512 661.7259,-882.8558"/>
</g>
<!-- 66 -->
<g id="node67" class="node">
<title>66</title>
<path fill="none" stroke="#56b9d8" stroke-width="2" stroke-dasharray="5,2" d="M2513.2403,-972C2513.2403,-972 2227.2403,-972 2227.2403,-972 2221.2403,-972 2215.2403,-966 2215.2403,-960 2215.2403,-960 2215.2403,-948 2215.2403,-948 2215.2403,-942 2221.2403,-936 2227.2403,-936 2227.2403,-936 2513.2403,-936 2513.2403,-936 2519.2403,-936 2525.2403,-942 2525.2403,-948 2525.2403,-948 2525.2403,-960 2525.2403,-960 2525.2403,-966 2519.2403,-972 2513.2403,-972"/>
<text text-anchor="middle" x="2370.2403" y="-957" font-family="sans" font-size="10.00" fill="#000000">pull_lane_fastq_from_nisc_or_sra</text>
<text text-anchor="middle" x="2370.2403" y="-946" font-family="sans" font-size="10.00" fill="#000000">lane_files: HN7NJBBXX_16871585_S2_L002_R1_001.fastq.gz</text>
</g>
<!-- 66&#45;&gt;57 -->
<g id="edge110" class="edge">
<title>66&#45;&gt;57</title>
<path fill="none" stroke="#c0c0c0" stroke-width="2" d="M2370.2403,-935.8314C2370.2403,-928.131 2370.2403,-918.9743 2370.2403,-910.4166"/>
<polygon fill="#c0c0c0" stroke="#c0c0c0" stroke-width="2" points="2373.7404,-910.4132 2370.2403,-900.4133 2366.7404,-910.4133 2373.7404,-910.4132"/>
</g>
<!-- 67 -->
<g id="node68" class="node">
<title>67</title>
<path fill="none" stroke="#56b9d8" stroke-width="2" stroke-dasharray="5,2" d="M2841.2403,-972C2841.2403,-972 2555.2403,-972 2555.2403,-972 2549.2403,-972 2543.2403,-966 2543.2403,-960 2543.2403,-960 2543.2403,-948 2543.2403,-948 2543.2403,-942 2549.2403,-936 2555.2403,-936 2555.2403,-936 2841.2403,-936 2841.2403,-936 2847.2403,-936 2853.2403,-942 2853.2403,-948 2853.2403,-948 2853.2403,-960 2853.2403,-960 2853.2403,-966 2847.2403,-972 2841.2403,-972"/>
<text text-anchor="middle" x="2698.2403" y="-957" font-family="sans" font-size="10.00" fill="#000000">pull_lane_fastq_from_nisc_or_sra</text>
<text text-anchor="middle" x="2698.2403" y="-946" font-family="sans" font-size="10.00" fill="#000000">lane_files: HN7NJBBXX_16871585_S2_L002_R2_001.fastq.gz</text>
</g>
<!-- 67&#45;&gt;57 -->
<g id="edge111" class="edge">
<title>67&#45;&gt;57</title>
<path fill="none" stroke="#c0c0c0" stroke-width="2" d="M2615.8954,-935.9243C2569.115,-925.6554 2510.4341,-912.7743 2462.157,-902.1768"/>
<polygon fill="#c0c0c0" stroke="#c0c0c0" stroke-width="2" points="2462.8524,-898.7462 2452.3345,-900.0207 2461.3515,-905.5834 2462.8524,-898.7462"/>
</g>
<!-- 68 -->
<g id="node69" class="node">
<title>68</title>
<path fill="none" stroke="#56b9d8" stroke-width="2" stroke-dasharray="5,2" d="M1005.2403,-972C1005.2403,-972 715.2403,-972 715.2403,-972 709.2403,-972 703.2403,-966 703.2403,-960 703.2403,-960 703.2403,-948 703.2403,-948 703.2403,-942 709.2403,-936 715.2403,-936 715.2403,-936 1005.2403,-936 1005.2403,-936 1011.2403,-936 1017.2403,-942 1017.2403,-948 1017.2403,-948 1017.2403,-960 1017.2403,-960 1017.2403,-966 1011.2403,-972 1005.2403,-972"/>
<text text-anchor="middle" x="860.2403" y="-957" font-family="sans" font-size="10.00" fill="#000000">pull_lane_fastq_from_nisc_or_sra</text>
<text text-anchor="middle" x="860.2403" y="-946" font-family="sans" font-size="10.00" fill="#000000">lane_files: HN7TMBBXX_16871599_S8_L004_R1_001.fastq.gz</text>
</g>
<!-- 68&#45;&gt;58 -->
<g id="edge114" class="edge">
<title>68&#45;&gt;58</title>
<path fill="none" stroke="#c0c0c0" stroke-width="2" d="M953.1293,-935.9243C1006.2303,-925.5911 1072.9245,-912.6128 1127.5756,-901.978"/>
<polygon fill="#c0c0c0" stroke="#c0c0c0" stroke-width="2" points="1128.4867,-905.3664 1137.634,-900.0207 1127.1495,-898.4953 1128.4867,-905.3664"/>
</g>
<!-- 69 -->
<g id="node70" class="node">
<title>69</title>
<path fill="none" stroke="#56b9d8" stroke-width="2" stroke-dasharray="5,2" d="M1375.2403,-972C1375.2403,-972 1085.2403,-972 1085.2403,-972 1079.2403,-972 1073.2403,-966 1073.2403,-960 1073.2403,-960 1073.2403,-948 1073.2403,-948 1073.2403,-942 1079.2403,-936 1085.2403,-936 1085.2403,-936 1375.2403,-936 1375.2403,-936 1381.2403,-936 1387.2403,-942 1387.2403,-948 1387.2403,-948 1387.2403,-960 1387.2403,-960 1387.2403,-966 1381.2403,-972 1375.2403,-972"/>
<text text-anchor="middle" x="1230.2403" y="-957" font-family="sans" font-size="10.00" fill="#000000">pull_lane_fastq_from_nisc_or_sra</text>
<text text-anchor="middle" x="1230.2403" y="-946" font-family="sans" font-size="10.00" fill="#000000">lane_files: HN7TMBBXX_16871599_S8_L004_R2_001.fastq.gz</text>
</g>
<!-- 69&#45;&gt;58 -->
<g id="edge115" class="edge">
<title>69&#45;&gt;58</title>
<path fill="none" stroke="#c0c0c0" stroke-width="2" d="M1230.2403,-935.8314C1230.2403,-928.131 1230.2403,-918.9743 1230.2403,-910.4166"/>
<polygon fill="#c0c0c0" stroke="#c0c0c0" stroke-width="2" points="1233.7404,-910.4132 1230.2403,-900.4133 1226.7404,-910.4133 1233.7404,-910.4132"/>
</g>
<!-- 70 -->
<g id="node71" class="node">
<title>70</title>
<path fill="none" stroke="#56b9d8" stroke-width="2" stroke-dasharray="5,2" d="M673.2403,-972C673.2403,-972 387.2403,-972 387.2403,-972 381.2403,-972 375.2403,-966 375.2403,-960 375.2403,-960 375.2403,-948 375.2403,-948 375.2403,-942 381.2403,-936 387.2403,-936 387.2403,-936 673.2403,-936 673.2403,-936 679.2403,-936 685.2403,-942 685.2403,-948 685.2403,-948 685.2403,-960 685.2403,-960 685.2403,-966 679.2403,-972 673.2403,-972"/>
<text text-anchor="middle" x="530.2403" y="-957" font-family="sans" font-size="10.00" fill="#000000">pull_lane_fastq_from_nisc_or_sra</text>
<text text-anchor="middle" x="530.2403" y="-946" font-family="sans" font-size="10.00" fill="#000000">lane_files: HN7NJBBXX_16871601_S3_L001_R1_001.fastq.gz</text>
</g>
<!-- 70&#45;&gt;59 -->
<g id="edge118" class="edge">
<title>70&#45;&gt;59</title>
<path fill="none" stroke="#c0c0c0" stroke-width="2" d="M530.2403,-935.8314C530.2403,-928.131 530.2403,-918.9743 530.2403,-910.4166"/>
<polygon fill="#c0c0c0" stroke="#c0c0c0" stroke-width="2" points="533.7404,-910.4132 530.2403,-900.4133 526.7404,-910.4133 533.7404,-910.4132"/>
</g>
<!-- 71 -->
<g id="node72" class="node">
<title>71</title>
<path fill="none" stroke="#56b9d8" stroke-width="2" stroke-dasharray="5,2" d="M307.2403,-972C307.2403,-972 21.2403,-972 21.2403,-972 15.2403,-972 9.2403,-966 9.2403,-960 9.2403,-960 9.2403,-948 9.2403,-948 9.2403,-942 15.2403,-936 21.2403,-936 21.2403,-936 307.2403,-936 307.2403,-936 313.2403,-936 319.2403,-942 319.2403,-948 319.2403,-948 319.2403,-960 319.2403,-960 319.2403,-966 313.2403,-972 307.2403,-972"/>
<text text-anchor="middle" x="164.2403" y="-957" font-family="sans" font-size="10.00" fill="#000000">pull_lane_fastq_from_nisc_or_sra</text>
<text text-anchor="middle" x="164.2403" y="-946" font-family="sans" font-size="10.00" fill="#000000">lane_files: HN7NJBBXX_16871601_S3_L001_R2_001.fastq.gz</text>
</g>
<!-- 71&#45;&gt;59 -->
<g id="edge119" class="edge">
<title>71&#45;&gt;59</title>
<path fill="none" stroke="#c0c0c0" stroke-width="2" d="M256.1251,-935.9243C308.6521,-925.5911 374.6252,-912.6128 428.6855,-901.978"/>
<polygon fill="#c0c0c0" stroke="#c0c0c0" stroke-width="2" points="429.4988,-905.3852 438.6351,-900.0207 428.1476,-898.5168 429.4988,-905.3852"/>
</g>
</g>
</svg>
